<?xml version="1.0" encoding="utf-8" standalone="no"?>
<!DOCTYPE svg PUBLIC "-//W3C//DTD SVG 1.1//EN"
  "http://www.w3.org/Graphics/SVG/1.1/DTD/svg11.dtd">
<!-- Created with matplotlib (http://matplotlib.org/) -->
<svg height="852pt" version="1.1" viewBox="0 0 1222 852" width="1222pt" xmlns="http://www.w3.org/2000/svg" xmlns:xlink="http://www.w3.org/1999/xlink">
 <defs>
  <style type="text/css">
*{stroke-linecap:butt;stroke-linejoin:round;stroke-miterlimit:100000;}
  </style>
 </defs>
 <g id="figure_1">
  <g id="patch_1">
   <path d="M 0 852.48 
L 1222.116285 852.48 
L 1222.116285 0 
L 0 0 
z
" style="fill:#ffffff;"/>
  </g>
  <g id="axes_1">
   <g id="patch_2">
    <path d="M 198.86673 707.195707 
L 1133.28 707.195707 
L 1133.28 55.998129 
L 198.86673 55.998129 
z
" style="fill:#ffffff;"/>
   </g>
   <g id="line2d_1">
    <path clip-path="url(#p4a7f8d323f)" d="M 216.836216 586.715518 
L 225.481906 573.656837 
L 232.622619 563.22656 
L 240.303238 552.360042 
L 247.233757 542.862979 
L 254.64035 533.031182 
L 262.381696 523.099631 
L 271.352375 512.022896 
L 280.091138 501.669046 
L 287.881301 492.794491 
L 296.028805 483.863607 
L 304.816383 474.624326 
L 312.653333 466.721102 
L 320.82458 458.810942 
L 328.318311 451.846398 
L 337.024148 444.095259 
L 344.254418 437.929157 
L 352.429795 431.246351 
L 359.961401 425.355054 
L 368.265807 419.146638 
L 376.070282 413.579621 
L 385.15985 407.413629 
L 393.393923 402.114549 
L 401.498538 397.156798 
L 409.600297 392.448987 
L 418.210387 387.709283 
L 425.972144 383.661859 
L 435.168493 379.13335 
L 444.906423 374.642089 
L 452.59075 371.310179 
L 462.185363 367.40208 
L 471.169516 363.98602 
L 478.597707 361.331803 
L 489.756912 357.620416 
L 498.461299 354.944278 
L 508.609217 352.052773 
L 518.246063 349.521621 
L 529.38061 346.840536 
L 539.421662 344.630959 
L 548.652081 342.761071 
L 562.579684 340.206607 
L 573.523445 338.402604 
L 588.947783 336.124597 
L 603.497164 334.217023 
L 617.237987 332.590002 
L 640.99491 330.066565 
L 681.139049 326.162008 
L 707.273239 323.491457 
L 725.710932 321.380542 
L 742.152113 319.256595 
L 753.546446 317.616039 
L 766.071092 315.624711 
L 779.199272 313.296336 
L 791.774717 310.805169 
L 802.037787 308.562865 
L 813.780005 305.745479 
L 823.414106 303.217611 
L 832.405127 300.67049 
L 842.424501 297.605223 
L 851.870886 294.483823 
L 861.367643 291.106952 
L 870.097774 287.780945 
L 878.927498 284.190951 
L 887.978299 280.264877 
L 897.314635 275.942662 
L 905.337624 271.998793 
L 912.596758 268.24098 
L 922.22062 262.971933 
L 931.545947 257.543074 
L 939.267703 252.79859 
L 945.359777 248.891502 
L 954.742584 242.583073 
L 962.130633 237.360846 
L 970.031674 231.520347 
L 977.325588 225.888116 
L 985.828719 219.023057 
L 993.577505 212.479555 
L 1001.59934 205.409376 
L 1008.647933 198.942585 
L 1017.275871 190.695258 
L 1025.709167 182.273023 
L 1033.153566 174.534959 
L 1041.540801 165.468327 
L 1048.785217 157.333616 
L 1055.397716 149.658078 
L 1062.29614 141.391332 
L 1071.284265 130.215462 
L 1079.496007 119.596311 
L 1088.351232 107.698394 
L 1095.984677 97.062698 
L 1103.908303 85.643985 
L 1112.54837 72.744894 
L 1115.310514 68.521159 
L 1115.310514 68.521159 
" style="fill:none;stroke:#00ff66;stroke-linecap:square;stroke-width:5.0;"/>
   </g>
   <g id="line2d_2">
    <path clip-path="url(#p4a7f8d323f)" d="M 216.836216 640.694097 
L 226.111651 626.702731 
L 233.670534 615.701173 
L 241.021807 605.340451 
L 248.446109 595.209917 
L 254.907603 586.661063 
L 263.65866 575.473356 
L 270.916096 566.529596 
L 279.830259 555.950572 
L 286.636731 548.168697 
L 295.50517 538.405532 
L 302.533014 530.96492 
L 311.37405 521.968417 
L 319.63219 513.923101 
L 327.257601 506.794177 
L 335.967055 498.995812 
L 345.307131 491.03014 
L 354.620328 483.485527 
L 362.243904 477.597509 
L 371.072244 471.093865 
L 380.489529 464.518264 
L 389.300665 458.693847 
L 397.982506 453.255259 
L 406.391112 448.263182 
L 415.652956 443.06786 
L 424.135408 438.5793 
L 432.482851 434.405065 
L 440.177885 430.763287 
L 449.41562 426.643281 
L 458.301953 422.929438 
L 467.292337 419.410646 
L 477.091078 415.836586 
L 486.621049 412.609386 
L 496.726837 409.441335 
L 507.556593 406.320256 
L 516.810322 403.864556 
L 527.023332 401.365852 
L 537.647488 398.986268 
L 549.157178 396.641555 
L 561.829165 394.315181 
L 575.442914 392.081628 
L 589.83141 389.981113 
L 607.423004 387.715147 
L 624.242042 385.792273 
L 648.920826 383.257722 
L 706.710771 377.530832 
L 725.651992 375.366283 
L 739.486651 373.597798 
L 755.14781 371.351533 
L 766.373469 369.552556 
L 779.519793 367.214716 
L 790.946983 364.956143 
L 802.349356 362.470249 
L 812.548892 360.032703 
L 823.486647 357.176381 
L 831.61897 354.879299 
L 842.581662 351.533744 
L 850.950774 348.776658 
L 860.280592 345.484591 
L 869.506565 341.991671 
L 878.875274 338.19145 
L 887.941413 334.259977 
L 896.339866 330.385772 
L 906.498205 325.388819 
L 914.562937 321.170014 
L 923.817274 316.043903 
L 932.512114 310.940525 
L 939.85258 306.408403 
L 948.517746 300.786666 
L 956.503199 295.337815 
L 963.188014 290.573263 
L 971.964656 284.029043 
L 980.409318 277.414649 
L 987.637865 271.498687 
L 995.638189 264.670954 
L 1002.688248 258.40461 
L 1010.851074 250.850221 
L 1018.723591 243.25363 
L 1027.749991 234.158857 
L 1035.436443 226.082641 
L 1042.745344 218.113995 
L 1050.59032 209.240802 
L 1058.07517 200.459816 
L 1066.963848 189.623809 
L 1075.699743 178.533124 
L 1083.696757 167.989105 
L 1090.222786 159.102111 
L 1097.948819 148.246986 
L 1106.150935 136.319703 
L 1113.743916 124.901295 
L 1115.310514 122.499738 
L 1115.310514 122.499738 
" style="fill:none;stroke:#0066ff;stroke-linecap:square;stroke-width:5.0;"/>
   </g>
   <g id="line2d_3">
    <path clip-path="url(#p4a7f8d323f)" d="M 216.836216 694.672676 
L 224.60275 682.920247 
L 232.211653 671.775392 
L 240.669924 659.807441 
L 249.122154 648.282454 
L 257.341773 637.48294 
L 265.310249 627.390163 
L 271.668641 619.597882 
L 280.417919 609.247257 
L 287.583936 601.084344 
L 295.230105 592.680618 
L 303.17216 584.279617 
L 311.685908 575.636946 
L 318.717623 568.775907 
L 326.470815 561.495183 
L 334.361848 554.384503 
L 341.668704 548.063564 
L 350.804658 540.507844 
L 359.759969 533.466518 
L 369.144089 526.464491 
L 377.023565 520.874226 
L 385.369163 515.232746 
L 393.578043 509.956265 
L 401.995748 504.817965 
L 410.255664 500.03594 
L 418.171706 495.68714 
L 426.758076 491.220823 
L 435.85186 486.765276 
L 442.792605 483.548248 
L 450.715064 480.063766 
L 459.077609 476.595119 
L 467.117451 473.455452 
L 478.058174 469.476697 
L 486.738904 466.549538 
L 495.095012 463.914356 
L 503.15742 461.533589 
L 512.63205 458.928647 
L 524.678253 455.899294 
L 534.819441 453.577333 
L 545.583952 451.323352 
L 557.844642 448.998101 
L 570.608752 446.823982 
L 583.263785 444.887929 
L 599.358153 442.695667 
L 617.046641 440.568827 
L 640.454392 438.078162 
L 713.53853 430.758243 
L 731.908939 428.567487 
L 747.345324 426.484811 
L 760.666235 424.467052 
L 774.394455 422.136278 
L 787.255643 419.68876 
L 799.041493 417.195125 
L 810.866586 414.427919 
L 820.390109 411.990096 
L 830.824318 409.089111 
L 840.632088 406.128906 
L 849.889427 403.114953 
L 859.300052 399.820316 
L 867.002996 396.942083 
L 877.854364 392.596887 
L 885.176653 389.464602 
L 894.716261 385.131153 
L 904.502771 380.376473 
L 912.530149 376.233454 
L 922.097447 370.998642 
L 930.628394 366.048841 
L 937.947879 361.582999 
L 946.540784 356.074195 
L 955.410003 350.077804 
L 964.404677 343.664393 
L 972.90698 337.285143 
L 981.581491 330.449988 
L 989.77694 323.680818 
L 998.540854 316.098172 
L 1005.807433 309.534759 
L 1014.546307 301.301531 
L 1022.462768 293.51512 
L 1029.44539 286.38254 
L 1037.419586 277.927173 
L 1045.950133 268.508154 
L 1054.383644 258.80802 
L 1061.987785 249.723727 
L 1070.521101 239.139569 
L 1077.756615 229.835779 
L 1086.574434 218.080491 
L 1093.491146 208.533156 
L 1100.783014 198.151503 
L 1109.475426 185.343862 
L 1115.310514 176.478317 
L 1115.310514 176.478317 
" style="fill:none;stroke:#cc00ff;stroke-linecap:square;stroke-width:5.0;"/>
   </g>
   <g id="patch_3">
    <path d="M 198.86673 55.998129 
L 1133.28 55.998129 
" style="fill:none;stroke:#000000;stroke-linecap:square;stroke-linejoin:miter;stroke-width:0.8;"/>
   </g>
   <g id="patch_4">
    <path d="M 1133.28 707.195707 
L 1133.28 55.998129 
" style="fill:none;stroke:#000000;stroke-linecap:square;stroke-linejoin:miter;stroke-width:0.8;"/>
   </g>
   <g id="patch_5">
    <path d="M 198.86673 707.195707 
L 1133.28 707.195707 
" style="fill:none;stroke:#000000;stroke-linecap:square;stroke-linejoin:miter;stroke-width:0.8;"/>
   </g>
   <g id="patch_6">
    <path d="M 198.86673 707.195707 
L 198.86673 55.998129 
" style="fill:none;stroke:#000000;stroke-linecap:square;stroke-linejoin:miter;stroke-width:0.8;"/>
   </g>
   <g id="matplotlib.axis_1">
    <g id="xtick_1">
     <g id="line2d_4">
      <path clip-path="url(#p4a7f8d323f)" d="M 216.836216 707.195707 
L 216.836216 55.998129 
" style="fill:none;stroke:#000000;stroke-dasharray:1.000000,3.000000;stroke-dashoffset:0.0;stroke-width:0.5;"/>
     </g>
     <g id="line2d_5">
      <defs>
       <path d="M 0 0 
L 0 -4 
" id="m5068e35bda" style="stroke:#000000;stroke-width:0.5;"/>
      </defs>
      <g>
       <use style="stroke:#000000;stroke-width:0.5;" x="216.836216068" xlink:href="#m5068e35bda" y="707.195706725"/>
      </g>
     </g>
     <g id="line2d_6">
      <defs>
       <path d="M 0 0 
L 0 4 
" id="m7cc014580e" style="stroke:#000000;stroke-width:0.5;"/>
      </defs>
      <g>
       <use style="stroke:#000000;stroke-width:0.5;" x="216.836216068" xlink:href="#m7cc014580e" y="55.998128843"/>
      </g>
     </g>
     <g id="text_1">
      <!-- -2 -->
      <defs>
       <path d="M 50.59375 8.71875 
L 13.296875 8.71875 
C 14.203125 14.53125 17.40625 18.234375 26.09375 23.34375 
L 36.09375 28.75 
C 46 34.15625 51.09375 41.453125 51.09375 50.171875 
C 51.09375 56.078125 48.703125 61.59375 44.5 65.390625 
C 40.296875 69.203125 35.09375 71 28.40625 71 
C 19.40625 71 12.703125 67.796875 8.796875 61.796875 
C 6.296875 57.984375 5.203125 53.578125 5 46.359375 
L 13.796875 46.359375 
C 14.09375 51.171875 14.703125 54.078125 15.90625 56.375 
C 18.203125 60.6875 22.796875 63.296875 28.09375 63.296875 
C 36.09375 63.296875 42.09375 57.578125 42.09375 49.96875 
C 42.09375 44.359375 38.796875 39.546875 32.5 35.953125 
L 23.296875 30.75 
C 8.5 22.34375 4.203125 15.625 3.40625 0 
L 50.59375 0 
z
" id="Nimbus_Sans_L_Regular-50"/>
       <path d="M 28.40625 31.203125 
L 4.59375 31.203125 
L 4.59375 24 
L 28.40625 24 
z
" id="Nimbus_Sans_L_Regular-45"/>
      </defs>
      <g transform="translate(192.92315871 749.52663615)scale(0.54 -0.54)">
       <use transform="scale(0.996264009963)" xlink:href="#Nimbus_Sans_L_Regular-45"/>
       <use transform="translate(33.1752297293 0.0)scale(0.996264009963)" xlink:href="#Nimbus_Sans_L_Regular-50"/>
      </g>
     </g>
    </g>
    <g id="xtick_2">
     <g id="line2d_7">
      <path clip-path="url(#p4a7f8d323f)" d="M 441.454791 707.195707 
L 441.454791 55.998129 
" style="fill:none;stroke:#000000;stroke-dasharray:1.000000,3.000000;stroke-dashoffset:0.0;stroke-width:0.5;"/>
     </g>
     <g id="line2d_8">
      <g>
       <use style="stroke:#000000;stroke-width:0.5;" x="441.454790561" xlink:href="#m5068e35bda" y="707.195706725"/>
      </g>
     </g>
     <g id="line2d_9">
      <g>
       <use style="stroke:#000000;stroke-width:0.5;" x="441.454790561" xlink:href="#m7cc014580e" y="55.998128843"/>
      </g>
     </g>
     <g id="text_2">
      <!-- -1 -->
      <defs>
       <path d="M 25.90625 50.59375 
L 25.90625 0 
L 34.703125 0 
L 34.703125 71.015625 
L 28.90625 71.015625 
C 25.796875 60.109375 23.796875 58.609375 10.203125 56.90625 
L 10.203125 50.59375 
z
" id="Nimbus_Sans_L_Regular-49"/>
      </defs>
      <g transform="translate(417.541733203 749.52663615)scale(0.54 -0.54)">
       <use transform="scale(0.996264009963)" xlink:href="#Nimbus_Sans_L_Regular-45"/>
       <use transform="translate(33.1752297293 0.0)scale(0.996264009963)" xlink:href="#Nimbus_Sans_L_Regular-49"/>
      </g>
     </g>
    </g>
    <g id="xtick_3">
     <g id="line2d_10">
      <path clip-path="url(#p4a7f8d323f)" d="M 666.073365 707.195707 
L 666.073365 55.998129 
" style="fill:none;stroke:#000000;stroke-dasharray:1.000000,3.000000;stroke-dashoffset:0.0;stroke-width:0.5;"/>
     </g>
     <g id="line2d_11">
      <g>
       <use style="stroke:#000000;stroke-width:0.5;" x="666.073365054" xlink:href="#m5068e35bda" y="707.195706725"/>
      </g>
     </g>
     <g id="line2d_12">
      <g>
       <use style="stroke:#000000;stroke-width:0.5;" x="666.073365054" xlink:href="#m7cc014580e" y="55.998128843"/>
      </g>
     </g>
     <g id="text_3">
      <!-- 0 -->
      <defs>
       <path d="M 27.5 71 
C 20.90625 71 14.90625 68.125 11.203125 63.21875 
C 6.59375 57.046875 4.296875 47.5625 4.296875 34.5 
C 4.296875 10.671875 12.296875 -2 27.5 -2 
C 42.5 -2 50.703125 10.671875 50.703125 33.90625 
C 50.703125 47.65625 48.5 56.84375 43.796875 63.21875 
C 40.09375 68.21875 34.203125 71 27.5 71 
M 27.5 63.1875 
C 37 63.1875 41.703125 53.625 41.703125 34.703125 
C 41.703125 14.671875 37.09375 5.3125 27.296875 5.3125 
C 18 5.3125 13.296875 15.078125 13.296875 34.40625 
C 13.296875 53.71875 18 63.1875 27.5 63.1875 
" id="Nimbus_Sans_L_Regular-48"/>
      </defs>
      <g transform="translate(651.117615923 749.52663615)scale(0.54 -0.54)">
       <use transform="scale(0.996264009963)" xlink:href="#Nimbus_Sans_L_Regular-48"/>
      </g>
     </g>
    </g>
    <g id="xtick_4">
     <g id="line2d_13">
      <path clip-path="url(#p4a7f8d323f)" d="M 890.69194 707.195707 
L 890.69194 55.998129 
" style="fill:none;stroke:#000000;stroke-dasharray:1.000000,3.000000;stroke-dashoffset:0.0;stroke-width:0.5;"/>
     </g>
     <g id="line2d_14">
      <g>
       <use style="stroke:#000000;stroke-width:0.5;" x="890.691939547" xlink:href="#m5068e35bda" y="707.195706725"/>
      </g>
     </g>
     <g id="line2d_15">
      <g>
       <use style="stroke:#000000;stroke-width:0.5;" x="890.691939547" xlink:href="#m7cc014580e" y="55.998128843"/>
      </g>
     </g>
     <g id="text_4">
      <!-- 1 -->
      <g transform="translate(875.736190416 749.52663615)scale(0.54 -0.54)">
       <use transform="scale(0.996264009963)" xlink:href="#Nimbus_Sans_L_Regular-49"/>
      </g>
     </g>
    </g>
    <g id="xtick_5">
     <g id="line2d_16">
      <path clip-path="url(#p4a7f8d323f)" d="M 1115.310514 707.195707 
L 1115.310514 55.998129 
" style="fill:none;stroke:#000000;stroke-dasharray:1.000000,3.000000;stroke-dashoffset:0.0;stroke-width:0.5;"/>
     </g>
     <g id="line2d_17">
      <g>
       <use style="stroke:#000000;stroke-width:0.5;" x="1115.31051404" xlink:href="#m5068e35bda" y="707.195706725"/>
      </g>
     </g>
     <g id="line2d_18">
      <g>
       <use style="stroke:#000000;stroke-width:0.5;" x="1115.31051404" xlink:href="#m7cc014580e" y="55.998128843"/>
      </g>
     </g>
     <g id="text_5">
      <!-- 2 -->
      <g transform="translate(1100.35476491 749.52663615)scale(0.54 -0.54)">
       <use transform="scale(0.996264009963)" xlink:href="#Nimbus_Sans_L_Regular-50"/>
      </g>
     </g>
    </g>
    <g id="xtick_6">
     <g id="line2d_19">
      <defs>
       <path d="M 0 0 
L 0 -2 
" id="m4ee44460b0" style="stroke:#000000;stroke-width:0.5;"/>
      </defs>
      <g>
       <use style="stroke:#000000;stroke-width:0.5;" x="261.759930967" xlink:href="#m4ee44460b0" y="707.195706725"/>
      </g>
     </g>
     <g id="line2d_20">
      <defs>
       <path d="M 0 0 
L 0 2 
" id="m5638a581fa" style="stroke:#000000;stroke-width:0.5;"/>
      </defs>
      <g>
       <use style="stroke:#000000;stroke-width:0.5;" x="261.759930967" xlink:href="#m5638a581fa" y="55.998128843"/>
      </g>
     </g>
    </g>
    <g id="xtick_7">
     <g id="line2d_21">
      <g>
       <use style="stroke:#000000;stroke-width:0.5;" x="306.683645865" xlink:href="#m4ee44460b0" y="707.195706725"/>
      </g>
     </g>
     <g id="line2d_22">
      <g>
       <use style="stroke:#000000;stroke-width:0.5;" x="306.683645865" xlink:href="#m5638a581fa" y="55.998128843"/>
      </g>
     </g>
    </g>
    <g id="xtick_8">
     <g id="line2d_23">
      <g>
       <use style="stroke:#000000;stroke-width:0.5;" x="351.607360764" xlink:href="#m4ee44460b0" y="707.195706725"/>
      </g>
     </g>
     <g id="line2d_24">
      <g>
       <use style="stroke:#000000;stroke-width:0.5;" x="351.607360764" xlink:href="#m5638a581fa" y="55.998128843"/>
      </g>
     </g>
    </g>
    <g id="xtick_9">
     <g id="line2d_25">
      <g>
       <use style="stroke:#000000;stroke-width:0.5;" x="396.531075663" xlink:href="#m4ee44460b0" y="707.195706725"/>
      </g>
     </g>
     <g id="line2d_26">
      <g>
       <use style="stroke:#000000;stroke-width:0.5;" x="396.531075663" xlink:href="#m5638a581fa" y="55.998128843"/>
      </g>
     </g>
    </g>
    <g id="xtick_10">
     <g id="line2d_27">
      <g>
       <use style="stroke:#000000;stroke-width:0.5;" x="441.454790561" xlink:href="#m4ee44460b0" y="707.195706725"/>
      </g>
     </g>
     <g id="line2d_28">
      <g>
       <use style="stroke:#000000;stroke-width:0.5;" x="441.454790561" xlink:href="#m5638a581fa" y="55.998128843"/>
      </g>
     </g>
    </g>
    <g id="xtick_11">
     <g id="line2d_29">
      <g>
       <use style="stroke:#000000;stroke-width:0.5;" x="486.37850546" xlink:href="#m4ee44460b0" y="707.195706725"/>
      </g>
     </g>
     <g id="line2d_30">
      <g>
       <use style="stroke:#000000;stroke-width:0.5;" x="486.37850546" xlink:href="#m5638a581fa" y="55.998128843"/>
      </g>
     </g>
    </g>
    <g id="xtick_12">
     <g id="line2d_31">
      <g>
       <use style="stroke:#000000;stroke-width:0.5;" x="531.302220359" xlink:href="#m4ee44460b0" y="707.195706725"/>
      </g>
     </g>
     <g id="line2d_32">
      <g>
       <use style="stroke:#000000;stroke-width:0.5;" x="531.302220359" xlink:href="#m5638a581fa" y="55.998128843"/>
      </g>
     </g>
    </g>
    <g id="xtick_13">
     <g id="line2d_33">
      <g>
       <use style="stroke:#000000;stroke-width:0.5;" x="576.225935257" xlink:href="#m4ee44460b0" y="707.195706725"/>
      </g>
     </g>
     <g id="line2d_34">
      <g>
       <use style="stroke:#000000;stroke-width:0.5;" x="576.225935257" xlink:href="#m5638a581fa" y="55.998128843"/>
      </g>
     </g>
    </g>
    <g id="xtick_14">
     <g id="line2d_35">
      <g>
       <use style="stroke:#000000;stroke-width:0.5;" x="621.149650156" xlink:href="#m4ee44460b0" y="707.195706725"/>
      </g>
     </g>
     <g id="line2d_36">
      <g>
       <use style="stroke:#000000;stroke-width:0.5;" x="621.149650156" xlink:href="#m5638a581fa" y="55.998128843"/>
      </g>
     </g>
    </g>
    <g id="xtick_15">
     <g id="line2d_37">
      <g>
       <use style="stroke:#000000;stroke-width:0.5;" x="666.073365054" xlink:href="#m4ee44460b0" y="707.195706725"/>
      </g>
     </g>
     <g id="line2d_38">
      <g>
       <use style="stroke:#000000;stroke-width:0.5;" x="666.073365054" xlink:href="#m5638a581fa" y="55.998128843"/>
      </g>
     </g>
    </g>
    <g id="xtick_16">
     <g id="line2d_39">
      <g>
       <use style="stroke:#000000;stroke-width:0.5;" x="710.997079953" xlink:href="#m4ee44460b0" y="707.195706725"/>
      </g>
     </g>
     <g id="line2d_40">
      <g>
       <use style="stroke:#000000;stroke-width:0.5;" x="710.997079953" xlink:href="#m5638a581fa" y="55.998128843"/>
      </g>
     </g>
    </g>
    <g id="xtick_17">
     <g id="line2d_41">
      <g>
       <use style="stroke:#000000;stroke-width:0.5;" x="755.920794852" xlink:href="#m4ee44460b0" y="707.195706725"/>
      </g>
     </g>
     <g id="line2d_42">
      <g>
       <use style="stroke:#000000;stroke-width:0.5;" x="755.920794852" xlink:href="#m5638a581fa" y="55.998128843"/>
      </g>
     </g>
    </g>
    <g id="xtick_18">
     <g id="line2d_43">
      <g>
       <use style="stroke:#000000;stroke-width:0.5;" x="800.84450975" xlink:href="#m4ee44460b0" y="707.195706725"/>
      </g>
     </g>
     <g id="line2d_44">
      <g>
       <use style="stroke:#000000;stroke-width:0.5;" x="800.84450975" xlink:href="#m5638a581fa" y="55.998128843"/>
      </g>
     </g>
    </g>
    <g id="xtick_19">
     <g id="line2d_45">
      <g>
       <use style="stroke:#000000;stroke-width:0.5;" x="845.768224649" xlink:href="#m4ee44460b0" y="707.195706725"/>
      </g>
     </g>
     <g id="line2d_46">
      <g>
       <use style="stroke:#000000;stroke-width:0.5;" x="845.768224649" xlink:href="#m5638a581fa" y="55.998128843"/>
      </g>
     </g>
    </g>
    <g id="xtick_20">
     <g id="line2d_47">
      <g>
       <use style="stroke:#000000;stroke-width:0.5;" x="890.691939547" xlink:href="#m4ee44460b0" y="707.195706725"/>
      </g>
     </g>
     <g id="line2d_48">
      <g>
       <use style="stroke:#000000;stroke-width:0.5;" x="890.691939547" xlink:href="#m5638a581fa" y="55.998128843"/>
      </g>
     </g>
    </g>
    <g id="xtick_21">
     <g id="line2d_49">
      <g>
       <use style="stroke:#000000;stroke-width:0.5;" x="935.615654446" xlink:href="#m4ee44460b0" y="707.195706725"/>
      </g>
     </g>
     <g id="line2d_50">
      <g>
       <use style="stroke:#000000;stroke-width:0.5;" x="935.615654446" xlink:href="#m5638a581fa" y="55.998128843"/>
      </g>
     </g>
    </g>
    <g id="xtick_22">
     <g id="line2d_51">
      <g>
       <use style="stroke:#000000;stroke-width:0.5;" x="980.539369345" xlink:href="#m4ee44460b0" y="707.195706725"/>
      </g>
     </g>
     <g id="line2d_52">
      <g>
       <use style="stroke:#000000;stroke-width:0.5;" x="980.539369345" xlink:href="#m5638a581fa" y="55.998128843"/>
      </g>
     </g>
    </g>
    <g id="xtick_23">
     <g id="line2d_53">
      <g>
       <use style="stroke:#000000;stroke-width:0.5;" x="1025.46308424" xlink:href="#m4ee44460b0" y="707.195706725"/>
      </g>
     </g>
     <g id="line2d_54">
      <g>
       <use style="stroke:#000000;stroke-width:0.5;" x="1025.46308424" xlink:href="#m5638a581fa" y="55.998128843"/>
      </g>
     </g>
    </g>
    <g id="xtick_24">
     <g id="line2d_55">
      <g>
       <use style="stroke:#000000;stroke-width:0.5;" x="1070.38679914" xlink:href="#m4ee44460b0" y="707.195706725"/>
      </g>
     </g>
     <g id="line2d_56">
      <g>
       <use style="stroke:#000000;stroke-width:0.5;" x="1070.38679914" xlink:href="#m5638a581fa" y="55.998128843"/>
      </g>
     </g>
    </g>
    <g id="xtick_25">
     <g id="line2d_57">
      <g>
       <use style="stroke:#000000;stroke-width:0.5;" x="1115.31051404" xlink:href="#m4ee44460b0" y="707.195706725"/>
      </g>
     </g>
     <g id="line2d_58">
      <g>
       <use style="stroke:#000000;stroke-width:0.5;" x="1115.31051404" xlink:href="#m5638a581fa" y="55.998128843"/>
      </g>
     </g>
    </g>
    <g id="text_6">
     <!-- $x$ -->
     <defs>
      <path d="M 47.40625 40.71875 
C 44.203125 40.109375 43 37.71875 43 35.828125 
C 43 33.421875 44.90625 32.625 46.296875 32.625 
C 49.296875 32.625 51.40625 35.21875 51.40625 37.921875 
C 51.40625 42.109375 46.59375 44 42.40625 44 
C 36.296875 44 32.90625 38.015625 32 36.125 
C 29.703125 44 23.5 44 21.703125 44 
C 11.5 44 6.09375 30.9375 6.09375 28.734375 
C 6.09375 28.34375 6.5 27.84375 7.203125 27.84375 
C 8 27.84375 8.203125 28.4375 8.40625 28.84375 
C 11.796875 39.921875 18.5 42.015625 21.40625 42.015625 
C 25.90625 42.015625 26.796875 37.8125 26.796875 35.421875 
C 26.796875 33.234375 26.203125 30.9375 25 26.140625 
L 21.59375 12.46875 
C 20.09375 6.484375 17.203125 1 11.90625 1 
C 11.40625 1 8.90625 1 6.796875 2.296875 
C 10.40625 3 11.203125 5.984375 11.203125 7.1875 
C 11.203125 9.1875 9.703125 10.375 7.796875 10.375 
C 5.40625 10.375 2.796875 8.28125 2.796875 5.09375 
C 2.796875 0.890625 7.5 -1 11.796875 -1 
C 16.59375 -1 20 2.796875 22.09375 6.890625 
C 23.703125 1 28.703125 -1 32.40625 -1 
C 42.59375 -1 48 12.078125 48 14.265625 
C 48 14.765625 47.59375 15.171875 47 15.171875 
C 46.09375 15.171875 46 14.671875 45.703125 13.875 
C 43 5.09375 37.203125 1 32.703125 1 
C 29.203125 1 27.296875 3.59375 27.296875 7.6875 
C 27.296875 9.875 27.703125 11.46875 29.296875 18.0625 
L 32.796875 31.625 
C 34.296875 37.625 37.703125 42.015625 42.296875 42.015625 
C 42.5 42.015625 45.296875 42.015625 47.40625 40.71875 
" id="CMMI12-120"/>
     </defs>
     <g transform="translate(642.236719455 827.030913931)scale(0.86 -0.86)">
      <use transform="scale(0.996264009963)" xlink:href="#CMMI12-120"/>
     </g>
    </g>
   </g>
   <g id="matplotlib.axis_2">
    <g id="ytick_1">
     <g id="line2d_59">
      <path clip-path="url(#p4a7f8d323f)" d="M 198.86673 651.489813 
L 1133.28 651.489813 
" style="fill:none;stroke:#000000;stroke-dasharray:1.000000,3.000000;stroke-dashoffset:0.0;stroke-width:0.5;"/>
     </g>
     <g id="line2d_60">
      <defs>
       <path d="M 0 0 
L 4 0 
" id="mad16257ae8" style="stroke:#000000;stroke-width:0.5;"/>
      </defs>
      <g>
       <use style="stroke:#000000;stroke-width:0.5;" x="198.866730109" xlink:href="#mad16257ae8" y="651.489813126"/>
      </g>
     </g>
     <g id="line2d_61">
      <defs>
       <path d="M 0 0 
L -4 0 
" id="m72da78fbf1" style="stroke:#000000;stroke-width:0.5;"/>
      </defs>
      <g>
       <use style="stroke:#000000;stroke-width:0.5;" x="1133.28" xlink:href="#m72da78fbf1" y="651.489813126"/>
      </g>
     </g>
     <g id="text_7">
      <!-- -10 -->
      <g transform="translate(117.129117129 664.925916082)scale(0.54 -0.54)">
       <use transform="scale(0.996264009963)" xlink:href="#Nimbus_Sans_L_Regular-45"/>
       <use transform="translate(33.1752297293 0.0)scale(0.996264009963)" xlink:href="#Nimbus_Sans_L_Regular-49"/>
       <use transform="translate(88.5669066927 0.0)scale(0.996264009963)" xlink:href="#Nimbus_Sans_L_Regular-48"/>
      </g>
     </g>
    </g>
    <g id="ytick_2">
     <g id="line2d_62">
      <path clip-path="url(#p4a7f8d323f)" d="M 198.86673 516.543365 
L 1133.28 516.543365 
" style="fill:none;stroke:#000000;stroke-dasharray:1.000000,3.000000;stroke-dashoffset:0.0;stroke-width:0.5;"/>
     </g>
     <g id="line2d_63">
      <g>
       <use style="stroke:#000000;stroke-width:0.5;" x="198.866730109" xlink:href="#mad16257ae8" y="516.543365455"/>
      </g>
     </g>
     <g id="line2d_64">
      <g>
       <use style="stroke:#000000;stroke-width:0.5;" x="1133.28" xlink:href="#m72da78fbf1" y="516.543365455"/>
      </g>
     </g>
     <g id="text_8">
      <!-- -5 -->
      <defs>
       <path d="M 47.59375 71 
L 11 71 
L 5.703125 32.59375 
L 13.796875 32.59375 
C 17.90625 37.484375 21.296875 39.1875 26.796875 39.1875 
C 36.296875 39.1875 42.296875 32.6875 42.296875 22.203125 
C 42.296875 12 36.40625 5.8125 26.796875 5.8125 
C 19.09375 5.8125 14.40625 9.703125 12.296875 17.703125 
L 3.5 17.703125 
C 4.703125 11.90625 5.703125 9.09375 7.796875 6.484375 
C 11.796875 1.09375 19 -2 27 -2 
C 41.296875 -2 51.296875 8.390625 51.296875 23.390625 
C 51.296875 37.40625 42 47 28.40625 47 
C 23.40625 47 19.40625 45.703125 15.296875 42.6875 
L 18.09375 62.296875 
L 47.59375 62.296875 
z
" id="Nimbus_Sans_L_Regular-53"/>
      </defs>
      <g transform="translate(147.040615392 529.979468411)scale(0.54 -0.54)">
       <use transform="scale(0.996264009963)" xlink:href="#Nimbus_Sans_L_Regular-45"/>
       <use transform="translate(33.1752297293 0.0)scale(0.996264009963)" xlink:href="#Nimbus_Sans_L_Regular-53"/>
      </g>
     </g>
    </g>
    <g id="ytick_3">
     <g id="line2d_65">
      <path clip-path="url(#p4a7f8d323f)" d="M 198.86673 381.596918 
L 1133.28 381.596918 
" style="fill:none;stroke:#000000;stroke-dasharray:1.000000,3.000000;stroke-dashoffset:0.0;stroke-width:0.5;"/>
     </g>
     <g id="line2d_66">
      <g>
       <use style="stroke:#000000;stroke-width:0.5;" x="198.866730109" xlink:href="#mad16257ae8" y="381.596917784"/>
      </g>
     </g>
     <g id="line2d_67">
      <g>
       <use style="stroke:#000000;stroke-width:0.5;" x="1133.28" xlink:href="#m72da78fbf1" y="381.596917784"/>
      </g>
     </g>
     <g id="text_9">
      <!-- 0 -->
      <g transform="translate(164.955231845 395.03302074)scale(0.54 -0.54)">
       <use transform="scale(0.996264009963)" xlink:href="#Nimbus_Sans_L_Regular-48"/>
      </g>
     </g>
    </g>
    <g id="ytick_4">
     <g id="line2d_68">
      <path clip-path="url(#p4a7f8d323f)" d="M 198.86673 246.65047 
L 1133.28 246.65047 
" style="fill:none;stroke:#000000;stroke-dasharray:1.000000,3.000000;stroke-dashoffset:0.0;stroke-width:0.5;"/>
     </g>
     <g id="line2d_69">
      <g>
       <use style="stroke:#000000;stroke-width:0.5;" x="198.866730109" xlink:href="#mad16257ae8" y="246.650470113"/>
      </g>
     </g>
     <g id="line2d_70">
      <g>
       <use style="stroke:#000000;stroke-width:0.5;" x="1133.28" xlink:href="#m72da78fbf1" y="246.650470113"/>
      </g>
     </g>
     <g id="text_10">
      <!-- 5 -->
      <g transform="translate(164.955231845 260.086573069)scale(0.54 -0.54)">
       <use transform="scale(0.996264009963)" xlink:href="#Nimbus_Sans_L_Regular-53"/>
      </g>
     </g>
    </g>
    <g id="ytick_5">
     <g id="line2d_71">
      <path clip-path="url(#p4a7f8d323f)" d="M 198.86673 111.704022 
L 1133.28 111.704022 
" style="fill:none;stroke:#000000;stroke-dasharray:1.000000,3.000000;stroke-dashoffset:0.0;stroke-width:0.5;"/>
     </g>
     <g id="line2d_72">
      <g>
       <use style="stroke:#000000;stroke-width:0.5;" x="198.866730109" xlink:href="#mad16257ae8" y="111.704022442"/>
      </g>
     </g>
     <g id="line2d_73">
      <g>
       <use style="stroke:#000000;stroke-width:0.5;" x="1133.28" xlink:href="#m72da78fbf1" y="111.704022442"/>
      </g>
     </g>
     <g id="text_11">
      <!-- 10 -->
      <g transform="translate(135.043733582 125.140125398)scale(0.54 -0.54)">
       <use transform="scale(0.996264009963)" xlink:href="#Nimbus_Sans_L_Regular-49"/>
       <use transform="translate(55.3916769633 0.0)scale(0.996264009963)" xlink:href="#Nimbus_Sans_L_Regular-48"/>
      </g>
     </g>
    </g>
    <g id="ytick_6">
     <g id="line2d_74">
      <defs>
       <path d="M 0 0 
L 2 0 
" id="m6860b59e77" style="stroke:#000000;stroke-width:0.5;"/>
      </defs>
      <g>
       <use style="stroke:#000000;stroke-width:0.5;" x="198.866730109" xlink:href="#m6860b59e77" y="705.468392195"/>
      </g>
     </g>
     <g id="line2d_75">
      <defs>
       <path d="M 0 0 
L -2 0 
" id="m5347f84b9d" style="stroke:#000000;stroke-width:0.5;"/>
      </defs>
      <g>
       <use style="stroke:#000000;stroke-width:0.5;" x="1133.28" xlink:href="#m5347f84b9d" y="705.468392195"/>
      </g>
     </g>
    </g>
    <g id="ytick_7">
     <g id="line2d_76">
      <g>
       <use style="stroke:#000000;stroke-width:0.5;" x="198.866730109" xlink:href="#m6860b59e77" y="678.47910266"/>
      </g>
     </g>
     <g id="line2d_77">
      <g>
       <use style="stroke:#000000;stroke-width:0.5;" x="1133.28" xlink:href="#m5347f84b9d" y="678.47910266"/>
      </g>
     </g>
    </g>
    <g id="ytick_8">
     <g id="line2d_78">
      <g>
       <use style="stroke:#000000;stroke-width:0.5;" x="198.866730109" xlink:href="#m6860b59e77" y="624.500523592"/>
      </g>
     </g>
     <g id="line2d_79">
      <g>
       <use style="stroke:#000000;stroke-width:0.5;" x="1133.28" xlink:href="#m5347f84b9d" y="624.500523592"/>
      </g>
     </g>
    </g>
    <g id="ytick_9">
     <g id="line2d_80">
      <g>
       <use style="stroke:#000000;stroke-width:0.5;" x="198.866730109" xlink:href="#m6860b59e77" y="597.511234058"/>
      </g>
     </g>
     <g id="line2d_81">
      <g>
       <use style="stroke:#000000;stroke-width:0.5;" x="1133.28" xlink:href="#m5347f84b9d" y="597.511234058"/>
      </g>
     </g>
    </g>
    <g id="ytick_10">
     <g id="line2d_82">
      <g>
       <use style="stroke:#000000;stroke-width:0.5;" x="198.866730109" xlink:href="#m6860b59e77" y="570.521944523"/>
      </g>
     </g>
     <g id="line2d_83">
      <g>
       <use style="stroke:#000000;stroke-width:0.5;" x="1133.28" xlink:href="#m5347f84b9d" y="570.521944523"/>
      </g>
     </g>
    </g>
    <g id="ytick_11">
     <g id="line2d_84">
      <g>
       <use style="stroke:#000000;stroke-width:0.5;" x="198.866730109" xlink:href="#m6860b59e77" y="543.532654989"/>
      </g>
     </g>
     <g id="line2d_85">
      <g>
       <use style="stroke:#000000;stroke-width:0.5;" x="1133.28" xlink:href="#m5347f84b9d" y="543.532654989"/>
      </g>
     </g>
    </g>
    <g id="ytick_12">
     <g id="line2d_86">
      <g>
       <use style="stroke:#000000;stroke-width:0.5;" x="198.866730109" xlink:href="#m6860b59e77" y="489.554075921"/>
      </g>
     </g>
     <g id="line2d_87">
      <g>
       <use style="stroke:#000000;stroke-width:0.5;" x="1133.28" xlink:href="#m5347f84b9d" y="489.554075921"/>
      </g>
     </g>
    </g>
    <g id="ytick_13">
     <g id="line2d_88">
      <g>
       <use style="stroke:#000000;stroke-width:0.5;" x="198.866730109" xlink:href="#m6860b59e77" y="462.564786387"/>
      </g>
     </g>
     <g id="line2d_89">
      <g>
       <use style="stroke:#000000;stroke-width:0.5;" x="1133.28" xlink:href="#m5347f84b9d" y="462.564786387"/>
      </g>
     </g>
    </g>
    <g id="ytick_14">
     <g id="line2d_90">
      <g>
       <use style="stroke:#000000;stroke-width:0.5;" x="198.866730109" xlink:href="#m6860b59e77" y="435.575496852"/>
      </g>
     </g>
     <g id="line2d_91">
      <g>
       <use style="stroke:#000000;stroke-width:0.5;" x="1133.28" xlink:href="#m5347f84b9d" y="435.575496852"/>
      </g>
     </g>
    </g>
    <g id="ytick_15">
     <g id="line2d_92">
      <g>
       <use style="stroke:#000000;stroke-width:0.5;" x="198.866730109" xlink:href="#m6860b59e77" y="408.586207318"/>
      </g>
     </g>
     <g id="line2d_93">
      <g>
       <use style="stroke:#000000;stroke-width:0.5;" x="1133.28" xlink:href="#m5347f84b9d" y="408.586207318"/>
      </g>
     </g>
    </g>
    <g id="ytick_16">
     <g id="line2d_94">
      <g>
       <use style="stroke:#000000;stroke-width:0.5;" x="198.866730109" xlink:href="#m6860b59e77" y="354.60762825"/>
      </g>
     </g>
     <g id="line2d_95">
      <g>
       <use style="stroke:#000000;stroke-width:0.5;" x="1133.28" xlink:href="#m5347f84b9d" y="354.60762825"/>
      </g>
     </g>
    </g>
    <g id="ytick_17">
     <g id="line2d_96">
      <g>
       <use style="stroke:#000000;stroke-width:0.5;" x="198.866730109" xlink:href="#m6860b59e77" y="327.618338715"/>
      </g>
     </g>
     <g id="line2d_97">
      <g>
       <use style="stroke:#000000;stroke-width:0.5;" x="1133.28" xlink:href="#m5347f84b9d" y="327.618338715"/>
      </g>
     </g>
    </g>
    <g id="ytick_18">
     <g id="line2d_98">
      <g>
       <use style="stroke:#000000;stroke-width:0.5;" x="198.866730109" xlink:href="#m6860b59e77" y="300.629049181"/>
      </g>
     </g>
     <g id="line2d_99">
      <g>
       <use style="stroke:#000000;stroke-width:0.5;" x="1133.28" xlink:href="#m5347f84b9d" y="300.629049181"/>
      </g>
     </g>
    </g>
    <g id="ytick_19">
     <g id="line2d_100">
      <g>
       <use style="stroke:#000000;stroke-width:0.5;" x="198.866730109" xlink:href="#m6860b59e77" y="273.639759647"/>
      </g>
     </g>
     <g id="line2d_101">
      <g>
       <use style="stroke:#000000;stroke-width:0.5;" x="1133.28" xlink:href="#m5347f84b9d" y="273.639759647"/>
      </g>
     </g>
    </g>
    <g id="ytick_20">
     <g id="line2d_102">
      <g>
       <use style="stroke:#000000;stroke-width:0.5;" x="198.866730109" xlink:href="#m6860b59e77" y="219.661180579"/>
      </g>
     </g>
     <g id="line2d_103">
      <g>
       <use style="stroke:#000000;stroke-width:0.5;" x="1133.28" xlink:href="#m5347f84b9d" y="219.661180579"/>
      </g>
     </g>
    </g>
    <g id="ytick_21">
     <g id="line2d_104">
      <g>
       <use style="stroke:#000000;stroke-width:0.5;" x="198.866730109" xlink:href="#m6860b59e77" y="192.671891044"/>
      </g>
     </g>
     <g id="line2d_105">
      <g>
       <use style="stroke:#000000;stroke-width:0.5;" x="1133.28" xlink:href="#m5347f84b9d" y="192.671891044"/>
      </g>
     </g>
    </g>
    <g id="ytick_22">
     <g id="line2d_106">
      <g>
       <use style="stroke:#000000;stroke-width:0.5;" x="198.866730109" xlink:href="#m6860b59e77" y="165.68260151"/>
      </g>
     </g>
     <g id="line2d_107">
      <g>
       <use style="stroke:#000000;stroke-width:0.5;" x="1133.28" xlink:href="#m5347f84b9d" y="165.68260151"/>
      </g>
     </g>
    </g>
    <g id="ytick_23">
     <g id="line2d_108">
      <g>
       <use style="stroke:#000000;stroke-width:0.5;" x="198.866730109" xlink:href="#m6860b59e77" y="138.693311976"/>
      </g>
     </g>
     <g id="line2d_109">
      <g>
       <use style="stroke:#000000;stroke-width:0.5;" x="1133.28" xlink:href="#m5347f84b9d" y="138.693311976"/>
      </g>
     </g>
    </g>
    <g id="ytick_24">
     <g id="line2d_110">
      <g>
       <use style="stroke:#000000;stroke-width:0.5;" x="198.866730109" xlink:href="#m6860b59e77" y="84.7147329074"/>
      </g>
     </g>
     <g id="line2d_111">
      <g>
       <use style="stroke:#000000;stroke-width:0.5;" x="1133.28" xlink:href="#m5347f84b9d" y="84.7147329074"/>
      </g>
     </g>
    </g>
    <g id="ytick_25">
     <g id="line2d_112">
      <g>
       <use style="stroke:#000000;stroke-width:0.5;" x="198.866730109" xlink:href="#m6860b59e77" y="57.7254433732"/>
      </g>
     </g>
     <g id="line2d_113">
      <g>
       <use style="stroke:#000000;stroke-width:0.5;" x="1133.28" xlink:href="#m5347f84b9d" y="57.7254433732"/>
      </g>
     </g>
    </g>
    <g id="text_12">
     <!-- $\frac{{d}x}{{d}t}$ -->
     <defs>
      <path d="M 20.09375 40.09375 
L 29.296875 40.09375 
C 31.203125 40.09375 32.203125 40.09375 32.203125 41.890625 
C 32.203125 43 31.59375 43 29.59375 43 
L 20.796875 43 
L 24.5 57.6875 
C 24.90625 59.078125 24.90625 59.28125 24.90625 60 
C 24.90625 61.609375 23.59375 62.5 22.296875 62.5 
C 21.5 62.5 19.203125 62.203125 18.40625 58.984375 
L 14.5 43 
L 5.09375 43 
C 3.09375 43 2.203125 43 2.203125 41.09375 
C 2.203125 40.09375 2.90625 40.09375 4.796875 40.09375 
L 13.703125 40.09375 
L 7.09375 13.765625 
C 6.296875 10.28125 6 9.28125 6 7.984375 
C 6 3.296875 9.296875 -1 14.90625 -1 
C 25 -1 30.40625 13.5625 30.40625 14.25 
C 30.40625 14.859375 30 15.15625 29.40625 15.15625 
C 29.203125 15.15625 28.796875 15.15625 28.59375 14.75 
C 28.5 14.65625 28.40625 14.546875 27.703125 12.953125 
C 25.59375 7.984375 21 1 15.203125 1 
C 12.203125 1 12 3.5 12 5.6875 
C 12 5.78125 12 7.6875 12.296875 8.875 
z
" id="CMMI12-116"/>
      <path d="M 50.296875 66.515625 
C 50.40625 66.90625 50.59375 67.5 50.59375 68 
C 50.59375 69 49.59375 69 49.40625 69 
C 49.296875 69 44.40625 68.5625 43.90625 68.4375 
C 42.203125 68.328125 40.703125 68.09375 38.90625 68.09375 
C 36.40625 67.890625 35.703125 67.796875 35.703125 66 
C 35.703125 65 36.5 65 37.90625 65 
C 42.796875 65 42.90625 64.109375 42.90625 63.125 
C 42.90625 62.53125 42.703125 61.75 42.59375 61.453125 
L 36.5 37.421875 
C 35.40625 40.015625 32.703125 44 27.5 44 
C 16.203125 44 4 29.4375 4 14.671875 
C 4 4.796875 9.796875 -1 16.59375 -1 
C 22.09375 -1 26.796875 3.296875 29.59375 6.59375 
C 30.59375 0.703125 35.296875 -1 38.296875 -1 
C 41.296875 -1 43.703125 0.796875 45.5 4.390625 
C 47.09375 7.78125 48.5 13.875 48.5 14.265625 
C 48.5 14.765625 48.09375 15.171875 47.5 15.171875 
C 46.59375 15.171875 46.5 14.671875 46.09375 13.171875 
C 44.59375 7.28125 42.703125 1 38.59375 1 
C 35.703125 1 35.5 3.578125 35.5 5.578125 
C 35.5 5.96875 35.5 8.046875 36.203125 10.84375 
z
M 30.09375 11.875 
C 29.59375 10.171875 29.59375 9.984375 28.203125 8.078125 
C 26 5.28125 21.59375 1 16.90625 1 
C 12.796875 1 10.5 4.6875 10.5 10.578125 
C 10.5 16.0625 13.59375 27.234375 15.5 31.4375 
C 18.90625 38.421875 23.59375 42.015625 27.5 42.015625 
C 34.09375 42.015625 35.40625 33.828125 35.40625 33.03125 
C 35.40625 32.9375 35.09375 31.625 35 31.4375 
z
" id="CMMI12-100"/>
     </defs>
     <g transform="translate(93.8800310603 413.539845428)rotate(-90.0)scale(0.86 -0.86)">
      <use transform="translate(0.0 73.5813544666)scale(0.697381766617)" xlink:href="#CMMI12-100"/>
      <use transform="translate(35.4822066178 73.5813544666)scale(0.697381766617)" xlink:href="#CMMI12-120"/>
      <use transform="translate(7.07267485698 0.0)scale(0.697381766617)" xlink:href="#CMMI12-100"/>
      <use transform="translate(42.5548814747 0.0)scale(0.697381766617)" xlink:href="#CMMI12-116"/>
      <path d="M 0 57.269386 
L 74.285866 57.269386 
L 74.285866 61.254336 
L 0 61.254336 
L 0 57.269386 
z
"/>
     </g>
    </g>
   </g>
   <g id="text_13">
    <g id="patch_7">
     <path d="M 871.343516 692.58464 
L 1092.848657 692.58464 
Q 1109.048657 692.58464 1109.048657 676.38464 
L 1109.048657 626.594987 
Q 1109.048657 610.394987 1092.848657 610.394987 
L 871.343516 610.394987 
Q 855.143516 610.394987 855.143516 626.594987 
L 855.143516 676.38464 
Q 855.143516 692.58464 871.343516 692.58464 
z
" style="fill:#ffffff;stroke:#000000;stroke-linejoin:miter;"/>
    </g>
    <!-- $b = -0.80$ -->
    <defs>
     <path d="M 64.296875 31.515625 
C 65.796875 31.515625 67.296875 31.515625 67.296875 33.203125 
C 67.296875 35 65.59375 35 63.90625 35 
L 8 35 
C 6.296875 35 4.59375 35 4.59375 33.203125 
C 4.59375 31.515625 6.09375 31.515625 7.59375 31.515625 
z
M 63.90625 14 
C 65.59375 14 67.296875 14 67.296875 15.796875 
C 67.296875 17.484375 65.796875 17.484375 64.296875 17.484375 
L 7.59375 17.484375 
C 6.09375 17.484375 4.59375 17.484375 4.59375 15.796875 
C 4.59375 14 6.296875 14 8 14 
z
" id="CMR17-61"/>
     <path d="M 23.09375 66.515625 
C 23.203125 66.921875 23.40625 67.515625 23.40625 68 
C 23.40625 69 22.40625 69 22.203125 69 
C 22.09375 69 18.5 68.640625 16.703125 68.390625 
C 15 68.390625 13.5 68.09375 11.703125 68.09375 
C 9.296875 67.890625 8.59375 67.796875 8.59375 66 
C 8.59375 65 9.59375 65 10.59375 65 
C 15.703125 65 15.703125 64.109375 15.703125 63.125 
C 15.703125 62.4375 14.90625 59.546875 14.5 57.75 
L 12.09375 48.203125 
C 11.09375 44.234375 5.40625 21.671875 5 19.875 
C 4.5 17.40625 4.5 15.703125 4.5 14.40625 
C 4.5 4.28125 10.203125 -1 16.703125 -1 
C 28.296875 -1 40.296875 13.875 40.296875 28.34375 
C 40.296875 37.515625 35.09375 44 27.59375 44 
C 22.40625 44 17.703125 39.71875 15.796875 37.71875 
z
M 16.796875 1 
C 13.59375 1 10.09375 3.390625 10.09375 11.171875 
C 10.09375 14.46875 10.40625 16.359375 12.203125 23.34375 
C 12.5 24.640625 14.09375 31.03125 14.5 32.328125 
C 14.703125 33.125 20.59375 42.015625 27.40625 42.015625 
C 31.796875 42.015625 33.796875 37.625 33.796875 32.4375 
C 33.796875 27.640625 31 16.359375 28.5 11.171875 
C 26 5.78125 21.40625 1 16.796875 1 
" id="CMMI12-98"/>
     <path d="M 65.90625 23 
C 67.59375 23 69.40625 23 69.40625 25 
C 69.40625 27 67.59375 27 65.90625 27 
L 11.796875 27 
C 10.09375 27 8.296875 27 8.296875 25 
C 8.296875 23 10.09375 23 11.796875 23 
z
" id="CMSY10-0"/>
     <path d="M 27.203125 35.375 
C 33.5 38.546875 39.90625 43.328125 39.90625 50.984375 
C 39.90625 60.015625 31.09375 65.296875 23 65.296875 
C 13.90625 65.296875 5.90625 58.734375 5.90625 49.6875 
C 5.90625 47.203125 6.5 42.921875 10.40625 39.140625 
C 11.40625 38.15625 15.59375 35.171875 18.296875 33.28125 
C 13.796875 30.984375 3.296875 25.53125 3.296875 14.59375 
C 3.296875 4.359375 13.09375 -2 22.796875 -2 
C 33.5 -2 42.5 5.65625 42.5 15.78125 
C 42.5 24.84375 36.40625 29.015625 32.40625 31.703125 
z
M 14.09375 44.09375 
C 13.296875 44.59375 9.296875 47.671875 9.296875 52.359375 
C 9.296875 58.421875 15.59375 63 22.796875 63 
C 30.703125 63 36.5 57.4375 36.5 50.96875 
C 36.5 41.703125 26.09375 36.421875 25.59375 36.421875 
C 25.5 36.421875 25.40625 36.421875 24.59375 37.03125 
z
M 32.5 23.734375 
C 34 22.640625 38.796875 19.375 38.796875 13.296875 
C 38.796875 5.953125 31.40625 0.390625 23 0.390625 
C 13.90625 0.390625 7 6.84375 7 14.6875 
C 7 22.546875 13.09375 29.09375 20 32.1875 
z
" id="CMR17-56"/>
     <path d="M 42 31.640625 
C 42 37.75 41.90625 48.125 37.703125 56.109375 
C 34 63.109375 28.09375 65.59375 22.90625 65.59375 
C 18.09375 65.59375 12 63.40625 8.203125 56.203125 
C 4.203125 48.71875 3.796875 39.4375 3.796875 31.640625 
C 3.796875 25.953125 3.90625 17.28125 7 9.671875 
C 11.296875 -0.609375 19 -2 22.90625 -2 
C 27.5 -2 34.5 -0.109375 38.59375 9.375 
C 41.59375 16.28125 42 24.359375 42 31.640625 
M 22.90625 -0.40625 
C 16.5 -0.40625 12.703125 5.078125 11.296875 12.6875 
C 10.203125 18.5625 10.203125 27.15625 10.203125 32.75 
C 10.203125 40.4375 10.203125 46.828125 11.5 52.921875 
C 13.40625 61.390625 19 64 22.90625 64 
C 27 64 32.296875 61.296875 34.203125 53.125 
C 35.5 47.4375 35.59375 40.734375 35.59375 32.75 
C 35.59375 26.25 35.59375 18.265625 34.40625 12.375 
C 32.296875 1.484375 26.40625 -0.40625 22.90625 -0.40625 
" id="CMR17-48"/>
     <path d="M 18.40625 4.796875 
C 18.40625 7.6875 16 9.671875 13.59375 9.671875 
C 10.703125 9.671875 8.703125 7.28125 8.703125 4.890625 
C 8.703125 2 11.09375 0 13.5 0 
C 16.40625 0 18.40625 2.390625 18.40625 4.796875 
" id="CMMI12-58"/>
    </defs>
    <g transform="translate(871.343515957 664.925916082)scale(0.54 -0.54)">
     <use transform="scale(0.996264009963)" xlink:href="#CMMI12-98"/>
     <use transform="translate(69.1498828855 0.0)scale(0.996264009963)" xlink:href="#CMR17-61"/>
     <use transform="translate(168.538680023 0.0)scale(0.996264009963)" xlink:href="#CMSY10-0"/>
     <use transform="translate(246.026147674 0.0)scale(0.996264009963)" xlink:href="#CMR17-48"/>
     <use transform="translate(291.716624791 0.0)scale(0.996264009963)" xlink:href="#CMMI12-58"/>
     <use transform="translate(318.813801881 0.0)scale(0.996264009963)" xlink:href="#CMR17-56"/>
     <use transform="translate(364.504278998 0.0)scale(0.996264009963)" xlink:href="#CMR17-48"/>
    </g>
   </g>
   <g id="text_14">
    <!-- $\dot{x} = -(a + bx - x^3)$ -->
    <defs>
     <path d="M 16.5 61.078125 
C 16.5 63.46875 14.59375 65.15625 12.5 65.15625 
C 10.09375 65.15625 8.40625 63.265625 8.40625 61.078125 
C 8.40625 58.6875 10.296875 57 12.40625 57 
C 14.796875 57 16.5 58.890625 16.5 61.078125 
" id="CMR17-95"/>
     <path d="M 30.09375 11.875 
C 29.59375 10.171875 29.59375 9.984375 28.203125 8.078125 
C 26 5.28125 21.59375 1 16.90625 1 
C 12.796875 1 10.5 4.6875 10.5 10.578125 
C 10.5 16.0625 13.59375 27.234375 15.5 31.4375 
C 18.90625 38.421875 23.59375 42.015625 27.5 42.015625 
C 34.09375 42.015625 35.40625 33.828125 35.40625 33.03125 
C 35.40625 32.9375 35.09375 31.625 35 31.4375 
z
M 36.5 37.421875 
C 35.40625 40.015625 32.703125 44 27.5 44 
C 16.203125 44 4 29.4375 4 14.671875 
C 4 4.796875 9.796875 -1 16.59375 -1 
C 22.09375 -1 26.796875 3.296875 29.59375 6.59375 
C 30.59375 0.703125 35.296875 -1 38.296875 -1 
C 41.296875 -1 43.703125 0.796875 45.5 4.390625 
C 47.09375 7.78125 48.5 13.875 48.5 14.265625 
C 48.5 14.765625 48.09375 15.171875 47.5 15.171875 
C 46.59375 15.171875 46.5 14.671875 46.09375 13.171875 
C 44.59375 7.28125 42.703125 1 38.59375 1 
C 35.703125 1 35.5 3.59375 35.5 5.59375 
C 35.5 7.890625 35.796875 8.984375 36.703125 12.875 
C 37.40625 15.375 37.90625 17.5625 38.703125 20.453125 
C 42.40625 35.421875 43.296875 39.015625 43.296875 39.609375 
C 43.296875 41.015625 42.203125 42.109375 40.703125 42.109375 
C 37.5 42.109375 36.703125 38.625 36.5 37.421875 
" id="CMMI12-97"/>
     <path d="M 37.703125 23 
L 64.203125 23 
C 65.59375 23 67.296875 23 67.296875 24.6875 
C 67.296875 26.484375 65.703125 26.484375 64.203125 26.484375 
L 37.703125 26.484375 
L 37.703125 52.90625 
C 37.703125 54.296875 37.703125 56 36 56 
C 34.203125 56 34.203125 54.40625 34.203125 52.90625 
L 34.203125 26.484375 
L 7.703125 26.484375 
C 6.296875 26.484375 4.59375 26.484375 4.59375 24.796875 
C 4.59375 23 6.203125 23 7.703125 23 
L 34.203125 23 
L 34.203125 -3.40625 
C 34.203125 -4.796875 34.203125 -6.5 35.90625 -6.5 
C 37.703125 -6.5 37.703125 -4.90625 37.703125 -3.40625 
z
" id="CMR17-43"/>
     <path d="M 22.09375 33.703125 
C 31 33.703125 34.90625 25.96875 34.90625 17.03125 
C 34.90625 5 28.5 0.390625 22.703125 0.390625 
C 17.40625 0.390625 8.796875 3.03125 6.09375 10.828125 
C 6.59375 10.625 7.09375 10.625 7.59375 10.625 
C 10 10.625 11.796875 12.21875 11.796875 14.8125 
C 11.796875 17.703125 9.59375 19 7.59375 19 
C 5.90625 19 3.296875 18.203125 3.296875 14.46875 
C 3.296875 5.234375 12.296875 -2 22.90625 -2 
C 34 -2 42.5 6.71875 42.5 16.953125 
C 42.5 26.671875 34.5 33.703125 25 34.796875 
C 32.59375 36.375 39.90625 43.0625 39.90625 52.015625 
C 39.90625 59.6875 32 65.296875 23 65.296875 
C 13.90625 65.296875 5.90625 59.828125 5.90625 52.015625 
C 5.90625 48.59375 8.5 48 9.796875 48 
C 11.90625 48 13.703125 49.296875 13.703125 51.890625 
C 13.703125 54.46875 11.90625 55.765625 9.796875 55.765625 
C 9.40625 55.765625 8.90625 55.765625 8.5 55.578125 
C 11.40625 61.859375 19.296875 63 22.796875 63 
C 26.296875 63 32.90625 61.328125 32.90625 51.875 
C 32.90625 49.109375 32.5 44.1875 29.09375 39.84375 
C 26.09375 36 22.703125 36 19.40625 35.6875 
C 18.90625 35.6875 16.59375 35.453125 16.203125 35.453125 
C 15.5 35.359375 15.09375 35.265625 15.09375 34.5 
C 15.09375 33.796875 15.203125 33.703125 17.203125 33.703125 
z
" id="CMR17-51"/>
     <path d="M 26.296875 24.703125 
C 26.296875 31.875 25.59375 44.015625 19.59375 56.859375 
C 14.796875 67.234375 6.59375 74.5 5.40625 74.5 
C 5.09375 74.5 4.703125 74.390625 4.703125 73.890625 
C 4.703125 73.703125 4.796875 73.59375 4.90625 73.390625 
C 9.703125 68.40625 21.90625 55.75 21.90625 24.75 
C 21.90625 -6.359375 9.796875 -19.015625 4.90625 -24.015625 
C 4.796875 -24.203125 4.703125 -24.3125 4.703125 -24.5 
C 4.703125 -25 5.09375 -25 5.40625 -25 
C 6.5 -25 15 -17.625 19.90625 -6.65625 
C 24.90625 4.390625 26.296875 15.140625 26.296875 24.703125 
" id="CMR17-41"/>
     <path d="M 30.59375 -24.390625 
C 30.59375 -24.296875 30.59375 -24.09375 30.296875 -23.796875 
C 25.703125 -19.125 13.40625 -6.359375 13.40625 24.703125 
C 13.40625 55.765625 25.5 68.421875 30.40625 73.390625 
C 30.40625 73.5 30.59375 73.703125 30.59375 74 
C 30.59375 74.296875 30.296875 74.5 29.90625 74.5 
C 28.796875 74.5 20.296875 67.125 15.40625 56.15625 
C 10.40625 45.109375 9 34.359375 9 24.8125 
C 9 17.625 9.703125 5.484375 15.703125 -7.359375 
C 20.5 -17.734375 28.703125 -25 29.90625 -25 
C 30.40625 -25 30.59375 -24.796875 30.59375 -24.390625 
" id="CMR17-40"/>
    </defs>
    <g transform="translate(448.787547527 50.998128843)scale(0.54 -0.54)">
     <use transform="translate(17.9912182344 0.00646075751089)scale(0.996264009963)" xlink:href="#CMR17-95"/>
     <use transform="scale(0.996264009963)" xlink:href="#CMMI12-120"/>
     <use transform="translate(83.1080682548 0.0)scale(0.996264009963)" xlink:href="#CMR17-61"/>
     <use transform="translate(182.496865392 0.0)scale(0.996264009963)" xlink:href="#CMSY10-0"/>
     <use transform="translate(259.984333043 0.0)scale(0.996264009963)" xlink:href="#CMR17-40"/>
     <use transform="translate(295.265100843 0.0)scale(0.996264009963)" xlink:href="#CMMI12-97"/>
     <use transform="translate(368.612165439 0.0)scale(0.996264009963)" xlink:href="#CMR17-43"/>
     <use transform="translate(462.466160832 0.0)scale(0.996264009963)" xlink:href="#CMMI12-98"/>
     <use transform="translate(503.942034996 0.0)scale(0.996264009963)" xlink:href="#CMMI12-120"/>
     <use transform="translate(581.515301506 0.0)scale(0.996264009963)" xlink:href="#CMSY10-0"/>
     <use transform="translate(681.141976134 0.0)scale(0.996264009963)" xlink:href="#CMMI12-120"/>
     <use transform="translate(736.576035667 36.1536389419)scale(0.697381766617)" xlink:href="#CMR17-51"/>
     <use transform="translate(769.057349636 0.0)scale(0.996264009963)" xlink:href="#CMR17-41"/>
    </g>
   </g>
   <g id="patch_8">
    <path clip-path="url(#p4a7f8d323f)" d="M 430.094043 389.693705 
C 431.881129 389.693705 433.595261 388.840576 434.858922 387.322211 
C 436.122583 385.803845 436.8326 383.744211 436.8326 381.596918 
C 436.8326 379.449625 436.122583 377.38999 434.858922 375.871625 
C 433.595261 374.353259 431.881129 373.500131 430.094043 373.500131 
C 428.306956 373.500131 426.592824 374.353259 425.329163 375.871625 
C 424.065502 377.38999 423.355485 379.449625 423.355485 381.596918 
C 423.355485 383.744211 424.065502 385.803845 425.329163 387.322211 
C 426.592824 388.840576 428.306956 389.693705 430.094043 389.693705 
L 430.094043 389.693705 
z
" style="fill:none;stroke:#00ff66;stroke-linejoin:miter;stroke-width:5.0;"/>
   </g>
   <g id="patch_9">
    <path clip-path="url(#p4a7f8d323f)" d="M 666.073365 389.693705 
C 667.860451 389.693705 669.574584 388.840576 670.838245 387.322211 
C 672.101905 385.803845 672.811922 383.744211 672.811922 381.596918 
C 672.811922 379.449625 672.101905 377.38999 670.838245 375.871625 
C 669.574584 374.353259 667.860451 373.500131 666.073365 373.500131 
C 664.286279 373.500131 662.572146 374.353259 661.308486 375.871625 
C 660.044825 377.38999 659.334808 379.449625 659.334808 381.596918 
C 659.334808 383.744211 660.044825 385.803845 661.308486 387.322211 
C 662.572146 388.840576 664.286279 389.693705 666.073365 389.693705 
L 666.073365 389.693705 
z
" style="fill:none;stroke:#0066ff;stroke-linejoin:miter;stroke-width:5.0;"/>
   </g>
   <g id="patch_10">
    <path clip-path="url(#p4a7f8d323f)" d="M 902.052688 389.693705 
C 903.839774 389.693705 905.553906 388.840576 906.817567 387.322211 
C 908.081228 385.803845 908.791245 383.744211 908.791245 381.596918 
C 908.791245 379.449625 908.081228 377.38999 906.817567 375.871625 
C 905.553906 374.353259 903.839774 373.500131 902.052688 373.500131 
C 900.265601 373.500131 898.551469 374.353259 897.287808 375.871625 
C 896.024147 377.38999 895.31413 379.449625 895.31413 381.596918 
C 895.31413 383.744211 896.024147 385.803845 897.287808 387.322211 
C 898.551469 388.840576 900.265601 389.693705 902.052688 389.693705 
L 902.052688 389.693705 
z
" style="fill:none;stroke:#cc00ff;stroke-linejoin:miter;stroke-width:5.0;"/>
   </g>
   <g id="legend_1">
    <g id="patch_11">
     <path d="M 227.86673 301.327088 
L 524.454284 301.327088 
L 524.454284 84.998129 
L 227.86673 84.998129 
z
" style="fill:#4c4c4c;opacity:0.5;stroke:#4c4c4c;stroke-linejoin:miter;"/>
    </g>
    <g id="patch_12">
     <path d="M 225.86673 299.327088 
L 522.454284 299.327088 
L 522.454284 82.998129 
L 225.86673 82.998129 
z
" style="fill:#ffffff;stroke:#000000;stroke-linejoin:miter;"/>
    </g>
    <g id="line2d_114">
     <path d="M 274.46673 134.829058 
L 244.76673 134.829058 
" style="fill:none;stroke:#00ff66;stroke-linecap:square;stroke-width:5.0;"/>
    </g>
    <g id="line2d_115"/>
    <g id="text_15">
     <!-- $a = -2.0$ -->
     <defs>
      <path d="M 41.703125 15.453125 
L 39.90625 15.453125 
C 38.90625 8.375 38.09375 7.171875 37.703125 6.5625 
C 37.203125 5.765625 30 5.765625 28.59375 5.765625 
L 9.40625 5.765625 
C 13 9.671875 20 16.75 28.5 24.953125 
C 34.59375 30.734375 41.703125 37.53125 41.703125 47.421875 
C 41.703125 59.21875 32.296875 66 21.796875 66 
C 10.796875 66 4.09375 56.3125 4.09375 47.34375 
C 4.09375 43.4375 7 42.9375 8.203125 42.9375 
C 9.203125 42.9375 12.203125 43.546875 12.203125 47.03125 
C 12.203125 50.109375 9.59375 51 8.203125 51 
C 7.59375 51 7 50.90625 6.59375 50.703125 
C 8.5 59.21875 14.296875 63.40625 20.40625 63.40625 
C 29.09375 63.40625 34.796875 56.515625 34.796875 47.421875 
C 34.796875 38.734375 29.703125 31.25 24 24.75 
L 4.09375 2.28125 
L 4.09375 0 
L 39.296875 0 
z
" id="CMR17-50"/>
     </defs>
     <g transform="translate(287.966730109 153.729058268)scale(0.54 -0.54)">
      <use transform="scale(0.996264009963)" xlink:href="#CMMI12-97"/>
      <use transform="translate(78.8818663411 0.0)scale(0.996264009963)" xlink:href="#CMR17-61"/>
      <use transform="translate(178.270663479 0.0)scale(0.996264009963)" xlink:href="#CMSY10-0"/>
      <use transform="translate(255.758131129 0.0)scale(0.996264009963)" xlink:href="#CMR17-50"/>
      <use transform="translate(301.448608246 0.0)scale(0.996264009963)" xlink:href="#CMMI12-58"/>
      <use transform="translate(328.545785336 0.0)scale(0.996264009963)" xlink:href="#CMR17-48"/>
     </g>
    </g>
    <g id="line2d_116">
     <path d="M 274.46673 185.698711 
L 244.76673 185.698711 
" style="fill:none;stroke:#0066ff;stroke-linecap:square;stroke-width:5.0;"/>
    </g>
    <g id="line2d_117"/>
    <g id="text_16">
     <!-- $a = 0.00$ -->
     <g transform="translate(287.966730109 204.598711205)scale(0.54 -0.54)">
      <use transform="scale(0.996264009963)" xlink:href="#CMMI12-97"/>
      <use transform="translate(78.8818663411 0.0)scale(0.996264009963)" xlink:href="#CMR17-61"/>
      <use transform="translate(178.270663479 0.0)scale(0.996264009963)" xlink:href="#CMR17-48"/>
      <use transform="translate(223.961140596 0.0)scale(0.996264009963)" xlink:href="#CMMI12-58"/>
      <use transform="translate(251.058317686 0.0)scale(0.996264009963)" xlink:href="#CMR17-48"/>
      <use transform="translate(296.748794803 0.0)scale(0.996264009963)" xlink:href="#CMR17-48"/>
     </g>
    </g>
    <g id="line2d_118">
     <path d="M 274.46673 236.568364 
L 244.76673 236.568364 
" style="fill:none;stroke:#cc00ff;stroke-linecap:square;stroke-width:5.0;"/>
    </g>
    <g id="line2d_119"/>
    <g id="text_17">
     <!-- $a = 2.0$ -->
     <g transform="translate(287.966730109 255.468364142)scale(0.54 -0.54)">
      <use transform="scale(0.996264009963)" xlink:href="#CMMI12-97"/>
      <use transform="translate(78.8818663411 0.0)scale(0.996264009963)" xlink:href="#CMR17-61"/>
      <use transform="translate(178.270663479 0.0)scale(0.996264009963)" xlink:href="#CMR17-50"/>
      <use transform="translate(223.961140596 0.0)scale(0.996264009963)" xlink:href="#CMMI12-58"/>
      <use transform="translate(251.058317686 0.0)scale(0.996264009963)" xlink:href="#CMR17-48"/>
     </g>
    </g>
   </g>
  </g>
 </g>
 <defs>
  <clipPath id="p4a7f8d323f">
   <rect height="651.197577882" width="934.413269891" x="198.866730109" y="55.998128843"/>
  </clipPath>
 </defs>
</svg>
