<?xml version="1.0" encoding="utf-8" standalone="no"?>
<!DOCTYPE svg PUBLIC "-//W3C//DTD SVG 1.1//EN"
  "http://www.w3.org/Graphics/SVG/1.1/DTD/svg11.dtd">
<!-- Created with matplotlib (http://matplotlib.org/) -->
<svg height="852pt" version="1.1" viewBox="0 0 1220 852" width="1220pt" xmlns="http://www.w3.org/2000/svg" xmlns:xlink="http://www.w3.org/1999/xlink">
 <defs>
  <style type="text/css">
*{stroke-linecap:butt;stroke-linejoin:round;stroke-miterlimit:100000;}
  </style>
 </defs>
 <g id="figure_1">
  <g id="patch_1">
   <path d="M 0 852.48 
L 1220.678232 852.48 
L 1220.678232 0 
L 0 0 
z
" style="fill:#ffffff;"/>
  </g>
  <g id="axes_1">
   <g id="patch_2">
    <path d="M 168.955232 707.195707 
L 1133.28 707.195707 
L 1133.28 55.998129 
L 168.955232 55.998129 
z
" style="fill:#ffffff;"/>
   </g>
   <g id="line2d_1">
    <path clip-path="url(#p2b4a85c3d1)" d="M 187.499939 534.121005 
L 196.07972 518.255874 
L 203.988487 504.205438 
L 210.542884 492.971286 
L 217.261828 481.834886 
L 223.283919 472.175463 
L 231.311832 459.764464 
L 236.537542 451.967313 
L 243.167884 442.389033 
L 251.218491 431.224575 
L 257.895247 422.345912 
L 263.822059 414.748645 
L 269.699037 407.474986 
L 277.186335 398.576734 
L 284.048456 390.777605 
L 291.343211 382.853071 
L 296.938056 377.026409 
L 304.296876 369.688513 
L 312.450054 361.982213 
L 319.432373 355.728979 
L 325.971751 350.15608 
L 333.606347 343.989573 
L 341.198512 338.212183 
L 346.867795 334.123754 
L 352.933041 329.959013 
L 361.093039 324.689709 
L 367.153229 321.018544 
L 375.584167 316.245658 
L 382.097982 312.817976 
L 386.985036 310.391512 
L 393.79627 307.212631 
L 400.803008 304.18328 
L 408.599691 301.091389 
L 415.432024 298.616557 
L 422.331922 296.333107 
L 429.888885 294.073598 
L 435.972605 292.432452 
L 443.228266 290.676091 
L 450.349597 289.158044 
L 457.744012 287.790007 
L 464.677894 286.693038 
L 473.567063 285.539348 
L 483.393065 284.579145 
L 491.745522 284.009839 
L 499.804629 283.664421 
L 509.073212 283.501456 
L 517.436242 283.557315 
L 525.818336 283.794677 
L 537.570119 284.411485 
L 548.568323 285.26399 
L 555.999957 285.977389 
L 568.524653 287.405419 
L 579.982027 288.932083 
L 592.509955 290.80699 
L 605.827695 292.994234 
L 626.19423 296.623911 
L 659.65252 302.944688 
L 685.897165 307.809843 
L 704.782135 311.044353 
L 720.402639 313.445802 
L 730.87606 314.877443 
L 743.440733 316.369809 
L 753.576313 317.370121 
L 765.677856 318.29622 
L 775.549137 318.812998 
L 783.988982 319.069656 
L 794.716922 319.130257 
L 802.946944 318.961417 
L 812.805631 318.49649 
L 821.816688 317.806232 
L 829.387894 317.01968 
L 837.431022 315.967483 
L 845.086841 314.749636 
L 851.218851 313.616071 
L 860.384804 311.649044 
L 868.761476 309.5545 
L 876.25699 307.430318 
L 882.985267 305.315518 
L 890.728762 302.630073 
L 897.981306 299.863143 
L 904.870089 297.002631 
L 912.890491 293.378465 
L 920.835793 289.467261 
L 926.286702 286.594159 
L 933.574922 282.505112 
L 941.326995 277.837291 
L 946.651891 274.436161 
L 952.898793 270.23939 
L 960.030574 265.169523 
L 967.153255 259.802936 
L 974.505295 253.938343 
L 981.707147 247.865936 
L 987.422347 242.811464 
L 995.815984 235.002185 
L 1001.803733 229.145026 
L 1008.208643 222.610618 
L 1015.396506 214.939912 
L 1022.40315 207.112431 
L 1029.003061 199.417134 
L 1035.848888 191.098788 
L 1042.68191 182.448382 
L 1049.322785 173.702593 
L 1056.83455 163.400338 
L 1063.962493 153.215353 
L 1071.421126 142.123538 
L 1078.134407 131.753817 
L 1085.174629 120.479285 
L 1091.937045 109.25808 
L 1099.063112 97.011587 
L 1106.389689 83.961919 
L 1112.082784 73.495887 
L 1114.735293 68.521159 
L 1114.735293 68.521159 
" style="fill:none;stroke:#00ff66;stroke-linecap:square;stroke-width:5.0;"/>
   </g>
   <g id="line2d_2">
    <path clip-path="url(#p2b4a85c3d1)" d="M 187.499939 614.396841 
L 195.00509 600.483111 
L 201.832019 588.258359 
L 208.161767 577.285717 
L 215.837719 564.439307 
L 223.440761 552.203751 
L 230.914794 540.641735 
L 238.087183 529.97317 
L 245.189553 519.813578 
L 252.812744 509.349286 
L 259.884872 500.041774 
L 267.951878 489.886416 
L 275.652404 480.642289 
L 282.657748 472.606845 
L 290.07009 464.485065 
L 297.294638 456.93819 
L 303.61049 450.63331 
L 311.283376 443.333851 
L 317.921009 437.331626 
L 324.097954 432.001062 
L 329.988204 427.142673 
L 337.174702 421.506453 
L 344.589662 416.019556 
L 351.17468 411.420218 
L 358.376703 406.677639 
L 365.280345 402.407215 
L 372.697086 398.1127 
L 380.448697 393.940619 
L 385.612755 391.336284 
L 394.535836 387.157302 
L 401.259047 384.270255 
L 408.92301 381.245225 
L 415.980343 378.703081 
L 422.794867 376.463345 
L 431.343358 373.942839 
L 439.836499 371.746177 
L 448.166743 369.877952 
L 455.544258 368.451104 
L 462.946629 367.226282 
L 469.025537 366.369867 
L 478.72479 365.271004 
L 488.647324 364.471168 
L 497.140536 364.032921 
L 507.003355 363.79268 
L 516.392915 363.816082 
L 527.350368 364.132629 
L 538.220913 364.730627 
L 547.694659 365.462998 
L 556.908095 366.347525 
L 567.882679 367.601644 
L 580.228972 369.242915 
L 588.676156 370.488425 
L 600.029717 372.296063 
L 616.331581 375.106997 
L 639.400547 379.370398 
L 687.279525 388.332156 
L 704.263127 391.235645 
L 719.493661 393.590138 
L 730.603948 395.118127 
L 741.817534 396.467888 
L 754.108632 397.693044 
L 763.652863 398.438756 
L 774.194117 399.031359 
L 784.867578 399.361893 
L 791.261031 399.420308 
L 799.705794 399.32688 
L 808.971568 398.988222 
L 818.064012 398.401277 
L 826.980511 397.566635 
L 836.234279 396.414388 
L 843.840856 395.238422 
L 850.526709 394.027056 
L 857.209519 392.644025 
L 865.823231 390.598066 
L 874.2061 388.311322 
L 880.397802 386.428327 
L 886.407199 384.438305 
L 895.252018 381.209297 
L 901.750205 378.602438 
L 909.41295 375.265083 
L 917.846913 371.252525 
L 924.387218 367.888972 
L 930.045235 364.797036 
L 938.549811 359.823668 
L 944.924275 355.833077 
L 951.083231 351.758211 
L 958.974459 346.215125 
L 964.121928 342.40021 
L 970.759102 337.244196 
L 977.917597 331.377884 
L 984.649336 325.566027 
L 991.704298 319.161411 
L 997.606377 313.551904 
L 1003.407769 307.810698 
L 1009.805776 301.213109 
L 1014.827494 295.836151 
L 1020.617897 289.415856 
L 1027.561517 281.400737 
L 1033.694999 274.0291 
L 1040.912873 264.997429 
L 1047.074497 256.977075 
L 1054.590778 246.799455 
L 1061.129833 237.586891 
L 1067.684017 228.012876 
L 1075.423444 216.261622 
L 1081.581328 206.561143 
L 1088.118114 195.918371 
L 1095.581152 183.325852 
L 1103.510685 169.421599 
L 1109.727554 158.136341 
L 1114.735293 148.796995 
L 1114.735293 148.796995 
" style="fill:none;stroke:#0066ff;stroke-linecap:square;stroke-width:5.0;"/>
   </g>
   <g id="line2d_3">
    <path clip-path="url(#p2b4a85c3d1)" d="M 187.499939 694.672676 
L 195.458624 679.934141 
L 201.028584 669.95174 
L 209.414828 655.430208 
L 216.375692 643.833491 
L 223.103997 633.01136 
L 230.816473 621.066706 
L 236.316331 612.844591 
L 243.673121 602.225121 
L 250.788223 592.36017 
L 258.094057 582.638433 
L 264.837569 574.025093 
L 270.762008 566.738382 
L 278.724453 557.350881 
L 286.608777 548.505287 
L 292.650706 542.023701 
L 300.180629 534.299485 
L 306.545417 528.070818 
L 313.775243 521.322727 
L 319.94689 515.832307 
L 327.882911 509.130052 
L 333.771127 504.412126 
L 341.181628 498.776317 
L 346.251459 495.110676 
L 352.663124 490.691484 
L 360.188623 485.806816 
L 367.683507 481.258637 
L 373.246069 478.082525 
L 379.153226 474.891576 
L 386.76353 471.050507 
L 393.183324 468.040829 
L 399.823157 465.144147 
L 408.008044 461.867577 
L 415.238066 459.235522 
L 423.224627 456.604866 
L 432.242586 453.971797 
L 440.126088 451.952375 
L 446.321094 450.543838 
L 454.094588 448.990822 
L 460.455259 447.891702 
L 468.070315 446.771551 
L 474.767903 445.956263 
L 483.579968 445.115644 
L 492.695047 444.510608 
L 502.928597 444.133853 
L 511.643808 444.050376 
L 521.684565 444.20731 
L 530.886106 444.573144 
L 539.17311 445.07149 
L 551.284652 446.064136 
L 564.612309 447.482329 
L 574.672066 448.752005 
L 590.464429 451.039376 
L 605.209298 453.440552 
L 626.116179 457.161186 
L 656.38016 462.87462 
L 681.345275 467.541098 
L 700.177519 470.836507 
L 715.552253 473.283332 
L 726.956308 474.911927 
L 740.428197 476.587905 
L 751.199819 477.704769 
L 761.574784 478.568524 
L 772.182427 479.213823 
L 780.912304 479.548346 
L 789.798368 479.692368 
L 798.843008 479.621461 
L 808.362441 479.294199 
L 817.620517 478.711814 
L 825.062007 478.044411 
L 834.017578 476.993578 
L 841.930904 475.82947 
L 850.219302 474.362325 
L 857.352734 472.888295 
L 866.448819 470.713462 
L 873.863987 468.686337 
L 882.450339 466.042673 
L 888.871959 463.850663 
L 896.51324 460.994925 
L 904.223598 457.832553 
L 910.796026 454.907562 
L 917.919935 451.492034 
L 924.144152 448.293821 
L 931.004453 444.531668 
L 937.569907 440.692801 
L 945.543645 435.708947 
L 952.266054 431.22643 
L 960.668451 425.253042 
L 968.10754 419.612206 
L 974.221997 414.722207 
L 981.517932 408.581357 
L 988.256063 402.608139 
L 993.959441 397.321187 
L 999.327922 392.147751 
L 1006.845585 384.576457 
L 1013.464687 377.588629 
L 1020.461332 369.868422 
L 1028.01283 361.143539 
L 1035.852563 351.6459 
L 1042.837898 342.798475 
L 1050.190966 333.085927 
L 1056.889384 323.875189 
L 1064.514758 312.961064 
L 1072.442262 301.121665 
L 1080.404891 288.71446 
L 1088.319333 275.860895 
L 1095.354785 263.990638 
L 1103.545161 249.635789 
L 1111.16971 235.745484 
L 1114.735293 229.07283 
L 1114.735293 229.07283 
" style="fill:none;stroke:#cc00ff;stroke-linecap:square;stroke-width:5.0;"/>
   </g>
   <g id="line2d_4">
    <path clip-path="url(#p2b4a85c3d1)" d="M 187.499939 632.220299 
L 195.911431 616.660089 
L 203.609243 602.966064 
L 210.9122 590.448519 
L 218.806817 577.427178 
L 226.841666 564.709368 
L 234.485914 553.101538 
L 240.592997 544.166552 
L 247.114329 534.952209 
L 255.193367 523.996982 
L 262.551412 514.454426 
L 268.636294 506.870608 
L 275.312324 498.864848 
L 281.698386 491.509925 
L 289.206711 483.234652 
L 295.297299 476.812079 
L 302.181433 469.859708 
L 310.043955 462.309986 
L 316.81945 456.131398 
L 322.709572 451.001483 
L 329.338766 445.491162 
L 336.580213 439.784165 
L 343.290634 434.7805 
L 351.506722 429.018466 
L 358.365455 424.508274 
L 365.66881 419.998265 
L 373.135011 415.691923 
L 379.541736 412.235807 
L 386.179371 408.882369 
L 393.825612 405.298734 
L 401.187812 402.123149 
L 409.620448 398.807183 
L 417.606571 395.973097 
L 423.826769 393.965669 
L 432.2153 391.526861 
L 440.348356 389.446782 
L 446.777974 387.993655 
L 455.642802 386.256914 
L 465.314802 384.700359 
L 473.058721 383.697176 
L 482.206429 382.777412 
L 491.762247 382.108213 
L 498.872681 381.793751 
L 508.338887 381.604854 
L 517.796353 381.663155 
L 527.110354 381.945984 
L 536.684797 382.453361 
L 548.052442 383.317735 
L 557.597294 384.243552 
L 567.357169 385.360428 
L 581.281568 387.21648 
L 593.911973 389.127872 
L 611.577634 392.088546 
L 629.415435 395.319784 
L 695.090144 407.521675 
L 711.082571 410.146867 
L 725.900659 412.316365 
L 739.95594 414.081801 
L 748.994001 415.04117 
L 760.488218 416.03609 
L 770.790941 416.69131 
L 780.647806 417.088578 
L 790.544875 417.242639 
L 800.936834 417.119887 
L 807.648871 416.875698 
L 815.84111 416.392318 
L 824.563521 415.642473 
L 832.245785 414.771165 
L 841.319226 413.475191 
L 849.208702 412.102772 
L 856.082245 410.713096 
L 862.983048 409.129564 
L 869.442737 407.470619 
L 876.568466 405.436106 
L 884.477059 402.91864 
L 890.485038 400.818077 
L 897.077258 398.320887 
L 903.856917 395.537088 
L 911.005282 392.358524 
L 917.643482 389.177039 
L 923.428435 386.219522 
L 931.252348 381.938617 
L 938.230296 377.841167 
L 944.49417 373.932998 
L 952.202222 368.817845 
L 960.481767 362.937928 
L 967.284671 357.800324 
L 974.107507 352.363524 
L 981.842032 345.848358 
L 987.234469 341.080272 
L 994.134122 334.703499 
L 1001.535571 327.511802 
L 1008.46934 320.437979 
L 1015.697028 312.710623 
L 1023.76077 303.654507 
L 1031.232965 294.844778 
L 1038.336437 286.089445 
L 1045.068772 277.442997 
L 1051.953377 268.243923 
L 1058.890782 258.60273 
L 1065.434671 249.160782 
L 1071.885035 239.518098 
L 1078.818472 228.775676 
L 1085.604393 217.876934 
L 1091.882289 207.449791 
L 1099.763494 193.883619 
L 1107.795141 179.504127 
L 1114.735293 166.620453 
L 1114.735293 166.620453 
" style="fill:none;stroke:#000000;stroke-linecap:square;stroke-width:5.0;"/>
   </g>
   <g id="patch_3">
    <path d="M 168.955232 55.998129 
L 1133.28 55.998129 
" style="fill:none;stroke:#000000;stroke-linecap:square;stroke-linejoin:miter;stroke-width:0.8;"/>
   </g>
   <g id="patch_4">
    <path d="M 1133.28 707.195707 
L 1133.28 55.998129 
" style="fill:none;stroke:#000000;stroke-linecap:square;stroke-linejoin:miter;stroke-width:0.8;"/>
   </g>
   <g id="patch_5">
    <path d="M 168.955232 707.195707 
L 1133.28 707.195707 
" style="fill:none;stroke:#000000;stroke-linecap:square;stroke-linejoin:miter;stroke-width:0.8;"/>
   </g>
   <g id="patch_6">
    <path d="M 168.955232 707.195707 
L 168.955232 55.998129 
" style="fill:none;stroke:#000000;stroke-linecap:square;stroke-linejoin:miter;stroke-width:0.8;"/>
   </g>
   <g id="matplotlib.axis_1">
    <g id="xtick_1">
     <g id="line2d_5">
      <path clip-path="url(#p2b4a85c3d1)" d="M 187.499939 707.195707 
L 187.499939 55.998129 
" style="fill:none;stroke:#000000;stroke-dasharray:1.000000,3.000000;stroke-dashoffset:0.0;stroke-width:0.5;"/>
     </g>
     <g id="line2d_6">
      <defs>
       <path d="M 0 0 
L 0 -4 
" id="m23a1c74993" style="stroke:#000000;stroke-width:0.5;"/>
      </defs>
      <g>
       <use style="stroke:#000000;stroke-width:0.5;" x="187.499938925" xlink:href="#m23a1c74993" y="707.195706725"/>
      </g>
     </g>
     <g id="line2d_7">
      <defs>
       <path d="M 0 0 
L 0 4 
" id="mb419e15c23" style="stroke:#000000;stroke-width:0.5;"/>
      </defs>
      <g>
       <use style="stroke:#000000;stroke-width:0.5;" x="187.499938925" xlink:href="#mb419e15c23" y="55.998128843"/>
      </g>
     </g>
     <g id="text_1">
      <!-- -2 -->
      <defs>
       <path d="M 50.59375 8.71875 
L 13.296875 8.71875 
C 14.203125 14.53125 17.40625 18.234375 26.09375 23.34375 
L 36.09375 28.75 
C 46 34.15625 51.09375 41.453125 51.09375 50.171875 
C 51.09375 56.078125 48.703125 61.59375 44.5 65.390625 
C 40.296875 69.203125 35.09375 71 28.40625 71 
C 19.40625 71 12.703125 67.796875 8.796875 61.796875 
C 6.296875 57.984375 5.203125 53.578125 5 46.359375 
L 13.796875 46.359375 
C 14.09375 51.171875 14.703125 54.078125 15.90625 56.375 
C 18.203125 60.6875 22.796875 63.296875 28.09375 63.296875 
C 36.09375 63.296875 42.09375 57.578125 42.09375 49.96875 
C 42.09375 44.359375 38.796875 39.546875 32.5 35.953125 
L 23.296875 30.75 
C 8.5 22.34375 4.203125 15.625 3.40625 0 
L 50.59375 0 
z
" id="Nimbus_Sans_L_Regular-50"/>
       <path d="M 28.40625 31.203125 
L 4.59375 31.203125 
L 4.59375 24 
L 28.40625 24 
z
" id="Nimbus_Sans_L_Regular-45"/>
      </defs>
      <g transform="translate(163.586881567 749.52663615)scale(0.54 -0.54)">
       <use transform="scale(0.996264009963)" xlink:href="#Nimbus_Sans_L_Regular-45"/>
       <use transform="translate(33.1752297293 0.0)scale(0.996264009963)" xlink:href="#Nimbus_Sans_L_Regular-50"/>
      </g>
     </g>
    </g>
    <g id="xtick_2">
     <g id="line2d_8">
      <path clip-path="url(#p2b4a85c3d1)" d="M 419.308777 707.195707 
L 419.308777 55.998129 
" style="fill:none;stroke:#000000;stroke-dasharray:1.000000,3.000000;stroke-dashoffset:0.0;stroke-width:0.5;"/>
     </g>
     <g id="line2d_9">
      <g>
       <use style="stroke:#000000;stroke-width:0.5;" x="419.308777424" xlink:href="#m23a1c74993" y="707.195706725"/>
      </g>
     </g>
     <g id="line2d_10">
      <g>
       <use style="stroke:#000000;stroke-width:0.5;" x="419.308777424" xlink:href="#mb419e15c23" y="55.998128843"/>
      </g>
     </g>
     <g id="text_2">
      <!-- -1 -->
      <defs>
       <path d="M 25.90625 50.59375 
L 25.90625 0 
L 34.703125 0 
L 34.703125 71.015625 
L 28.90625 71.015625 
C 25.796875 60.109375 23.796875 58.609375 10.203125 56.90625 
L 10.203125 50.59375 
z
" id="Nimbus_Sans_L_Regular-49"/>
      </defs>
      <g transform="translate(395.395720066 749.52663615)scale(0.54 -0.54)">
       <use transform="scale(0.996264009963)" xlink:href="#Nimbus_Sans_L_Regular-45"/>
       <use transform="translate(33.1752297293 0.0)scale(0.996264009963)" xlink:href="#Nimbus_Sans_L_Regular-49"/>
      </g>
     </g>
    </g>
    <g id="xtick_3">
     <g id="line2d_11">
      <path clip-path="url(#p2b4a85c3d1)" d="M 651.117616 707.195707 
L 651.117616 55.998129 
" style="fill:none;stroke:#000000;stroke-dasharray:1.000000,3.000000;stroke-dashoffset:0.0;stroke-width:0.5;"/>
     </g>
     <g id="line2d_12">
      <g>
       <use style="stroke:#000000;stroke-width:0.5;" x="651.117615923" xlink:href="#m23a1c74993" y="707.195706725"/>
      </g>
     </g>
     <g id="line2d_13">
      <g>
       <use style="stroke:#000000;stroke-width:0.5;" x="651.117615923" xlink:href="#mb419e15c23" y="55.998128843"/>
      </g>
     </g>
     <g id="text_3">
      <!-- 0 -->
      <defs>
       <path d="M 27.5 71 
C 20.90625 71 14.90625 68.125 11.203125 63.21875 
C 6.59375 57.046875 4.296875 47.5625 4.296875 34.5 
C 4.296875 10.671875 12.296875 -2 27.5 -2 
C 42.5 -2 50.703125 10.671875 50.703125 33.90625 
C 50.703125 47.65625 48.5 56.84375 43.796875 63.21875 
C 40.09375 68.21875 34.203125 71 27.5 71 
M 27.5 63.1875 
C 37 63.1875 41.703125 53.625 41.703125 34.703125 
C 41.703125 14.671875 37.09375 5.3125 27.296875 5.3125 
C 18 5.3125 13.296875 15.078125 13.296875 34.40625 
C 13.296875 53.71875 18 63.1875 27.5 63.1875 
" id="Nimbus_Sans_L_Regular-48"/>
      </defs>
      <g transform="translate(636.161866791 749.52663615)scale(0.54 -0.54)">
       <use transform="scale(0.996264009963)" xlink:href="#Nimbus_Sans_L_Regular-48"/>
      </g>
     </g>
    </g>
    <g id="xtick_4">
     <g id="line2d_14">
      <path clip-path="url(#p2b4a85c3d1)" d="M 882.926454 707.195707 
L 882.926454 55.998129 
" style="fill:none;stroke:#000000;stroke-dasharray:1.000000,3.000000;stroke-dashoffset:0.0;stroke-width:0.5;"/>
     </g>
     <g id="line2d_15">
      <g>
       <use style="stroke:#000000;stroke-width:0.5;" x="882.926454421" xlink:href="#m23a1c74993" y="707.195706725"/>
      </g>
     </g>
     <g id="line2d_16">
      <g>
       <use style="stroke:#000000;stroke-width:0.5;" x="882.926454421" xlink:href="#mb419e15c23" y="55.998128843"/>
      </g>
     </g>
     <g id="text_4">
      <!-- 1 -->
      <g transform="translate(867.97070529 749.52663615)scale(0.54 -0.54)">
       <use transform="scale(0.996264009963)" xlink:href="#Nimbus_Sans_L_Regular-49"/>
      </g>
     </g>
    </g>
    <g id="xtick_5">
     <g id="line2d_17">
      <path clip-path="url(#p2b4a85c3d1)" d="M 1114.735293 707.195707 
L 1114.735293 55.998129 
" style="fill:none;stroke:#000000;stroke-dasharray:1.000000,3.000000;stroke-dashoffset:0.0;stroke-width:0.5;"/>
     </g>
     <g id="line2d_18">
      <g>
       <use style="stroke:#000000;stroke-width:0.5;" x="1114.73529292" xlink:href="#m23a1c74993" y="707.195706725"/>
      </g>
     </g>
     <g id="line2d_19">
      <g>
       <use style="stroke:#000000;stroke-width:0.5;" x="1114.73529292" xlink:href="#mb419e15c23" y="55.998128843"/>
      </g>
     </g>
     <g id="text_5">
      <!-- 2 -->
      <g transform="translate(1099.77954379 749.52663615)scale(0.54 -0.54)">
       <use transform="scale(0.996264009963)" xlink:href="#Nimbus_Sans_L_Regular-50"/>
      </g>
     </g>
    </g>
    <g id="xtick_6">
     <g id="line2d_20">
      <defs>
       <path d="M 0 0 
L 0 -2 
" id="m1b1a890ec9" style="stroke:#000000;stroke-width:0.5;"/>
      </defs>
      <g>
       <use style="stroke:#000000;stroke-width:0.5;" x="233.861706625" xlink:href="#m1b1a890ec9" y="707.195706725"/>
      </g>
     </g>
     <g id="line2d_21">
      <defs>
       <path d="M 0 0 
L 0 2 
" id="m90e6a03d4f" style="stroke:#000000;stroke-width:0.5;"/>
      </defs>
      <g>
       <use style="stroke:#000000;stroke-width:0.5;" x="233.861706625" xlink:href="#m90e6a03d4f" y="55.998128843"/>
      </g>
     </g>
    </g>
    <g id="xtick_7">
     <g id="line2d_22">
      <g>
       <use style="stroke:#000000;stroke-width:0.5;" x="280.223474325" xlink:href="#m1b1a890ec9" y="707.195706725"/>
      </g>
     </g>
     <g id="line2d_23">
      <g>
       <use style="stroke:#000000;stroke-width:0.5;" x="280.223474325" xlink:href="#m90e6a03d4f" y="55.998128843"/>
      </g>
     </g>
    </g>
    <g id="xtick_8">
     <g id="line2d_24">
      <g>
       <use style="stroke:#000000;stroke-width:0.5;" x="326.585242025" xlink:href="#m1b1a890ec9" y="707.195706725"/>
      </g>
     </g>
     <g id="line2d_25">
      <g>
       <use style="stroke:#000000;stroke-width:0.5;" x="326.585242025" xlink:href="#m90e6a03d4f" y="55.998128843"/>
      </g>
     </g>
    </g>
    <g id="xtick_9">
     <g id="line2d_26">
      <g>
       <use style="stroke:#000000;stroke-width:0.5;" x="372.947009724" xlink:href="#m1b1a890ec9" y="707.195706725"/>
      </g>
     </g>
     <g id="line2d_27">
      <g>
       <use style="stroke:#000000;stroke-width:0.5;" x="372.947009724" xlink:href="#m90e6a03d4f" y="55.998128843"/>
      </g>
     </g>
    </g>
    <g id="xtick_10">
     <g id="line2d_28">
      <g>
       <use style="stroke:#000000;stroke-width:0.5;" x="419.308777424" xlink:href="#m1b1a890ec9" y="707.195706725"/>
      </g>
     </g>
     <g id="line2d_29">
      <g>
       <use style="stroke:#000000;stroke-width:0.5;" x="419.308777424" xlink:href="#m90e6a03d4f" y="55.998128843"/>
      </g>
     </g>
    </g>
    <g id="xtick_11">
     <g id="line2d_30">
      <g>
       <use style="stroke:#000000;stroke-width:0.5;" x="465.670545124" xlink:href="#m1b1a890ec9" y="707.195706725"/>
      </g>
     </g>
     <g id="line2d_31">
      <g>
       <use style="stroke:#000000;stroke-width:0.5;" x="465.670545124" xlink:href="#m90e6a03d4f" y="55.998128843"/>
      </g>
     </g>
    </g>
    <g id="xtick_12">
     <g id="line2d_32">
      <g>
       <use style="stroke:#000000;stroke-width:0.5;" x="512.032312823" xlink:href="#m1b1a890ec9" y="707.195706725"/>
      </g>
     </g>
     <g id="line2d_33">
      <g>
       <use style="stroke:#000000;stroke-width:0.5;" x="512.032312823" xlink:href="#m90e6a03d4f" y="55.998128843"/>
      </g>
     </g>
    </g>
    <g id="xtick_13">
     <g id="line2d_34">
      <g>
       <use style="stroke:#000000;stroke-width:0.5;" x="558.394080523" xlink:href="#m1b1a890ec9" y="707.195706725"/>
      </g>
     </g>
     <g id="line2d_35">
      <g>
       <use style="stroke:#000000;stroke-width:0.5;" x="558.394080523" xlink:href="#m90e6a03d4f" y="55.998128843"/>
      </g>
     </g>
    </g>
    <g id="xtick_14">
     <g id="line2d_36">
      <g>
       <use style="stroke:#000000;stroke-width:0.5;" x="604.755848223" xlink:href="#m1b1a890ec9" y="707.195706725"/>
      </g>
     </g>
     <g id="line2d_37">
      <g>
       <use style="stroke:#000000;stroke-width:0.5;" x="604.755848223" xlink:href="#m90e6a03d4f" y="55.998128843"/>
      </g>
     </g>
    </g>
    <g id="xtick_15">
     <g id="line2d_38">
      <g>
       <use style="stroke:#000000;stroke-width:0.5;" x="651.117615923" xlink:href="#m1b1a890ec9" y="707.195706725"/>
      </g>
     </g>
     <g id="line2d_39">
      <g>
       <use style="stroke:#000000;stroke-width:0.5;" x="651.117615923" xlink:href="#m90e6a03d4f" y="55.998128843"/>
      </g>
     </g>
    </g>
    <g id="xtick_16">
     <g id="line2d_40">
      <g>
       <use style="stroke:#000000;stroke-width:0.5;" x="697.479383622" xlink:href="#m1b1a890ec9" y="707.195706725"/>
      </g>
     </g>
     <g id="line2d_41">
      <g>
       <use style="stroke:#000000;stroke-width:0.5;" x="697.479383622" xlink:href="#m90e6a03d4f" y="55.998128843"/>
      </g>
     </g>
    </g>
    <g id="xtick_17">
     <g id="line2d_42">
      <g>
       <use style="stroke:#000000;stroke-width:0.5;" x="743.841151322" xlink:href="#m1b1a890ec9" y="707.195706725"/>
      </g>
     </g>
     <g id="line2d_43">
      <g>
       <use style="stroke:#000000;stroke-width:0.5;" x="743.841151322" xlink:href="#m90e6a03d4f" y="55.998128843"/>
      </g>
     </g>
    </g>
    <g id="xtick_18">
     <g id="line2d_44">
      <g>
       <use style="stroke:#000000;stroke-width:0.5;" x="790.202919022" xlink:href="#m1b1a890ec9" y="707.195706725"/>
      </g>
     </g>
     <g id="line2d_45">
      <g>
       <use style="stroke:#000000;stroke-width:0.5;" x="790.202919022" xlink:href="#m90e6a03d4f" y="55.998128843"/>
      </g>
     </g>
    </g>
    <g id="xtick_19">
     <g id="line2d_46">
      <g>
       <use style="stroke:#000000;stroke-width:0.5;" x="836.564686722" xlink:href="#m1b1a890ec9" y="707.195706725"/>
      </g>
     </g>
     <g id="line2d_47">
      <g>
       <use style="stroke:#000000;stroke-width:0.5;" x="836.564686722" xlink:href="#m90e6a03d4f" y="55.998128843"/>
      </g>
     </g>
    </g>
    <g id="xtick_20">
     <g id="line2d_48">
      <g>
       <use style="stroke:#000000;stroke-width:0.5;" x="882.926454421" xlink:href="#m1b1a890ec9" y="707.195706725"/>
      </g>
     </g>
     <g id="line2d_49">
      <g>
       <use style="stroke:#000000;stroke-width:0.5;" x="882.926454421" xlink:href="#m90e6a03d4f" y="55.998128843"/>
      </g>
     </g>
    </g>
    <g id="xtick_21">
     <g id="line2d_50">
      <g>
       <use style="stroke:#000000;stroke-width:0.5;" x="929.288222121" xlink:href="#m1b1a890ec9" y="707.195706725"/>
      </g>
     </g>
     <g id="line2d_51">
      <g>
       <use style="stroke:#000000;stroke-width:0.5;" x="929.288222121" xlink:href="#m90e6a03d4f" y="55.998128843"/>
      </g>
     </g>
    </g>
    <g id="xtick_22">
     <g id="line2d_52">
      <g>
       <use style="stroke:#000000;stroke-width:0.5;" x="975.649989821" xlink:href="#m1b1a890ec9" y="707.195706725"/>
      </g>
     </g>
     <g id="line2d_53">
      <g>
       <use style="stroke:#000000;stroke-width:0.5;" x="975.649989821" xlink:href="#m90e6a03d4f" y="55.998128843"/>
      </g>
     </g>
    </g>
    <g id="xtick_23">
     <g id="line2d_54">
      <g>
       <use style="stroke:#000000;stroke-width:0.5;" x="1022.01175752" xlink:href="#m1b1a890ec9" y="707.195706725"/>
      </g>
     </g>
     <g id="line2d_55">
      <g>
       <use style="stroke:#000000;stroke-width:0.5;" x="1022.01175752" xlink:href="#m90e6a03d4f" y="55.998128843"/>
      </g>
     </g>
    </g>
    <g id="xtick_24">
     <g id="line2d_56">
      <g>
       <use style="stroke:#000000;stroke-width:0.5;" x="1068.37352522" xlink:href="#m1b1a890ec9" y="707.195706725"/>
      </g>
     </g>
     <g id="line2d_57">
      <g>
       <use style="stroke:#000000;stroke-width:0.5;" x="1068.37352522" xlink:href="#m90e6a03d4f" y="55.998128843"/>
      </g>
     </g>
    </g>
    <g id="xtick_25">
     <g id="line2d_58">
      <g>
       <use style="stroke:#000000;stroke-width:0.5;" x="1114.73529292" xlink:href="#m1b1a890ec9" y="707.195706725"/>
      </g>
     </g>
     <g id="line2d_59">
      <g>
       <use style="stroke:#000000;stroke-width:0.5;" x="1114.73529292" xlink:href="#m90e6a03d4f" y="55.998128843"/>
      </g>
     </g>
    </g>
    <g id="text_6">
     <!-- $x$ -->
     <defs>
      <path d="M 47.40625 40.71875 
C 44.203125 40.109375 43 37.71875 43 35.828125 
C 43 33.421875 44.90625 32.625 46.296875 32.625 
C 49.296875 32.625 51.40625 35.21875 51.40625 37.921875 
C 51.40625 42.109375 46.59375 44 42.40625 44 
C 36.296875 44 32.90625 38.015625 32 36.125 
C 29.703125 44 23.5 44 21.703125 44 
C 11.5 44 6.09375 30.9375 6.09375 28.734375 
C 6.09375 28.34375 6.5 27.84375 7.203125 27.84375 
C 8 27.84375 8.203125 28.4375 8.40625 28.84375 
C 11.796875 39.921875 18.5 42.015625 21.40625 42.015625 
C 25.90625 42.015625 26.796875 37.8125 26.796875 35.421875 
C 26.796875 33.234375 26.203125 30.9375 25 26.140625 
L 21.59375 12.46875 
C 20.09375 6.484375 17.203125 1 11.90625 1 
C 11.40625 1 8.90625 1 6.796875 2.296875 
C 10.40625 3 11.203125 5.984375 11.203125 7.1875 
C 11.203125 9.1875 9.703125 10.375 7.796875 10.375 
C 5.40625 10.375 2.796875 8.28125 2.796875 5.09375 
C 2.796875 0.890625 7.5 -1 11.796875 -1 
C 16.59375 -1 20 2.796875 22.09375 6.890625 
C 23.703125 1 28.703125 -1 32.40625 -1 
C 42.59375 -1 48 12.078125 48 14.265625 
C 48 14.765625 47.59375 15.171875 47 15.171875 
C 46.09375 15.171875 46 14.671875 45.703125 13.875 
C 43 5.09375 37.203125 1 32.703125 1 
C 29.203125 1 27.296875 3.59375 27.296875 7.6875 
C 27.296875 9.875 27.703125 11.46875 29.296875 18.0625 
L 32.796875 31.625 
C 34.296875 37.625 37.703125 42.015625 42.296875 42.015625 
C 42.5 42.015625 45.296875 42.015625 47.40625 40.71875 
" id="CMMI12-120"/>
     </defs>
     <g transform="translate(627.280970324 827.030913931)scale(0.86 -0.86)">
      <use transform="scale(0.996264009963)" xlink:href="#CMMI12-120"/>
     </g>
    </g>
   </g>
   <g id="matplotlib.axis_2">
    <g id="ytick_1">
     <g id="line2d_60">
      <path clip-path="url(#p2b4a85c3d1)" d="M 168.955232 582.286507 
L 1133.28 582.286507 
" style="fill:none;stroke:#000000;stroke-dasharray:1.000000,3.000000;stroke-dashoffset:0.0;stroke-width:0.5;"/>
     </g>
     <g id="line2d_61">
      <defs>
       <path d="M 0 0 
L 4 0 
" id="m21300e94a3" style="stroke:#000000;stroke-width:0.5;"/>
      </defs>
      <g>
       <use style="stroke:#000000;stroke-width:0.5;" x="168.955231845" xlink:href="#m21300e94a3" y="582.286506628"/>
      </g>
     </g>
     <g id="line2d_62">
      <defs>
       <path d="M 0 0 
L -4 0 
" id="maa31354389" style="stroke:#000000;stroke-width:0.5;"/>
      </defs>
      <g>
       <use style="stroke:#000000;stroke-width:0.5;" x="1133.28" xlink:href="#maa31354389" y="582.286506628"/>
      </g>
     </g>
     <g id="text_7">
      <!-- -5 -->
      <defs>
       <path d="M 47.59375 71 
L 11 71 
L 5.703125 32.59375 
L 13.796875 32.59375 
C 17.90625 37.484375 21.296875 39.1875 26.796875 39.1875 
C 36.296875 39.1875 42.296875 32.6875 42.296875 22.203125 
C 42.296875 12 36.40625 5.8125 26.796875 5.8125 
C 19.09375 5.8125 14.40625 9.703125 12.296875 17.703125 
L 3.5 17.703125 
C 4.703125 11.90625 5.703125 9.09375 7.796875 6.484375 
C 11.796875 1.09375 19 -2 27 -2 
C 41.296875 -2 51.296875 8.390625 51.296875 23.390625 
C 51.296875 37.40625 42 47 28.40625 47 
C 23.40625 47 19.40625 45.703125 15.296875 42.6875 
L 18.09375 62.296875 
L 47.59375 62.296875 
z
" id="Nimbus_Sans_L_Regular-53"/>
      </defs>
      <g transform="translate(117.129117129 595.722609584)scale(0.54 -0.54)">
       <use transform="scale(0.996264009963)" xlink:href="#Nimbus_Sans_L_Regular-45"/>
       <use transform="translate(33.1752297293 0.0)scale(0.996264009963)" xlink:href="#Nimbus_Sans_L_Regular-53"/>
      </g>
     </g>
    </g>
    <g id="ytick_2">
     <g id="line2d_63">
      <path clip-path="url(#p2b4a85c3d1)" d="M 168.955232 381.596918 
L 1133.28 381.596918 
" style="fill:none;stroke:#000000;stroke-dasharray:1.000000,3.000000;stroke-dashoffset:0.0;stroke-width:0.5;"/>
     </g>
     <g id="line2d_64">
      <g>
       <use style="stroke:#000000;stroke-width:0.5;" x="168.955231845" xlink:href="#m21300e94a3" y="381.596917784"/>
      </g>
     </g>
     <g id="line2d_65">
      <g>
       <use style="stroke:#000000;stroke-width:0.5;" x="1133.28" xlink:href="#maa31354389" y="381.596917784"/>
      </g>
     </g>
     <g id="text_8">
      <!-- 0 -->
      <g transform="translate(135.043733582 395.03302074)scale(0.54 -0.54)">
       <use transform="scale(0.996264009963)" xlink:href="#Nimbus_Sans_L_Regular-48"/>
      </g>
     </g>
    </g>
    <g id="ytick_3">
     <g id="line2d_66">
      <path clip-path="url(#p2b4a85c3d1)" d="M 168.955232 180.907329 
L 1133.28 180.907329 
" style="fill:none;stroke:#000000;stroke-dasharray:1.000000,3.000000;stroke-dashoffset:0.0;stroke-width:0.5;"/>
     </g>
     <g id="line2d_67">
      <g>
       <use style="stroke:#000000;stroke-width:0.5;" x="168.955231845" xlink:href="#m21300e94a3" y="180.90732894"/>
      </g>
     </g>
     <g id="line2d_68">
      <g>
       <use style="stroke:#000000;stroke-width:0.5;" x="1133.28" xlink:href="#maa31354389" y="180.90732894"/>
      </g>
     </g>
     <g id="text_9">
      <!-- 5 -->
      <g transform="translate(135.043733582 194.343431896)scale(0.54 -0.54)">
       <use transform="scale(0.996264009963)" xlink:href="#Nimbus_Sans_L_Regular-53"/>
      </g>
     </g>
    </g>
    <g id="ytick_4">
     <g id="line2d_69">
      <defs>
       <path d="M 0 0 
L 2 0 
" id="md9bb87ec38" style="stroke:#000000;stroke-width:0.5;"/>
      </defs>
      <g>
       <use style="stroke:#000000;stroke-width:0.5;" x="168.955231845" xlink:href="#md9bb87ec38" y="702.700259935"/>
      </g>
     </g>
     <g id="line2d_70">
      <defs>
       <path d="M 0 0 
L -2 0 
" id="mf79fc0c719" style="stroke:#000000;stroke-width:0.5;"/>
      </defs>
      <g>
       <use style="stroke:#000000;stroke-width:0.5;" x="1133.28" xlink:href="#mf79fc0c719" y="702.700259935"/>
      </g>
     </g>
    </g>
    <g id="ytick_5">
     <g id="line2d_71">
      <g>
       <use style="stroke:#000000;stroke-width:0.5;" x="168.955231845" xlink:href="#md9bb87ec38" y="662.562342166"/>
      </g>
     </g>
     <g id="line2d_72">
      <g>
       <use style="stroke:#000000;stroke-width:0.5;" x="1133.28" xlink:href="#mf79fc0c719" y="662.562342166"/>
      </g>
     </g>
    </g>
    <g id="ytick_6">
     <g id="line2d_73">
      <g>
       <use style="stroke:#000000;stroke-width:0.5;" x="168.955231845" xlink:href="#md9bb87ec38" y="622.424424397"/>
      </g>
     </g>
     <g id="line2d_74">
      <g>
       <use style="stroke:#000000;stroke-width:0.5;" x="1133.28" xlink:href="#mf79fc0c719" y="622.424424397"/>
      </g>
     </g>
    </g>
    <g id="ytick_7">
     <g id="line2d_75">
      <g>
       <use style="stroke:#000000;stroke-width:0.5;" x="168.955231845" xlink:href="#md9bb87ec38" y="542.148588859"/>
      </g>
     </g>
     <g id="line2d_76">
      <g>
       <use style="stroke:#000000;stroke-width:0.5;" x="1133.28" xlink:href="#mf79fc0c719" y="542.148588859"/>
      </g>
     </g>
    </g>
    <g id="ytick_8">
     <g id="line2d_77">
      <g>
       <use style="stroke:#000000;stroke-width:0.5;" x="168.955231845" xlink:href="#md9bb87ec38" y="502.01067109"/>
      </g>
     </g>
     <g id="line2d_78">
      <g>
       <use style="stroke:#000000;stroke-width:0.5;" x="1133.28" xlink:href="#mf79fc0c719" y="502.01067109"/>
      </g>
     </g>
    </g>
    <g id="ytick_9">
     <g id="line2d_79">
      <g>
       <use style="stroke:#000000;stroke-width:0.5;" x="168.955231845" xlink:href="#md9bb87ec38" y="461.872753322"/>
      </g>
     </g>
     <g id="line2d_80">
      <g>
       <use style="stroke:#000000;stroke-width:0.5;" x="1133.28" xlink:href="#mf79fc0c719" y="461.872753322"/>
      </g>
     </g>
    </g>
    <g id="ytick_10">
     <g id="line2d_81">
      <g>
       <use style="stroke:#000000;stroke-width:0.5;" x="168.955231845" xlink:href="#md9bb87ec38" y="421.734835553"/>
      </g>
     </g>
     <g id="line2d_82">
      <g>
       <use style="stroke:#000000;stroke-width:0.5;" x="1133.28" xlink:href="#mf79fc0c719" y="421.734835553"/>
      </g>
     </g>
    </g>
    <g id="ytick_11">
     <g id="line2d_83">
      <g>
       <use style="stroke:#000000;stroke-width:0.5;" x="168.955231845" xlink:href="#md9bb87ec38" y="341.459000015"/>
      </g>
     </g>
     <g id="line2d_84">
      <g>
       <use style="stroke:#000000;stroke-width:0.5;" x="1133.28" xlink:href="#mf79fc0c719" y="341.459000015"/>
      </g>
     </g>
    </g>
    <g id="ytick_12">
     <g id="line2d_85">
      <g>
       <use style="stroke:#000000;stroke-width:0.5;" x="168.955231845" xlink:href="#md9bb87ec38" y="301.321082246"/>
      </g>
     </g>
     <g id="line2d_86">
      <g>
       <use style="stroke:#000000;stroke-width:0.5;" x="1133.28" xlink:href="#mf79fc0c719" y="301.321082246"/>
      </g>
     </g>
    </g>
    <g id="ytick_13">
     <g id="line2d_87">
      <g>
       <use style="stroke:#000000;stroke-width:0.5;" x="168.955231845" xlink:href="#md9bb87ec38" y="261.183164477"/>
      </g>
     </g>
     <g id="line2d_88">
      <g>
       <use style="stroke:#000000;stroke-width:0.5;" x="1133.28" xlink:href="#mf79fc0c719" y="261.183164477"/>
      </g>
     </g>
    </g>
    <g id="ytick_14">
     <g id="line2d_89">
      <g>
       <use style="stroke:#000000;stroke-width:0.5;" x="168.955231845" xlink:href="#md9bb87ec38" y="221.045246709"/>
      </g>
     </g>
     <g id="line2d_90">
      <g>
       <use style="stroke:#000000;stroke-width:0.5;" x="1133.28" xlink:href="#mf79fc0c719" y="221.045246709"/>
      </g>
     </g>
    </g>
    <g id="ytick_15">
     <g id="line2d_91">
      <g>
       <use style="stroke:#000000;stroke-width:0.5;" x="168.955231845" xlink:href="#md9bb87ec38" y="140.769411171"/>
      </g>
     </g>
     <g id="line2d_92">
      <g>
       <use style="stroke:#000000;stroke-width:0.5;" x="1133.28" xlink:href="#mf79fc0c719" y="140.769411171"/>
      </g>
     </g>
    </g>
    <g id="ytick_16">
     <g id="line2d_93">
      <g>
       <use style="stroke:#000000;stroke-width:0.5;" x="168.955231845" xlink:href="#md9bb87ec38" y="100.631493402"/>
      </g>
     </g>
     <g id="line2d_94">
      <g>
       <use style="stroke:#000000;stroke-width:0.5;" x="1133.28" xlink:href="#mf79fc0c719" y="100.631493402"/>
      </g>
     </g>
    </g>
    <g id="ytick_17">
     <g id="line2d_95">
      <g>
       <use style="stroke:#000000;stroke-width:0.5;" x="168.955231845" xlink:href="#md9bb87ec38" y="60.4935756331"/>
      </g>
     </g>
     <g id="line2d_96">
      <g>
       <use style="stroke:#000000;stroke-width:0.5;" x="1133.28" xlink:href="#mf79fc0c719" y="60.4935756331"/>
      </g>
     </g>
    </g>
    <g id="text_10">
     <!-- $\frac{{d}x}{{d}t}$ -->
     <defs>
      <path d="M 20.09375 40.09375 
L 29.296875 40.09375 
C 31.203125 40.09375 32.203125 40.09375 32.203125 41.890625 
C 32.203125 43 31.59375 43 29.59375 43 
L 20.796875 43 
L 24.5 57.6875 
C 24.90625 59.078125 24.90625 59.28125 24.90625 60 
C 24.90625 61.609375 23.59375 62.5 22.296875 62.5 
C 21.5 62.5 19.203125 62.203125 18.40625 58.984375 
L 14.5 43 
L 5.09375 43 
C 3.09375 43 2.203125 43 2.203125 41.09375 
C 2.203125 40.09375 2.90625 40.09375 4.796875 40.09375 
L 13.703125 40.09375 
L 7.09375 13.765625 
C 6.296875 10.28125 6 9.28125 6 7.984375 
C 6 3.296875 9.296875 -1 14.90625 -1 
C 25 -1 30.40625 13.5625 30.40625 14.25 
C 30.40625 14.859375 30 15.15625 29.40625 15.15625 
C 29.203125 15.15625 28.796875 15.15625 28.59375 14.75 
C 28.5 14.65625 28.40625 14.546875 27.703125 12.953125 
C 25.59375 7.984375 21 1 15.203125 1 
C 12.203125 1 12 3.5 12 5.6875 
C 12 5.78125 12 7.6875 12.296875 8.875 
z
" id="CMMI12-116"/>
      <path d="M 50.296875 66.515625 
C 50.40625 66.90625 50.59375 67.5 50.59375 68 
C 50.59375 69 49.59375 69 49.40625 69 
C 49.296875 69 44.40625 68.5625 43.90625 68.4375 
C 42.203125 68.328125 40.703125 68.09375 38.90625 68.09375 
C 36.40625 67.890625 35.703125 67.796875 35.703125 66 
C 35.703125 65 36.5 65 37.90625 65 
C 42.796875 65 42.90625 64.109375 42.90625 63.125 
C 42.90625 62.53125 42.703125 61.75 42.59375 61.453125 
L 36.5 37.421875 
C 35.40625 40.015625 32.703125 44 27.5 44 
C 16.203125 44 4 29.4375 4 14.671875 
C 4 4.796875 9.796875 -1 16.59375 -1 
C 22.09375 -1 26.796875 3.296875 29.59375 6.59375 
C 30.59375 0.703125 35.296875 -1 38.296875 -1 
C 41.296875 -1 43.703125 0.796875 45.5 4.390625 
C 47.09375 7.78125 48.5 13.875 48.5 14.265625 
C 48.5 14.765625 48.09375 15.171875 47.5 15.171875 
C 46.59375 15.171875 46.5 14.671875 46.09375 13.171875 
C 44.59375 7.28125 42.703125 1 38.59375 1 
C 35.703125 1 35.5 3.578125 35.5 5.578125 
C 35.5 5.96875 35.5 8.046875 36.203125 10.84375 
z
M 30.09375 11.875 
C 29.59375 10.171875 29.59375 9.984375 28.203125 8.078125 
C 26 5.28125 21.59375 1 16.90625 1 
C 12.796875 1 10.5 4.6875 10.5 10.578125 
C 10.5 16.0625 13.59375 27.234375 15.5 31.4375 
C 18.90625 38.421875 23.59375 42.015625 27.5 42.015625 
C 34.09375 42.015625 35.40625 33.828125 35.40625 33.03125 
C 35.40625 32.9375 35.09375 31.625 35 31.4375 
z
" id="CMMI12-100"/>
     </defs>
     <g transform="translate(93.8800310603 413.539845428)rotate(-90.0)scale(0.86 -0.86)">
      <use transform="translate(0.0 73.5813544666)scale(0.697381766617)" xlink:href="#CMMI12-100"/>
      <use transform="translate(35.4822066178 73.5813544666)scale(0.697381766617)" xlink:href="#CMMI12-120"/>
      <use transform="translate(7.07267485698 0.0)scale(0.697381766617)" xlink:href="#CMMI12-100"/>
      <use transform="translate(42.5548814747 0.0)scale(0.697381766617)" xlink:href="#CMMI12-116"/>
      <path d="M 0 57.269386 
L 74.285866 57.269386 
L 74.285866 61.254336 
L 0 61.254336 
L 0 57.269386 
z
"/>
     </g>
    </g>
   </g>
   <g id="text_11">
    <g id="patch_7">
     <path d="M 936.565351 679.574418 
L 1091.554409 679.574418 
Q 1107.754409 679.574418 1107.754409 663.374418 
L 1107.754409 613.584765 
Q 1107.754409 597.384765 1091.554409 597.384765 
L 936.565351 597.384765 
Q 920.365351 597.384765 920.365351 613.584765 
L 920.365351 663.374418 
Q 920.365351 679.574418 936.565351 679.574418 
z
" style="fill:#ffffff;stroke:#000000;stroke-linejoin:miter;"/>
    </g>
    <!-- $b = 1.1$ -->
    <defs>
     <path d="M 64.296875 31.515625 
C 65.796875 31.515625 67.296875 31.515625 67.296875 33.203125 
C 67.296875 35 65.59375 35 63.90625 35 
L 8 35 
C 6.296875 35 4.59375 35 4.59375 33.203125 
C 4.59375 31.515625 6.09375 31.515625 7.59375 31.515625 
z
M 63.90625 14 
C 65.59375 14 67.296875 14 67.296875 15.796875 
C 67.296875 17.484375 65.796875 17.484375 64.296875 17.484375 
L 7.59375 17.484375 
C 6.09375 17.484375 4.59375 17.484375 4.59375 15.796875 
C 4.59375 14 6.296875 14 8 14 
z
" id="CMR17-61"/>
     <path d="M 23.09375 66.515625 
C 23.203125 66.921875 23.40625 67.515625 23.40625 68 
C 23.40625 69 22.40625 69 22.203125 69 
C 22.09375 69 18.5 68.640625 16.703125 68.390625 
C 15 68.390625 13.5 68.09375 11.703125 68.09375 
C 9.296875 67.890625 8.59375 67.796875 8.59375 66 
C 8.59375 65 9.59375 65 10.59375 65 
C 15.703125 65 15.703125 64.109375 15.703125 63.125 
C 15.703125 62.4375 14.90625 59.546875 14.5 57.75 
L 12.09375 48.203125 
C 11.09375 44.234375 5.40625 21.671875 5 19.875 
C 4.5 17.40625 4.5 15.703125 4.5 14.40625 
C 4.5 4.28125 10.203125 -1 16.703125 -1 
C 28.296875 -1 40.296875 13.875 40.296875 28.34375 
C 40.296875 37.515625 35.09375 44 27.59375 44 
C 22.40625 44 17.703125 39.71875 15.796875 37.71875 
z
M 16.796875 1 
C 13.59375 1 10.09375 3.390625 10.09375 11.171875 
C 10.09375 14.46875 10.40625 16.359375 12.203125 23.34375 
C 12.5 24.640625 14.09375 31.03125 14.5 32.328125 
C 14.703125 33.125 20.59375 42.015625 27.40625 42.015625 
C 31.796875 42.015625 33.796875 37.625 33.796875 32.4375 
C 33.796875 27.640625 31 16.359375 28.5 11.171875 
C 26 5.78125 21.40625 1 16.796875 1 
" id="CMMI12-98"/>
     <path d="M 26.59375 63.40625 
C 26.59375 65.5 26.5 65.5 25.09375 65.5 
C 21.203125 61.1875 15.296875 59.796875 9.703125 59.796875 
C 9.40625 59.796875 8.90625 59.796875 8.796875 59.5 
C 8.703125 59.296875 8.703125 59.09375 8.703125 57 
C 11.796875 57 17 57.59375 21 59.984375 
L 21 7.203125 
C 21 3.6875 20.796875 2.5 12.203125 2.5 
L 9.203125 2.5 
L 9.203125 0 
C 14 0 19 0 23.796875 0 
C 28.59375 0 33.59375 0 38.40625 0 
L 38.40625 2.5 
L 35.40625 2.5 
C 26.796875 2.5 26.59375 3.59375 26.59375 7.15625 
z
" id="CMR17-49"/>
     <path d="M 18.40625 4.796875 
C 18.40625 7.6875 16 9.671875 13.59375 9.671875 
C 10.703125 9.671875 8.703125 7.28125 8.703125 4.890625 
C 8.703125 2 11.09375 0 13.5 0 
C 16.40625 0 18.40625 2.390625 18.40625 4.796875 
" id="CMMI12-58"/>
    </defs>
    <g transform="translate(936.565351313 651.915694461)scale(0.54 -0.54)">
     <use transform="scale(0.996264009963)" xlink:href="#CMMI12-98"/>
     <use transform="translate(69.1498828855 0.0)scale(0.996264009963)" xlink:href="#CMR17-61"/>
     <use transform="translate(168.538680023 0.0)scale(0.996264009963)" xlink:href="#CMR17-49"/>
     <use transform="translate(214.22915714 0.0)scale(0.996264009963)" xlink:href="#CMMI12-58"/>
     <use transform="translate(241.32633423 0.0)scale(0.996264009963)" xlink:href="#CMR17-49"/>
    </g>
   </g>
   <g id="text_12">
    <!-- $\dot{x} = -(a + bx - x^3)$ -->
    <defs>
     <path d="M 16.5 61.078125 
C 16.5 63.46875 14.59375 65.15625 12.5 65.15625 
C 10.09375 65.15625 8.40625 63.265625 8.40625 61.078125 
C 8.40625 58.6875 10.296875 57 12.40625 57 
C 14.796875 57 16.5 58.890625 16.5 61.078125 
" id="CMR17-95"/>
     <path d="M 30.09375 11.875 
C 29.59375 10.171875 29.59375 9.984375 28.203125 8.078125 
C 26 5.28125 21.59375 1 16.90625 1 
C 12.796875 1 10.5 4.6875 10.5 10.578125 
C 10.5 16.0625 13.59375 27.234375 15.5 31.4375 
C 18.90625 38.421875 23.59375 42.015625 27.5 42.015625 
C 34.09375 42.015625 35.40625 33.828125 35.40625 33.03125 
C 35.40625 32.9375 35.09375 31.625 35 31.4375 
z
M 36.5 37.421875 
C 35.40625 40.015625 32.703125 44 27.5 44 
C 16.203125 44 4 29.4375 4 14.671875 
C 4 4.796875 9.796875 -1 16.59375 -1 
C 22.09375 -1 26.796875 3.296875 29.59375 6.59375 
C 30.59375 0.703125 35.296875 -1 38.296875 -1 
C 41.296875 -1 43.703125 0.796875 45.5 4.390625 
C 47.09375 7.78125 48.5 13.875 48.5 14.265625 
C 48.5 14.765625 48.09375 15.171875 47.5 15.171875 
C 46.59375 15.171875 46.5 14.671875 46.09375 13.171875 
C 44.59375 7.28125 42.703125 1 38.59375 1 
C 35.703125 1 35.5 3.59375 35.5 5.59375 
C 35.5 7.890625 35.796875 8.984375 36.703125 12.875 
C 37.40625 15.375 37.90625 17.5625 38.703125 20.453125 
C 42.40625 35.421875 43.296875 39.015625 43.296875 39.609375 
C 43.296875 41.015625 42.203125 42.109375 40.703125 42.109375 
C 37.5 42.109375 36.703125 38.625 36.5 37.421875 
" id="CMMI12-97"/>
     <path d="M 65.90625 23 
C 67.59375 23 69.40625 23 69.40625 25 
C 69.40625 27 67.59375 27 65.90625 27 
L 11.796875 27 
C 10.09375 27 8.296875 27 8.296875 25 
C 8.296875 23 10.09375 23 11.796875 23 
z
" id="CMSY10-0"/>
     <path d="M 22.09375 33.703125 
C 31 33.703125 34.90625 25.96875 34.90625 17.03125 
C 34.90625 5 28.5 0.390625 22.703125 0.390625 
C 17.40625 0.390625 8.796875 3.03125 6.09375 10.828125 
C 6.59375 10.625 7.09375 10.625 7.59375 10.625 
C 10 10.625 11.796875 12.21875 11.796875 14.8125 
C 11.796875 17.703125 9.59375 19 7.59375 19 
C 5.90625 19 3.296875 18.203125 3.296875 14.46875 
C 3.296875 5.234375 12.296875 -2 22.90625 -2 
C 34 -2 42.5 6.71875 42.5 16.953125 
C 42.5 26.671875 34.5 33.703125 25 34.796875 
C 32.59375 36.375 39.90625 43.0625 39.90625 52.015625 
C 39.90625 59.6875 32 65.296875 23 65.296875 
C 13.90625 65.296875 5.90625 59.828125 5.90625 52.015625 
C 5.90625 48.59375 8.5 48 9.796875 48 
C 11.90625 48 13.703125 49.296875 13.703125 51.890625 
C 13.703125 54.46875 11.90625 55.765625 9.796875 55.765625 
C 9.40625 55.765625 8.90625 55.765625 8.5 55.578125 
C 11.40625 61.859375 19.296875 63 22.796875 63 
C 26.296875 63 32.90625 61.328125 32.90625 51.875 
C 32.90625 49.109375 32.5 44.1875 29.09375 39.84375 
C 26.09375 36 22.703125 36 19.40625 35.6875 
C 18.90625 35.6875 16.59375 35.453125 16.203125 35.453125 
C 15.5 35.359375 15.09375 35.265625 15.09375 34.5 
C 15.09375 33.796875 15.203125 33.703125 17.203125 33.703125 
z
" id="CMR17-51"/>
     <path d="M 26.296875 24.703125 
C 26.296875 31.875 25.59375 44.015625 19.59375 56.859375 
C 14.796875 67.234375 6.59375 74.5 5.40625 74.5 
C 5.09375 74.5 4.703125 74.390625 4.703125 73.890625 
C 4.703125 73.703125 4.796875 73.59375 4.90625 73.390625 
C 9.703125 68.40625 21.90625 55.75 21.90625 24.75 
C 21.90625 -6.359375 9.796875 -19.015625 4.90625 -24.015625 
C 4.796875 -24.203125 4.703125 -24.3125 4.703125 -24.5 
C 4.703125 -25 5.09375 -25 5.40625 -25 
C 6.5 -25 15 -17.625 19.90625 -6.65625 
C 24.90625 4.390625 26.296875 15.140625 26.296875 24.703125 
" id="CMR17-41"/>
     <path d="M 30.59375 -24.390625 
C 30.59375 -24.296875 30.59375 -24.09375 30.296875 -23.796875 
C 25.703125 -19.125 13.40625 -6.359375 13.40625 24.703125 
C 13.40625 55.765625 25.5 68.421875 30.40625 73.390625 
C 30.40625 73.5 30.59375 73.703125 30.59375 74 
C 30.59375 74.296875 30.296875 74.5 29.90625 74.5 
C 28.796875 74.5 20.296875 67.125 15.40625 56.15625 
C 10.40625 45.109375 9 34.359375 9 24.8125 
C 9 17.625 9.703125 5.484375 15.703125 -7.359375 
C 20.5 -17.734375 28.703125 -25 29.90625 -25 
C 30.40625 -25 30.59375 -24.796875 30.59375 -24.390625 
" id="CMR17-40"/>
     <path d="M 37.703125 23 
L 64.203125 23 
C 65.59375 23 67.296875 23 67.296875 24.6875 
C 67.296875 26.484375 65.703125 26.484375 64.203125 26.484375 
L 37.703125 26.484375 
L 37.703125 52.90625 
C 37.703125 54.296875 37.703125 56 36 56 
C 34.203125 56 34.203125 54.40625 34.203125 52.90625 
L 34.203125 26.484375 
L 7.703125 26.484375 
C 6.296875 26.484375 4.59375 26.484375 4.59375 24.796875 
C 4.59375 23 6.203125 23 7.703125 23 
L 34.203125 23 
L 34.203125 -3.40625 
C 34.203125 -4.796875 34.203125 -6.5 35.90625 -6.5 
C 37.703125 -6.5 37.703125 -4.90625 37.703125 -3.40625 
z
" id="CMR17-43"/>
    </defs>
    <g transform="translate(433.831798395 50.998128843)scale(0.54 -0.54)">
     <use transform="translate(17.9912182344 0.00646075751089)scale(0.996264009963)" xlink:href="#CMR17-95"/>
     <use transform="scale(0.996264009963)" xlink:href="#CMMI12-120"/>
     <use transform="translate(83.1080682548 0.0)scale(0.996264009963)" xlink:href="#CMR17-61"/>
     <use transform="translate(182.496865392 0.0)scale(0.996264009963)" xlink:href="#CMSY10-0"/>
     <use transform="translate(259.984333043 0.0)scale(0.996264009963)" xlink:href="#CMR17-40"/>
     <use transform="translate(295.265100843 0.0)scale(0.996264009963)" xlink:href="#CMMI12-97"/>
     <use transform="translate(368.612165439 0.0)scale(0.996264009963)" xlink:href="#CMR17-43"/>
     <use transform="translate(462.466160832 0.0)scale(0.996264009963)" xlink:href="#CMMI12-98"/>
     <use transform="translate(503.942034996 0.0)scale(0.996264009963)" xlink:href="#CMMI12-120"/>
     <use transform="translate(581.515301506 0.0)scale(0.996264009963)" xlink:href="#CMSY10-0"/>
     <use transform="translate(681.141976134 0.0)scale(0.996264009963)" xlink:href="#CMMI12-120"/>
     <use transform="translate(736.576035667 36.1536389419)scale(0.697381766617)" xlink:href="#CMR17-51"/>
     <use transform="translate(769.057349636 0.0)scale(0.996264009963)" xlink:href="#CMR17-41"/>
    </g>
   </g>
   <g id="patch_8">
    <path clip-path="url(#p2b4a85c3d1)" d="M 292.532005 389.624501 
C 294.376298 389.624501 296.145301 388.778664 297.449413 387.273277 
C 298.753525 385.767889 299.48627 383.725858 299.48627 381.596918 
C 299.48627 379.467978 298.753525 377.425947 297.449413 375.920559 
C 296.145301 374.415171 294.376298 373.569334 292.532005 373.569334 
C 290.687713 373.569334 288.918709 374.415171 287.614597 375.920559 
C 286.310485 377.425947 285.57774 379.467978 285.57774 381.596918 
C 285.57774 383.725858 286.310485 385.767889 287.614597 387.273277 
C 288.918709 388.778664 290.687713 389.624501 292.532005 389.624501 
L 292.532005 389.624501 
z
" style="fill:none;stroke:#00ff66;stroke-linejoin:miter;stroke-width:5.0;"/>
   </g>
   <g id="patch_9">
    <path clip-path="url(#p2b4a85c3d1)" d="M 651.117616 389.624501 
C 652.961909 389.624501 654.730912 388.778664 656.035024 387.273277 
C 657.339136 385.767889 658.071881 383.725858 658.071881 381.596918 
C 658.071881 379.467978 657.339136 377.425947 656.035024 375.920559 
C 654.730912 374.415171 652.961909 373.569334 651.117616 373.569334 
C 649.273323 373.569334 647.50432 374.415171 646.200208 375.920559 
C 644.896096 377.425947 644.163351 379.467978 644.163351 381.596918 
C 644.163351 383.725858 644.896096 385.767889 646.200208 387.273277 
C 647.50432 388.778664 649.273323 389.624501 651.117616 389.624501 
L 651.117616 389.624501 
z
" style="fill:none;stroke:#0066ff;stroke-linejoin:miter;stroke-width:5.0;"/>
   </g>
   <g id="patch_10">
    <path clip-path="url(#p2b4a85c3d1)" d="M 407.994455 389.624501 
C 409.838748 389.624501 411.607751 388.778664 412.911863 387.273277 
C 414.215975 385.767889 414.94872 383.725858 414.94872 381.596918 
C 414.94872 379.467978 414.215975 377.425947 412.911863 375.920559 
C 411.607751 374.415171 409.838748 373.569334 407.994455 373.569334 
C 406.150162 373.569334 404.381159 374.415171 403.077047 375.920559 
C 401.772935 377.425947 401.04019 379.467978 401.04019 381.596918 
C 401.04019 383.725858 401.772935 385.767889 403.077047 387.273277 
C 404.381159 388.778664 406.150162 389.624501 407.994455 389.624501 
L 407.994455 389.624501 
z
" style="fill:none;stroke:#0066ff;stroke-linejoin:miter;stroke-width:5.0;"/>
   </g>
   <g id="patch_11">
    <path clip-path="url(#p2b4a85c3d1)" d="M 894.240777 389.624501 
C 896.08507 389.624501 897.854073 388.778664 899.158185 387.273277 
C 900.462297 385.767889 901.195042 383.725858 901.195042 381.596918 
C 901.195042 379.467978 900.462297 377.425947 899.158185 375.920559 
C 897.854073 374.415171 896.08507 373.569334 894.240777 373.569334 
C 892.396484 373.569334 890.627481 374.415171 889.323369 375.920559 
C 888.019257 377.425947 887.286512 379.467978 887.286512 381.596918 
C 887.286512 383.725858 888.019257 385.767889 889.323369 387.273277 
C 890.627481 388.778664 892.396484 389.624501 894.240777 389.624501 
L 894.240777 389.624501 
z
" style="fill:none;stroke:#0066ff;stroke-linejoin:miter;stroke-width:5.0;"/>
   </g>
   <g id="patch_12">
    <path clip-path="url(#p2b4a85c3d1)" d="M 1009.703227 389.624501 
C 1011.547519 389.624501 1013.316523 388.778664 1014.620635 387.273277 
C 1015.924746 385.767889 1016.657492 383.725858 1016.657492 381.596918 
C 1016.657492 379.467978 1015.924746 377.425947 1014.620635 375.920559 
C 1013.316523 374.415171 1011.547519 373.569334 1009.703227 373.569334 
C 1007.858934 373.569334 1006.08993 374.415171 1004.785819 375.920559 
C 1003.481707 377.425947 1002.748961 379.467978 1002.748961 381.596918 
C 1002.748961 383.725858 1003.481707 385.767889 1004.785819 387.273277 
C 1006.08993 388.778664 1007.858934 389.624501 1009.703227 389.624501 
L 1009.703227 389.624501 
z
" style="fill:none;stroke:#cc00ff;stroke-linejoin:miter;stroke-width:5.0;"/>
   </g>
   <g id="patch_13">
    <path clip-path="url(#p2b4a85c3d1)" d="M 510.750394 389.624501 
C 512.594686 389.624501 514.36369 388.778664 515.667802 387.273277 
C 516.971913 385.767889 517.704659 383.725858 517.704659 381.596918 
C 517.704659 379.467978 516.971913 377.425947 515.667802 375.920559 
C 514.36369 374.415171 512.594686 373.569334 510.750394 373.569334 
C 508.906101 373.569334 507.137097 374.415171 505.832985 375.920559 
C 504.528874 377.425947 503.796128 379.467978 503.796128 381.596918 
C 503.796128 383.725858 504.528874 385.767889 505.832985 387.273277 
C 507.137097 388.778664 508.906101 389.624501 510.750394 389.624501 
L 510.750394 389.624501 
z
" style="fill:none;stroke:#000000;stroke-linejoin:miter;stroke-width:5.0;"/>
   </g>
   <g id="patch_14">
    <path clip-path="url(#p2b4a85c3d1)" d="M 931.852061 389.624501 
C 933.696353 389.624501 935.465357 388.778664 936.769469 387.273277 
C 938.073581 385.767889 938.806326 383.725858 938.806326 381.596918 
C 938.806326 379.467978 938.073581 377.425947 936.769469 375.920559 
C 935.465357 374.415171 933.696353 373.569334 931.852061 373.569334 
C 930.007768 373.569334 928.238765 374.415171 926.934653 375.920559 
C 925.630541 377.425947 924.897796 379.467978 924.897796 381.596918 
C 924.897796 383.725858 925.630541 385.767889 926.934653 387.273277 
C 928.238765 388.778664 930.007768 389.624501 931.852061 389.624501 
L 931.852061 389.624501 
z
" style="fill:none;stroke:#000000;stroke-linejoin:miter;stroke-width:5.0;"/>
   </g>
   <g id="legend_1">
    <g id="patch_15">
     <path d="M 190.955232 310.773547 
L 413.196978 310.773547 
L 413.196978 77.998129 
L 190.955232 77.998129 
z
" style="fill:#4c4c4c;opacity:0.5;stroke:#4c4c4c;stroke-linejoin:miter;"/>
    </g>
    <g id="patch_16">
     <path d="M 188.955232 308.773547 
L 411.196978 308.773547 
L 411.196978 75.998129 
L 188.955232 75.998129 
z
" style="fill:#ffffff;stroke:#000000;stroke-linejoin:miter;"/>
    </g>
    <g id="line2d_97">
     <path d="M 224.955232 114.39141 
L 202.955232 114.39141 
" style="fill:none;stroke:#00ff66;stroke-linecap:square;stroke-width:5.0;"/>
    </g>
    <g id="line2d_98"/>
    <g id="text_13">
     <!-- $a = -2.0$ -->
     <defs>
      <path d="M 41.703125 15.453125 
L 39.90625 15.453125 
C 38.90625 8.375 38.09375 7.171875 37.703125 6.5625 
C 37.203125 5.765625 30 5.765625 28.59375 5.765625 
L 9.40625 5.765625 
C 13 9.671875 20 16.75 28.5 24.953125 
C 34.59375 30.734375 41.703125 37.53125 41.703125 47.421875 
C 41.703125 59.21875 32.296875 66 21.796875 66 
C 10.796875 66 4.09375 56.3125 4.09375 47.34375 
C 4.09375 43.4375 7 42.9375 8.203125 42.9375 
C 9.203125 42.9375 12.203125 43.546875 12.203125 47.03125 
C 12.203125 50.109375 9.59375 51 8.203125 51 
C 7.59375 51 7 50.90625 6.59375 50.703125 
C 8.5 59.21875 14.296875 63.40625 20.40625 63.40625 
C 29.09375 63.40625 34.796875 56.515625 34.796875 47.421875 
C 34.796875 38.734375 29.703125 31.25 24 24.75 
L 4.09375 2.28125 
L 4.09375 0 
L 39.296875 0 
z
" id="CMR17-50"/>
      <path d="M 42 31.640625 
C 42 37.75 41.90625 48.125 37.703125 56.109375 
C 34 63.109375 28.09375 65.59375 22.90625 65.59375 
C 18.09375 65.59375 12 63.40625 8.203125 56.203125 
C 4.203125 48.71875 3.796875 39.4375 3.796875 31.640625 
C 3.796875 25.953125 3.90625 17.28125 7 9.671875 
C 11.296875 -0.609375 19 -2 22.90625 -2 
C 27.5 -2 34.5 -0.109375 38.59375 9.375 
C 41.59375 16.28125 42 24.359375 42 31.640625 
M 22.90625 -0.40625 
C 16.5 -0.40625 12.703125 5.078125 11.296875 12.6875 
C 10.203125 18.5625 10.203125 27.15625 10.203125 32.75 
C 10.203125 40.4375 10.203125 46.828125 11.5 52.921875 
C 13.40625 61.390625 19 64 22.90625 64 
C 27 64 32.296875 61.296875 34.203125 53.125 
C 35.5 47.4375 35.59375 40.734375 35.59375 32.75 
C 35.59375 26.25 35.59375 18.265625 34.40625 12.375 
C 32.296875 1.484375 26.40625 -0.40625 22.90625 -0.40625 
" id="CMR17-48"/>
     </defs>
     <g transform="translate(234.955231845 128.391409898)scale(0.4 -0.4)">
      <use transform="scale(0.996264009963)" xlink:href="#CMMI12-97"/>
      <use transform="translate(78.8818663411 0.0)scale(0.996264009963)" xlink:href="#CMR17-61"/>
      <use transform="translate(178.270663479 0.0)scale(0.996264009963)" xlink:href="#CMSY10-0"/>
      <use transform="translate(255.758131129 0.0)scale(0.996264009963)" xlink:href="#CMR17-50"/>
      <use transform="translate(301.448608246 0.0)scale(0.996264009963)" xlink:href="#CMMI12-58"/>
      <use transform="translate(328.545785336 0.0)scale(0.996264009963)" xlink:href="#CMR17-48"/>
     </g>
    </g>
    <g id="line2d_99">
     <path d="M 224.955232 152.072637 
L 202.955232 152.072637 
" style="fill:none;stroke:#0066ff;stroke-linecap:square;stroke-width:5.0;"/>
    </g>
    <g id="line2d_100"/>
    <g id="text_14">
     <!-- $a = 0.00$ -->
     <g transform="translate(234.955231845 166.072636548)scale(0.4 -0.4)">
      <use transform="scale(0.996264009963)" xlink:href="#CMMI12-97"/>
      <use transform="translate(78.8818663411 0.0)scale(0.996264009963)" xlink:href="#CMR17-61"/>
      <use transform="translate(178.270663479 0.0)scale(0.996264009963)" xlink:href="#CMR17-48"/>
      <use transform="translate(223.961140596 0.0)scale(0.996264009963)" xlink:href="#CMMI12-58"/>
      <use transform="translate(251.058317686 0.0)scale(0.996264009963)" xlink:href="#CMR17-48"/>
      <use transform="translate(296.748794803 0.0)scale(0.996264009963)" xlink:href="#CMR17-48"/>
     </g>
    </g>
    <g id="line2d_101">
     <path d="M 224.955232 189.753863 
L 202.955232 189.753863 
" style="fill:none;stroke:#cc00ff;stroke-linecap:square;stroke-width:5.0;"/>
    </g>
    <g id="line2d_102"/>
    <g id="text_15">
     <!-- $a = 2.0$ -->
     <g transform="translate(234.955231845 203.753863199)scale(0.4 -0.4)">
      <use transform="scale(0.996264009963)" xlink:href="#CMMI12-97"/>
      <use transform="translate(78.8818663411 0.0)scale(0.996264009963)" xlink:href="#CMR17-61"/>
      <use transform="translate(178.270663479 0.0)scale(0.996264009963)" xlink:href="#CMR17-50"/>
      <use transform="translate(223.961140596 0.0)scale(0.996264009963)" xlink:href="#CMMI12-58"/>
      <use transform="translate(251.058317686 0.0)scale(0.996264009963)" xlink:href="#CMR17-48"/>
     </g>
    </g>
    <g id="line2d_103">
     <path d="M 224.955232 261.86851 
L 202.955232 261.86851 
" style="fill:none;stroke:#000000;stroke-linecap:square;stroke-width:5.0;"/>
    </g>
    <g id="line2d_104"/>
    <g id="text_16">
     <!-- $a = \sqrt{\frac{4\,b^3}{27}}$ -->
     <defs>
      <path d="M 46.40625 -161 
L 24.90625 -86 
L 11 -102.296875 
L 12.59375 -103.796875 
L 19.40625 -95.796875 
L 42.40625 -176 
C 45.703125 -176 45.796875 -176 46.59375 -173.59375 
L 101.5 0 
C 102 1.5 102 1.90625 102 2 
C 102 3.09375 101.203125 4 100 4 
C 98.5 4 98.09375 2.703125 97.703125 1.40625 
z
" id="CMEX10-113"/>
      <path d="M 33.59375 64.40625 
C 33.59375 66.5 33.5 66.5 31.703125 66.5 
L 2 19.59375 
L 2 17 
L 27.796875 17 
L 27.796875 7.140625 
C 27.796875 3.5 27.59375 2.5 20.59375 2.5 
L 18.703125 2.5 
L 18.703125 0 
C 21.90625 0 27.296875 0 30.703125 0 
C 34.09375 0 39.5 0 42.703125 0 
L 42.703125 2.5 
L 40.796875 2.5 
C 33.796875 2.5 33.59375 3.5 33.59375 7.140625 
L 33.59375 17 
L 43.796875 17 
L 43.796875 19.59375 
L 33.59375 19.59375 
z
M 28.09375 57.859375 
L 28.09375 19.59375 
L 4 19.59375 
z
" id="CMR17-52"/>
      <path d="M 45.09375 61.578125 
L 45.09375 63.765625 
L 21.59375 63.765625 
C 9.90625 63.765625 9.703125 65.078125 9.296875 67 
L 7.5 67 
L 4.59375 48.34375 
L 6.40625 48.34375 
C 6.703125 50.234375 7.40625 55.3125 8.59375 57.203125 
C 9.203125 58 16.59375 58 18.296875 58 
L 40.296875 58 
L 29.203125 41.578125 
C 21.796875 30.53125 16.703125 15.609375 16.703125 2.578125 
C 16.703125 1.390625 16.703125 -2 20.296875 -2 
C 23.90625 -2 23.90625 1.390625 23.90625 2.671875 
L 23.90625 7.265625 
C 23.90625 23.5625 26.703125 34.3125 31.296875 41.1875 
z
" id="CMR17-55"/>
     </defs>
     <g transform="translate(234.955231845 275.868510298)scale(0.4 -0.4)">
      <use transform="translate(0.0 34.3552528847)scale(0.996264009963)" xlink:href="#CMMI12-97"/>
      <use transform="translate(78.8818663411 34.3552528847)scale(0.996264009963)" xlink:href="#CMR17-61"/>
      <use transform="translate(178.270663479 153.081811736)scale(0.996264009963)" xlink:href="#CMEX10-113"/>
      <use transform="translate(279.092851879 73.5813544666)scale(0.697381766617)" xlink:href="#CMR17-52"/>
      <use transform="translate(322.699058219 73.5813544666)scale(0.697381766617)" xlink:href="#CMMI12-98"/>
      <use transform="translate(351.732045479 93.727927012)scale(0.498132004981)" xlink:href="#CMR17-51"/>
      <use transform="translate(295.100951996 0.0)scale(0.697381766617)" xlink:href="#CMR17-50"/>
      <use transform="translate(327.084133961 0.0)scale(0.697381766617)" xlink:href="#CMR17-55"/>
      <path d="M 277.897338 153.081812 
L 376.27093 153.081812 
L 376.27093 157.066761 
L 277.897338 157.066761 
L 277.897338 153.081812 
z
"/>
      <path d="M 279.092852 57.269386 
L 375.075416 57.269386 
L 375.075416 61.254336 
L 279.092852 61.254336 
L 279.092852 57.269386 
z
"/>
     </g>
    </g>
   </g>
  </g>
 </g>
 <defs>
  <clipPath id="p2b4a85c3d1">
   <rect height="651.197577882" width="964.324768155" x="168.955231845" y="55.998128843"/>
  </clipPath>
 </defs>
</svg>
