<?xml version="1.0" encoding="utf-8" standalone="no"?>
<!DOCTYPE svg PUBLIC "-//W3C//DTD SVG 1.1//EN"
  "http://www.w3.org/Graphics/SVG/1.1/DTD/svg11.dtd">
<!-- Created with matplotlib (http://matplotlib.org/) -->
<svg height="564pt" version="1.1" viewBox="0 0 708 564" width="708pt" xmlns="http://www.w3.org/2000/svg" xmlns:xlink="http://www.w3.org/1999/xlink">
 <defs>
  <style type="text/css">
*{stroke-linecap:butt;stroke-linejoin:round;stroke-miterlimit:100000;}
  </style>
 </defs>
 <g id="figure_1">
  <g id="patch_1">
   <path d="M 0 564.48 
L 708.48 564.48 
L 708.48 0 
L 0 0 
z
" style="fill:#ffffff;"/>
  </g>
  <g id="axes_1">
   <g id="patch_2">
    <path d="M 84.035096 500.334399 
L 701.28 500.334399 
L 701.28 28.419192 
L 84.035096 28.419192 
z
" style="fill:#ffffff;"/>
   </g>
   <g id="PathCollection_1">
    <path clip-path="url(#p6b8ac2008c)" d="M 236.776805 267.91233 
C 237.71444 267.91233 238.613798 267.539803 239.276805 266.876796 
C 239.939813 266.213788 240.312339 265.31443 240.312339 264.376796 
C 240.312339 263.439161 239.939813 262.539803 239.276805 261.876796 
C 238.613798 261.213788 237.71444 260.841262 236.776805 260.841262 
C 235.839171 260.841262 234.939813 261.213788 234.276805 261.876796 
C 233.613798 262.539803 233.241272 263.439161 233.241272 264.376796 
C 233.241272 265.31443 233.613798 266.213788 234.276805 266.876796 
C 234.939813 267.539803 235.839171 267.91233 236.776805 267.91233 
z
" style="fill:#ff0000;"/>
   </g>
   <g id="PathCollection_2">
    <path clip-path="url(#p6b8ac2008c)" d="M 392.657548 267.91233 
C 393.595183 267.91233 394.49454 267.539803 395.157548 266.876796 
C 395.820556 266.213788 396.193082 265.31443 396.193082 264.376796 
C 396.193082 263.439161 395.820556 262.539803 395.157548 261.876796 
C 394.49454 261.213788 393.595183 260.841262 392.657548 260.841262 
C 391.719913 260.841262 390.820556 261.213788 390.157548 261.876796 
C 389.49454 262.539803 389.122014 263.439161 389.122014 264.376796 
C 389.122014 265.31443 389.49454 266.213788 390.157548 266.876796 
C 390.820556 267.539803 391.719913 267.91233 392.657548 267.91233 
z
" style="fill:#cbff00;"/>
   </g>
   <g id="PathCollection_3">
    <path clip-path="url(#p6b8ac2008c)" d="M 548.53829 267.91233 
C 549.475925 267.91233 550.375283 267.539803 551.03829 266.876796 
C 551.701298 266.213788 552.073824 265.31443 552.073824 264.376796 
C 552.073824 263.439161 551.701298 262.539803 551.03829 261.876796 
C 550.375283 261.213788 549.475925 260.841262 548.53829 260.841262 
C 547.600656 260.841262 546.701298 261.213788 546.03829 261.876796 
C 545.375283 262.539803 545.002757 263.439161 545.002757 264.376796 
C 545.002757 265.31443 545.375283 266.213788 546.03829 266.876796 
C 546.701298 267.539803 547.600656 267.91233 548.53829 267.91233 
z
" style="fill:#00ff66;"/>
   </g>
   <g id="line2d_1">
    <path clip-path="url(#p6b8ac2008c)" d="M 95.90519 413.023827 
L 101.368194 403.964291 
L 107.601892 394.007853 
L 113.369353 385.150693 
L 119.376154 376.280687 
L 126.248342 366.566808 
L 132.497774 358.125923 
L 138.245759 350.684798 
L 144.675856 342.718169 
L 150.538517 335.775837 
L 156.76878 328.725711 
L 162.227273 322.819556 
L 169.472572 315.360049 
L 176.463736 308.561355 
L 182.832168 302.698967 
L 189.448466 296.932081 
L 195.179444 292.195526 
L 202.337151 286.60626 
L 209.074547 281.665485 
L 215.892712 276.970215 
L 222.903426 272.450071 
L 229.46895 268.488993 
L 237.141763 264.179388 
L 244.406887 260.4022 
L 251.066992 257.186876 
L 257.810802 254.160998 
L 265.483839 250.985517 
L 273.469659 247.966016 
L 280.701831 245.467601 
L 288.167008 243.109187 
L 296.850446 240.628067 
L 305.434815 238.430445 
L 313.636949 236.54671 
L 323.332659 234.564718 
L 331.993853 232.993173 
L 342.753179 231.265996 
L 354.669852 229.593391 
L 369.302707 227.798323 
L 390.925839 225.441805 
L 417.833421 222.508682 
L 432.092349 220.733358 
L 443.528049 219.10637 
L 452.882517 217.600197 
L 464.214653 215.519222 
L 472.828167 213.71945 
L 481.606738 211.66517 
L 488.839591 209.788643 
L 498.156293 207.10316 
L 505.462996 204.768332 
L 513.958125 201.780787 
L 521.587853 198.830157 
L 529.043978 195.686279 
L 536.518157 192.261392 
L 543.220202 188.945243 
L 550.96697 184.808747 
L 557.803017 180.875605 
L 564.991737 176.440261 
L 571.957832 171.837169 
L 578.479568 167.244629 
L 584.568731 162.700587 
L 591.841015 156.93799 
L 597.71013 152.011964 
L 603.789269 146.642035 
L 610.769226 140.130195 
L 617.527936 133.46109 
L 624.323564 126.383477 
L 629.834488 120.362175 
L 635.823745 113.524601 
L 642.535934 105.488946 
L 647.792971 98.913481 
L 653.838746 91.037974 
L 660.45866 82.020917 
L 666.642838 73.216682 
L 673.187188 63.489541 
L 680.220994 52.553359 
L 686.516251 42.332417 
L 689.409906 37.494485 
L 689.409906 37.494485 
" style="fill:none;stroke:#ff0000;stroke-linecap:square;"/>
   </g>
   <g id="line2d_2">
    <path clip-path="url(#p6b8ac2008c)" d="M 95.90519 452.141467 
L 102.797486 440.763457 
L 109.212767 430.617664 
L 115.910364 420.472392 
L 122.208533 411.339239 
L 128.456768 402.659351 
L 134.565679 394.531324 
L 141.134071 386.177757 
L 146.956895 379.098699 
L 153.250478 371.783653 
L 159.071702 365.321108 
L 165.610374 358.400822 
L 172.508814 351.477616 
L 178.862478 345.434381 
L 184.992478 339.897865 
L 191.680899 334.176517 
L 198.025083 329.048289 
L 204.535532 324.078169 
L 211.667557 318.96196 
L 217.046686 315.322703 
L 223.8113 311.004544 
L 230.519538 306.996517 
L 236.977614 303.385725 
L 243.67712 299.886322 
L 251.021791 296.325565 
L 258.524674 292.971418 
L 265.288394 290.180634 
L 273.450884 287.090427 
L 279.842035 284.870981 
L 288.025541 282.269527 
L 296.469312 279.848991 
L 305.680132 277.488784 
L 312.868048 275.832519 
L 323.534182 273.643759 
L 332.856717 271.963588 
L 343.723398 270.238756 
L 353.766933 268.830214 
L 368.066259 267.059119 
L 384.364389 265.254768 
L 416.712228 261.756763 
L 432.416943 259.807626 
L 445.567215 257.91033 
L 456.060372 256.164556 
L 465.548407 254.371235 
L 474.143835 252.543942 
L 483.237803 250.374722 
L 490.550937 248.436344 
L 498.361998 246.157901 
L 506.467241 243.548473 
L 515.327382 240.388036 
L 523.023691 237.362854 
L 530.62165 234.104279 
L 536.997913 231.149493 
L 543.449539 227.94517 
L 550.831132 224.001811 
L 556.723958 220.632219 
L 563.099959 216.755578 
L 569.29404 212.751253 
L 575.491575 208.501025 
L 580.862613 204.613847 
L 588.041738 199.112532 
L 594.884541 193.532386 
L 602.107133 187.273275 
L 607.891956 181.97769 
L 614.039085 176.066707 
L 619.881846 170.169949 
L 626.558772 163.08971 
L 632.824927 156.104499 
L 638.789133 149.141331 
L 645.214613 141.287441 
L 651.777902 132.878295 
L 658.760181 123.491867 
L 665.686402 113.720366 
L 672.14239 104.1888 
L 679.23843 93.229118 
L 685.641955 82.894373 
L 689.409906 76.612124 
L 689.409906 76.612124 
" style="fill:none;stroke:#cbff00;stroke-linecap:square;"/>
   </g>
   <g id="line2d_3">
    <path clip-path="url(#p6b8ac2008c)" d="M 95.90519 491.259107 
L 102.603077 480.195198 
L 108.671626 470.574804 
L 114.348632 461.915416 
L 120.642037 452.692141 
L 126.772477 444.07992 
L 133.304989 435.297732 
L 139.609244 427.199527 
L 145.202603 420.317283 
L 152.204691 412.092971 
L 159.185771 404.314975 
L 165.666159 397.460934 
L 171.984047 391.108532 
L 178.303615 385.071008 
L 184.645825 379.32104 
L 190.869457 373.970843 
L 197.522389 368.561888 
L 203.414782 364.030709 
L 209.503752 359.596272 
L 215.640093 355.374122 
L 221.521184 351.552435 
L 228.394614 347.354873 
L 235.1467 343.50294 
L 240.530239 340.617119 
L 247.118331 337.300555 
L 254.293473 333.946281 
L 261.333651 330.903915 
L 268.632586 327.996454 
L 275.948413 325.320449 
L 284.551852 322.459527 
L 292.357434 320.113249 
L 300.177153 317.982847 
L 309.144577 315.788803 
L 318.926207 313.669771 
L 329.671196 311.63288 
L 340.461218 309.850287 
L 352.477851 308.11999 
L 366.38753 306.373299 
L 383.929312 304.418856 
L 419.694481 300.52491 
L 433.441814 298.787329 
L 445.015011 297.113682 
L 455.400157 295.398998 
L 465.197145 293.55928 
L 473.688175 291.763678 
L 482.847859 289.590706 
L 491.46001 287.300172 
L 500.522925 284.605024 
L 509.021119 281.789163 
L 516.862654 278.923573 
L 524.184176 276.000677 
L 531.357088 272.891571 
L 538.958634 269.316577 
L 545.857948 265.809345 
L 553.645537 261.535206 
L 561.144594 257.088122 
L 568.288737 252.535123 
L 574.931566 248.012956 
L 581.782673 243.046199 
L 587.951977 238.301161 
L 594.383865 233.06971 
L 600.397798 227.907179 
L 607.311099 221.638634 
L 613.506778 215.707971 
L 620.025383 209.139248 
L 626.653052 202.104718 
L 633.084285 194.925778 
L 639.467896 187.446728 
L 645.915203 179.526269 
L 652.125014 171.540126 
L 658.16805 163.423436 
L 664.509151 154.531734 
L 670.035958 146.461885 
L 676.274743 136.986416 
L 682.559342 127.040382 
L 689.409906 115.729764 
L 689.409906 115.729764 
" style="fill:none;stroke:#00ff66;stroke-linecap:square;"/>
   </g>
   <g id="patch_3">
    <path d="M 84.035096 28.419192 
L 701.28 28.419192 
" style="fill:none;stroke:#000000;stroke-linecap:square;stroke-linejoin:miter;stroke-width:0.8;"/>
   </g>
   <g id="patch_4">
    <path d="M 701.28 500.334399 
L 701.28 28.419192 
" style="fill:none;stroke:#000000;stroke-linecap:square;stroke-linejoin:miter;stroke-width:0.8;"/>
   </g>
   <g id="patch_5">
    <path d="M 84.035096 500.334399 
L 701.28 500.334399 
" style="fill:none;stroke:#000000;stroke-linecap:square;stroke-linejoin:miter;stroke-width:0.8;"/>
   </g>
   <g id="patch_6">
    <path d="M 84.035096 500.334399 
L 84.035096 28.419192 
" style="fill:none;stroke:#000000;stroke-linecap:square;stroke-linejoin:miter;stroke-width:0.8;"/>
   </g>
   <g id="matplotlib.axis_1">
    <g id="xtick_1">
     <g id="line2d_4">
      <path clip-path="url(#p6b8ac2008c)" d="M 95.90519 500.334399 
L 95.90519 28.419192 
" style="fill:none;stroke:#000000;stroke-dasharray:1.000000,3.000000;stroke-dashoffset:0.0;stroke-width:0.5;"/>
     </g>
     <g id="line2d_5">
      <defs>
       <path d="M 0 0 
L 0 -4 
" id="m55ac99174c" style="stroke:#000000;stroke-width:0.5;"/>
      </defs>
      <g>
       <use style="stroke:#000000;stroke-width:0.5;" x="95.9051902384" xlink:href="#m55ac99174c" y="500.334399274"/>
      </g>
     </g>
     <g id="line2d_6">
      <defs>
       <path d="M 0 0 
L 0 4 
" id="me6a58c3909" style="stroke:#000000;stroke-width:0.5;"/>
      </defs>
      <g>
       <use style="stroke:#000000;stroke-width:0.5;" x="95.9051902384" xlink:href="#me6a58c3909" y="28.4191920678"/>
      </g>
     </g>
     <g id="text_1">
      <!-- -2 -->
      <defs>
       <path d="M 50.59375 8.71875 
L 13.296875 8.71875 
C 14.203125 14.53125 17.40625 18.234375 26.09375 23.34375 
L 36.09375 28.75 
C 46 34.15625 51.09375 41.453125 51.09375 50.171875 
C 51.09375 56.078125 48.703125 61.59375 44.5 65.390625 
C 40.296875 69.203125 35.09375 71 28.40625 71 
C 19.40625 71 12.703125 67.796875 8.796875 61.796875 
C 6.296875 57.984375 5.203125 53.578125 5 46.359375 
L 13.796875 46.359375 
C 14.09375 51.171875 14.703125 54.078125 15.90625 56.375 
C 18.203125 60.6875 22.796875 63.296875 28.09375 63.296875 
C 36.09375 63.296875 42.09375 57.578125 42.09375 49.96875 
C 42.09375 44.359375 38.796875 39.546875 32.5 35.953125 
L 23.296875 30.75 
C 8.5 22.34375 4.203125 15.625 3.40625 0 
L 50.59375 0 
z
" id="Nimbus_Sans_L_Regular-50"/>
       <path d="M 28.40625 31.203125 
L 4.59375 31.203125 
L 4.59375 24 
L 28.40625 24 
z
" id="Nimbus_Sans_L_Regular-45"/>
      </defs>
      <g transform="translate(87.0485026095 518.531039802)scale(0.2 -0.2)">
       <use transform="scale(0.996264009963)" xlink:href="#Nimbus_Sans_L_Regular-45"/>
       <use transform="translate(33.1752297293 0.0)scale(0.996264009963)" xlink:href="#Nimbus_Sans_L_Regular-50"/>
      </g>
     </g>
    </g>
    <g id="xtick_2">
     <g id="line2d_7">
      <path clip-path="url(#p6b8ac2008c)" d="M 244.281369 500.334399 
L 244.281369 28.419192 
" style="fill:none;stroke:#000000;stroke-dasharray:1.000000,3.000000;stroke-dashoffset:0.0;stroke-width:0.5;"/>
     </g>
     <g id="line2d_8">
      <g>
       <use style="stroke:#000000;stroke-width:0.5;" x="244.281369102" xlink:href="#m55ac99174c" y="500.334399274"/>
      </g>
     </g>
     <g id="line2d_9">
      <g>
       <use style="stroke:#000000;stroke-width:0.5;" x="244.281369102" xlink:href="#me6a58c3909" y="28.4191920678"/>
      </g>
     </g>
     <g id="text_2">
      <!-- -1 -->
      <defs>
       <path d="M 25.90625 50.59375 
L 25.90625 0 
L 34.703125 0 
L 34.703125 71.015625 
L 28.90625 71.015625 
C 25.796875 60.109375 23.796875 58.609375 10.203125 56.90625 
L 10.203125 50.59375 
z
" id="Nimbus_Sans_L_Regular-49"/>
      </defs>
      <g transform="translate(235.424681473 518.531039802)scale(0.2 -0.2)">
       <use transform="scale(0.996264009963)" xlink:href="#Nimbus_Sans_L_Regular-45"/>
       <use transform="translate(33.1752297293 0.0)scale(0.996264009963)" xlink:href="#Nimbus_Sans_L_Regular-49"/>
      </g>
     </g>
    </g>
    <g id="xtick_3">
     <g id="line2d_10">
      <path clip-path="url(#p6b8ac2008c)" d="M 392.657548 500.334399 
L 392.657548 28.419192 
" style="fill:none;stroke:#000000;stroke-dasharray:1.000000,3.000000;stroke-dashoffset:0.0;stroke-width:0.5;"/>
     </g>
     <g id="line2d_11">
      <g>
       <use style="stroke:#000000;stroke-width:0.5;" x="392.657547965" xlink:href="#m55ac99174c" y="500.334399274"/>
      </g>
     </g>
     <g id="line2d_12">
      <g>
       <use style="stroke:#000000;stroke-width:0.5;" x="392.657547965" xlink:href="#me6a58c3909" y="28.4191920678"/>
      </g>
     </g>
     <g id="text_3">
      <!-- 0 -->
      <defs>
       <path d="M 27.5 71 
C 20.90625 71 14.90625 68.125 11.203125 63.21875 
C 6.59375 57.046875 4.296875 47.5625 4.296875 34.5 
C 4.296875 10.671875 12.296875 -2 27.5 -2 
C 42.5 -2 50.703125 10.671875 50.703125 33.90625 
C 50.703125 47.65625 48.5 56.84375 43.796875 63.21875 
C 40.09375 68.21875 34.203125 71 27.5 71 
M 27.5 63.1875 
C 37 63.1875 41.703125 53.625 41.703125 34.703125 
C 41.703125 14.671875 37.09375 5.3125 27.296875 5.3125 
C 18 5.3125 13.296875 15.078125 13.296875 34.40625 
C 13.296875 53.71875 18 63.1875 27.5 63.1875 
" id="Nimbus_Sans_L_Regular-48"/>
      </defs>
      <g transform="translate(387.118383309 518.531039802)scale(0.2 -0.2)">
       <use transform="scale(0.996264009963)" xlink:href="#Nimbus_Sans_L_Regular-48"/>
      </g>
     </g>
    </g>
    <g id="xtick_4">
     <g id="line2d_13">
      <path clip-path="url(#p6b8ac2008c)" d="M 541.033727 500.334399 
L 541.033727 28.419192 
" style="fill:none;stroke:#000000;stroke-dasharray:1.000000,3.000000;stroke-dashoffset:0.0;stroke-width:0.5;"/>
     </g>
     <g id="line2d_14">
      <g>
       <use style="stroke:#000000;stroke-width:0.5;" x="541.033726828" xlink:href="#m55ac99174c" y="500.334399274"/>
      </g>
     </g>
     <g id="line2d_15">
      <g>
       <use style="stroke:#000000;stroke-width:0.5;" x="541.033726828" xlink:href="#me6a58c3909" y="28.4191920678"/>
      </g>
     </g>
     <g id="text_4">
      <!-- 1 -->
      <g transform="translate(535.494562172 518.531039802)scale(0.2 -0.2)">
       <use transform="scale(0.996264009963)" xlink:href="#Nimbus_Sans_L_Regular-49"/>
      </g>
     </g>
    </g>
    <g id="xtick_5">
     <g id="line2d_16">
      <path clip-path="url(#p6b8ac2008c)" d="M 689.409906 500.334399 
L 689.409906 28.419192 
" style="fill:none;stroke:#000000;stroke-dasharray:1.000000,3.000000;stroke-dashoffset:0.0;stroke-width:0.5;"/>
     </g>
     <g id="line2d_17">
      <g>
       <use style="stroke:#000000;stroke-width:0.5;" x="689.409905691" xlink:href="#m55ac99174c" y="500.334399274"/>
      </g>
     </g>
     <g id="line2d_18">
      <g>
       <use style="stroke:#000000;stroke-width:0.5;" x="689.409905691" xlink:href="#me6a58c3909" y="28.4191920678"/>
      </g>
     </g>
     <g id="text_5">
      <!-- 2 -->
      <g transform="translate(683.870741035 518.531039802)scale(0.2 -0.2)">
       <use transform="scale(0.996264009963)" xlink:href="#Nimbus_Sans_L_Regular-50"/>
      </g>
     </g>
    </g>
    <g id="xtick_6">
     <g id="line2d_19">
      <defs>
       <path d="M 0 0 
L 0 -2 
" id="m4cadf9467a" style="stroke:#000000;stroke-width:0.5;"/>
      </defs>
      <g>
       <use style="stroke:#000000;stroke-width:0.5;" x="125.580426011" xlink:href="#m4cadf9467a" y="500.334399274"/>
      </g>
     </g>
     <g id="line2d_20">
      <defs>
       <path d="M 0 0 
L 0 2 
" id="mb711791004" style="stroke:#000000;stroke-width:0.5;"/>
      </defs>
      <g>
       <use style="stroke:#000000;stroke-width:0.5;" x="125.580426011" xlink:href="#mb711791004" y="28.4191920678"/>
      </g>
     </g>
    </g>
    <g id="xtick_7">
     <g id="line2d_21">
      <g>
       <use style="stroke:#000000;stroke-width:0.5;" x="155.255661784" xlink:href="#m4cadf9467a" y="500.334399274"/>
      </g>
     </g>
     <g id="line2d_22">
      <g>
       <use style="stroke:#000000;stroke-width:0.5;" x="155.255661784" xlink:href="#mb711791004" y="28.4191920678"/>
      </g>
     </g>
    </g>
    <g id="xtick_8">
     <g id="line2d_23">
      <g>
       <use style="stroke:#000000;stroke-width:0.5;" x="184.930897556" xlink:href="#m4cadf9467a" y="500.334399274"/>
      </g>
     </g>
     <g id="line2d_24">
      <g>
       <use style="stroke:#000000;stroke-width:0.5;" x="184.930897556" xlink:href="#mb711791004" y="28.4191920678"/>
      </g>
     </g>
    </g>
    <g id="xtick_9">
     <g id="line2d_25">
      <g>
       <use style="stroke:#000000;stroke-width:0.5;" x="214.606133329" xlink:href="#m4cadf9467a" y="500.334399274"/>
      </g>
     </g>
     <g id="line2d_26">
      <g>
       <use style="stroke:#000000;stroke-width:0.5;" x="214.606133329" xlink:href="#mb711791004" y="28.4191920678"/>
      </g>
     </g>
    </g>
    <g id="xtick_10">
     <g id="line2d_27">
      <g>
       <use style="stroke:#000000;stroke-width:0.5;" x="244.281369102" xlink:href="#m4cadf9467a" y="500.334399274"/>
      </g>
     </g>
     <g id="line2d_28">
      <g>
       <use style="stroke:#000000;stroke-width:0.5;" x="244.281369102" xlink:href="#mb711791004" y="28.4191920678"/>
      </g>
     </g>
    </g>
    <g id="xtick_11">
     <g id="line2d_29">
      <g>
       <use style="stroke:#000000;stroke-width:0.5;" x="273.956604874" xlink:href="#m4cadf9467a" y="500.334399274"/>
      </g>
     </g>
     <g id="line2d_30">
      <g>
       <use style="stroke:#000000;stroke-width:0.5;" x="273.956604874" xlink:href="#mb711791004" y="28.4191920678"/>
      </g>
     </g>
    </g>
    <g id="xtick_12">
     <g id="line2d_31">
      <g>
       <use style="stroke:#000000;stroke-width:0.5;" x="303.631840647" xlink:href="#m4cadf9467a" y="500.334399274"/>
      </g>
     </g>
     <g id="line2d_32">
      <g>
       <use style="stroke:#000000;stroke-width:0.5;" x="303.631840647" xlink:href="#mb711791004" y="28.4191920678"/>
      </g>
     </g>
    </g>
    <g id="xtick_13">
     <g id="line2d_33">
      <g>
       <use style="stroke:#000000;stroke-width:0.5;" x="333.307076419" xlink:href="#m4cadf9467a" y="500.334399274"/>
      </g>
     </g>
     <g id="line2d_34">
      <g>
       <use style="stroke:#000000;stroke-width:0.5;" x="333.307076419" xlink:href="#mb711791004" y="28.4191920678"/>
      </g>
     </g>
    </g>
    <g id="xtick_14">
     <g id="line2d_35">
      <g>
       <use style="stroke:#000000;stroke-width:0.5;" x="362.982312192" xlink:href="#m4cadf9467a" y="500.334399274"/>
      </g>
     </g>
     <g id="line2d_36">
      <g>
       <use style="stroke:#000000;stroke-width:0.5;" x="362.982312192" xlink:href="#mb711791004" y="28.4191920678"/>
      </g>
     </g>
    </g>
    <g id="xtick_15">
     <g id="line2d_37">
      <g>
       <use style="stroke:#000000;stroke-width:0.5;" x="392.657547965" xlink:href="#m4cadf9467a" y="500.334399274"/>
      </g>
     </g>
     <g id="line2d_38">
      <g>
       <use style="stroke:#000000;stroke-width:0.5;" x="392.657547965" xlink:href="#mb711791004" y="28.4191920678"/>
      </g>
     </g>
    </g>
    <g id="xtick_16">
     <g id="line2d_39">
      <g>
       <use style="stroke:#000000;stroke-width:0.5;" x="422.332783737" xlink:href="#m4cadf9467a" y="500.334399274"/>
      </g>
     </g>
     <g id="line2d_40">
      <g>
       <use style="stroke:#000000;stroke-width:0.5;" x="422.332783737" xlink:href="#mb711791004" y="28.4191920678"/>
      </g>
     </g>
    </g>
    <g id="xtick_17">
     <g id="line2d_41">
      <g>
       <use style="stroke:#000000;stroke-width:0.5;" x="452.00801951" xlink:href="#m4cadf9467a" y="500.334399274"/>
      </g>
     </g>
     <g id="line2d_42">
      <g>
       <use style="stroke:#000000;stroke-width:0.5;" x="452.00801951" xlink:href="#mb711791004" y="28.4191920678"/>
      </g>
     </g>
    </g>
    <g id="xtick_18">
     <g id="line2d_43">
      <g>
       <use style="stroke:#000000;stroke-width:0.5;" x="481.683255283" xlink:href="#m4cadf9467a" y="500.334399274"/>
      </g>
     </g>
     <g id="line2d_44">
      <g>
       <use style="stroke:#000000;stroke-width:0.5;" x="481.683255283" xlink:href="#mb711791004" y="28.4191920678"/>
      </g>
     </g>
    </g>
    <g id="xtick_19">
     <g id="line2d_45">
      <g>
       <use style="stroke:#000000;stroke-width:0.5;" x="511.358491055" xlink:href="#m4cadf9467a" y="500.334399274"/>
      </g>
     </g>
     <g id="line2d_46">
      <g>
       <use style="stroke:#000000;stroke-width:0.5;" x="511.358491055" xlink:href="#mb711791004" y="28.4191920678"/>
      </g>
     </g>
    </g>
    <g id="xtick_20">
     <g id="line2d_47">
      <g>
       <use style="stroke:#000000;stroke-width:0.5;" x="541.033726828" xlink:href="#m4cadf9467a" y="500.334399274"/>
      </g>
     </g>
     <g id="line2d_48">
      <g>
       <use style="stroke:#000000;stroke-width:0.5;" x="541.033726828" xlink:href="#mb711791004" y="28.4191920678"/>
      </g>
     </g>
    </g>
    <g id="xtick_21">
     <g id="line2d_49">
      <g>
       <use style="stroke:#000000;stroke-width:0.5;" x="570.7089626" xlink:href="#m4cadf9467a" y="500.334399274"/>
      </g>
     </g>
     <g id="line2d_50">
      <g>
       <use style="stroke:#000000;stroke-width:0.5;" x="570.7089626" xlink:href="#mb711791004" y="28.4191920678"/>
      </g>
     </g>
    </g>
    <g id="xtick_22">
     <g id="line2d_51">
      <g>
       <use style="stroke:#000000;stroke-width:0.5;" x="600.384198373" xlink:href="#m4cadf9467a" y="500.334399274"/>
      </g>
     </g>
     <g id="line2d_52">
      <g>
       <use style="stroke:#000000;stroke-width:0.5;" x="600.384198373" xlink:href="#mb711791004" y="28.4191920678"/>
      </g>
     </g>
    </g>
    <g id="xtick_23">
     <g id="line2d_53">
      <g>
       <use style="stroke:#000000;stroke-width:0.5;" x="630.059434146" xlink:href="#m4cadf9467a" y="500.334399274"/>
      </g>
     </g>
     <g id="line2d_54">
      <g>
       <use style="stroke:#000000;stroke-width:0.5;" x="630.059434146" xlink:href="#mb711791004" y="28.4191920678"/>
      </g>
     </g>
    </g>
    <g id="xtick_24">
     <g id="line2d_55">
      <g>
       <use style="stroke:#000000;stroke-width:0.5;" x="659.734669918" xlink:href="#m4cadf9467a" y="500.334399274"/>
      </g>
     </g>
     <g id="line2d_56">
      <g>
       <use style="stroke:#000000;stroke-width:0.5;" x="659.734669918" xlink:href="#mb711791004" y="28.4191920678"/>
      </g>
     </g>
    </g>
    <g id="xtick_25">
     <g id="line2d_57">
      <g>
       <use style="stroke:#000000;stroke-width:0.5;" x="689.409905691" xlink:href="#m4cadf9467a" y="500.334399274"/>
      </g>
     </g>
     <g id="line2d_58">
      <g>
       <use style="stroke:#000000;stroke-width:0.5;" x="689.409905691" xlink:href="#mb711791004" y="28.4191920678"/>
      </g>
     </g>
    </g>
    <g id="text_6">
     <!-- $x$ -->
     <defs>
      <path d="M 47.40625 40.71875 
C 44.203125 40.109375 43 37.71875 43 35.828125 
C 43 33.421875 44.90625 32.625 46.296875 32.625 
C 49.296875 32.625 51.40625 35.21875 51.40625 37.921875 
C 51.40625 42.109375 46.59375 44 42.40625 44 
C 36.296875 44 32.90625 38.015625 32 36.125 
C 29.703125 44 23.5 44 21.703125 44 
C 11.5 44 6.09375 30.9375 6.09375 28.734375 
C 6.09375 28.34375 6.5 27.84375 7.203125 27.84375 
C 8 27.84375 8.203125 28.4375 8.40625 28.84375 
C 11.796875 39.921875 18.5 42.015625 21.40625 42.015625 
C 25.90625 42.015625 26.796875 37.8125 26.796875 35.421875 
C 26.796875 33.234375 26.203125 30.9375 25 26.140625 
L 21.59375 12.46875 
C 20.09375 6.484375 17.203125 1 11.90625 1 
C 11.40625 1 8.90625 1 6.796875 2.296875 
C 10.40625 3 11.203125 5.984375 11.203125 7.1875 
C 11.203125 9.1875 9.703125 10.375 7.796875 10.375 
C 5.40625 10.375 2.796875 8.28125 2.796875 5.09375 
C 2.796875 0.890625 7.5 -1 11.796875 -1 
C 16.59375 -1 20 2.796875 22.09375 6.890625 
C 23.703125 1 28.703125 -1 32.40625 -1 
C 42.59375 -1 48 12.078125 48 14.265625 
C 48 14.765625 47.59375 15.171875 47 15.171875 
C 46.09375 15.171875 46 14.671875 45.703125 13.875 
C 43 5.09375 37.203125 1 32.703125 1 
C 29.203125 1 27.296875 3.59375 27.296875 7.6875 
C 27.296875 9.875 27.703125 11.46875 29.296875 18.0625 
L 32.796875 31.625 
C 34.296875 37.625 37.703125 42.015625 42.296875 42.015625 
C 42.5 42.015625 45.296875 42.015625 47.40625 40.71875 
" id="CMMI12-120"/>
     </defs>
     <g transform="translate(383.788098439 550.489637444)scale(0.32 -0.32)">
      <use transform="scale(0.996264009963)" xlink:href="#CMMI12-120"/>
     </g>
    </g>
   </g>
   <g id="matplotlib.axis_2">
    <g id="ytick_1">
     <g id="line2d_59">
      <path clip-path="url(#p6b8ac2008c)" d="M 84.035096 459.964995 
L 701.28 459.964995 
" style="fill:none;stroke:#000000;stroke-dasharray:1.000000,3.000000;stroke-dashoffset:0.0;stroke-width:0.5;"/>
     </g>
     <g id="line2d_60">
      <defs>
       <path d="M 0 0 
L 4 0 
" id="mdd9029fdfe" style="stroke:#000000;stroke-width:0.5;"/>
      </defs>
      <g>
       <use style="stroke:#000000;stroke-width:0.5;" x="84.0350959293" xlink:href="#mdd9029fdfe" y="459.964994944"/>
      </g>
     </g>
     <g id="line2d_61">
      <defs>
       <path d="M 0 0 
L -4 0 
" id="m5dd662f7cd" style="stroke:#000000;stroke-width:0.5;"/>
      </defs>
      <g>
       <use style="stroke:#000000;stroke-width:0.5;" x="701.28" xlink:href="#m5dd662f7cd" y="459.964994944"/>
      </g>
     </g>
     <g id="text_7">
      <!-- -10 -->
      <g transform="translate(51.2433913596 464.941328809)scale(0.2 -0.2)">
       <use transform="scale(0.996264009963)" xlink:href="#Nimbus_Sans_L_Regular-45"/>
       <use transform="translate(33.1752297293 0.0)scale(0.996264009963)" xlink:href="#Nimbus_Sans_L_Regular-49"/>
       <use transform="translate(88.5669066927 0.0)scale(0.996264009963)" xlink:href="#Nimbus_Sans_L_Regular-48"/>
      </g>
     </g>
    </g>
    <g id="ytick_2">
     <g id="line2d_62">
      <path clip-path="url(#p6b8ac2008c)" d="M 84.035096 362.170895 
L 701.28 362.170895 
" style="fill:none;stroke:#000000;stroke-dasharray:1.000000,3.000000;stroke-dashoffset:0.0;stroke-width:0.5;"/>
     </g>
     <g id="line2d_63">
      <g>
       <use style="stroke:#000000;stroke-width:0.5;" x="84.0350959293" xlink:href="#mdd9029fdfe" y="362.170895308"/>
      </g>
     </g>
     <g id="line2d_64">
      <g>
       <use style="stroke:#000000;stroke-width:0.5;" x="701.28" xlink:href="#m5dd662f7cd" y="362.170895308"/>
      </g>
     </g>
     <g id="text_8">
      <!-- -5 -->
      <defs>
       <path d="M 47.59375 71 
L 11 71 
L 5.703125 32.59375 
L 13.796875 32.59375 
C 17.90625 37.484375 21.296875 39.1875 26.796875 39.1875 
C 36.296875 39.1875 42.296875 32.6875 42.296875 22.203125 
C 42.296875 12 36.40625 5.8125 26.796875 5.8125 
C 19.09375 5.8125 14.40625 9.703125 12.296875 17.703125 
L 3.5 17.703125 
C 4.703125 11.90625 5.703125 9.09375 7.796875 6.484375 
C 11.796875 1.09375 19 -2 27 -2 
C 41.296875 -2 51.296875 8.390625 51.296875 23.390625 
C 51.296875 37.40625 42 47 28.40625 47 
C 23.40625 47 19.40625 45.703125 15.296875 42.6875 
L 18.09375 62.296875 
L 47.59375 62.296875 
z
" id="Nimbus_Sans_L_Regular-53"/>
      </defs>
      <g transform="translate(62.3217206715 367.147229173)scale(0.2 -0.2)">
       <use transform="scale(0.996264009963)" xlink:href="#Nimbus_Sans_L_Regular-45"/>
       <use transform="translate(33.1752297293 0.0)scale(0.996264009963)" xlink:href="#Nimbus_Sans_L_Regular-53"/>
      </g>
     </g>
    </g>
    <g id="ytick_3">
     <g id="line2d_65">
      <path clip-path="url(#p6b8ac2008c)" d="M 84.035096 264.376796 
L 701.28 264.376796 
" style="fill:none;stroke:#000000;stroke-dasharray:1.000000,3.000000;stroke-dashoffset:0.0;stroke-width:0.5;"/>
     </g>
     <g id="line2d_66">
      <g>
       <use style="stroke:#000000;stroke-width:0.5;" x="84.0350959293" xlink:href="#mdd9029fdfe" y="264.376795671"/>
      </g>
     </g>
     <g id="line2d_67">
      <g>
       <use style="stroke:#000000;stroke-width:0.5;" x="701.28" xlink:href="#m5dd662f7cd" y="264.376795671"/>
      </g>
     </g>
     <g id="text_9">
      <!-- 0 -->
      <g transform="translate(68.9567666174 269.353129536)scale(0.2 -0.2)">
       <use transform="scale(0.996264009963)" xlink:href="#Nimbus_Sans_L_Regular-48"/>
      </g>
     </g>
    </g>
    <g id="ytick_4">
     <g id="line2d_68">
      <path clip-path="url(#p6b8ac2008c)" d="M 84.035096 166.582696 
L 701.28 166.582696 
" style="fill:none;stroke:#000000;stroke-dasharray:1.000000,3.000000;stroke-dashoffset:0.0;stroke-width:0.5;"/>
     </g>
     <g id="line2d_69">
      <g>
       <use style="stroke:#000000;stroke-width:0.5;" x="84.0350959293" xlink:href="#mdd9029fdfe" y="166.582696034"/>
      </g>
     </g>
     <g id="line2d_70">
      <g>
       <use style="stroke:#000000;stroke-width:0.5;" x="701.28" xlink:href="#m5dd662f7cd" y="166.582696034"/>
      </g>
     </g>
     <g id="text_10">
      <!-- 5 -->
      <g transform="translate(68.9567666174 171.5590299)scale(0.2 -0.2)">
       <use transform="scale(0.996264009963)" xlink:href="#Nimbus_Sans_L_Regular-53"/>
      </g>
     </g>
    </g>
    <g id="ytick_5">
     <g id="line2d_71">
      <path clip-path="url(#p6b8ac2008c)" d="M 84.035096 68.788596 
L 701.28 68.788596 
" style="fill:none;stroke:#000000;stroke-dasharray:1.000000,3.000000;stroke-dashoffset:0.0;stroke-width:0.5;"/>
     </g>
     <g id="line2d_72">
      <g>
       <use style="stroke:#000000;stroke-width:0.5;" x="84.0350959293" xlink:href="#mdd9029fdfe" y="68.7885963978"/>
      </g>
     </g>
     <g id="line2d_73">
      <g>
       <use style="stroke:#000000;stroke-width:0.5;" x="701.28" xlink:href="#m5dd662f7cd" y="68.7885963978"/>
      </g>
     </g>
     <g id="text_11">
      <!-- 10 -->
      <g transform="translate(57.8784373054 73.764930263)scale(0.2 -0.2)">
       <use transform="scale(0.996264009963)" xlink:href="#Nimbus_Sans_L_Regular-49"/>
       <use transform="translate(55.3916769633 0.0)scale(0.996264009963)" xlink:href="#Nimbus_Sans_L_Regular-48"/>
      </g>
     </g>
    </g>
    <g id="ytick_6">
     <g id="line2d_74">
      <defs>
       <path d="M 0 0 
L 2 0 
" id="m999ec6a6e1" style="stroke:#000000;stroke-width:0.5;"/>
      </defs>
      <g>
       <use style="stroke:#000000;stroke-width:0.5;" x="84.0350959293" xlink:href="#m999ec6a6e1" y="499.082634799"/>
      </g>
     </g>
     <g id="line2d_75">
      <defs>
       <path d="M 0 0 
L -2 0 
" id="m052a6663f7" style="stroke:#000000;stroke-width:0.5;"/>
      </defs>
      <g>
       <use style="stroke:#000000;stroke-width:0.5;" x="701.28" xlink:href="#m052a6663f7" y="499.082634799"/>
      </g>
     </g>
    </g>
    <g id="ytick_7">
     <g id="line2d_76">
      <g>
       <use style="stroke:#000000;stroke-width:0.5;" x="84.0350959293" xlink:href="#m999ec6a6e1" y="479.523814872"/>
      </g>
     </g>
     <g id="line2d_77">
      <g>
       <use style="stroke:#000000;stroke-width:0.5;" x="701.28" xlink:href="#m052a6663f7" y="479.523814872"/>
      </g>
     </g>
    </g>
    <g id="ytick_8">
     <g id="line2d_78">
      <g>
       <use style="stroke:#000000;stroke-width:0.5;" x="84.0350959293" xlink:href="#m999ec6a6e1" y="440.406175017"/>
      </g>
     </g>
     <g id="line2d_79">
      <g>
       <use style="stroke:#000000;stroke-width:0.5;" x="701.28" xlink:href="#m052a6663f7" y="440.406175017"/>
      </g>
     </g>
    </g>
    <g id="ytick_9">
     <g id="line2d_80">
      <g>
       <use style="stroke:#000000;stroke-width:0.5;" x="84.0350959293" xlink:href="#m999ec6a6e1" y="420.84735509"/>
      </g>
     </g>
     <g id="line2d_81">
      <g>
       <use style="stroke:#000000;stroke-width:0.5;" x="701.28" xlink:href="#m052a6663f7" y="420.84735509"/>
      </g>
     </g>
    </g>
    <g id="ytick_10">
     <g id="line2d_82">
      <g>
       <use style="stroke:#000000;stroke-width:0.5;" x="84.0350959293" xlink:href="#m999ec6a6e1" y="401.288535162"/>
      </g>
     </g>
     <g id="line2d_83">
      <g>
       <use style="stroke:#000000;stroke-width:0.5;" x="701.28" xlink:href="#m052a6663f7" y="401.288535162"/>
      </g>
     </g>
    </g>
    <g id="ytick_11">
     <g id="line2d_84">
      <g>
       <use style="stroke:#000000;stroke-width:0.5;" x="84.0350959293" xlink:href="#m999ec6a6e1" y="381.729715235"/>
      </g>
     </g>
     <g id="line2d_85">
      <g>
       <use style="stroke:#000000;stroke-width:0.5;" x="701.28" xlink:href="#m052a6663f7" y="381.729715235"/>
      </g>
     </g>
    </g>
    <g id="ytick_12">
     <g id="line2d_86">
      <g>
       <use style="stroke:#000000;stroke-width:0.5;" x="84.0350959293" xlink:href="#m999ec6a6e1" y="342.61207538"/>
      </g>
     </g>
     <g id="line2d_87">
      <g>
       <use style="stroke:#000000;stroke-width:0.5;" x="701.28" xlink:href="#m052a6663f7" y="342.61207538"/>
      </g>
     </g>
    </g>
    <g id="ytick_13">
     <g id="line2d_88">
      <g>
       <use style="stroke:#000000;stroke-width:0.5;" x="84.0350959293" xlink:href="#m999ec6a6e1" y="323.053255453"/>
      </g>
     </g>
     <g id="line2d_89">
      <g>
       <use style="stroke:#000000;stroke-width:0.5;" x="701.28" xlink:href="#m052a6663f7" y="323.053255453"/>
      </g>
     </g>
    </g>
    <g id="ytick_14">
     <g id="line2d_90">
      <g>
       <use style="stroke:#000000;stroke-width:0.5;" x="84.0350959293" xlink:href="#m999ec6a6e1" y="303.494435526"/>
      </g>
     </g>
     <g id="line2d_91">
      <g>
       <use style="stroke:#000000;stroke-width:0.5;" x="701.28" xlink:href="#m052a6663f7" y="303.494435526"/>
      </g>
     </g>
    </g>
    <g id="ytick_15">
     <g id="line2d_92">
      <g>
       <use style="stroke:#000000;stroke-width:0.5;" x="84.0350959293" xlink:href="#m999ec6a6e1" y="283.935615598"/>
      </g>
     </g>
     <g id="line2d_93">
      <g>
       <use style="stroke:#000000;stroke-width:0.5;" x="701.28" xlink:href="#m052a6663f7" y="283.935615598"/>
      </g>
     </g>
    </g>
    <g id="ytick_16">
     <g id="line2d_94">
      <g>
       <use style="stroke:#000000;stroke-width:0.5;" x="84.0350959293" xlink:href="#m999ec6a6e1" y="244.817975744"/>
      </g>
     </g>
     <g id="line2d_95">
      <g>
       <use style="stroke:#000000;stroke-width:0.5;" x="701.28" xlink:href="#m052a6663f7" y="244.817975744"/>
      </g>
     </g>
    </g>
    <g id="ytick_17">
     <g id="line2d_96">
      <g>
       <use style="stroke:#000000;stroke-width:0.5;" x="84.0350959293" xlink:href="#m999ec6a6e1" y="225.259155816"/>
      </g>
     </g>
     <g id="line2d_97">
      <g>
       <use style="stroke:#000000;stroke-width:0.5;" x="701.28" xlink:href="#m052a6663f7" y="225.259155816"/>
      </g>
     </g>
    </g>
    <g id="ytick_18">
     <g id="line2d_98">
      <g>
       <use style="stroke:#000000;stroke-width:0.5;" x="84.0350959293" xlink:href="#m999ec6a6e1" y="205.700335889"/>
      </g>
     </g>
     <g id="line2d_99">
      <g>
       <use style="stroke:#000000;stroke-width:0.5;" x="701.28" xlink:href="#m052a6663f7" y="205.700335889"/>
      </g>
     </g>
    </g>
    <g id="ytick_19">
     <g id="line2d_100">
      <g>
       <use style="stroke:#000000;stroke-width:0.5;" x="84.0350959293" xlink:href="#m999ec6a6e1" y="186.141515962"/>
      </g>
     </g>
     <g id="line2d_101">
      <g>
       <use style="stroke:#000000;stroke-width:0.5;" x="701.28" xlink:href="#m052a6663f7" y="186.141515962"/>
      </g>
     </g>
    </g>
    <g id="ytick_20">
     <g id="line2d_102">
      <g>
       <use style="stroke:#000000;stroke-width:0.5;" x="84.0350959293" xlink:href="#m999ec6a6e1" y="147.023876107"/>
      </g>
     </g>
     <g id="line2d_103">
      <g>
       <use style="stroke:#000000;stroke-width:0.5;" x="701.28" xlink:href="#m052a6663f7" y="147.023876107"/>
      </g>
     </g>
    </g>
    <g id="ytick_21">
     <g id="line2d_104">
      <g>
       <use style="stroke:#000000;stroke-width:0.5;" x="84.0350959293" xlink:href="#m999ec6a6e1" y="127.46505618"/>
      </g>
     </g>
     <g id="line2d_105">
      <g>
       <use style="stroke:#000000;stroke-width:0.5;" x="701.28" xlink:href="#m052a6663f7" y="127.46505618"/>
      </g>
     </g>
    </g>
    <g id="ytick_22">
     <g id="line2d_106">
      <g>
       <use style="stroke:#000000;stroke-width:0.5;" x="84.0350959293" xlink:href="#m999ec6a6e1" y="107.906236252"/>
      </g>
     </g>
     <g id="line2d_107">
      <g>
       <use style="stroke:#000000;stroke-width:0.5;" x="701.28" xlink:href="#m052a6663f7" y="107.906236252"/>
      </g>
     </g>
    </g>
    <g id="ytick_23">
     <g id="line2d_108">
      <g>
       <use style="stroke:#000000;stroke-width:0.5;" x="84.0350959293" xlink:href="#m999ec6a6e1" y="88.3474163251"/>
      </g>
     </g>
     <g id="line2d_109">
      <g>
       <use style="stroke:#000000;stroke-width:0.5;" x="701.28" xlink:href="#m052a6663f7" y="88.3474163251"/>
      </g>
     </g>
    </g>
    <g id="ytick_24">
     <g id="line2d_110">
      <g>
       <use style="stroke:#000000;stroke-width:0.5;" x="84.0350959293" xlink:href="#m999ec6a6e1" y="49.2297764705"/>
      </g>
     </g>
     <g id="line2d_111">
      <g>
       <use style="stroke:#000000;stroke-width:0.5;" x="701.28" xlink:href="#m052a6663f7" y="49.2297764705"/>
      </g>
     </g>
    </g>
    <g id="ytick_25">
     <g id="line2d_112">
      <g>
       <use style="stroke:#000000;stroke-width:0.5;" x="84.0350959293" xlink:href="#m999ec6a6e1" y="29.6709565432"/>
      </g>
     </g>
     <g id="line2d_113">
      <g>
       <use style="stroke:#000000;stroke-width:0.5;" x="701.28" xlink:href="#m052a6663f7" y="29.6709565432"/>
      </g>
     </g>
    </g>
    <g id="text_12">
     <!-- $\frac{{d}x}{{d}t}$ -->
     <defs>
      <path d="M 20.09375 40.09375 
L 29.296875 40.09375 
C 31.203125 40.09375 32.203125 40.09375 32.203125 41.890625 
C 32.203125 43 31.59375 43 29.59375 43 
L 20.796875 43 
L 24.5 57.6875 
C 24.90625 59.078125 24.90625 59.28125 24.90625 60 
C 24.90625 61.609375 23.59375 62.5 22.296875 62.5 
C 21.5 62.5 19.203125 62.203125 18.40625 58.984375 
L 14.5 43 
L 5.09375 43 
C 3.09375 43 2.203125 43 2.203125 41.09375 
C 2.203125 40.09375 2.90625 40.09375 4.796875 40.09375 
L 13.703125 40.09375 
L 7.09375 13.765625 
C 6.296875 10.28125 6 9.28125 6 7.984375 
C 6 3.296875 9.296875 -1 14.90625 -1 
C 25 -1 30.40625 13.5625 30.40625 14.25 
C 30.40625 14.859375 30 15.15625 29.40625 15.15625 
C 29.203125 15.15625 28.796875 15.15625 28.59375 14.75 
C 28.5 14.65625 28.40625 14.546875 27.703125 12.953125 
C 25.59375 7.984375 21 1 15.203125 1 
C 12.203125 1 12 3.5 12 5.6875 
C 12 5.78125 12 7.6875 12.296875 8.875 
z
" id="CMMI12-116"/>
      <path d="M 50.296875 66.515625 
C 50.40625 66.90625 50.59375 67.5 50.59375 68 
C 50.59375 69 49.59375 69 49.40625 69 
C 49.296875 69 44.40625 68.5625 43.90625 68.4375 
C 42.203125 68.328125 40.703125 68.09375 38.90625 68.09375 
C 36.40625 67.890625 35.703125 67.796875 35.703125 66 
C 35.703125 65 36.5 65 37.90625 65 
C 42.796875 65 42.90625 64.109375 42.90625 63.125 
C 42.90625 62.53125 42.703125 61.75 42.59375 61.453125 
L 36.5 37.421875 
C 35.40625 40.015625 32.703125 44 27.5 44 
C 16.203125 44 4 29.4375 4 14.671875 
C 4 4.796875 9.796875 -1 16.59375 -1 
C 22.09375 -1 26.796875 3.296875 29.59375 6.59375 
C 30.59375 0.703125 35.296875 -1 38.296875 -1 
C 41.296875 -1 43.703125 0.796875 45.5 4.390625 
C 47.09375 7.78125 48.5 13.875 48.5 14.265625 
C 48.5 14.765625 48.09375 15.171875 47.5 15.171875 
C 46.59375 15.171875 46.5 14.671875 46.09375 13.171875 
C 44.59375 7.28125 42.703125 1 38.59375 1 
C 35.703125 1 35.5 3.578125 35.5 5.578125 
C 35.5 5.96875 35.5 8.046875 36.203125 10.84375 
z
M 30.09375 11.875 
C 29.59375 10.171875 29.59375 9.984375 28.203125 8.078125 
C 26 5.28125 21.59375 1 16.90625 1 
C 12.796875 1 10.5 4.6875 10.5 10.578125 
C 10.5 16.0625 13.59375 27.234375 15.5 31.4375 
C 18.90625 38.421875 23.59375 42.015625 27.5 42.015625 
C 34.09375 42.015625 35.40625 33.828125 35.40625 33.03125 
C 35.40625 32.9375 35.09375 31.625 35 31.4375 
z
" id="CMMI12-100"/>
     </defs>
     <g transform="translate(39.4530288031 276.26252965)rotate(-90.0)scale(0.32 -0.32)">
      <use transform="translate(0.0 73.5813544666)scale(0.697381766617)" xlink:href="#CMMI12-100"/>
      <use transform="translate(35.4822066178 73.5813544666)scale(0.697381766617)" xlink:href="#CMMI12-120"/>
      <use transform="translate(7.07267485698 0.0)scale(0.697381766617)" xlink:href="#CMMI12-100"/>
      <use transform="translate(42.5548814747 0.0)scale(0.697381766617)" xlink:href="#CMMI12-116"/>
      <path d="M 0 57.269386 
L 74.285866 57.269386 
L 74.285866 61.254336 
L 0 61.254336 
L 0 57.269386 
z
"/>
     </g>
    </g>
   </g>
   <g id="text_13">
    <!-- Stationary points for $\dot{x} = -(a + bx - x^3)$ for $b = -0.800$ -->
    <defs>
     <path d="M 38.796875 52.5 
L 24.296875 11.53125 
L 10.90625 52.5 
L 2 52.5 
L 19.703125 -0.328125 
L 16.5 -8.65625 
C 15.203125 -12.375 13.296875 -13.78125 9.796875 -13.78125 
C 8.59375 -13.78125 7.203125 -13.578125 5.40625 -13.171875 
L 5.40625 -20.703125 
C 7.09375 -21.59375 8.796875 -22 11 -22 
C 13.703125 -22 16.59375 -21.09375 18.796875 -19.484375 
C 21.40625 -17.578125 22.90625 -15.359375 24.5 -11.140625 
L 47.796875 52.5 
z
" id="Nimbus_Sans_L_Regular-121"/>
     <path d="M 22.09375 33.703125 
C 31 33.703125 34.90625 25.96875 34.90625 17.03125 
C 34.90625 5 28.5 0.390625 22.703125 0.390625 
C 17.40625 0.390625 8.796875 3.03125 6.09375 10.828125 
C 6.59375 10.625 7.09375 10.625 7.59375 10.625 
C 10 10.625 11.796875 12.21875 11.796875 14.8125 
C 11.796875 17.703125 9.59375 19 7.59375 19 
C 5.90625 19 3.296875 18.203125 3.296875 14.46875 
C 3.296875 5.234375 12.296875 -2 22.90625 -2 
C 34 -2 42.5 6.71875 42.5 16.953125 
C 42.5 26.671875 34.5 33.703125 25 34.796875 
C 32.59375 36.375 39.90625 43.0625 39.90625 52.015625 
C 39.90625 59.6875 32 65.296875 23 65.296875 
C 13.90625 65.296875 5.90625 59.828125 5.90625 52.015625 
C 5.90625 48.59375 8.5 48 9.796875 48 
C 11.90625 48 13.703125 49.296875 13.703125 51.890625 
C 13.703125 54.46875 11.90625 55.765625 9.796875 55.765625 
C 9.40625 55.765625 8.90625 55.765625 8.5 55.578125 
C 11.40625 61.859375 19.296875 63 22.796875 63 
C 26.296875 63 32.90625 61.328125 32.90625 51.875 
C 32.90625 49.109375 32.5 44.1875 29.09375 39.84375 
C 26.09375 36 22.703125 36 19.40625 35.6875 
C 18.90625 35.6875 16.59375 35.453125 16.203125 35.453125 
C 15.5 35.359375 15.09375 35.265625 15.09375 34.5 
C 15.09375 33.796875 15.203125 33.703125 17.203125 33.703125 
z
" id="CMR17-51"/>
     <path d="M 27.203125 35.375 
C 33.5 38.546875 39.90625 43.328125 39.90625 50.984375 
C 39.90625 60.015625 31.09375 65.296875 23 65.296875 
C 13.90625 65.296875 5.90625 58.734375 5.90625 49.6875 
C 5.90625 47.203125 6.5 42.921875 10.40625 39.140625 
C 11.40625 38.15625 15.59375 35.171875 18.296875 33.28125 
C 13.796875 30.984375 3.296875 25.53125 3.296875 14.59375 
C 3.296875 4.359375 13.09375 -2 22.796875 -2 
C 33.5 -2 42.5 5.65625 42.5 15.78125 
C 42.5 24.84375 36.40625 29.015625 32.40625 31.703125 
z
M 14.09375 44.09375 
C 13.296875 44.59375 9.296875 47.671875 9.296875 52.359375 
C 9.296875 58.421875 15.59375 63 22.796875 63 
C 30.703125 63 36.5 57.4375 36.5 50.96875 
C 36.5 41.703125 26.09375 36.421875 25.59375 36.421875 
C 25.5 36.421875 25.40625 36.421875 24.59375 37.03125 
z
M 32.5 23.734375 
C 34 22.640625 38.796875 19.375 38.796875 13.296875 
C 38.796875 5.953125 31.40625 0.390625 23 0.390625 
C 13.90625 0.390625 7 6.84375 7 14.6875 
C 7 22.546875 13.09375 29.09375 20 32.1875 
z
" id="CMR17-56"/>
     <path d="M 15 52.484375 
L 6.703125 52.484375 
L 6.703125 0 
L 15 0 
z
M 15 73 
L 6.59375 73 
L 6.59375 62.484375 
L 15 62.484375 
z
" id="Nimbus_Sans_L_Regular-105"/>
     <path d="M 59.59375 52.109375 
C 59.5 66.484375 49.703125 74.8125 32.90625 74.8125 
C 16.90625 74.8125 7 66.5625 7 53.28125 
C 7 44.328125 11.703125 38.703125 21.296875 36.1875 
L 39.40625 31.359375 
C 48.59375 28.9375 52.796875 25.21875 52.796875 19.484375 
C 52.796875 15.546875 50.703125 11.53125 47.59375 9.328125 
C 44.703125 7.3125 40.09375 6.203125 34.203125 6.203125 
C 26.296875 6.203125 20.90625 8.125 17.40625 12.34375 
C 14.703125 15.5625 13.5 19.09375 13.59375 23.609375 
L 4.796875 23.609375 
C 4.90625 16.890625 6.203125 12.46875 9.09375 8.4375 
C 14.09375 1.609375 22.5 -2 33.59375 -2 
C 42.296875 -2 49.40625 0.015625 54.09375 3.625 
C 59 7.546875 62.09375 14.078125 62.09375 20.421875 
C 62.09375 29.46875 56.5 36.109375 46.59375 38.828125 
L 28.296875 43.765625 
C 19.5 46.171875 16.296875 48.984375 16.296875 54.625 
C 16.296875 62.0625 22.796875 67 32.59375 67 
C 44.203125 67 50.703125 61.671875 50.796875 52.109375 
z
" id="Nimbus_Sans_L_Regular-83"/>
     <path d="M 25.796875 52 
L 17.09375 52 
L 17.09375 60.25 
C 17.09375 63.78125 19.09375 65.59375 22.90625 65.59375 
C 23.59375 65.59375 23.90625 65.59375 25.796875 65.59375 
L 25.796875 72.5 
C 23.90625 72.90625 22.796875 73 21.09375 73 
C 13.40625 73 8.796875 68.5625 8.796875 60.984375 
L 8.796875 52 
L 1.796875 52 
L 1.796875 45.1875 
L 8.796875 45.1875 
L 8.796875 -0.40625 
L 17.09375 -0.40625 
L 17.09375 45.1875 
L 25.796875 45.1875 
z
" id="Nimbus_Sans_L_Regular-102"/>
     <path d="M 16.5 61.078125 
C 16.5 63.46875 14.59375 65.15625 12.5 65.15625 
C 10.09375 65.15625 8.40625 63.265625 8.40625 61.078125 
C 8.40625 58.6875 10.296875 57 12.40625 57 
C 14.796875 57 16.5 58.890625 16.5 61.078125 
" id="CMR17-95"/>
     <path d="M 65.90625 23 
C 67.59375 23 69.40625 23 69.40625 25 
C 69.40625 27 67.59375 27 65.90625 27 
L 11.796875 27 
C 10.09375 27 8.296875 27 8.296875 25 
C 8.296875 23 10.09375 23 11.796875 23 
z
" id="CMSY10-0"/>
     <path d="M 27.203125 54 
C 12.5 54 3.59375 43.53125 3.59375 25.984375 
C 3.59375 8.453125 12.40625 -2 27.296875 -2 
C 42 -2 51 8.453125 51 25.59375 
C 51 43.625 42.296875 54 27.203125 54 
M 27.296875 46.28125 
C 36.703125 46.28125 42.296875 38.625 42.296875 25.703125 
C 42.296875 13.453125 36.5 5.703125 27.296875 5.703125 
C 18 5.703125 12.296875 13.359375 12.296875 25.984375 
C 12.296875 38.53125 18 46.28125 27.296875 46.28125 
" id="Nimbus_Sans_L_Regular-111"/>
     <path d="M 30.09375 11.875 
C 29.59375 10.171875 29.59375 9.984375 28.203125 8.078125 
C 26 5.28125 21.59375 1 16.90625 1 
C 12.796875 1 10.5 4.6875 10.5 10.578125 
C 10.5 16.0625 13.59375 27.234375 15.5 31.4375 
C 18.90625 38.421875 23.59375 42.015625 27.5 42.015625 
C 34.09375 42.015625 35.40625 33.828125 35.40625 33.03125 
C 35.40625 32.9375 35.09375 31.625 35 31.4375 
z
M 36.5 37.421875 
C 35.40625 40.015625 32.703125 44 27.5 44 
C 16.203125 44 4 29.4375 4 14.671875 
C 4 4.796875 9.796875 -1 16.59375 -1 
C 22.09375 -1 26.796875 3.296875 29.59375 6.59375 
C 30.59375 0.703125 35.296875 -1 38.296875 -1 
C 41.296875 -1 43.703125 0.796875 45.5 4.390625 
C 47.09375 7.78125 48.5 13.875 48.5 14.265625 
C 48.5 14.765625 48.09375 15.171875 47.5 15.171875 
C 46.59375 15.171875 46.5 14.671875 46.09375 13.171875 
C 44.59375 7.28125 42.703125 1 38.59375 1 
C 35.703125 1 35.5 3.59375 35.5 5.59375 
C 35.5 7.890625 35.796875 8.984375 36.703125 12.875 
C 37.40625 15.375 37.90625 17.5625 38.703125 20.453125 
C 42.40625 35.421875 43.296875 39.015625 43.296875 39.609375 
C 43.296875 41.015625 42.203125 42.109375 40.703125 42.109375 
C 37.5 42.109375 36.703125 38.625 36.5 37.421875 
" id="CMMI12-97"/>
     <path d="M 53.5 5.203125 
C 52.59375 5 52.203125 5 51.703125 5 
C 48.796875 5 47.203125 6.484375 47.203125 9.078125 
L 47.203125 39.765625 
C 47.203125 49.015625 40.40625 54 27.5 54 
C 19.90625 54 13.59375 51.8125 10.09375 47.90625 
C 7.703125 45.203125 6.703125 42.21875 6.5 37.03125 
L 14.90625 37.03125 
C 15.59375 43.390625 19.40625 46.28125 27.203125 46.28125 
C 34.703125 46.28125 38.90625 43.484375 38.90625 38.515625 
L 38.90625 36.328125 
C 38.90625 32.828125 36.796875 31.34375 30.203125 30.546875 
C 18.40625 29.0625 16.59375 28.65625 13.40625 27.359375 
C 7.296875 24.875 4.203125 20.1875 4.203125 13.421875 
C 4.203125 3.96875 10.796875 -2 21.40625 -2 
C 28 -2 33.296875 0.296875 39.203125 5.703125 
C 39.796875 0.390625 42.40625 -2 47.796875 -2 
C 49.5 -2 50.796875 -1.8125 53.5 -1.09375 
z
M 38.90625 16.75 
C 38.90625 13.953125 38.09375 12.265625 35.59375 9.984375 
C 32.203125 6.890625 28.09375 5.3125 23.203125 5.3125 
C 16.703125 5.3125 12.90625 8.390625 12.90625 13.65625 
C 12.90625 19.140625 16.59375 21.921875 25.5 23.21875 
C 34.296875 24.40625 36.09375 24.8125 38.90625 26.09375 
z
" id="Nimbus_Sans_L_Regular-97"/>
     <path d="M 64.296875 31.515625 
C 65.796875 31.515625 67.296875 31.515625 67.296875 33.203125 
C 67.296875 35 65.59375 35 63.90625 35 
L 8 35 
C 6.296875 35 4.59375 35 4.59375 33.203125 
C 4.59375 31.515625 6.09375 31.515625 7.59375 31.515625 
z
M 63.90625 14 
C 65.59375 14 67.296875 14 67.296875 15.796875 
C 67.296875 17.484375 65.796875 17.484375 64.296875 17.484375 
L 7.59375 17.484375 
C 6.09375 17.484375 4.59375 17.484375 4.59375 15.796875 
C 4.59375 14 6.296875 14 8 14 
z
" id="CMR17-61"/>
     <path d="M 23.09375 66.515625 
C 23.203125 66.921875 23.40625 67.515625 23.40625 68 
C 23.40625 69 22.40625 69 22.203125 69 
C 22.09375 69 18.5 68.640625 16.703125 68.390625 
C 15 68.390625 13.5 68.09375 11.703125 68.09375 
C 9.296875 67.890625 8.59375 67.796875 8.59375 66 
C 8.59375 65 9.59375 65 10.59375 65 
C 15.703125 65 15.703125 64.109375 15.703125 63.125 
C 15.703125 62.4375 14.90625 59.546875 14.5 57.75 
L 12.09375 48.203125 
C 11.09375 44.234375 5.40625 21.671875 5 19.875 
C 4.5 17.40625 4.5 15.703125 4.5 14.40625 
C 4.5 4.28125 10.203125 -1 16.703125 -1 
C 28.296875 -1 40.296875 13.875 40.296875 28.34375 
C 40.296875 37.515625 35.09375 44 27.59375 44 
C 22.40625 44 17.703125 39.71875 15.796875 37.71875 
z
M 16.796875 1 
C 13.59375 1 10.09375 3.390625 10.09375 11.171875 
C 10.09375 14.46875 10.40625 16.359375 12.203125 23.34375 
C 12.5 24.640625 14.09375 31.03125 14.5 32.328125 
C 14.703125 33.125 20.59375 42.015625 27.40625 42.015625 
C 31.796875 42.015625 33.796875 37.625 33.796875 32.4375 
C 33.796875 27.640625 31 16.359375 28.5 11.171875 
C 26 5.78125 21.40625 1 16.796875 1 
" id="CMMI12-98"/>
     <path d="M 37.703125 23 
L 64.203125 23 
C 65.59375 23 67.296875 23 67.296875 24.6875 
C 67.296875 26.484375 65.703125 26.484375 64.203125 26.484375 
L 37.703125 26.484375 
L 37.703125 52.90625 
C 37.703125 54.296875 37.703125 56 36 56 
C 34.203125 56 34.203125 54.40625 34.203125 52.90625 
L 34.203125 26.484375 
L 7.703125 26.484375 
C 6.296875 26.484375 4.59375 26.484375 4.59375 24.796875 
C 4.59375 23 6.203125 23 7.703125 23 
L 34.203125 23 
L 34.203125 -3.40625 
C 34.203125 -4.796875 34.203125 -6.5 35.90625 -6.5 
C 37.703125 -6.5 37.703125 -4.90625 37.703125 -3.40625 
z
" id="CMR17-43"/>
     <path d="M 26.296875 24.703125 
C 26.296875 31.875 25.59375 44.015625 19.59375 56.859375 
C 14.796875 67.234375 6.59375 74.5 5.40625 74.5 
C 5.09375 74.5 4.703125 74.390625 4.703125 73.890625 
C 4.703125 73.703125 4.796875 73.59375 4.90625 73.390625 
C 9.703125 68.40625 21.90625 55.75 21.90625 24.75 
C 21.90625 -6.359375 9.796875 -19.015625 4.90625 -24.015625 
C 4.796875 -24.203125 4.703125 -24.3125 4.703125 -24.5 
C 4.703125 -25 5.09375 -25 5.40625 -25 
C 6.5 -25 15 -17.625 19.90625 -6.65625 
C 24.90625 4.390625 26.296875 15.140625 26.296875 24.703125 
" id="CMR17-41"/>
     <path d="M 30.59375 -24.390625 
C 30.59375 -24.296875 30.59375 -24.09375 30.296875 -23.796875 
C 25.703125 -19.125 13.40625 -6.359375 13.40625 24.703125 
C 13.40625 55.765625 25.5 68.421875 30.40625 73.390625 
C 30.40625 73.5 30.59375 73.703125 30.59375 74 
C 30.59375 74.296875 30.296875 74.5 29.90625 74.5 
C 28.796875 74.5 20.296875 67.125 15.40625 56.15625 
C 10.40625 45.109375 9 34.359375 9 24.8125 
C 9 17.625 9.703125 5.484375 15.703125 -7.359375 
C 20.5 -17.734375 28.703125 -25 29.90625 -25 
C 30.40625 -25 30.59375 -24.796875 30.59375 -24.390625 
" id="CMR17-40"/>
     <path d="M 6.90625 52.484375 
L 6.90625 0 
L 15.296875 0 
L 15.296875 27.203125 
C 15.296875 34.703125 17.203125 39.609375 21.203125 42.5 
C 23.796875 44.40625 26.296875 45 32.09375 45 
L 32.09375 53.625 
C 30.703125 53.8125 30 53.8125 28.90625 53.8125 
C 23.5 53.8125 19.40625 50.625 14.59375 42.90625 
L 14.59375 52.484375 
z
" id="Nimbus_Sans_L_Regular-114"/>
     <path d="M 5.40625 -22 
L 13.796875 -22 
L 13.796875 5 
C 18.203125 -0.421875 23.09375 -2.8125 29.90625 -2.8125 
C 43.40625 -2.8125 52.296875 8.15625 52.296875 24.984375 
C 52.296875 42.71875 43.703125 53.8125 29.796875 53.8125 
C 22.703125 53.8125 17 50.59375 13.09375 44.390625 
L 13.09375 52.328125 
L 5.40625 52.328125 
z
M 28.40625 46 
C 37.59375 46 43.59375 37.8125 43.59375 25.1875 
C 43.59375 13.171875 37.5 5 28.40625 5 
C 19.59375 5 13.796875 13.078125 13.796875 25.5 
C 13.796875 37.921875 19.59375 46 28.40625 46 
" id="Nimbus_Sans_L_Regular-112"/>
     <path d="M 7 52.484375 
L 7 0 
L 15.40625 0 
L 15.40625 28.953125 
C 15.40625 39.671875 21 46.6875 29.59375 46.6875 
C 36.203125 46.6875 40.40625 42.671875 40.40625 36.359375 
L 40.40625 0 
L 48.703125 0 
L 48.703125 39.671875 
C 48.703125 48.390625 42.203125 54 32.09375 54 
C 24.296875 54 19.296875 50.984375 14.703125 43.6875 
L 14.703125 52.484375 
z
" id="Nimbus_Sans_L_Regular-110"/>
     <path d="M 42 31.640625 
C 42 37.75 41.90625 48.125 37.703125 56.109375 
C 34 63.109375 28.09375 65.59375 22.90625 65.59375 
C 18.09375 65.59375 12 63.40625 8.203125 56.203125 
C 4.203125 48.71875 3.796875 39.4375 3.796875 31.640625 
C 3.796875 25.953125 3.90625 17.28125 7 9.671875 
C 11.296875 -0.609375 19 -2 22.90625 -2 
C 27.5 -2 34.5 -0.109375 38.59375 9.375 
C 41.59375 16.28125 42 24.359375 42 31.640625 
M 22.90625 -0.40625 
C 16.5 -0.40625 12.703125 5.078125 11.296875 12.6875 
C 10.203125 18.5625 10.203125 27.15625 10.203125 32.75 
C 10.203125 40.4375 10.203125 46.828125 11.5 52.921875 
C 13.40625 61.390625 19 64 22.90625 64 
C 27 64 32.296875 61.296875 34.203125 53.125 
C 35.5 47.4375 35.59375 40.734375 35.59375 32.75 
C 35.59375 26.25 35.59375 18.265625 34.40625 12.375 
C 32.296875 1.484375 26.40625 -0.40625 22.90625 -0.40625 
" id="CMR17-48"/>
     <path d="M 25.40625 52.8125 
L 16.796875 52.8125 
L 16.796875 67 
L 8.5 67 
L 8.5 52.8125 
L 1.40625 52.8125 
L 1.40625 46 
L 8.5 46 
L 8.5 6.3125 
C 8.5 1 12.09375 -2 18.59375 -2 
C 20.59375 -2 22.59375 -1.8125 25.40625 -1.296875 
L 25.40625 5.71875 
C 24.296875 5.40625 23 5.3125 21.40625 5.3125 
C 17.796875 5.3125 16.796875 6.3125 16.796875 10.015625 
L 16.796875 46 
L 25.40625 46 
z
" id="Nimbus_Sans_L_Regular-116"/>
     <path d="M 18.40625 4.796875 
C 18.40625 7.6875 16 9.671875 13.59375 9.671875 
C 10.703125 9.671875 8.703125 7.28125 8.703125 4.890625 
C 8.703125 2 11.09375 0 13.5 0 
C 16.40625 0 18.40625 2.390625 18.40625 4.796875 
" id="CMMI12-58"/>
     <path d="M 43.796875 37.921875 
C 43.703125 48.203125 36.90625 54 24.796875 54 
C 12.59375 54 4.703125 47.71875 4.703125 38.0625 
C 4.703125 29.890625 8.90625 26.015625 21.296875 23.03125 
L 29.09375 21.140625 
C 34.90625 19.734375 37.203125 17.65625 37.203125 13.875 
C 37.203125 9 32.296875 5.703125 25 5.703125 
C 20.5 5.703125 16.703125 7 14.59375 9.1875 
C 13.296875 10.6875 12.703125 12.171875 12.203125 15.84375 
L 3.40625 15.84375 
C 3.796875 3.765625 10.59375 -2 24.296875 -2 
C 37.5 -2 45.90625 4.453125 45.90625 14.515625 
C 45.90625 22.28125 41.5 26.578125 31.09375 29.0625 
L 23.09375 30.953125 
C 16.296875 32.53125 13.40625 34.734375 13.40625 38.40625 
C 13.40625 43.1875 17.703125 46.28125 24.5 46.28125 
C 31.203125 46.28125 34.796875 43.390625 35 37.921875 
z
" id="Nimbus_Sans_L_Regular-115"/>
    </defs>
    <g transform="translate(157.98792222 23.4191920678)scale(0.2 -0.2)">
     <use transform="scale(0.996264009963)" xlink:href="#Nimbus_Sans_L_Regular-83"/>
     <use transform="translate(66.4500311333 0.0)scale(0.996264009963)" xlink:href="#Nimbus_Sans_L_Regular-116"/>
     <use transform="translate(94.1452007365 0.0)scale(0.996264009963)" xlink:href="#Nimbus_Sans_L_Regular-97"/>
     <use transform="translate(149.5368777 0.0)scale(0.996264009963)" xlink:href="#Nimbus_Sans_L_Regular-116"/>
     <use transform="translate(177.232047303 0.0)scale(0.996264009963)" xlink:href="#Nimbus_Sans_L_Regular-105"/>
     <use transform="translate(199.348831652 0.0)scale(0.996264009963)" xlink:href="#Nimbus_Sans_L_Regular-111"/>
     <use transform="translate(254.740508615 0.0)scale(0.996264009963)" xlink:href="#Nimbus_Sans_L_Regular-110"/>
     <use transform="translate(310.132185578 0.0)scale(0.996264009963)" xlink:href="#Nimbus_Sans_L_Regular-97"/>
     <use transform="translate(365.523862542 0.0)scale(0.996264009963)" xlink:href="#Nimbus_Sans_L_Regular-114"/>
     <use transform="translate(401.687185019 0.0)scale(0.996264009963)" xlink:href="#Nimbus_Sans_L_Regular-121"/>
     <use transform="translate(479.19555512 0.0)scale(0.996264009963)" xlink:href="#Nimbus_Sans_L_Regular-112"/>
     <use transform="translate(534.587232084 0.0)scale(0.996264009963)" xlink:href="#Nimbus_Sans_L_Regular-111"/>
     <use transform="translate(589.978909047 0.0)scale(0.996264009963)" xlink:href="#Nimbus_Sans_L_Regular-105"/>
     <use transform="translate(612.095693396 0.0)scale(0.996264009963)" xlink:href="#Nimbus_Sans_L_Regular-110"/>
     <use transform="translate(667.487370359 0.0)scale(0.996264009963)" xlink:href="#Nimbus_Sans_L_Regular-116"/>
     <use transform="translate(695.182539962 0.0)scale(0.996264009963)" xlink:href="#Nimbus_Sans_L_Regular-115"/>
     <use transform="translate(772.690910064 0.0)scale(0.996264009963)" xlink:href="#Nimbus_Sans_L_Regular-102"/>
     <use transform="translate(797.397971717 0.0)scale(0.996264009963)" xlink:href="#Nimbus_Sans_L_Regular-111"/>
     <use transform="translate(852.789648681 0.0)scale(0.996264009963)" xlink:href="#Nimbus_Sans_L_Regular-114"/>
     <use transform="translate(931.651266248 0.00646075751089)scale(0.996264009963)" xlink:href="#CMR17-95"/>
     <use transform="translate(913.660048013 0.0)scale(0.996264009963)" xlink:href="#CMMI12-120"/>
     <use transform="translate(996.768116268 0.0)scale(0.996264009963)" xlink:href="#CMR17-61"/>
     <use transform="translate(1096.15691341 0.0)scale(0.996264009963)" xlink:href="#CMSY10-0"/>
     <use transform="translate(1173.64438106 0.0)scale(0.996264009963)" xlink:href="#CMR17-40"/>
     <use transform="translate(1208.92514886 0.0)scale(0.996264009963)" xlink:href="#CMMI12-97"/>
     <use transform="translate(1282.27221345 0.0)scale(0.996264009963)" xlink:href="#CMR17-43"/>
     <use transform="translate(1376.12620885 0.0)scale(0.996264009963)" xlink:href="#CMMI12-98"/>
     <use transform="translate(1417.60208301 0.0)scale(0.996264009963)" xlink:href="#CMMI12-120"/>
     <use transform="translate(1495.17534952 0.0)scale(0.996264009963)" xlink:href="#CMSY10-0"/>
     <use transform="translate(1594.80202415 0.0)scale(0.996264009963)" xlink:href="#CMMI12-120"/>
     <use transform="translate(1650.23608368 36.1536389419)scale(0.697381766617)" xlink:href="#CMR17-51"/>
     <use transform="translate(1682.71739765 0.0)scale(0.996264009963)" xlink:href="#CMR17-41"/>
     <use transform="translate(1745.69333505 0.0)scale(0.996264009963)" xlink:href="#Nimbus_Sans_L_Regular-102"/>
     <use transform="translate(1770.40039671 0.0)scale(0.996264009963)" xlink:href="#Nimbus_Sans_L_Regular-111"/>
     <use transform="translate(1825.79207367 0.0)scale(0.996264009963)" xlink:href="#Nimbus_Sans_L_Regular-114"/>
     <use transform="translate(1886.662473 0.0)scale(0.996264009963)" xlink:href="#CMMI12-98"/>
     <use transform="translate(1955.81235589 0.0)scale(0.996264009963)" xlink:href="#CMR17-61"/>
     <use transform="translate(2055.20115302 0.0)scale(0.996264009963)" xlink:href="#CMSY10-0"/>
     <use transform="translate(2132.68862068 0.0)scale(0.996264009963)" xlink:href="#CMR17-48"/>
     <use transform="translate(2178.37909779 0.0)scale(0.996264009963)" xlink:href="#CMMI12-58"/>
     <use transform="translate(2205.47627488 0.0)scale(0.996264009963)" xlink:href="#CMR17-56"/>
     <use transform="translate(2251.166752 0.0)scale(0.996264009963)" xlink:href="#CMR17-48"/>
     <use transform="translate(2296.85722912 0.0)scale(0.996264009963)" xlink:href="#CMR17-48"/>
    </g>
   </g>
   <g id="legend_1">
    <g id="patch_7">
     <path d="M 96.035096 120.541032 
L 205.882212 120.541032 
L 205.882212 40.419192 
L 96.035096 40.419192 
z
" style="fill:#4c4c4c;opacity:0.5;stroke:#4c4c4c;stroke-linejoin:miter;"/>
    </g>
    <g id="patch_8">
     <path d="M 94.035096 118.541032 
L 203.882212 118.541032 
L 203.882212 38.419192 
L 94.035096 38.419192 
z
" style="fill:#ffffff;stroke:#000000;stroke-linejoin:miter;"/>
    </g>
    <g id="line2d_114">
     <path d="M 112.035096 57.615833 
L 101.035096 57.615833 
" style="fill:none;stroke:#ff0000;stroke-linecap:square;"/>
    </g>
    <g id="line2d_115"/>
    <g id="text_14">
     <!-- $a = -2.0$ -->
     <defs>
      <path d="M 41.703125 15.453125 
L 39.90625 15.453125 
C 38.90625 8.375 38.09375 7.171875 37.703125 6.5625 
C 37.203125 5.765625 30 5.765625 28.59375 5.765625 
L 9.40625 5.765625 
C 13 9.671875 20 16.75 28.5 24.953125 
C 34.59375 30.734375 41.703125 37.53125 41.703125 47.421875 
C 41.703125 59.21875 32.296875 66 21.796875 66 
C 10.796875 66 4.09375 56.3125 4.09375 47.34375 
C 4.09375 43.4375 7 42.9375 8.203125 42.9375 
C 9.203125 42.9375 12.203125 43.546875 12.203125 47.03125 
C 12.203125 50.109375 9.59375 51 8.203125 51 
C 7.59375 51 7 50.90625 6.59375 50.703125 
C 8.5 59.21875 14.296875 63.40625 20.40625 63.40625 
C 29.09375 63.40625 34.796875 56.515625 34.796875 47.421875 
C 34.796875 38.734375 29.703125 31.25 24 24.75 
L 4.09375 2.28125 
L 4.09375 0 
L 39.296875 0 
z
" id="CMR17-50"/>
     </defs>
     <g transform="translate(117.035095929 64.6158325955)scale(0.2 -0.2)">
      <use transform="scale(0.996264009963)" xlink:href="#CMMI12-97"/>
      <use transform="translate(78.8818663411 0.0)scale(0.996264009963)" xlink:href="#CMR17-61"/>
      <use transform="translate(178.270663479 0.0)scale(0.996264009963)" xlink:href="#CMSY10-0"/>
      <use transform="translate(255.758131129 0.0)scale(0.996264009963)" xlink:href="#CMR17-50"/>
      <use transform="translate(301.448608246 0.0)scale(0.996264009963)" xlink:href="#CMMI12-58"/>
      <use transform="translate(328.545785336 0.0)scale(0.996264009963)" xlink:href="#CMR17-48"/>
     </g>
    </g>
    <g id="line2d_116">
     <path d="M 112.035096 76.456446 
L 101.035096 76.456446 
" style="fill:none;stroke:#cbff00;stroke-linecap:square;"/>
    </g>
    <g id="line2d_117"/>
    <g id="text_15">
     <!-- $a = 0.00$ -->
     <g transform="translate(117.035095929 83.4564459206)scale(0.2 -0.2)">
      <use transform="scale(0.996264009963)" xlink:href="#CMMI12-97"/>
      <use transform="translate(78.8818663411 0.0)scale(0.996264009963)" xlink:href="#CMR17-61"/>
      <use transform="translate(178.270663479 0.0)scale(0.996264009963)" xlink:href="#CMR17-48"/>
      <use transform="translate(223.961140596 0.0)scale(0.996264009963)" xlink:href="#CMMI12-58"/>
      <use transform="translate(251.058317686 0.0)scale(0.996264009963)" xlink:href="#CMR17-48"/>
      <use transform="translate(296.748794803 0.0)scale(0.996264009963)" xlink:href="#CMR17-48"/>
     </g>
    </g>
    <g id="line2d_118">
     <path d="M 112.035096 95.297059 
L 101.035096 95.297059 
" style="fill:none;stroke:#00ff66;stroke-linecap:square;"/>
    </g>
    <g id="line2d_119"/>
    <g id="text_16">
     <!-- $a = 2.0$ -->
     <g transform="translate(117.035095929 102.297059246)scale(0.2 -0.2)">
      <use transform="scale(0.996264009963)" xlink:href="#CMMI12-97"/>
      <use transform="translate(78.8818663411 0.0)scale(0.996264009963)" xlink:href="#CMR17-61"/>
      <use transform="translate(178.270663479 0.0)scale(0.996264009963)" xlink:href="#CMR17-50"/>
      <use transform="translate(223.961140596 0.0)scale(0.996264009963)" xlink:href="#CMMI12-58"/>
      <use transform="translate(251.058317686 0.0)scale(0.996264009963)" xlink:href="#CMR17-48"/>
     </g>
    </g>
   </g>
  </g>
 </g>
 <defs>
  <clipPath id="p6b8ac2008c">
   <rect height="471.915207206" width="617.244904071" x="84.0350959293" y="28.4191920678"/>
  </clipPath>
 </defs>
</svg>
