<?xml version="1.0" encoding="utf-8" standalone="no"?>
<!DOCTYPE svg PUBLIC "-//W3C//DTD SVG 1.1//EN"
  "http://www.w3.org/Graphics/SVG/1.1/DTD/svg11.dtd">
<!-- Created with matplotlib (http://matplotlib.org/) -->
<svg height="564pt" version="1.1" viewBox="0 0 708 564" width="708pt" xmlns="http://www.w3.org/2000/svg" xmlns:xlink="http://www.w3.org/1999/xlink">
 <defs>
  <style type="text/css">
*{stroke-linecap:butt;stroke-linejoin:round;stroke-miterlimit:100000;}
  </style>
 </defs>
 <g id="figure_1">
  <g id="patch_1">
   <path d="M -0 564.48 
L 708.48 564.48 
L 708.48 0 
L -0 0 
z
" style="fill:#ffffff;"/>
  </g>
  <g id="axes_1">
   <g id="patch_2">
    <path d="M 72.956767 500.334399 
L 701.28 500.334399 
L 701.28 28.419192 
L 72.956767 28.419192 
z
" style="fill:#ffffff;"/>
   </g>
   <g id="PathCollection_1">
    <path clip-path="url(#pbe2936bea4)" d="M 153.475447 267.91233 
C 154.413082 267.91233 155.312439 267.539803 155.975447 266.876796 
C 156.638455 266.213788 157.010981 265.31443 157.010981 264.376796 
C 157.010981 263.439161 156.638455 262.539803 155.975447 261.876796 
C 155.312439 261.213788 154.413082 260.841262 153.475447 260.841262 
C 152.537813 260.841262 151.638455 261.213788 150.975447 261.876796 
C 150.312439 262.539803 149.939913 263.439161 149.939913 264.376796 
C 149.939913 265.31443 150.312439 266.213788 150.975447 266.876796 
C 151.638455 267.539803 152.537813 267.91233 153.475447 267.91233 
z
" style="fill:#00ff66;"/>
   </g>
   <g id="PathCollection_2">
    <path clip-path="url(#pbe2936bea4)" d="M 387.118383 267.91233 
C 388.056018 267.91233 388.955376 267.539803 389.618383 266.876796 
C 390.281391 266.213788 390.653917 265.31443 390.653917 264.376796 
C 390.653917 263.439161 390.281391 262.539803 389.618383 261.876796 
C 388.955376 261.213788 388.056018 260.841262 387.118383 260.841262 
C 386.180749 260.841262 385.281391 261.213788 384.618383 261.876796 
C 383.955376 262.539803 383.582849 263.439161 383.582849 264.376796 
C 383.582849 265.31443 383.955376 266.213788 384.618383 266.876796 
C 385.281391 267.539803 386.180749 267.91233 387.118383 267.91233 
z
" style="fill:#ff0000;"/>
   </g>
   <g id="PathCollection_3">
    <path clip-path="url(#pbe2936bea4)" d="M 228.707093 267.91233 
C 229.644728 267.91233 230.544085 267.539803 231.207093 266.876796 
C 231.870101 266.213788 232.242627 265.31443 232.242627 264.376796 
C 232.242627 263.439161 231.870101 262.539803 231.207093 261.876796 
C 230.544085 261.213788 229.644728 260.841262 228.707093 260.841262 
C 227.769459 260.841262 226.870101 261.213788 226.207093 261.876796 
C 225.544085 262.539803 225.171559 263.439161 225.171559 264.376796 
C 225.171559 265.31443 225.544085 266.213788 226.207093 266.876796 
C 226.870101 267.539803 227.769459 267.91233 228.707093 267.91233 
z
" style="fill:#ff0000;"/>
   </g>
   <g id="PathCollection_4">
    <path clip-path="url(#pbe2936bea4)" d="M 545.529673 267.91233 
C 546.467308 267.91233 547.366666 267.539803 548.029673 266.876796 
C 548.692681 266.213788 549.065207 265.31443 549.065207 264.376796 
C 549.065207 263.439161 548.692681 262.539803 548.029673 261.876796 
C 547.366666 261.213788 546.467308 260.841262 545.529673 260.841262 
C 544.592039 260.841262 543.692681 261.213788 543.029673 261.876796 
C 542.366666 262.539803 541.994139 263.439161 541.994139 264.376796 
C 541.994139 265.31443 542.366666 266.213788 543.029673 266.876796 
C 543.692681 267.539803 544.592039 267.91233 545.529673 267.91233 
z
" style="fill:#ff0000;"/>
   </g>
   <g id="PathCollection_5">
    <path clip-path="url(#pbe2936bea4)" d="M 620.76132 267.91233 
C 621.698954 267.91233 622.598312 267.539803 623.26132 266.876796 
C 623.924327 266.213788 624.296853 265.31443 624.296853 264.376796 
C 624.296853 263.439161 623.924327 262.539803 623.26132 261.876796 
C 622.598312 261.213788 621.698954 260.841262 620.76132 260.841262 
C 619.823685 260.841262 618.924327 261.213788 618.26132 261.876796 
C 617.598312 262.539803 617.225786 263.439161 617.225786 264.376796 
C 617.225786 265.31443 617.598312 266.213788 618.26132 266.876796 
C 618.924327 267.539803 619.823685 267.91233 620.76132 267.91233 
z
" style="fill:#cbff00;"/>
   </g>
   <g id="PathCollection_6">
    <path clip-path="url(#pbe2936bea4)" d="M 295.659582 267.91233 
C 296.597217 267.91233 297.496575 267.539803 298.159582 266.876796 
C 298.82259 266.213788 299.195116 265.31443 299.195116 264.376796 
C 299.195116 263.439161 298.82259 262.539803 298.159582 261.876796 
C 297.496575 261.213788 296.597217 260.841262 295.659582 260.841262 
C 294.721948 260.841262 293.82259 261.213788 293.159582 261.876796 
C 292.496575 262.539803 292.124048 263.439161 292.124048 264.376796 
C 292.124048 265.31443 292.496575 266.213788 293.159582 266.876796 
C 293.82259 267.539803 294.721948 267.91233 295.659582 267.91233 
z
"/>
   </g>
   <g id="PathCollection_7">
    <path clip-path="url(#pbe2936bea4)" d="M 570.035985 267.91233 
C 570.97362 267.91233 571.872977 267.539803 572.535985 266.876796 
C 573.198993 266.213788 573.571519 265.31443 573.571519 264.376796 
C 573.571519 263.439161 573.198993 262.539803 572.535985 261.876796 
C 571.872977 261.213788 570.97362 260.841262 570.035985 260.841262 
C 569.098351 260.841262 568.198993 261.213788 567.535985 261.876796 
C 566.872977 262.539803 566.500451 263.439161 566.500451 264.376796 
C 566.500451 265.31443 566.872977 266.213788 567.535985 266.876796 
C 568.198993 267.539803 569.098351 267.91233 570.035985 267.91233 
z
"/>
   </g>
   <g id="line2d_1">
    <path clip-path="url(#pbe2936bea4)" d="M 85.039906 374.909204 
L 91.150361 362.36618 
L 97.203942 350.491882 
L 103.003663 339.620432 
L 108.878279 329.102021 
L 113.842502 320.593221 
L 118.892546 312.28729 
L 124.569439 303.363702 
L 129.604943 295.807288 
L 134.818691 288.331813 
L 140.730116 280.275838 
L 145.630026 273.929344 
L 151.526846 266.680462 
L 156.799607 260.550431 
L 161.338715 255.533391 
L 167.200509 249.40233 
L 173.029828 243.684824 
L 177.702417 239.368399 
L 182.823332 234.903614 
L 188.786889 230.04569 
L 195.190367 225.226881 
L 199.614247 222.1314 
L 205.086203 218.559216 
L 209.858116 215.669673 
L 214.630567 212.984287 
L 220.027418 210.187017 
L 225.330297 207.6786 
L 231.100558 205.210645 
L 236.485357 203.145091 
L 241.213936 201.513955 
L 247.07673 199.720422 
L 253.401279 198.0587 
L 260.074965 196.598752 
L 266.0012 195.543035 
L 272.275827 194.659853 
L 278.533483 194.007159 
L 285.424286 193.537098 
L 292.491185 193.308914 
L 299.479489 193.318721 
L 306.585488 193.550885 
L 313.427056 193.969242 
L 321.303394 194.666206 
L 328.733885 195.513722 
L 338.567985 196.882989 
L 346.353389 198.13804 
L 358.030585 200.247635 
L 372.495987 203.130622 
L 419.526669 212.779885 
L 429.670957 214.565751 
L 440.479317 216.223203 
L 449.871301 217.409336 
L 458.041885 218.214643 
L 465.612916 218.747393 
L 471.343694 219.000296 
L 477.776016 219.116812 
L 484.675799 219.030231 
L 491.122355 218.737094 
L 497.798421 218.202597 
L 503.863134 217.500857 
L 510.947617 216.404895 
L 516.384312 215.351308 
L 521.842339 214.098909 
L 526.80384 212.784274 
L 533.259732 210.81199 
L 538.322763 209.050061 
L 544.464392 206.648641 
L 549.827221 204.306291 
L 555.556789 201.541672 
L 561.261584 198.510761 
L 566.815495 195.28432 
L 572.544456 191.661924 
L 576.981051 188.645385 
L 583.108422 184.167084 
L 587.613147 180.637652 
L 592.437349 176.629274 
L 597.537708 172.128112 
L 602.816509 167.177419 
L 609.004588 160.985801 
L 614.89077 154.697056 
L 620.529451 148.298012 
L 626.024758 141.700073 
L 630.511698 136.042212 
L 636.255723 128.43635 
L 642.31591 119.9603 
L 647.405025 112.476189 
L 653.285174 103.40316 
L 659.264415 93.699181 
L 664.562489 84.689247 
L 670.025852 74.985029 
L 676.335666 63.244539 
L 681.72811 52.749253 
L 688.03505 39.922982 
L 689.196861 37.494485 
L 689.196861 37.494485 
" style="fill:none;stroke:#00ff66;stroke-linecap:square;"/>
   </g>
   <g id="line2d_2">
    <path clip-path="url(#pbe2936bea4)" d="M 85.039906 433.084155 
L 90.820846 421.203151 
L 96.691027 409.651909 
L 102.711397 398.331564 
L 108.831494 387.358806 
L 113.93291 378.616393 
L 120.050878 368.60619 
L 126.056462 359.272391 
L 132.40983 349.916984 
L 138.127506 341.943221 
L 143.634016 334.653795 
L 148.731721 328.239061 
L 153.791194 322.182706 
L 159.169838 316.0759 
L 164.35149 310.508736 
L 170.468964 304.325545 
L 176.63237 298.511203 
L 181.487527 294.216781 
L 186.396465 290.124381 
L 192.264139 285.553647 
L 197.891363 281.48955 
L 203.762903 277.572416 
L 209.66529 273.957386 
L 214.655228 271.145885 
L 220.13662 268.307938 
L 226.14699 265.487898 
L 230.201335 263.752643 
L 236.151024 261.441767 
L 242.251421 259.353315 
L 247.736127 257.709094 
L 253.31134 256.255353 
L 258.214245 255.151299 
L 263.558482 254.126437 
L 270.547948 253.054631 
L 276.641133 252.356204 
L 283.052903 251.845375 
L 290.371014 251.526377 
L 297.176254 251.465644 
L 305.290637 251.667652 
L 311.504338 252.008271 
L 320.411925 252.751433 
L 329.62548 253.801749 
L 339.550202 255.208558 
L 350.477721 257.030087 
L 363.621335 259.508686 
L 378.320176 262.518729 
L 411.796893 269.477823 
L 424.434715 271.843239 
L 436.697015 273.850782 
L 447.178356 275.27102 
L 456.014257 276.211048 
L 462.9205 276.757861 
L 471.518113 277.180796 
L 479.424638 277.291577 
L 487.019312 277.12309 
L 493.265283 276.766789 
L 499.913377 276.156822 
L 505.430007 275.459608 
L 511.171658 274.540147 
L 516.457196 273.510839 
L 522.348978 272.147423 
L 527.489522 270.763984 
L 533.514132 268.902993 
L 540.069548 266.571916 
L 546.369786 264.01802 
L 551.272238 261.809883 
L 556.11559 259.432156 
L 562.492398 255.994466 
L 568.445917 252.459189 
L 572.943662 249.573081 
L 578.83982 245.500508 
L 584.01057 241.651487 
L 588.282575 238.270634 
L 594.277526 233.211781 
L 599.282021 228.70039 
L 604.983813 223.232045 
L 609.407746 218.74256 
L 615.235149 212.491799 
L 620.580388 206.413458 
L 625.55258 200.456175 
L 630.990071 193.599393 
L 635.50853 187.624039 
L 640.776957 180.332224 
L 646.926844 171.36879 
L 652.267948 163.180741 
L 656.942513 155.700386 
L 662.505922 146.408035 
L 667.398214 137.880161 
L 673.114931 127.484293 
L 679.302876 115.697643 
L 684.839077 104.67248 
L 689.196861 95.669436 
L 689.196861 95.669436 
" style="fill:none;stroke:#ff0000;stroke-linecap:square;"/>
   </g>
   <g id="line2d_3">
    <path clip-path="url(#pbe2936bea4)" d="M 85.039906 491.259107 
L 91.314533 478.386859 
L 96.807107 467.603584 
L 102.174382 457.494915 
L 108.048674 446.907591 
L 113.716795 437.154353 
L 119.054003 428.377391 
L 124.046934 420.516889 
L 129.132798 412.851553 
L 134.168125 405.595382 
L 140.447329 397.001101 
L 145.513415 390.42685 
L 150.778514 383.927077 
L 155.60431 378.261273 
L 161.589223 371.613314 
L 165.846732 367.133836 
L 171.132807 361.854429 
L 175.143905 358.052777 
L 180.555845 353.196597 
L 185.794 348.788276 
L 191.711004 344.144807 
L 196.398308 340.712865 
L 202.029074 336.870299 
L 207.394474 333.485512 
L 213.621765 329.885057 
L 218.33207 327.388714 
L 224.134933 324.573557 
L 229.845573 322.074583 
L 235.742658 319.766556 
L 241.976602 317.61639 
L 246.839235 316.138172 
L 252.233164 314.694737 
L 257.844194 313.404029 
L 264.828584 312.084399 
L 270.997892 311.170652 
L 276.931296 310.503169 
L 284.041987 309.961153 
L 289.755256 309.717781 
L 296.43746 309.636695 
L 304.161813 309.797545 
L 311.568911 310.18756 
L 320.257201 310.911084 
L 328.035421 311.776684 
L 336.463276 312.918198 
L 345.670689 314.372536 
L 358.66236 316.718128 
L 372.394183 319.459514 
L 418.919664 329.017045 
L 429.504711 330.88803 
L 439.004988 332.364189 
L 447.549649 333.490497 
L 454.0084 334.195252 
L 463.794091 334.98928 
L 471.740195 335.362624 
L 478.427371 335.468146 
L 485.669471 335.348678 
L 491.264346 335.078126 
L 497.306788 334.6002 
L 504.484788 333.766731 
L 510.735734 332.792053 
L 516.314203 331.716012 
L 521.783093 330.463483 
L 527.118925 329.044874 
L 532.528576 327.4005 
L 538.92027 325.179209 
L 543.654063 323.33235 
L 548.620072 321.20384 
L 554.71247 318.316341 
L 560.519763 315.270825 
L 565.799024 312.245457 
L 571.055247 308.982713 
L 576.230307 305.51892 
L 581.615166 301.642263 
L 586.426928 297.936751 
L 592.07486 293.288704 
L 596.835087 289.114406 
L 602.250795 284.072307 
L 607.879639 278.492951 
L 613.274202 272.813464 
L 619.21444 266.173528 
L 624.151908 260.339239 
L 629.533005 253.647217 
L 635.46118 245.862932 
L 640.988875 238.206457 
L 647.030252 229.388802 
L 652.531292 220.942131 
L 657.430135 213.077921 
L 662.99488 203.745785 
L 668.334285 194.384881 
L 674.230115 183.576391 
L 680.316523 171.888126 
L 686.123544 160.223715 
L 689.196861 153.844388 
L 689.196861 153.844388 
" style="fill:none;stroke:#cbff00;stroke-linecap:square;"/>
   </g>
   <g id="line2d_4">
    <path clip-path="url(#pbe2936bea4)" d="M 85.039906 446.000606 
L 90.42081 434.925491 
L 95.572595 424.729789 
L 100.982396 414.445197 
L 106.691113 404.052131 
L 112.748833 393.529685 
L 118.598164 383.853294 
L 124.092794 375.187739 
L 129.418298 367.172832 
L 134.354709 360.074286 
L 139.828845 352.567037 
L 145.498857 345.186788 
L 150.129186 339.452082 
L 156.192379 332.331121 
L 162.241055 325.65567 
L 167.927527 319.760204 
L 173.625959 314.212467 
L 178.898445 309.392371 
L 184.064059 304.954356 
L 189.525832 300.560243 
L 195.325684 296.2208 
L 200.813042 292.416171 
L 206.70323 288.648214 
L 212.289041 285.368023 
L 218.381014 282.105278 
L 223.923596 279.412645 
L 229.365274 277.016123 
L 235.443142 274.618765 
L 241.379392 272.551306 
L 247.369735 270.72867 
L 252.54946 269.357841 
L 257.073617 268.310372 
L 263.648196 267.02723 
L 269.654705 266.091618 
L 274.658296 265.476577 
L 281.438126 264.869536 
L 286.526883 264.576415 
L 293.136327 264.391678 
L 300.981638 264.441129 
L 308.174161 264.723007 
L 316.291795 265.288648 
L 323.337052 265.972148 
L 332.334655 267.075841 
L 341.668398 268.45767 
L 353.626067 270.515373 
L 366.676062 273.03485 
L 387.449363 277.363361 
L 408.766834 281.793616 
L 420.757149 284.097964 
L 431.773222 286.001252 
L 441.410323 287.443515 
L 450.581797 288.579586 
L 458.061574 289.307707 
L 465.972183 289.858585 
L 472.734171 290.132302 
L 480.18763 290.203654 
L 487.175694 290.03308 
L 493.898567 289.635609 
L 500.318714 289.028066 
L 505.734628 288.332323 
L 511.505551 287.396848 
L 517.63248 286.173805 
L 522.485205 285.029577 
L 529.050502 283.223466 
L 534.314733 281.552121 
L 539.475526 279.713101 
L 544.993457 277.519278 
L 550.71418 274.987658 
L 556.509401 272.146525 
L 562.152072 269.103392 
L 566.69825 266.446704 
L 572.648155 262.684946 
L 578.490388 258.667625 
L 584.199249 254.422488 
L 589.571203 250.130943 
L 595.105268 245.400358 
L 601.280325 239.740598 
L 607.272877 233.852754 
L 612.920965 227.936969 
L 618.731954 221.469681 
L 624.159362 215.07171 
L 629.888902 207.933667 
L 635.718439 200.256692 
L 641.948313 191.57925 
L 647.868379 182.869317 
L 653.525701 174.113577 
L 659.061537 165.127859 
L 664.309727 156.219397 
L 669.343588 147.311495 
L 675.085741 136.707561 
L 680.285151 126.691272 
L 685.806859 115.614408 
L 689.196861 108.585886 
L 689.196861 108.585886 
" style="fill:none;stroke:#000000;stroke-linecap:square;"/>
   </g>
   <g id="patch_3">
    <path d="M 72.956767 28.419192 
L 701.28 28.419192 
" style="fill:none;stroke:#000000;stroke-linecap:square;stroke-linejoin:miter;stroke-width:0.8;"/>
   </g>
   <g id="patch_4">
    <path d="M 701.28 500.334399 
L 701.28 28.419192 
" style="fill:none;stroke:#000000;stroke-linecap:square;stroke-linejoin:miter;stroke-width:0.8;"/>
   </g>
   <g id="patch_5">
    <path d="M 72.956767 500.334399 
L 701.28 500.334399 
" style="fill:none;stroke:#000000;stroke-linecap:square;stroke-linejoin:miter;stroke-width:0.8;"/>
   </g>
   <g id="patch_6">
    <path d="M 72.956767 500.334399 
L 72.956767 28.419192 
" style="fill:none;stroke:#000000;stroke-linecap:square;stroke-linejoin:miter;stroke-width:0.8;"/>
   </g>
   <g id="matplotlib.axis_1">
    <g id="xtick_1">
     <g id="line2d_5">
      <path clip-path="url(#pbe2936bea4)" d="M 85.039906 500.334399 
L 85.039906 28.419192 
" style="fill:none;stroke:#000000;stroke-dasharray:1.000000,3.000000;stroke-dashoffset:0.0;stroke-width:0.5;"/>
     </g>
     <g id="line2d_6">
      <defs>
       <path d="M 0 0 
L 0 -4 
" id="me10cfe3806" style="stroke:#000000;stroke-width:0.5;"/>
      </defs>
      <g>
       <use style="stroke:#000000;stroke-width:0.5;" x="85.0399057209" xlink:href="#me10cfe3806" y="500.334399274"/>
      </g>
     </g>
     <g id="line2d_7">
      <defs>
       <path d="M 0 0 
L 0 4 
" id="m5f2a66a720" style="stroke:#000000;stroke-width:0.5;"/>
      </defs>
      <g>
       <use style="stroke:#000000;stroke-width:0.5;" x="85.0399057209" xlink:href="#m5f2a66a720" y="28.4191920678"/>
      </g>
     </g>
     <g id="text_1">
      <!-- -2 -->
      <defs>
       <path d="M 50.59375 8.71875 
L 13.296875 8.71875 
C 14.203125 14.53125 17.40625 18.234375 26.09375 23.34375 
L 36.09375 28.75 
C 46 34.15625 51.09375 41.453125 51.09375 50.171875 
C 51.09375 56.078125 48.703125 61.59375 44.5 65.390625 
C 40.296875 69.203125 35.09375 71 28.40625 71 
C 19.40625 71 12.703125 67.796875 8.796875 61.796875 
C 6.296875 57.984375 5.203125 53.578125 5 46.359375 
L 13.796875 46.359375 
C 14.09375 51.171875 14.703125 54.078125 15.90625 56.375 
C 18.203125 60.6875 22.796875 63.296875 28.09375 63.296875 
C 36.09375 63.296875 42.09375 57.578125 42.09375 49.96875 
C 42.09375 44.359375 38.796875 39.546875 32.5 35.953125 
L 23.296875 30.75 
C 8.5 22.34375 4.203125 15.625 3.40625 0 
L 50.59375 0 
z
" id="Nimbus_Sans_L_Regular-50"/>
       <path d="M 28.40625 31.203125 
L 4.59375 31.203125 
L 4.59375 24 
L 28.40625 24 
z
" id="Nimbus_Sans_L_Regular-45"/>
      </defs>
      <g transform="translate(76.183218092 518.531039802)scale(0.2 -0.2)">
       <use transform="scale(0.996264009963)" xlink:href="#Nimbus_Sans_L_Regular-45"/>
       <use transform="translate(33.1752297293 0.0)scale(0.996264009963)" xlink:href="#Nimbus_Sans_L_Regular-50"/>
      </g>
     </g>
    </g>
    <g id="xtick_2">
     <g id="line2d_8">
      <path clip-path="url(#pbe2936bea4)" d="M 236.079145 500.334399 
L 236.079145 28.419192 
" style="fill:none;stroke:#000000;stroke-dasharray:1.000000,3.000000;stroke-dashoffset:0.0;stroke-width:0.5;"/>
     </g>
     <g id="line2d_9">
      <g>
       <use style="stroke:#000000;stroke-width:0.5;" x="236.079144515" xlink:href="#me10cfe3806" y="500.334399274"/>
      </g>
     </g>
     <g id="line2d_10">
      <g>
       <use style="stroke:#000000;stroke-width:0.5;" x="236.079144515" xlink:href="#m5f2a66a720" y="28.4191920678"/>
      </g>
     </g>
     <g id="text_2">
      <!-- -1 -->
      <defs>
       <path d="M 25.90625 50.59375 
L 25.90625 0 
L 34.703125 0 
L 34.703125 71.015625 
L 28.90625 71.015625 
C 25.796875 60.109375 23.796875 58.609375 10.203125 56.90625 
L 10.203125 50.59375 
z
" id="Nimbus_Sans_L_Regular-49"/>
      </defs>
      <g transform="translate(227.222456886 518.531039802)scale(0.2 -0.2)">
       <use transform="scale(0.996264009963)" xlink:href="#Nimbus_Sans_L_Regular-45"/>
       <use transform="translate(33.1752297293 0.0)scale(0.996264009963)" xlink:href="#Nimbus_Sans_L_Regular-49"/>
      </g>
     </g>
    </g>
    <g id="xtick_3">
     <g id="line2d_11">
      <path clip-path="url(#pbe2936bea4)" d="M 387.118383 500.334399 
L 387.118383 28.419192 
" style="fill:none;stroke:#000000;stroke-dasharray:1.000000,3.000000;stroke-dashoffset:0.0;stroke-width:0.5;"/>
     </g>
     <g id="line2d_12">
      <g>
       <use style="stroke:#000000;stroke-width:0.5;" x="387.118383309" xlink:href="#me10cfe3806" y="500.334399274"/>
      </g>
     </g>
     <g id="line2d_13">
      <g>
       <use style="stroke:#000000;stroke-width:0.5;" x="387.118383309" xlink:href="#m5f2a66a720" y="28.4191920678"/>
      </g>
     </g>
     <g id="text_3">
      <!-- 0 -->
      <defs>
       <path d="M 27.5 71 
C 20.90625 71 14.90625 68.125 11.203125 63.21875 
C 6.59375 57.046875 4.296875 47.5625 4.296875 34.5 
C 4.296875 10.671875 12.296875 -2 27.5 -2 
C 42.5 -2 50.703125 10.671875 50.703125 33.90625 
C 50.703125 47.65625 48.5 56.84375 43.796875 63.21875 
C 40.09375 68.21875 34.203125 71 27.5 71 
M 27.5 63.1875 
C 37 63.1875 41.703125 53.625 41.703125 34.703125 
C 41.703125 14.671875 37.09375 5.3125 27.296875 5.3125 
C 18 5.3125 13.296875 15.078125 13.296875 34.40625 
C 13.296875 53.71875 18 63.1875 27.5 63.1875 
" id="Nimbus_Sans_L_Regular-48"/>
      </defs>
      <g transform="translate(381.579218653 518.531039802)scale(0.2 -0.2)">
       <use transform="scale(0.996264009963)" xlink:href="#Nimbus_Sans_L_Regular-48"/>
      </g>
     </g>
    </g>
    <g id="xtick_4">
     <g id="line2d_14">
      <path clip-path="url(#pbe2936bea4)" d="M 538.157622 500.334399 
L 538.157622 28.419192 
" style="fill:none;stroke:#000000;stroke-dasharray:1.000000,3.000000;stroke-dashoffset:0.0;stroke-width:0.5;"/>
     </g>
     <g id="line2d_15">
      <g>
       <use style="stroke:#000000;stroke-width:0.5;" x="538.157622103" xlink:href="#me10cfe3806" y="500.334399274"/>
      </g>
     </g>
     <g id="line2d_16">
      <g>
       <use style="stroke:#000000;stroke-width:0.5;" x="538.157622103" xlink:href="#m5f2a66a720" y="28.4191920678"/>
      </g>
     </g>
     <g id="text_4">
      <!-- 1 -->
      <g transform="translate(532.618457447 518.531039802)scale(0.2 -0.2)">
       <use transform="scale(0.996264009963)" xlink:href="#Nimbus_Sans_L_Regular-49"/>
      </g>
     </g>
    </g>
    <g id="xtick_5">
     <g id="line2d_17">
      <path clip-path="url(#pbe2936bea4)" d="M 689.196861 500.334399 
L 689.196861 28.419192 
" style="fill:none;stroke:#000000;stroke-dasharray:1.000000,3.000000;stroke-dashoffset:0.0;stroke-width:0.5;"/>
     </g>
     <g id="line2d_18">
      <g>
       <use style="stroke:#000000;stroke-width:0.5;" x="689.196860896" xlink:href="#me10cfe3806" y="500.334399274"/>
      </g>
     </g>
     <g id="line2d_19">
      <g>
       <use style="stroke:#000000;stroke-width:0.5;" x="689.196860896" xlink:href="#m5f2a66a720" y="28.4191920678"/>
      </g>
     </g>
     <g id="text_5">
      <!-- 2 -->
      <g transform="translate(683.657696241 518.531039802)scale(0.2 -0.2)">
       <use transform="scale(0.996264009963)" xlink:href="#Nimbus_Sans_L_Regular-50"/>
      </g>
     </g>
    </g>
    <g id="xtick_6">
     <g id="line2d_20">
      <defs>
       <path d="M 0 0 
L 0 -2 
" id="m06d8687e06" style="stroke:#000000;stroke-width:0.5;"/>
      </defs>
      <g>
       <use style="stroke:#000000;stroke-width:0.5;" x="115.24775348" xlink:href="#m06d8687e06" y="500.334399274"/>
      </g>
     </g>
     <g id="line2d_21">
      <defs>
       <path d="M 0 0 
L 0 2 
" id="mdb7202bddc" style="stroke:#000000;stroke-width:0.5;"/>
      </defs>
      <g>
       <use style="stroke:#000000;stroke-width:0.5;" x="115.24775348" xlink:href="#mdb7202bddc" y="28.4191920678"/>
      </g>
     </g>
    </g>
    <g id="xtick_7">
     <g id="line2d_22">
      <g>
       <use style="stroke:#000000;stroke-width:0.5;" x="145.455601238" xlink:href="#m06d8687e06" y="500.334399274"/>
      </g>
     </g>
     <g id="line2d_23">
      <g>
       <use style="stroke:#000000;stroke-width:0.5;" x="145.455601238" xlink:href="#mdb7202bddc" y="28.4191920678"/>
      </g>
     </g>
    </g>
    <g id="xtick_8">
     <g id="line2d_24">
      <g>
       <use style="stroke:#000000;stroke-width:0.5;" x="175.663448997" xlink:href="#m06d8687e06" y="500.334399274"/>
      </g>
     </g>
     <g id="line2d_25">
      <g>
       <use style="stroke:#000000;stroke-width:0.5;" x="175.663448997" xlink:href="#mdb7202bddc" y="28.4191920678"/>
      </g>
     </g>
    </g>
    <g id="xtick_9">
     <g id="line2d_26">
      <g>
       <use style="stroke:#000000;stroke-width:0.5;" x="205.871296756" xlink:href="#m06d8687e06" y="500.334399274"/>
      </g>
     </g>
     <g id="line2d_27">
      <g>
       <use style="stroke:#000000;stroke-width:0.5;" x="205.871296756" xlink:href="#mdb7202bddc" y="28.4191920678"/>
      </g>
     </g>
    </g>
    <g id="xtick_10">
     <g id="line2d_28">
      <g>
       <use style="stroke:#000000;stroke-width:0.5;" x="236.079144515" xlink:href="#m06d8687e06" y="500.334399274"/>
      </g>
     </g>
     <g id="line2d_29">
      <g>
       <use style="stroke:#000000;stroke-width:0.5;" x="236.079144515" xlink:href="#mdb7202bddc" y="28.4191920678"/>
      </g>
     </g>
    </g>
    <g id="xtick_11">
     <g id="line2d_30">
      <g>
       <use style="stroke:#000000;stroke-width:0.5;" x="266.286992274" xlink:href="#m06d8687e06" y="500.334399274"/>
      </g>
     </g>
     <g id="line2d_31">
      <g>
       <use style="stroke:#000000;stroke-width:0.5;" x="266.286992274" xlink:href="#mdb7202bddc" y="28.4191920678"/>
      </g>
     </g>
    </g>
    <g id="xtick_12">
     <g id="line2d_32">
      <g>
       <use style="stroke:#000000;stroke-width:0.5;" x="296.494840032" xlink:href="#m06d8687e06" y="500.334399274"/>
      </g>
     </g>
     <g id="line2d_33">
      <g>
       <use style="stroke:#000000;stroke-width:0.5;" x="296.494840032" xlink:href="#mdb7202bddc" y="28.4191920678"/>
      </g>
     </g>
    </g>
    <g id="xtick_13">
     <g id="line2d_34">
      <g>
       <use style="stroke:#000000;stroke-width:0.5;" x="326.702687791" xlink:href="#m06d8687e06" y="500.334399274"/>
      </g>
     </g>
     <g id="line2d_35">
      <g>
       <use style="stroke:#000000;stroke-width:0.5;" x="326.702687791" xlink:href="#mdb7202bddc" y="28.4191920678"/>
      </g>
     </g>
    </g>
    <g id="xtick_14">
     <g id="line2d_36">
      <g>
       <use style="stroke:#000000;stroke-width:0.5;" x="356.91053555" xlink:href="#m06d8687e06" y="500.334399274"/>
      </g>
     </g>
     <g id="line2d_37">
      <g>
       <use style="stroke:#000000;stroke-width:0.5;" x="356.91053555" xlink:href="#mdb7202bddc" y="28.4191920678"/>
      </g>
     </g>
    </g>
    <g id="xtick_15">
     <g id="line2d_38">
      <g>
       <use style="stroke:#000000;stroke-width:0.5;" x="387.118383309" xlink:href="#m06d8687e06" y="500.334399274"/>
      </g>
     </g>
     <g id="line2d_39">
      <g>
       <use style="stroke:#000000;stroke-width:0.5;" x="387.118383309" xlink:href="#mdb7202bddc" y="28.4191920678"/>
      </g>
     </g>
    </g>
    <g id="xtick_16">
     <g id="line2d_40">
      <g>
       <use style="stroke:#000000;stroke-width:0.5;" x="417.326231067" xlink:href="#m06d8687e06" y="500.334399274"/>
      </g>
     </g>
     <g id="line2d_41">
      <g>
       <use style="stroke:#000000;stroke-width:0.5;" x="417.326231067" xlink:href="#mdb7202bddc" y="28.4191920678"/>
      </g>
     </g>
    </g>
    <g id="xtick_17">
     <g id="line2d_42">
      <g>
       <use style="stroke:#000000;stroke-width:0.5;" x="447.534078826" xlink:href="#m06d8687e06" y="500.334399274"/>
      </g>
     </g>
     <g id="line2d_43">
      <g>
       <use style="stroke:#000000;stroke-width:0.5;" x="447.534078826" xlink:href="#mdb7202bddc" y="28.4191920678"/>
      </g>
     </g>
    </g>
    <g id="xtick_18">
     <g id="line2d_44">
      <g>
       <use style="stroke:#000000;stroke-width:0.5;" x="477.741926585" xlink:href="#m06d8687e06" y="500.334399274"/>
      </g>
     </g>
     <g id="line2d_45">
      <g>
       <use style="stroke:#000000;stroke-width:0.5;" x="477.741926585" xlink:href="#mdb7202bddc" y="28.4191920678"/>
      </g>
     </g>
    </g>
    <g id="xtick_19">
     <g id="line2d_46">
      <g>
       <use style="stroke:#000000;stroke-width:0.5;" x="507.949774344" xlink:href="#m06d8687e06" y="500.334399274"/>
      </g>
     </g>
     <g id="line2d_47">
      <g>
       <use style="stroke:#000000;stroke-width:0.5;" x="507.949774344" xlink:href="#mdb7202bddc" y="28.4191920678"/>
      </g>
     </g>
    </g>
    <g id="xtick_20">
     <g id="line2d_48">
      <g>
       <use style="stroke:#000000;stroke-width:0.5;" x="538.157622103" xlink:href="#m06d8687e06" y="500.334399274"/>
      </g>
     </g>
     <g id="line2d_49">
      <g>
       <use style="stroke:#000000;stroke-width:0.5;" x="538.157622103" xlink:href="#mdb7202bddc" y="28.4191920678"/>
      </g>
     </g>
    </g>
    <g id="xtick_21">
     <g id="line2d_50">
      <g>
       <use style="stroke:#000000;stroke-width:0.5;" x="568.365469861" xlink:href="#m06d8687e06" y="500.334399274"/>
      </g>
     </g>
     <g id="line2d_51">
      <g>
       <use style="stroke:#000000;stroke-width:0.5;" x="568.365469861" xlink:href="#mdb7202bddc" y="28.4191920678"/>
      </g>
     </g>
    </g>
    <g id="xtick_22">
     <g id="line2d_52">
      <g>
       <use style="stroke:#000000;stroke-width:0.5;" x="598.57331762" xlink:href="#m06d8687e06" y="500.334399274"/>
      </g>
     </g>
     <g id="line2d_53">
      <g>
       <use style="stroke:#000000;stroke-width:0.5;" x="598.57331762" xlink:href="#mdb7202bddc" y="28.4191920678"/>
      </g>
     </g>
    </g>
    <g id="xtick_23">
     <g id="line2d_54">
      <g>
       <use style="stroke:#000000;stroke-width:0.5;" x="628.781165379" xlink:href="#m06d8687e06" y="500.334399274"/>
      </g>
     </g>
     <g id="line2d_55">
      <g>
       <use style="stroke:#000000;stroke-width:0.5;" x="628.781165379" xlink:href="#mdb7202bddc" y="28.4191920678"/>
      </g>
     </g>
    </g>
    <g id="xtick_24">
     <g id="line2d_56">
      <g>
       <use style="stroke:#000000;stroke-width:0.5;" x="658.989013138" xlink:href="#m06d8687e06" y="500.334399274"/>
      </g>
     </g>
     <g id="line2d_57">
      <g>
       <use style="stroke:#000000;stroke-width:0.5;" x="658.989013138" xlink:href="#mdb7202bddc" y="28.4191920678"/>
      </g>
     </g>
    </g>
    <g id="xtick_25">
     <g id="line2d_58">
      <g>
       <use style="stroke:#000000;stroke-width:0.5;" x="689.196860896" xlink:href="#m06d8687e06" y="500.334399274"/>
      </g>
     </g>
     <g id="line2d_59">
      <g>
       <use style="stroke:#000000;stroke-width:0.5;" x="689.196860896" xlink:href="#mdb7202bddc" y="28.4191920678"/>
      </g>
     </g>
    </g>
    <g id="text_6">
     <!-- $x$ -->
     <defs>
      <path d="M 47.40625 40.71875 
C 44.203125 40.109375 43 37.71875 43 35.828125 
C 43 33.421875 44.90625 32.625 46.296875 32.625 
C 49.296875 32.625 51.40625 35.21875 51.40625 37.921875 
C 51.40625 42.109375 46.59375 44 42.40625 44 
C 36.296875 44 32.90625 38.015625 32 36.125 
C 29.703125 44 23.5 44 21.703125 44 
C 11.5 44 6.09375 30.9375 6.09375 28.734375 
C 6.09375 28.34375 6.5 27.84375 7.203125 27.84375 
C 8 27.84375 8.203125 28.4375 8.40625 28.84375 
C 11.796875 39.921875 18.5 42.015625 21.40625 42.015625 
C 25.90625 42.015625 26.796875 37.8125 26.796875 35.421875 
C 26.796875 33.234375 26.203125 30.9375 25 26.140625 
L 21.59375 12.46875 
C 20.09375 6.484375 17.203125 1 11.90625 1 
C 11.40625 1 8.90625 1 6.796875 2.296875 
C 10.40625 3 11.203125 5.984375 11.203125 7.1875 
C 11.203125 9.1875 9.703125 10.375 7.796875 10.375 
C 5.40625 10.375 2.796875 8.28125 2.796875 5.09375 
C 2.796875 0.890625 7.5 -1 11.796875 -1 
C 16.59375 -1 20 2.796875 22.09375 6.890625 
C 23.703125 1 28.703125 -1 32.40625 -1 
C 42.59375 -1 48 12.078125 48 14.265625 
C 48 14.765625 47.59375 15.171875 47 15.171875 
C 46.09375 15.171875 46 14.671875 45.703125 13.875 
C 43 5.09375 37.203125 1 32.703125 1 
C 29.203125 1 27.296875 3.59375 27.296875 7.6875 
C 27.296875 9.875 27.703125 11.46875 29.296875 18.0625 
L 32.796875 31.625 
C 34.296875 37.625 37.703125 42.015625 42.296875 42.015625 
C 42.5 42.015625 45.296875 42.015625 47.40625 40.71875 
" id="CMMI12-120"/>
     </defs>
     <g transform="translate(378.248933783 550.489637444)scale(0.32 -0.32)">
      <use transform="scale(0.996264009963)" xlink:href="#CMMI12-120"/>
     </g>
    </g>
   </g>
   <g id="matplotlib.axis_2">
    <g id="ytick_1">
     <g id="line2d_60">
      <path clip-path="url(#pbe2936bea4)" d="M 72.956767 409.814175 
L 701.28 409.814175 
" style="fill:none;stroke:#000000;stroke-dasharray:1.000000,3.000000;stroke-dashoffset:0.0;stroke-width:0.5;"/>
     </g>
     <g id="line2d_61">
      <defs>
       <path d="M 0 0 
L 4 0 
" id="m80b7325eaf" style="stroke:#000000;stroke-width:0.5;"/>
      </defs>
      <g>
       <use style="stroke:#000000;stroke-width:0.5;" x="72.9567666174" xlink:href="#m80b7325eaf" y="409.814174618"/>
      </g>
     </g>
     <g id="line2d_62">
      <defs>
       <path d="M 0 0 
L -4 0 
" id="m27fd5a242d" style="stroke:#000000;stroke-width:0.5;"/>
      </defs>
      <g>
       <use style="stroke:#000000;stroke-width:0.5;" x="701.28" xlink:href="#m27fd5a242d" y="409.814174618"/>
      </g>
     </g>
     <g id="text_7">
      <!-- -5 -->
      <defs>
       <path d="M 47.59375 71 
L 11 71 
L 5.703125 32.59375 
L 13.796875 32.59375 
C 17.90625 37.484375 21.296875 39.1875 26.796875 39.1875 
C 36.296875 39.1875 42.296875 32.6875 42.296875 22.203125 
C 42.296875 12 36.40625 5.8125 26.796875 5.8125 
C 19.09375 5.8125 14.40625 9.703125 12.296875 17.703125 
L 3.5 17.703125 
C 4.703125 11.90625 5.703125 9.09375 7.796875 6.484375 
C 11.796875 1.09375 19 -2 27 -2 
C 41.296875 -2 51.296875 8.390625 51.296875 23.390625 
C 51.296875 37.40625 42 47 28.40625 47 
C 23.40625 47 19.40625 45.703125 15.296875 42.6875 
L 18.09375 62.296875 
L 47.59375 62.296875 
z
" id="Nimbus_Sans_L_Regular-53"/>
      </defs>
      <g transform="translate(51.2433913596 414.790508483)scale(0.2 -0.2)">
       <use transform="scale(0.996264009963)" xlink:href="#Nimbus_Sans_L_Regular-45"/>
       <use transform="translate(33.1752297293 0.0)scale(0.996264009963)" xlink:href="#Nimbus_Sans_L_Regular-53"/>
      </g>
     </g>
    </g>
    <g id="ytick_2">
     <g id="line2d_63">
      <path clip-path="url(#pbe2936bea4)" d="M 72.956767 264.376796 
L 701.28 264.376796 
" style="fill:none;stroke:#000000;stroke-dasharray:1.000000,3.000000;stroke-dashoffset:0.0;stroke-width:0.5;"/>
     </g>
     <g id="line2d_64">
      <g>
       <use style="stroke:#000000;stroke-width:0.5;" x="72.9567666174" xlink:href="#m80b7325eaf" y="264.376795671"/>
      </g>
     </g>
     <g id="line2d_65">
      <g>
       <use style="stroke:#000000;stroke-width:0.5;" x="701.28" xlink:href="#m27fd5a242d" y="264.376795671"/>
      </g>
     </g>
     <g id="text_8">
      <!-- 0 -->
      <g transform="translate(57.8784373054 269.353129536)scale(0.2 -0.2)">
       <use transform="scale(0.996264009963)" xlink:href="#Nimbus_Sans_L_Regular-48"/>
      </g>
     </g>
    </g>
    <g id="ytick_3">
     <g id="line2d_66">
      <path clip-path="url(#pbe2936bea4)" d="M 72.956767 118.939417 
L 701.28 118.939417 
" style="fill:none;stroke:#000000;stroke-dasharray:1.000000,3.000000;stroke-dashoffset:0.0;stroke-width:0.5;"/>
     </g>
     <g id="line2d_67">
      <g>
       <use style="stroke:#000000;stroke-width:0.5;" x="72.9567666174" xlink:href="#m80b7325eaf" y="118.939416724"/>
      </g>
     </g>
     <g id="line2d_68">
      <g>
       <use style="stroke:#000000;stroke-width:0.5;" x="701.28" xlink:href="#m27fd5a242d" y="118.939416724"/>
      </g>
     </g>
     <g id="text_9">
      <!-- 5 -->
      <g transform="translate(57.8784373054 123.915750589)scale(0.2 -0.2)">
       <use transform="scale(0.996264009963)" xlink:href="#Nimbus_Sans_L_Regular-53"/>
      </g>
     </g>
    </g>
    <g id="ytick_4">
     <g id="line2d_69">
      <defs>
       <path d="M 0 0 
L 2 0 
" id="mab356749f4" style="stroke:#000000;stroke-width:0.5;"/>
      </defs>
      <g>
       <use style="stroke:#000000;stroke-width:0.5;" x="72.9567666174" xlink:href="#mab356749f4" y="497.076601986"/>
      </g>
     </g>
     <g id="line2d_70">
      <defs>
       <path d="M 0 0 
L -2 0 
" id="m862c41dd0a" style="stroke:#000000;stroke-width:0.5;"/>
      </defs>
      <g>
       <use style="stroke:#000000;stroke-width:0.5;" x="701.28" xlink:href="#m862c41dd0a" y="497.076601986"/>
      </g>
     </g>
    </g>
    <g id="ytick_5">
     <g id="line2d_71">
      <g>
       <use style="stroke:#000000;stroke-width:0.5;" x="72.9567666174" xlink:href="#mab356749f4" y="467.989126196"/>
      </g>
     </g>
     <g id="line2d_72">
      <g>
       <use style="stroke:#000000;stroke-width:0.5;" x="701.28" xlink:href="#m862c41dd0a" y="467.989126196"/>
      </g>
     </g>
    </g>
    <g id="ytick_6">
     <g id="line2d_73">
      <g>
       <use style="stroke:#000000;stroke-width:0.5;" x="72.9567666174" xlink:href="#mab356749f4" y="438.901650407"/>
      </g>
     </g>
     <g id="line2d_74">
      <g>
       <use style="stroke:#000000;stroke-width:0.5;" x="701.28" xlink:href="#m862c41dd0a" y="438.901650407"/>
      </g>
     </g>
    </g>
    <g id="ytick_7">
     <g id="line2d_75">
      <g>
       <use style="stroke:#000000;stroke-width:0.5;" x="72.9567666174" xlink:href="#mab356749f4" y="380.726698828"/>
      </g>
     </g>
     <g id="line2d_76">
      <g>
       <use style="stroke:#000000;stroke-width:0.5;" x="701.28" xlink:href="#m862c41dd0a" y="380.726698828"/>
      </g>
     </g>
    </g>
    <g id="ytick_8">
     <g id="line2d_77">
      <g>
       <use style="stroke:#000000;stroke-width:0.5;" x="72.9567666174" xlink:href="#mab356749f4" y="351.639223039"/>
      </g>
     </g>
     <g id="line2d_78">
      <g>
       <use style="stroke:#000000;stroke-width:0.5;" x="701.28" xlink:href="#m862c41dd0a" y="351.639223039"/>
      </g>
     </g>
    </g>
    <g id="ytick_9">
     <g id="line2d_79">
      <g>
       <use style="stroke:#000000;stroke-width:0.5;" x="72.9567666174" xlink:href="#mab356749f4" y="322.55174725"/>
      </g>
     </g>
     <g id="line2d_80">
      <g>
       <use style="stroke:#000000;stroke-width:0.5;" x="701.28" xlink:href="#m862c41dd0a" y="322.55174725"/>
      </g>
     </g>
    </g>
    <g id="ytick_10">
     <g id="line2d_81">
      <g>
       <use style="stroke:#000000;stroke-width:0.5;" x="72.9567666174" xlink:href="#mab356749f4" y="293.46427146"/>
      </g>
     </g>
     <g id="line2d_82">
      <g>
       <use style="stroke:#000000;stroke-width:0.5;" x="701.28" xlink:href="#m862c41dd0a" y="293.46427146"/>
      </g>
     </g>
    </g>
    <g id="ytick_11">
     <g id="line2d_83">
      <g>
       <use style="stroke:#000000;stroke-width:0.5;" x="72.9567666174" xlink:href="#mab356749f4" y="235.289319882"/>
      </g>
     </g>
     <g id="line2d_84">
      <g>
       <use style="stroke:#000000;stroke-width:0.5;" x="701.28" xlink:href="#m862c41dd0a" y="235.289319882"/>
      </g>
     </g>
    </g>
    <g id="ytick_12">
     <g id="line2d_85">
      <g>
       <use style="stroke:#000000;stroke-width:0.5;" x="72.9567666174" xlink:href="#mab356749f4" y="206.201844092"/>
      </g>
     </g>
     <g id="line2d_86">
      <g>
       <use style="stroke:#000000;stroke-width:0.5;" x="701.28" xlink:href="#m862c41dd0a" y="206.201844092"/>
      </g>
     </g>
    </g>
    <g id="ytick_13">
     <g id="line2d_87">
      <g>
       <use style="stroke:#000000;stroke-width:0.5;" x="72.9567666174" xlink:href="#mab356749f4" y="177.114368303"/>
      </g>
     </g>
     <g id="line2d_88">
      <g>
       <use style="stroke:#000000;stroke-width:0.5;" x="701.28" xlink:href="#m862c41dd0a" y="177.114368303"/>
      </g>
     </g>
    </g>
    <g id="ytick_14">
     <g id="line2d_89">
      <g>
       <use style="stroke:#000000;stroke-width:0.5;" x="72.9567666174" xlink:href="#mab356749f4" y="148.026892514"/>
      </g>
     </g>
     <g id="line2d_90">
      <g>
       <use style="stroke:#000000;stroke-width:0.5;" x="701.28" xlink:href="#m862c41dd0a" y="148.026892514"/>
      </g>
     </g>
    </g>
    <g id="ytick_15">
     <g id="line2d_91">
      <g>
       <use style="stroke:#000000;stroke-width:0.5;" x="72.9567666174" xlink:href="#mab356749f4" y="89.8519409349"/>
      </g>
     </g>
     <g id="line2d_92">
      <g>
       <use style="stroke:#000000;stroke-width:0.5;" x="701.28" xlink:href="#m862c41dd0a" y="89.8519409349"/>
      </g>
     </g>
    </g>
    <g id="ytick_16">
     <g id="line2d_93">
      <g>
       <use style="stroke:#000000;stroke-width:0.5;" x="72.9567666174" xlink:href="#mab356749f4" y="60.7644651456"/>
      </g>
     </g>
     <g id="line2d_94">
      <g>
       <use style="stroke:#000000;stroke-width:0.5;" x="701.28" xlink:href="#m862c41dd0a" y="60.7644651456"/>
      </g>
     </g>
    </g>
    <g id="ytick_17">
     <g id="line2d_95">
      <g>
       <use style="stroke:#000000;stroke-width:0.5;" x="72.9567666174" xlink:href="#mab356749f4" y="31.6769893562"/>
      </g>
     </g>
     <g id="line2d_96">
      <g>
       <use style="stroke:#000000;stroke-width:0.5;" x="701.28" xlink:href="#m862c41dd0a" y="31.6769893562"/>
      </g>
     </g>
    </g>
    <g id="text_10">
     <!-- $\frac{{d}x}{{d}t}$ -->
     <defs>
      <path d="M 20.09375 40.09375 
L 29.296875 40.09375 
C 31.203125 40.09375 32.203125 40.09375 32.203125 41.890625 
C 32.203125 43 31.59375 43 29.59375 43 
L 20.796875 43 
L 24.5 57.6875 
C 24.90625 59.078125 24.90625 59.28125 24.90625 60 
C 24.90625 61.609375 23.59375 62.5 22.296875 62.5 
C 21.5 62.5 19.203125 62.203125 18.40625 58.984375 
L 14.5 43 
L 5.09375 43 
C 3.09375 43 2.203125 43 2.203125 41.09375 
C 2.203125 40.09375 2.90625 40.09375 4.796875 40.09375 
L 13.703125 40.09375 
L 7.09375 13.765625 
C 6.296875 10.28125 6 9.28125 6 7.984375 
C 6 3.296875 9.296875 -1 14.90625 -1 
C 25 -1 30.40625 13.5625 30.40625 14.25 
C 30.40625 14.859375 30 15.15625 29.40625 15.15625 
C 29.203125 15.15625 28.796875 15.15625 28.59375 14.75 
C 28.5 14.65625 28.40625 14.546875 27.703125 12.953125 
C 25.59375 7.984375 21 1 15.203125 1 
C 12.203125 1 12 3.5 12 5.6875 
C 12 5.78125 12 7.6875 12.296875 8.875 
z
" id="CMMI12-116"/>
      <path d="M 50.296875 66.515625 
C 50.40625 66.90625 50.59375 67.5 50.59375 68 
C 50.59375 69 49.59375 69 49.40625 69 
C 49.296875 69 44.40625 68.5625 43.90625 68.4375 
C 42.203125 68.328125 40.703125 68.09375 38.90625 68.09375 
C 36.40625 67.890625 35.703125 67.796875 35.703125 66 
C 35.703125 65 36.5 65 37.90625 65 
C 42.796875 65 42.90625 64.109375 42.90625 63.125 
C 42.90625 62.53125 42.703125 61.75 42.59375 61.453125 
L 36.5 37.421875 
C 35.40625 40.015625 32.703125 44 27.5 44 
C 16.203125 44 4 29.4375 4 14.671875 
C 4 4.796875 9.796875 -1 16.59375 -1 
C 22.09375 -1 26.796875 3.296875 29.59375 6.59375 
C 30.59375 0.703125 35.296875 -1 38.296875 -1 
C 41.296875 -1 43.703125 0.796875 45.5 4.390625 
C 47.09375 7.78125 48.5 13.875 48.5 14.265625 
C 48.5 14.765625 48.09375 15.171875 47.5 15.171875 
C 46.59375 15.171875 46.5 14.671875 46.09375 13.171875 
C 44.59375 7.28125 42.703125 1 38.59375 1 
C 35.703125 1 35.5 3.578125 35.5 5.578125 
C 35.5 5.96875 35.5 8.046875 36.203125 10.84375 
z
M 30.09375 11.875 
C 29.59375 10.171875 29.59375 9.984375 28.203125 8.078125 
C 26 5.28125 21.59375 1 16.90625 1 
C 12.796875 1 10.5 4.6875 10.5 10.578125 
C 10.5 16.0625 13.59375 27.234375 15.5 31.4375 
C 18.90625 38.421875 23.59375 42.015625 27.5 42.015625 
C 34.09375 42.015625 35.40625 33.828125 35.40625 33.03125 
C 35.40625 32.9375 35.09375 31.625 35 31.4375 
z
" id="CMMI12-100"/>
     </defs>
     <g transform="translate(39.4530288031 276.26252965)rotate(-90.0)scale(0.32 -0.32)">
      <use transform="translate(0.0 73.5813544666)scale(0.697381766617)" xlink:href="#CMMI12-100"/>
      <use transform="translate(35.4822066178 73.5813544666)scale(0.697381766617)" xlink:href="#CMMI12-120"/>
      <use transform="translate(7.07267485698 0.0)scale(0.697381766617)" xlink:href="#CMMI12-100"/>
      <use transform="translate(42.5548814747 0.0)scale(0.697381766617)" xlink:href="#CMMI12-116"/>
      <path d="M 0 57.269386 
L 74.285866 57.269386 
L 74.285866 61.254336 
L 0 61.254336 
L 0 57.269386 
z
"/>
     </g>
    </g>
   </g>
   <g id="text_11">
    <!-- Stationary points for $\dot{x} = -(a + bx - x^3)$ for $b = 1.10$ -->
    <defs>
     <path d="M 38.796875 52.5 
L 24.296875 11.53125 
L 10.90625 52.5 
L 2 52.5 
L 19.703125 -0.328125 
L 16.5 -8.65625 
C 15.203125 -12.375 13.296875 -13.78125 9.796875 -13.78125 
C 8.59375 -13.78125 7.203125 -13.578125 5.40625 -13.171875 
L 5.40625 -20.703125 
C 7.09375 -21.59375 8.796875 -22 11 -22 
C 13.703125 -22 16.59375 -21.09375 18.796875 -19.484375 
C 21.40625 -17.578125 22.90625 -15.359375 24.5 -11.140625 
L 47.796875 52.5 
z
" id="Nimbus_Sans_L_Regular-121"/>
     <path d="M 22.09375 33.703125 
C 31 33.703125 34.90625 25.96875 34.90625 17.03125 
C 34.90625 5 28.5 0.390625 22.703125 0.390625 
C 17.40625 0.390625 8.796875 3.03125 6.09375 10.828125 
C 6.59375 10.625 7.09375 10.625 7.59375 10.625 
C 10 10.625 11.796875 12.21875 11.796875 14.8125 
C 11.796875 17.703125 9.59375 19 7.59375 19 
C 5.90625 19 3.296875 18.203125 3.296875 14.46875 
C 3.296875 5.234375 12.296875 -2 22.90625 -2 
C 34 -2 42.5 6.71875 42.5 16.953125 
C 42.5 26.671875 34.5 33.703125 25 34.796875 
C 32.59375 36.375 39.90625 43.0625 39.90625 52.015625 
C 39.90625 59.6875 32 65.296875 23 65.296875 
C 13.90625 65.296875 5.90625 59.828125 5.90625 52.015625 
C 5.90625 48.59375 8.5 48 9.796875 48 
C 11.90625 48 13.703125 49.296875 13.703125 51.890625 
C 13.703125 54.46875 11.90625 55.765625 9.796875 55.765625 
C 9.40625 55.765625 8.90625 55.765625 8.5 55.578125 
C 11.40625 61.859375 19.296875 63 22.796875 63 
C 26.296875 63 32.90625 61.328125 32.90625 51.875 
C 32.90625 49.109375 32.5 44.1875 29.09375 39.84375 
C 26.09375 36 22.703125 36 19.40625 35.6875 
C 18.90625 35.6875 16.59375 35.453125 16.203125 35.453125 
C 15.5 35.359375 15.09375 35.265625 15.09375 34.5 
C 15.09375 33.796875 15.203125 33.703125 17.203125 33.703125 
z
" id="CMR17-51"/>
     <path d="M 15 52.484375 
L 6.703125 52.484375 
L 6.703125 0 
L 15 0 
z
M 15 73 
L 6.59375 73 
L 6.59375 62.484375 
L 15 62.484375 
z
" id="Nimbus_Sans_L_Regular-105"/>
     <path d="M 59.59375 52.109375 
C 59.5 66.484375 49.703125 74.8125 32.90625 74.8125 
C 16.90625 74.8125 7 66.5625 7 53.28125 
C 7 44.328125 11.703125 38.703125 21.296875 36.1875 
L 39.40625 31.359375 
C 48.59375 28.9375 52.796875 25.21875 52.796875 19.484375 
C 52.796875 15.546875 50.703125 11.53125 47.59375 9.328125 
C 44.703125 7.3125 40.09375 6.203125 34.203125 6.203125 
C 26.296875 6.203125 20.90625 8.125 17.40625 12.34375 
C 14.703125 15.5625 13.5 19.09375 13.59375 23.609375 
L 4.796875 23.609375 
C 4.90625 16.890625 6.203125 12.46875 9.09375 8.4375 
C 14.09375 1.609375 22.5 -2 33.59375 -2 
C 42.296875 -2 49.40625 0.015625 54.09375 3.625 
C 59 7.546875 62.09375 14.078125 62.09375 20.421875 
C 62.09375 29.46875 56.5 36.109375 46.59375 38.828125 
L 28.296875 43.765625 
C 19.5 46.171875 16.296875 48.984375 16.296875 54.625 
C 16.296875 62.0625 22.796875 67 32.59375 67 
C 44.203125 67 50.703125 61.671875 50.796875 52.109375 
z
" id="Nimbus_Sans_L_Regular-83"/>
     <path d="M 25.796875 52 
L 17.09375 52 
L 17.09375 60.25 
C 17.09375 63.78125 19.09375 65.59375 22.90625 65.59375 
C 23.59375 65.59375 23.90625 65.59375 25.796875 65.59375 
L 25.796875 72.5 
C 23.90625 72.90625 22.796875 73 21.09375 73 
C 13.40625 73 8.796875 68.5625 8.796875 60.984375 
L 8.796875 52 
L 1.796875 52 
L 1.796875 45.1875 
L 8.796875 45.1875 
L 8.796875 -0.40625 
L 17.09375 -0.40625 
L 17.09375 45.1875 
L 25.796875 45.1875 
z
" id="Nimbus_Sans_L_Regular-102"/>
     <path d="M 16.5 61.078125 
C 16.5 63.46875 14.59375 65.15625 12.5 65.15625 
C 10.09375 65.15625 8.40625 63.265625 8.40625 61.078125 
C 8.40625 58.6875 10.296875 57 12.40625 57 
C 14.796875 57 16.5 58.890625 16.5 61.078125 
" id="CMR17-95"/>
     <path d="M 65.90625 23 
C 67.59375 23 69.40625 23 69.40625 25 
C 69.40625 27 67.59375 27 65.90625 27 
L 11.796875 27 
C 10.09375 27 8.296875 27 8.296875 25 
C 8.296875 23 10.09375 23 11.796875 23 
z
" id="CMSY10-0"/>
     <path d="M 7 52.484375 
L 7 0 
L 15.40625 0 
L 15.40625 28.953125 
C 15.40625 39.671875 21 46.6875 29.59375 46.6875 
C 36.203125 46.6875 40.40625 42.671875 40.40625 36.359375 
L 40.40625 0 
L 48.703125 0 
L 48.703125 39.671875 
C 48.703125 48.390625 42.203125 54 32.09375 54 
C 24.296875 54 19.296875 50.984375 14.703125 43.6875 
L 14.703125 52.484375 
z
" id="Nimbus_Sans_L_Regular-110"/>
     <path d="M 42 31.640625 
C 42 37.75 41.90625 48.125 37.703125 56.109375 
C 34 63.109375 28.09375 65.59375 22.90625 65.59375 
C 18.09375 65.59375 12 63.40625 8.203125 56.203125 
C 4.203125 48.71875 3.796875 39.4375 3.796875 31.640625 
C 3.796875 25.953125 3.90625 17.28125 7 9.671875 
C 11.296875 -0.609375 19 -2 22.90625 -2 
C 27.5 -2 34.5 -0.109375 38.59375 9.375 
C 41.59375 16.28125 42 24.359375 42 31.640625 
M 22.90625 -0.40625 
C 16.5 -0.40625 12.703125 5.078125 11.296875 12.6875 
C 10.203125 18.5625 10.203125 27.15625 10.203125 32.75 
C 10.203125 40.4375 10.203125 46.828125 11.5 52.921875 
C 13.40625 61.390625 19 64 22.90625 64 
C 27 64 32.296875 61.296875 34.203125 53.125 
C 35.5 47.4375 35.59375 40.734375 35.59375 32.75 
C 35.59375 26.25 35.59375 18.265625 34.40625 12.375 
C 32.296875 1.484375 26.40625 -0.40625 22.90625 -0.40625 
" id="CMR17-48"/>
     <path d="M 30.09375 11.875 
C 29.59375 10.171875 29.59375 9.984375 28.203125 8.078125 
C 26 5.28125 21.59375 1 16.90625 1 
C 12.796875 1 10.5 4.6875 10.5 10.578125 
C 10.5 16.0625 13.59375 27.234375 15.5 31.4375 
C 18.90625 38.421875 23.59375 42.015625 27.5 42.015625 
C 34.09375 42.015625 35.40625 33.828125 35.40625 33.03125 
C 35.40625 32.9375 35.09375 31.625 35 31.4375 
z
M 36.5 37.421875 
C 35.40625 40.015625 32.703125 44 27.5 44 
C 16.203125 44 4 29.4375 4 14.671875 
C 4 4.796875 9.796875 -1 16.59375 -1 
C 22.09375 -1 26.796875 3.296875 29.59375 6.59375 
C 30.59375 0.703125 35.296875 -1 38.296875 -1 
C 41.296875 -1 43.703125 0.796875 45.5 4.390625 
C 47.09375 7.78125 48.5 13.875 48.5 14.265625 
C 48.5 14.765625 48.09375 15.171875 47.5 15.171875 
C 46.59375 15.171875 46.5 14.671875 46.09375 13.171875 
C 44.59375 7.28125 42.703125 1 38.59375 1 
C 35.703125 1 35.5 3.59375 35.5 5.59375 
C 35.5 7.890625 35.796875 8.984375 36.703125 12.875 
C 37.40625 15.375 37.90625 17.5625 38.703125 20.453125 
C 42.40625 35.421875 43.296875 39.015625 43.296875 39.609375 
C 43.296875 41.015625 42.203125 42.109375 40.703125 42.109375 
C 37.5 42.109375 36.703125 38.625 36.5 37.421875 
" id="CMMI12-97"/>
     <path d="M 53.5 5.203125 
C 52.59375 5 52.203125 5 51.703125 5 
C 48.796875 5 47.203125 6.484375 47.203125 9.078125 
L 47.203125 39.765625 
C 47.203125 49.015625 40.40625 54 27.5 54 
C 19.90625 54 13.59375 51.8125 10.09375 47.90625 
C 7.703125 45.203125 6.703125 42.21875 6.5 37.03125 
L 14.90625 37.03125 
C 15.59375 43.390625 19.40625 46.28125 27.203125 46.28125 
C 34.703125 46.28125 38.90625 43.484375 38.90625 38.515625 
L 38.90625 36.328125 
C 38.90625 32.828125 36.796875 31.34375 30.203125 30.546875 
C 18.40625 29.0625 16.59375 28.65625 13.40625 27.359375 
C 7.296875 24.875 4.203125 20.1875 4.203125 13.421875 
C 4.203125 3.96875 10.796875 -2 21.40625 -2 
C 28 -2 33.296875 0.296875 39.203125 5.703125 
C 39.796875 0.390625 42.40625 -2 47.796875 -2 
C 49.5 -2 50.796875 -1.8125 53.5 -1.09375 
z
M 38.90625 16.75 
C 38.90625 13.953125 38.09375 12.265625 35.59375 9.984375 
C 32.203125 6.890625 28.09375 5.3125 23.203125 5.3125 
C 16.703125 5.3125 12.90625 8.390625 12.90625 13.65625 
C 12.90625 19.140625 16.59375 21.921875 25.5 23.21875 
C 34.296875 24.40625 36.09375 24.8125 38.90625 26.09375 
z
" id="Nimbus_Sans_L_Regular-97"/>
     <path d="M 64.296875 31.515625 
C 65.796875 31.515625 67.296875 31.515625 67.296875 33.203125 
C 67.296875 35 65.59375 35 63.90625 35 
L 8 35 
C 6.296875 35 4.59375 35 4.59375 33.203125 
C 4.59375 31.515625 6.09375 31.515625 7.59375 31.515625 
z
M 63.90625 14 
C 65.59375 14 67.296875 14 67.296875 15.796875 
C 67.296875 17.484375 65.796875 17.484375 64.296875 17.484375 
L 7.59375 17.484375 
C 6.09375 17.484375 4.59375 17.484375 4.59375 15.796875 
C 4.59375 14 6.296875 14 8 14 
z
" id="CMR17-61"/>
     <path d="M 23.09375 66.515625 
C 23.203125 66.921875 23.40625 67.515625 23.40625 68 
C 23.40625 69 22.40625 69 22.203125 69 
C 22.09375 69 18.5 68.640625 16.703125 68.390625 
C 15 68.390625 13.5 68.09375 11.703125 68.09375 
C 9.296875 67.890625 8.59375 67.796875 8.59375 66 
C 8.59375 65 9.59375 65 10.59375 65 
C 15.703125 65 15.703125 64.109375 15.703125 63.125 
C 15.703125 62.4375 14.90625 59.546875 14.5 57.75 
L 12.09375 48.203125 
C 11.09375 44.234375 5.40625 21.671875 5 19.875 
C 4.5 17.40625 4.5 15.703125 4.5 14.40625 
C 4.5 4.28125 10.203125 -1 16.703125 -1 
C 28.296875 -1 40.296875 13.875 40.296875 28.34375 
C 40.296875 37.515625 35.09375 44 27.59375 44 
C 22.40625 44 17.703125 39.71875 15.796875 37.71875 
z
M 16.796875 1 
C 13.59375 1 10.09375 3.390625 10.09375 11.171875 
C 10.09375 14.46875 10.40625 16.359375 12.203125 23.34375 
C 12.5 24.640625 14.09375 31.03125 14.5 32.328125 
C 14.703125 33.125 20.59375 42.015625 27.40625 42.015625 
C 31.796875 42.015625 33.796875 37.625 33.796875 32.4375 
C 33.796875 27.640625 31 16.359375 28.5 11.171875 
C 26 5.78125 21.40625 1 16.796875 1 
" id="CMMI12-98"/>
     <path d="M 37.703125 23 
L 64.203125 23 
C 65.59375 23 67.296875 23 67.296875 24.6875 
C 67.296875 26.484375 65.703125 26.484375 64.203125 26.484375 
L 37.703125 26.484375 
L 37.703125 52.90625 
C 37.703125 54.296875 37.703125 56 36 56 
C 34.203125 56 34.203125 54.40625 34.203125 52.90625 
L 34.203125 26.484375 
L 7.703125 26.484375 
C 6.296875 26.484375 4.59375 26.484375 4.59375 24.796875 
C 4.59375 23 6.203125 23 7.703125 23 
L 34.203125 23 
L 34.203125 -3.40625 
C 34.203125 -4.796875 34.203125 -6.5 35.90625 -6.5 
C 37.703125 -6.5 37.703125 -4.90625 37.703125 -3.40625 
z
" id="CMR17-43"/>
     <path d="M 26.296875 24.703125 
C 26.296875 31.875 25.59375 44.015625 19.59375 56.859375 
C 14.796875 67.234375 6.59375 74.5 5.40625 74.5 
C 5.09375 74.5 4.703125 74.390625 4.703125 73.890625 
C 4.703125 73.703125 4.796875 73.59375 4.90625 73.390625 
C 9.703125 68.40625 21.90625 55.75 21.90625 24.75 
C 21.90625 -6.359375 9.796875 -19.015625 4.90625 -24.015625 
C 4.796875 -24.203125 4.703125 -24.3125 4.703125 -24.5 
C 4.703125 -25 5.09375 -25 5.40625 -25 
C 6.5 -25 15 -17.625 19.90625 -6.65625 
C 24.90625 4.390625 26.296875 15.140625 26.296875 24.703125 
" id="CMR17-41"/>
     <path d="M 30.59375 -24.390625 
C 30.59375 -24.296875 30.59375 -24.09375 30.296875 -23.796875 
C 25.703125 -19.125 13.40625 -6.359375 13.40625 24.703125 
C 13.40625 55.765625 25.5 68.421875 30.40625 73.390625 
C 30.40625 73.5 30.59375 73.703125 30.59375 74 
C 30.59375 74.296875 30.296875 74.5 29.90625 74.5 
C 28.796875 74.5 20.296875 67.125 15.40625 56.15625 
C 10.40625 45.109375 9 34.359375 9 24.8125 
C 9 17.625 9.703125 5.484375 15.703125 -7.359375 
C 20.5 -17.734375 28.703125 -25 29.90625 -25 
C 30.40625 -25 30.59375 -24.796875 30.59375 -24.390625 
" id="CMR17-40"/>
     <path d="M 6.90625 52.484375 
L 6.90625 0 
L 15.296875 0 
L 15.296875 27.203125 
C 15.296875 34.703125 17.203125 39.609375 21.203125 42.5 
C 23.796875 44.40625 26.296875 45 32.09375 45 
L 32.09375 53.625 
C 30.703125 53.8125 30 53.8125 28.90625 53.8125 
C 23.5 53.8125 19.40625 50.625 14.59375 42.90625 
L 14.59375 52.484375 
z
" id="Nimbus_Sans_L_Regular-114"/>
     <path d="M 5.40625 -22 
L 13.796875 -22 
L 13.796875 5 
C 18.203125 -0.421875 23.09375 -2.8125 29.90625 -2.8125 
C 43.40625 -2.8125 52.296875 8.15625 52.296875 24.984375 
C 52.296875 42.71875 43.703125 53.8125 29.796875 53.8125 
C 22.703125 53.8125 17 50.59375 13.09375 44.390625 
L 13.09375 52.328125 
L 5.40625 52.328125 
z
M 28.40625 46 
C 37.59375 46 43.59375 37.8125 43.59375 25.1875 
C 43.59375 13.171875 37.5 5 28.40625 5 
C 19.59375 5 13.796875 13.078125 13.796875 25.5 
C 13.796875 37.921875 19.59375 46 28.40625 46 
" id="Nimbus_Sans_L_Regular-112"/>
     <path d="M 26.59375 63.40625 
C 26.59375 65.5 26.5 65.5 25.09375 65.5 
C 21.203125 61.1875 15.296875 59.796875 9.703125 59.796875 
C 9.40625 59.796875 8.90625 59.796875 8.796875 59.5 
C 8.703125 59.296875 8.703125 59.09375 8.703125 57 
C 11.796875 57 17 57.59375 21 59.984375 
L 21 7.203125 
C 21 3.6875 20.796875 2.5 12.203125 2.5 
L 9.203125 2.5 
L 9.203125 0 
C 14 0 19 0 23.796875 0 
C 28.59375 0 33.59375 0 38.40625 0 
L 38.40625 2.5 
L 35.40625 2.5 
C 26.796875 2.5 26.59375 3.59375 26.59375 7.15625 
z
" id="CMR17-49"/>
     <path d="M 27.203125 54 
C 12.5 54 3.59375 43.53125 3.59375 25.984375 
C 3.59375 8.453125 12.40625 -2 27.296875 -2 
C 42 -2 51 8.453125 51 25.59375 
C 51 43.625 42.296875 54 27.203125 54 
M 27.296875 46.28125 
C 36.703125 46.28125 42.296875 38.625 42.296875 25.703125 
C 42.296875 13.453125 36.5 5.703125 27.296875 5.703125 
C 18 5.703125 12.296875 13.359375 12.296875 25.984375 
C 12.296875 38.53125 18 46.28125 27.296875 46.28125 
" id="Nimbus_Sans_L_Regular-111"/>
     <path d="M 25.40625 52.8125 
L 16.796875 52.8125 
L 16.796875 67 
L 8.5 67 
L 8.5 52.8125 
L 1.40625 52.8125 
L 1.40625 46 
L 8.5 46 
L 8.5 6.3125 
C 8.5 1 12.09375 -2 18.59375 -2 
C 20.59375 -2 22.59375 -1.8125 25.40625 -1.296875 
L 25.40625 5.71875 
C 24.296875 5.40625 23 5.3125 21.40625 5.3125 
C 17.796875 5.3125 16.796875 6.3125 16.796875 10.015625 
L 16.796875 46 
L 25.40625 46 
z
" id="Nimbus_Sans_L_Regular-116"/>
     <path d="M 18.40625 4.796875 
C 18.40625 7.6875 16 9.671875 13.59375 9.671875 
C 10.703125 9.671875 8.703125 7.28125 8.703125 4.890625 
C 8.703125 2 11.09375 0 13.5 0 
C 16.40625 0 18.40625 2.390625 18.40625 4.796875 
" id="CMMI12-58"/>
     <path d="M 43.796875 37.921875 
C 43.703125 48.203125 36.90625 54 24.796875 54 
C 12.59375 54 4.703125 47.71875 4.703125 38.0625 
C 4.703125 29.890625 8.90625 26.015625 21.296875 23.03125 
L 29.09375 21.140625 
C 34.90625 19.734375 37.203125 17.65625 37.203125 13.875 
C 37.203125 9 32.296875 5.703125 25 5.703125 
C 20.5 5.703125 16.703125 7 14.59375 9.1875 
C 13.296875 10.6875 12.703125 12.171875 12.203125 15.84375 
L 3.40625 15.84375 
C 3.796875 3.765625 10.59375 -2 24.296875 -2 
C 37.5 -2 45.90625 4.453125 45.90625 14.515625 
C 45.90625 22.28125 41.5 26.578125 31.09375 29.0625 
L 23.09375 30.953125 
C 16.296875 32.53125 13.40625 34.734375 13.40625 38.40625 
C 13.40625 43.1875 17.703125 46.28125 24.5 46.28125 
C 31.203125 46.28125 34.796875 43.390625 35 37.921875 
z
" id="Nimbus_Sans_L_Regular-115"/>
    </defs>
    <g transform="translate(164.766549001 23.4191920678)scale(0.2 -0.2)">
     <use transform="scale(0.996264009963)" xlink:href="#Nimbus_Sans_L_Regular-83"/>
     <use transform="translate(66.4500311333 0.0)scale(0.996264009963)" xlink:href="#Nimbus_Sans_L_Regular-116"/>
     <use transform="translate(94.1452007365 0.0)scale(0.996264009963)" xlink:href="#Nimbus_Sans_L_Regular-97"/>
     <use transform="translate(149.5368777 0.0)scale(0.996264009963)" xlink:href="#Nimbus_Sans_L_Regular-116"/>
     <use transform="translate(177.232047303 0.0)scale(0.996264009963)" xlink:href="#Nimbus_Sans_L_Regular-105"/>
     <use transform="translate(199.348831652 0.0)scale(0.996264009963)" xlink:href="#Nimbus_Sans_L_Regular-111"/>
     <use transform="translate(254.740508615 0.0)scale(0.996264009963)" xlink:href="#Nimbus_Sans_L_Regular-110"/>
     <use transform="translate(310.132185578 0.0)scale(0.996264009963)" xlink:href="#Nimbus_Sans_L_Regular-97"/>
     <use transform="translate(365.523862542 0.0)scale(0.996264009963)" xlink:href="#Nimbus_Sans_L_Regular-114"/>
     <use transform="translate(401.687185019 0.0)scale(0.996264009963)" xlink:href="#Nimbus_Sans_L_Regular-121"/>
     <use transform="translate(479.19555512 0.0)scale(0.996264009963)" xlink:href="#Nimbus_Sans_L_Regular-112"/>
     <use transform="translate(534.587232084 0.0)scale(0.996264009963)" xlink:href="#Nimbus_Sans_L_Regular-111"/>
     <use transform="translate(589.978909047 0.0)scale(0.996264009963)" xlink:href="#Nimbus_Sans_L_Regular-105"/>
     <use transform="translate(612.095693396 0.0)scale(0.996264009963)" xlink:href="#Nimbus_Sans_L_Regular-110"/>
     <use transform="translate(667.487370359 0.0)scale(0.996264009963)" xlink:href="#Nimbus_Sans_L_Regular-116"/>
     <use transform="translate(695.182539962 0.0)scale(0.996264009963)" xlink:href="#Nimbus_Sans_L_Regular-115"/>
     <use transform="translate(772.690910064 0.0)scale(0.996264009963)" xlink:href="#Nimbus_Sans_L_Regular-102"/>
     <use transform="translate(797.397971717 0.0)scale(0.996264009963)" xlink:href="#Nimbus_Sans_L_Regular-111"/>
     <use transform="translate(852.789648681 0.0)scale(0.996264009963)" xlink:href="#Nimbus_Sans_L_Regular-114"/>
     <use transform="translate(931.651266248 0.00646075751089)scale(0.996264009963)" xlink:href="#CMR17-95"/>
     <use transform="translate(913.660048013 0.0)scale(0.996264009963)" xlink:href="#CMMI12-120"/>
     <use transform="translate(996.768116268 0.0)scale(0.996264009963)" xlink:href="#CMR17-61"/>
     <use transform="translate(1096.15691341 0.0)scale(0.996264009963)" xlink:href="#CMSY10-0"/>
     <use transform="translate(1173.64438106 0.0)scale(0.996264009963)" xlink:href="#CMR17-40"/>
     <use transform="translate(1208.92514886 0.0)scale(0.996264009963)" xlink:href="#CMMI12-97"/>
     <use transform="translate(1282.27221345 0.0)scale(0.996264009963)" xlink:href="#CMR17-43"/>
     <use transform="translate(1376.12620885 0.0)scale(0.996264009963)" xlink:href="#CMMI12-98"/>
     <use transform="translate(1417.60208301 0.0)scale(0.996264009963)" xlink:href="#CMMI12-120"/>
     <use transform="translate(1495.17534952 0.0)scale(0.996264009963)" xlink:href="#CMSY10-0"/>
     <use transform="translate(1594.80202415 0.0)scale(0.996264009963)" xlink:href="#CMMI12-120"/>
     <use transform="translate(1650.23608368 36.1536389419)scale(0.697381766617)" xlink:href="#CMR17-51"/>
     <use transform="translate(1682.71739765 0.0)scale(0.996264009963)" xlink:href="#CMR17-41"/>
     <use transform="translate(1745.69333505 0.0)scale(0.996264009963)" xlink:href="#Nimbus_Sans_L_Regular-102"/>
     <use transform="translate(1770.40039671 0.0)scale(0.996264009963)" xlink:href="#Nimbus_Sans_L_Regular-111"/>
     <use transform="translate(1825.79207367 0.0)scale(0.996264009963)" xlink:href="#Nimbus_Sans_L_Regular-114"/>
     <use transform="translate(1886.662473 0.0)scale(0.996264009963)" xlink:href="#CMMI12-98"/>
     <use transform="translate(1955.81235589 0.0)scale(0.996264009963)" xlink:href="#CMR17-61"/>
     <use transform="translate(2055.20115302 0.0)scale(0.996264009963)" xlink:href="#CMR17-49"/>
     <use transform="translate(2100.89163014 0.0)scale(0.996264009963)" xlink:href="#CMMI12-58"/>
     <use transform="translate(2127.98880723 0.0)scale(0.996264009963)" xlink:href="#CMR17-49"/>
     <use transform="translate(2173.67928435 0.0)scale(0.996264009963)" xlink:href="#CMR17-48"/>
    </g>
   </g>
   <g id="legend_1">
    <g id="patch_7">
     <path d="M 84.956767 156.806886 
L 198.366238 156.806886 
L 198.366238 40.419192 
L 84.956767 40.419192 
z
" style="fill:#4c4c4c;opacity:0.5;stroke:#4c4c4c;stroke-linejoin:miter;"/>
    </g>
    <g id="patch_8">
     <path d="M 82.956767 154.806886 
L 196.366238 154.806886 
L 196.366238 38.419192 
L 82.956767 38.419192 
z
" style="fill:#ffffff;stroke:#000000;stroke-linejoin:miter;"/>
    </g>
    <g id="line2d_97">
     <path d="M 100.956767 57.615833 
L 89.956767 57.615833 
" style="fill:none;stroke:#00ff66;stroke-linecap:square;"/>
    </g>
    <g id="line2d_98"/>
    <g id="text_12">
     <!-- $a = -2.0$ -->
     <defs>
      <path d="M 41.703125 15.453125 
L 39.90625 15.453125 
C 38.90625 8.375 38.09375 7.171875 37.703125 6.5625 
C 37.203125 5.765625 30 5.765625 28.59375 5.765625 
L 9.40625 5.765625 
C 13 9.671875 20 16.75 28.5 24.953125 
C 34.59375 30.734375 41.703125 37.53125 41.703125 47.421875 
C 41.703125 59.21875 32.296875 66 21.796875 66 
C 10.796875 66 4.09375 56.3125 4.09375 47.34375 
C 4.09375 43.4375 7 42.9375 8.203125 42.9375 
C 9.203125 42.9375 12.203125 43.546875 12.203125 47.03125 
C 12.203125 50.109375 9.59375 51 8.203125 51 
C 7.59375 51 7 50.90625 6.59375 50.703125 
C 8.5 59.21875 14.296875 63.40625 20.40625 63.40625 
C 29.09375 63.40625 34.796875 56.515625 34.796875 47.421875 
C 34.796875 38.734375 29.703125 31.25 24 24.75 
L 4.09375 2.28125 
L 4.09375 0 
L 39.296875 0 
z
" id="CMR17-50"/>
     </defs>
     <g transform="translate(105.956766617 64.6158325955)scale(0.2 -0.2)">
      <use transform="scale(0.996264009963)" xlink:href="#CMMI12-97"/>
      <use transform="translate(78.8818663411 0.0)scale(0.996264009963)" xlink:href="#CMR17-61"/>
      <use transform="translate(178.270663479 0.0)scale(0.996264009963)" xlink:href="#CMSY10-0"/>
      <use transform="translate(255.758131129 0.0)scale(0.996264009963)" xlink:href="#CMR17-50"/>
      <use transform="translate(301.448608246 0.0)scale(0.996264009963)" xlink:href="#CMMI12-58"/>
      <use transform="translate(328.545785336 0.0)scale(0.996264009963)" xlink:href="#CMR17-48"/>
     </g>
    </g>
    <g id="line2d_99">
     <path d="M 100.956767 76.456446 
L 89.956767 76.456446 
" style="fill:none;stroke:#ff0000;stroke-linecap:square;"/>
    </g>
    <g id="line2d_100"/>
    <g id="text_13">
     <!-- $a = 0.00$ -->
     <g transform="translate(105.956766617 83.4564459206)scale(0.2 -0.2)">
      <use transform="scale(0.996264009963)" xlink:href="#CMMI12-97"/>
      <use transform="translate(78.8818663411 0.0)scale(0.996264009963)" xlink:href="#CMR17-61"/>
      <use transform="translate(178.270663479 0.0)scale(0.996264009963)" xlink:href="#CMR17-48"/>
      <use transform="translate(223.961140596 0.0)scale(0.996264009963)" xlink:href="#CMMI12-58"/>
      <use transform="translate(251.058317686 0.0)scale(0.996264009963)" xlink:href="#CMR17-48"/>
      <use transform="translate(296.748794803 0.0)scale(0.996264009963)" xlink:href="#CMR17-48"/>
     </g>
    </g>
    <g id="line2d_101">
     <path d="M 100.956767 95.297059 
L 89.956767 95.297059 
" style="fill:none;stroke:#cbff00;stroke-linecap:square;"/>
    </g>
    <g id="line2d_102"/>
    <g id="text_14">
     <!-- $a = 2.0$ -->
     <g transform="translate(105.956766617 102.297059246)scale(0.2 -0.2)">
      <use transform="scale(0.996264009963)" xlink:href="#CMMI12-97"/>
      <use transform="translate(78.8818663411 0.0)scale(0.996264009963)" xlink:href="#CMR17-61"/>
      <use transform="translate(178.270663479 0.0)scale(0.996264009963)" xlink:href="#CMR17-50"/>
      <use transform="translate(223.961140596 0.0)scale(0.996264009963)" xlink:href="#CMMI12-58"/>
      <use transform="translate(251.058317686 0.0)scale(0.996264009963)" xlink:href="#CMR17-48"/>
     </g>
    </g>
    <g id="line2d_103">
     <path d="M 100.956767 131.353524 
L 89.956767 131.353524 
" style="fill:none;stroke:#000000;stroke-linecap:square;"/>
    </g>
    <g id="line2d_104"/>
    <g id="text_15">
     <!-- $a = \sqrt{\frac{4\,b^3}{27}}$ -->
     <defs>
      <path d="M 46.40625 -161 
L 24.90625 -86 
L 11 -102.296875 
L 12.59375 -103.796875 
L 19.40625 -95.796875 
L 42.40625 -176 
C 45.703125 -176 45.796875 -176 46.59375 -173.59375 
L 101.5 0 
C 102 1.5 102 1.90625 102 2 
C 102 3.09375 101.203125 4 100 4 
C 98.5 4 98.09375 2.703125 97.703125 1.40625 
z
" id="CMEX10-113"/>
      <path d="M 33.59375 64.40625 
C 33.59375 66.5 33.5 66.5 31.703125 66.5 
L 2 19.59375 
L 2 17 
L 27.796875 17 
L 27.796875 7.140625 
C 27.796875 3.5 27.59375 2.5 20.59375 2.5 
L 18.703125 2.5 
L 18.703125 0 
C 21.90625 0 27.296875 0 30.703125 0 
C 34.09375 0 39.5 0 42.703125 0 
L 42.703125 2.5 
L 40.796875 2.5 
C 33.796875 2.5 33.59375 3.5 33.59375 7.140625 
L 33.59375 17 
L 43.796875 17 
L 43.796875 19.59375 
L 33.59375 19.59375 
z
M 28.09375 57.859375 
L 28.09375 19.59375 
L 4 19.59375 
z
" id="CMR17-52"/>
      <path d="M 45.09375 61.578125 
L 45.09375 63.765625 
L 21.59375 63.765625 
C 9.90625 63.765625 9.703125 65.078125 9.296875 67 
L 7.5 67 
L 4.59375 48.34375 
L 6.40625 48.34375 
C 6.703125 50.234375 7.40625 55.3125 8.59375 57.203125 
C 9.203125 58 16.59375 58 18.296875 58 
L 40.296875 58 
L 29.203125 41.578125 
C 21.796875 30.53125 16.703125 15.609375 16.703125 2.578125 
C 16.703125 1.390625 16.703125 -2 20.296875 -2 
C 23.90625 -2 23.90625 1.390625 23.90625 2.671875 
L 23.90625 7.265625 
C 23.90625 23.5625 26.703125 34.3125 31.296875 41.1875 
z
" id="CMR17-55"/>
     </defs>
     <g transform="translate(105.956766617 138.353523895)scale(0.2 -0.2)">
      <use transform="translate(0.0 34.3552528847)scale(0.996264009963)" xlink:href="#CMMI12-97"/>
      <use transform="translate(78.8818663411 34.3552528847)scale(0.996264009963)" xlink:href="#CMR17-61"/>
      <use transform="translate(178.270663479 153.081811736)scale(0.996264009963)" xlink:href="#CMEX10-113"/>
      <use transform="translate(279.092851879 73.5813544666)scale(0.697381766617)" xlink:href="#CMR17-52"/>
      <use transform="translate(322.699058219 73.5813544666)scale(0.697381766617)" xlink:href="#CMMI12-98"/>
      <use transform="translate(351.732045479 93.727927012)scale(0.498132004981)" xlink:href="#CMR17-51"/>
      <use transform="translate(295.100951996 0.0)scale(0.697381766617)" xlink:href="#CMR17-50"/>
      <use transform="translate(327.084133961 0.0)scale(0.697381766617)" xlink:href="#CMR17-55"/>
      <path d="M 277.897338 153.081812 
L 376.27093 153.081812 
L 376.27093 157.066761 
L 277.897338 157.066761 
L 277.897338 153.081812 
z
"/>
      <path d="M 279.092852 57.269386 
L 375.075416 57.269386 
L 375.075416 61.254336 
L 279.092852 61.254336 
L 279.092852 57.269386 
z
"/>
     </g>
    </g>
   </g>
  </g>
 </g>
 <defs>
  <clipPath id="pbe2936bea4">
   <rect height="471.915207206" width="628.323233383" x="72.9567666174" y="28.4191920678"/>
  </clipPath>
 </defs>
</svg>
