<?xml version="1.0" encoding="utf-8" standalone="no"?>
<!DOCTYPE svg PUBLIC "-//W3C//DTD SVG 1.1//EN"
  "http://www.w3.org/Graphics/SVG/1.1/DTD/svg11.dtd">
<!-- Created with matplotlib (http://matplotlib.org/) -->
<svg height="852pt" version="1.1" viewBox="0 0 1220 852" width="1220pt" xmlns="http://www.w3.org/2000/svg" xmlns:xlink="http://www.w3.org/1999/xlink">
 <defs>
  <style type="text/css">
*{stroke-linecap:butt;stroke-linejoin:round;stroke-miterlimit:100000;}
  </style>
 </defs>
 <g id="figure_1">
  <g id="patch_1">
   <path d="M 0 852.48 
L 1220.678232 852.48 
L 1220.678232 0 
L 0 0 
z
" style="fill:#ffffff;"/>
  </g>
  <g id="axes_1">
   <g id="patch_2">
    <path d="M 168.955232 707.195707 
L 1133.28 707.195707 
L 1133.28 55.998129 
L 168.955232 55.998129 
z
" style="fill:#ffffff;"/>
   </g>
   <g id="line2d_1">
    <path clip-path="url(#pa966751d28)" d="M 187.499939 534.121005 
L 193.998021 522.045239 
L 200.297967 510.694015 
L 208.551071 496.346274 
L 216.510639 483.061045 
L 223.899907 471.204401 
L 230.449982 461.071627 
L 237.527038 450.515641 
L 244.63592 440.31537 
L 252.113585 430.01441 
L 258.374078 421.722261 
L 266.159994 411.824334 
L 272.803859 403.735366 
L 279.229841 396.21888 
L 284.160913 390.652593 
L 292.671665 381.449988 
L 299.309272 374.621814 
L 304.527292 369.464655 
L 311.496035 362.861255 
L 318.839998 356.24727 
L 326.393371 349.806055 
L 334.088591 343.612167 
L 340.639247 338.625879 
L 347.568023 333.631971 
L 355.899856 327.999339 
L 360.954075 324.77629 
L 369.451099 319.679485 
L 375.992684 316.024102 
L 382.984109 312.368853 
L 389.080798 309.388446 
L 397.362802 305.640544 
L 405.035957 302.468723 
L 412.013215 299.827956 
L 420.304421 296.981955 
L 428.116165 294.581399 
L 436.526954 292.290629 
L 445.123302 290.252512 
L 452.901202 288.662387 
L 461.787363 287.128898 
L 470.039169 285.964 
L 477.39286 285.127098 
L 486.08044 284.37183 
L 492.474124 283.970533 
L 499.159321 283.684947 
L 510.618631 283.497647 
L 517.676882 283.561652 
L 526.754382 283.831958 
L 536.895196 284.367556 
L 549.141108 285.315181 
L 559.443867 286.342908 
L 570.405974 287.64249 
L 582.942388 289.357062 
L 598.189582 291.717863 
L 611.90798 294.047221 
L 628.785821 297.103521 
L 695.500162 309.49274 
L 708.653084 311.665912 
L 718.67026 313.19424 
L 733.378507 315.195307 
L 743.709047 316.398742 
L 756.11439 317.589539 
L 766.628477 318.355673 
L 775.329726 318.803989 
L 782.70875 319.04221 
L 792.963593 319.141563 
L 800.527735 319.031198 
L 809.756531 318.671873 
L 817.552768 318.165389 
L 827.218508 317.264879 
L 833.010114 316.574022 
L 842.284859 315.220404 
L 849.705629 313.909153 
L 855.732449 312.688991 
L 865.210523 310.477792 
L 871.605408 308.776821 
L 880.25801 306.196862 
L 886.820777 304.019519 
L 892.652709 301.920114 
L 898.228261 299.764548 
L 904.70839 297.072419 
L 911.092495 294.218879 
L 917.406481 291.195207 
L 923.851582 287.897026 
L 931.341629 283.788577 
L 936.743124 280.637581 
L 944.593619 275.769874 
L 951.508604 271.192873 
L 958.815793 266.054362 
L 965.942801 260.736625 
L 971.246604 256.578987 
L 979.571031 249.701307 
L 987.447949 242.788347 
L 995.216658 235.575216 
L 1001.874158 229.074699 
L 1010.071974 220.656656 
L 1017.42617 212.708336 
L 1023.782901 205.529719 
L 1030.307799 197.858349 
L 1036.356719 190.467911 
L 1042.840232 182.243787 
L 1048.99956 174.136082 
L 1055.070351 165.859373 
L 1063.273024 154.218127 
L 1069.451732 145.09584 
L 1076.94391 133.6197 
L 1082.440052 124.907595 
L 1090.329157 111.96122 
L 1096.738951 101.053759 
L 1104.968013 86.530834 
L 1113.221677 71.367618 
L 1114.735293 68.521159 
L 1114.735293 68.521159 
" style="fill:none;stroke:#00ff66;stroke-linecap:square;stroke-width:5.0;"/>
   </g>
   <g id="line2d_2">
    <path clip-path="url(#pa966751d28)" d="M 187.499939 614.396841 
L 195.144088 600.230135 
L 201.861973 588.205617 
L 209.400727 575.178284 
L 216.048142 564.094167 
L 222.854481 553.130134 
L 229.758386 542.400771 
L 236.114765 532.865789 
L 242.220741 524.011764 
L 249.251164 514.182017 
L 256.129868 504.936131 
L 262.355834 496.879314 
L 268.311823 489.4446 
L 275.159831 481.22062 
L 281.820438 473.548751 
L 288.577064 466.08989 
L 295.216979 459.071649 
L 302.771227 451.455568 
L 309.750708 444.760731 
L 316.270894 438.79705 
L 324.016179 432.070046 
L 329.399593 427.618418 
L 337.415437 421.323116 
L 342.598596 417.460571 
L 348.297705 413.398398 
L 356.308818 408.008993 
L 363.5582 403.447587 
L 369.184921 400.108956 
L 376.791335 395.869358 
L 383.929922 392.169804 
L 390.239159 389.11943 
L 396.417209 386.327071 
L 404.336877 383.021805 
L 411.436022 380.31362 
L 418.722794 377.776677 
L 426.719569 375.26683 
L 435.458952 372.84084 
L 444.172977 370.738968 
L 450.739514 369.356509 
L 456.987067 368.196361 
L 463.52209 367.139517 
L 471.088127 366.109059 
L 479.918376 365.157801 
L 487.40117 364.554248 
L 497.065567 364.035832 
L 504.094577 363.83452 
L 514.123902 363.788778 
L 522.350258 363.951012 
L 531.996256 364.355049 
L 539.478132 364.8169 
L 548.391051 365.524114 
L 559.638925 366.640082 
L 571.319341 368.035422 
L 581.785336 369.465392 
L 592.504674 371.081995 
L 606.953277 373.462686 
L 624.2917 376.549698 
L 657.322483 382.777964 
L 679.619896 386.951023 
L 700.299137 390.580999 
L 715.187374 392.952561 
L 728.514225 394.844411 
L 740.966148 396.372801 
L 750.489297 397.361914 
L 761.136587 398.260705 
L 772.109487 398.934423 
L 782.523776 399.313734 
L 789.489449 399.414999 
L 800.316852 399.312311 
L 809.892485 398.9405 
L 818.374394 398.376614 
L 828.156442 397.43668 
L 836.646517 396.356041 
L 844.722002 395.088427 
L 850.674415 393.99837 
L 860.333276 391.936874 
L 866.565664 390.40748 
L 871.580335 389.059663 
L 879.085866 386.841342 
L 884.964853 384.930765 
L 893.26311 381.967099 
L 900.70917 379.033693 
L 908.066311 375.872575 
L 915.526512 372.392569 
L 922.930829 368.657333 
L 930.45425 364.566872 
L 938.104433 360.093989 
L 943.933173 356.468561 
L 951.50708 351.469747 
L 957.692051 347.140907 
L 964.034725 342.466166 
L 970.746592 337.254169 
L 976.195084 332.818779 
L 982.735787 327.247562 
L 989.39115 321.297108 
L 995.696955 315.392017 
L 1002.365169 308.859269 
L 1008.686892 302.387234 
L 1015.637882 294.951883 
L 1021.737304 288.147166 
L 1030.134497 278.341948 
L 1037.369559 269.47976 
L 1043.329433 261.886236 
L 1049.781829 253.361403 
L 1057.521295 242.712357 
L 1064.558378 232.621467 
L 1072.169105 221.262238 
L 1079.858699 209.306389 
L 1085.975382 199.44654 
L 1094.087832 185.883603 
L 1102.485464 171.250053 
L 1110.115498 157.420809 
L 1114.735293 148.796995 
L 1114.735293 148.796995 
" style="fill:none;stroke:#0066ff;stroke-linecap:square;stroke-width:5.0;"/>
   </g>
   <g id="line2d_3">
    <path clip-path="url(#pa966751d28)" d="M 187.499939 694.672676 
L 193.950232 682.684351 
L 201.526414 669.072729 
L 208.572417 656.861596 
L 215.463335 645.330135 
L 221.841717 635.012947 
L 229.845584 622.543587 
L 238.11353 610.210577 
L 245.242003 600.015867 
L 251.929091 590.81501 
L 258.852653 581.652354 
L 265.641676 573.020804 
L 272.880169 564.196016 
L 280.664872 555.132729 
L 288.407781 546.54867 
L 294.434684 540.158478 
L 300.511432 533.969028 
L 308.100014 526.590669 
L 315.172686 520.05794 
L 320.235142 515.581869 
L 327.103087 509.771047 
L 332.990116 505.025588 
L 340.678056 499.148782 
L 347.061868 494.538836 
L 353.234394 490.309324 
L 361.621157 484.913326 
L 368.320423 480.886438 
L 375.996301 476.573815 
L 382.078182 473.37973 
L 389.594381 469.697709 
L 396.747948 466.45876 
L 404.620168 463.185011 
L 410.645275 460.879426 
L 418.443467 458.145317 
L 425.402288 455.936754 
L 430.793402 454.371354 
L 437.63171 452.563463 
L 445.591363 450.70177 
L 451.885325 449.408388 
L 459.248398 448.088632 
L 466.834023 446.939226 
L 475.585386 445.867342 
L 483.6384 445.110924 
L 493.486459 444.470294 
L 503.648914 444.118879 
L 512.802525 444.054981 
L 520.928112 444.186455 
L 528.988415 444.481091 
L 538.253335 445.008644 
L 549.548134 445.903623 
L 560.80763 447.045175 
L 573.004534 448.53067 
L 586.341922 450.410976 
L 601.243213 452.773133 
L 620.984625 456.221606 
L 642.587518 460.250059 
L 682.118504 467.681366 
L 699.902696 470.790521 
L 717.662569 473.597773 
L 732.323562 475.614174 
L 743.828946 476.9633 
L 755.755279 478.110952 
L 767.878071 478.982424 
L 779.723434 479.513752 
L 789.340494 479.690004 
L 796.805153 479.657318 
L 804.833424 479.446766 
L 814.898678 478.910982 
L 824.546131 478.096594 
L 833.791996 477.023471 
L 842.139885 475.795639 
L 850.238194 474.358683 
L 857.503889 472.85489 
L 864.906398 471.106101 
L 870.611644 469.604135 
L 879.368796 467.02875 
L 885.340105 465.079386 
L 890.585664 463.233861 
L 899.171055 459.937137 
L 906.80749 456.708139 
L 914.489968 453.168764 
L 921.065181 449.90117 
L 928.586428 445.886442 
L 934.111913 442.744123 
L 939.517718 439.508231 
L 945.611978 435.664687 
L 952.96688 430.744074 
L 959.574907 426.05413 
L 966.386456 420.947118 
L 972.655731 415.996893 
L 978.755944 410.945661 
L 986.546668 404.151265 
L 992.765498 398.44568 
L 999.842666 391.641561 
L 1006.702251 384.724422 
L 1013.047177 378.038407 
L 1020.130157 370.241675 
L 1027.845051 361.341872 
L 1034.834504 352.904884 
L 1042.01877 343.854959 
L 1049.353066 334.213611 
L 1056.044569 325.05614 
L 1063.146322 314.953662 
L 1070.475481 304.106346 
L 1078.012487 292.497112 
L 1084.031702 282.889396 
L 1091.951671 269.785062 
L 1099.16684 257.381767 
L 1105.736469 245.69614 
L 1113.185731 231.98664 
L 1114.735293 229.07283 
L 1114.735293 229.07283 
" style="fill:none;stroke:#cc00ff;stroke-linecap:square;stroke-width:5.0;"/>
   </g>
   <g id="line2d_4">
    <path clip-path="url(#pa966751d28)" d="M 187.499939 632.220299 
L 195.259377 617.843896 
L 201.970995 605.837182 
L 209.41662 592.974794 
L 217.022846 580.323754 
L 223.495328 569.941132 
L 229.860565 560.068364 
L 236.461343 550.178721 
L 243.371124 540.200229 
L 250.991859 529.631256 
L 258.755157 519.326465 
L 266.437568 509.579142 
L 273.534099 500.965382 
L 280.584364 492.771846 
L 287.576792 484.997259 
L 295.110616 477.005125 
L 303.045396 469.009892 
L 311.209172 461.226035 
L 318.274294 454.843624 
L 325.405971 448.726835 
L 332.999598 442.565741 
L 338.932782 437.999085 
L 346.792936 432.275794 
L 353.620229 427.599901 
L 360.558403 423.122699 
L 368.595646 418.273913 
L 376.907451 413.630496 
L 385.190241 409.367647 
L 393.506454 405.44244 
L 401.343843 402.058708 
L 408.312645 399.299405 
L 416.131093 396.474732 
L 425.103327 393.574868 
L 432.520425 391.443834 
L 439.596559 389.627593 
L 447.741536 387.790082 
L 454.735612 386.420776 
L 462.467046 385.122971 
L 470.136665 384.050976 
L 477.107732 383.255408 
L 484.48103 382.591709 
L 495.242153 381.935281 
L 501.694463 381.710591 
L 510.628535 381.596938 
L 520.751837 381.729425 
L 529.477946 382.051651 
L 539.498254 382.641767 
L 550.096767 383.501323 
L 559.664756 384.466371 
L 570.696129 385.778842 
L 584.076837 387.622302 
L 599.362848 390.009551 
L 610.752976 391.944202 
L 632.918357 395.973459 
L 691.027291 406.816981 
L 707.716433 409.616294 
L 721.343143 411.679991 
L 732.907917 413.235577 
L 745.658195 414.704321 
L 757.516893 415.804491 
L 768.291986 416.55414 
L 779.181399 417.044434 
L 788.361934 417.2307 
L 798.403384 417.177817 
L 807.116049 416.899987 
L 815.7368 416.399794 
L 825.35789 415.5617 
L 832.845609 414.694549 
L 840.803522 413.556828 
L 849.075942 412.127811 
L 857.056076 410.501213 
L 865.630586 408.470603 
L 873.991871 406.196945 
L 880.784972 404.128443 
L 888.596443 401.496188 
L 894.431953 399.347465 
L 902.84143 395.968212 
L 910.234025 392.7137 
L 917.319314 389.33763 
L 925.062626 385.352299 
L 932.310061 381.334648 
L 939.710109 376.937705 
L 945.372952 373.367015 
L 952.663661 368.500744 
L 958.21983 364.58454 
L 964.779818 359.724589 
L 972.636551 353.56003 
L 980.165434 347.292802 
L 986.99202 341.298684 
L 994.036673 334.795746 
L 1001.412885 327.634014 
L 1008.36737 320.5444 
L 1013.594878 314.995749 
L 1020.039827 307.89097 
L 1026.222048 300.79748 
L 1033.6449 291.913892 
L 1041.00024 282.709174 
L 1047.386901 274.386185 
L 1053.227561 266.50129 
L 1060.458074 256.372289 
L 1066.940093 246.940324 
L 1073.67979 236.77514 
L 1079.512186 227.67909 
L 1087.363928 214.988068 
L 1093.738146 204.30324 
L 1101.714788 190.441949 
L 1108.449938 178.306834 
L 1114.735293 166.620453 
L 1114.735293 166.620453 
" style="fill:none;stroke:#000000;stroke-linecap:square;stroke-width:5.0;"/>
   </g>
   <g id="patch_3">
    <path d="M 168.955232 55.998129 
L 1133.28 55.998129 
" style="fill:none;stroke:#000000;stroke-linecap:square;stroke-linejoin:miter;stroke-width:0.8;"/>
   </g>
   <g id="patch_4">
    <path d="M 1133.28 707.195707 
L 1133.28 55.998129 
" style="fill:none;stroke:#000000;stroke-linecap:square;stroke-linejoin:miter;stroke-width:0.8;"/>
   </g>
   <g id="patch_5">
    <path d="M 168.955232 707.195707 
L 1133.28 707.195707 
" style="fill:none;stroke:#000000;stroke-linecap:square;stroke-linejoin:miter;stroke-width:0.8;"/>
   </g>
   <g id="patch_6">
    <path d="M 168.955232 707.195707 
L 168.955232 55.998129 
" style="fill:none;stroke:#000000;stroke-linecap:square;stroke-linejoin:miter;stroke-width:0.8;"/>
   </g>
   <g id="matplotlib.axis_1">
    <g id="xtick_1">
     <g id="line2d_5">
      <path clip-path="url(#pa966751d28)" d="M 187.499939 707.195707 
L 187.499939 55.998129 
" style="fill:none;stroke:#000000;stroke-dasharray:1.000000,3.000000;stroke-dashoffset:0.0;stroke-width:0.5;"/>
     </g>
     <g id="line2d_6">
      <defs>
       <path d="M 0 0 
L 0 -4 
" id="m00e1340f5a" style="stroke:#000000;stroke-width:0.5;"/>
      </defs>
      <g>
       <use style="stroke:#000000;stroke-width:0.5;" x="187.499938925" xlink:href="#m00e1340f5a" y="707.195706725"/>
      </g>
     </g>
     <g id="line2d_7">
      <defs>
       <path d="M 0 0 
L 0 4 
" id="m372d15ef62" style="stroke:#000000;stroke-width:0.5;"/>
      </defs>
      <g>
       <use style="stroke:#000000;stroke-width:0.5;" x="187.499938925" xlink:href="#m372d15ef62" y="55.998128843"/>
      </g>
     </g>
     <g id="text_1">
      <!-- -2 -->
      <defs>
       <path d="M 50.59375 8.71875 
L 13.296875 8.71875 
C 14.203125 14.53125 17.40625 18.234375 26.09375 23.34375 
L 36.09375 28.75 
C 46 34.15625 51.09375 41.453125 51.09375 50.171875 
C 51.09375 56.078125 48.703125 61.59375 44.5 65.390625 
C 40.296875 69.203125 35.09375 71 28.40625 71 
C 19.40625 71 12.703125 67.796875 8.796875 61.796875 
C 6.296875 57.984375 5.203125 53.578125 5 46.359375 
L 13.796875 46.359375 
C 14.09375 51.171875 14.703125 54.078125 15.90625 56.375 
C 18.203125 60.6875 22.796875 63.296875 28.09375 63.296875 
C 36.09375 63.296875 42.09375 57.578125 42.09375 49.96875 
C 42.09375 44.359375 38.796875 39.546875 32.5 35.953125 
L 23.296875 30.75 
C 8.5 22.34375 4.203125 15.625 3.40625 0 
L 50.59375 0 
z
" id="Nimbus_Sans_L_Regular-50"/>
       <path d="M 28.40625 31.203125 
L 4.59375 31.203125 
L 4.59375 24 
L 28.40625 24 
z
" id="Nimbus_Sans_L_Regular-45"/>
      </defs>
      <g transform="translate(163.586881567 749.52663615)scale(0.54 -0.54)">
       <use transform="scale(0.996264009963)" xlink:href="#Nimbus_Sans_L_Regular-45"/>
       <use transform="translate(33.1752297293 0.0)scale(0.996264009963)" xlink:href="#Nimbus_Sans_L_Regular-50"/>
      </g>
     </g>
    </g>
    <g id="xtick_2">
     <g id="line2d_8">
      <path clip-path="url(#pa966751d28)" d="M 419.308777 707.195707 
L 419.308777 55.998129 
" style="fill:none;stroke:#000000;stroke-dasharray:1.000000,3.000000;stroke-dashoffset:0.0;stroke-width:0.5;"/>
     </g>
     <g id="line2d_9">
      <g>
       <use style="stroke:#000000;stroke-width:0.5;" x="419.308777424" xlink:href="#m00e1340f5a" y="707.195706725"/>
      </g>
     </g>
     <g id="line2d_10">
      <g>
       <use style="stroke:#000000;stroke-width:0.5;" x="419.308777424" xlink:href="#m372d15ef62" y="55.998128843"/>
      </g>
     </g>
     <g id="text_2">
      <!-- -1 -->
      <defs>
       <path d="M 25.90625 50.59375 
L 25.90625 0 
L 34.703125 0 
L 34.703125 71.015625 
L 28.90625 71.015625 
C 25.796875 60.109375 23.796875 58.609375 10.203125 56.90625 
L 10.203125 50.59375 
z
" id="Nimbus_Sans_L_Regular-49"/>
      </defs>
      <g transform="translate(395.395720066 749.52663615)scale(0.54 -0.54)">
       <use transform="scale(0.996264009963)" xlink:href="#Nimbus_Sans_L_Regular-45"/>
       <use transform="translate(33.1752297293 0.0)scale(0.996264009963)" xlink:href="#Nimbus_Sans_L_Regular-49"/>
      </g>
     </g>
    </g>
    <g id="xtick_3">
     <g id="line2d_11">
      <path clip-path="url(#pa966751d28)" d="M 651.117616 707.195707 
L 651.117616 55.998129 
" style="fill:none;stroke:#000000;stroke-dasharray:1.000000,3.000000;stroke-dashoffset:0.0;stroke-width:0.5;"/>
     </g>
     <g id="line2d_12">
      <g>
       <use style="stroke:#000000;stroke-width:0.5;" x="651.117615923" xlink:href="#m00e1340f5a" y="707.195706725"/>
      </g>
     </g>
     <g id="line2d_13">
      <g>
       <use style="stroke:#000000;stroke-width:0.5;" x="651.117615923" xlink:href="#m372d15ef62" y="55.998128843"/>
      </g>
     </g>
     <g id="text_3">
      <!-- 0 -->
      <defs>
       <path d="M 27.5 71 
C 20.90625 71 14.90625 68.125 11.203125 63.21875 
C 6.59375 57.046875 4.296875 47.5625 4.296875 34.5 
C 4.296875 10.671875 12.296875 -2 27.5 -2 
C 42.5 -2 50.703125 10.671875 50.703125 33.90625 
C 50.703125 47.65625 48.5 56.84375 43.796875 63.21875 
C 40.09375 68.21875 34.203125 71 27.5 71 
M 27.5 63.1875 
C 37 63.1875 41.703125 53.625 41.703125 34.703125 
C 41.703125 14.671875 37.09375 5.3125 27.296875 5.3125 
C 18 5.3125 13.296875 15.078125 13.296875 34.40625 
C 13.296875 53.71875 18 63.1875 27.5 63.1875 
" id="Nimbus_Sans_L_Regular-48"/>
      </defs>
      <g transform="translate(636.161866791 749.52663615)scale(0.54 -0.54)">
       <use transform="scale(0.996264009963)" xlink:href="#Nimbus_Sans_L_Regular-48"/>
      </g>
     </g>
    </g>
    <g id="xtick_4">
     <g id="line2d_14">
      <path clip-path="url(#pa966751d28)" d="M 882.926454 707.195707 
L 882.926454 55.998129 
" style="fill:none;stroke:#000000;stroke-dasharray:1.000000,3.000000;stroke-dashoffset:0.0;stroke-width:0.5;"/>
     </g>
     <g id="line2d_15">
      <g>
       <use style="stroke:#000000;stroke-width:0.5;" x="882.926454421" xlink:href="#m00e1340f5a" y="707.195706725"/>
      </g>
     </g>
     <g id="line2d_16">
      <g>
       <use style="stroke:#000000;stroke-width:0.5;" x="882.926454421" xlink:href="#m372d15ef62" y="55.998128843"/>
      </g>
     </g>
     <g id="text_4">
      <!-- 1 -->
      <g transform="translate(867.97070529 749.52663615)scale(0.54 -0.54)">
       <use transform="scale(0.996264009963)" xlink:href="#Nimbus_Sans_L_Regular-49"/>
      </g>
     </g>
    </g>
    <g id="xtick_5">
     <g id="line2d_17">
      <path clip-path="url(#pa966751d28)" d="M 1114.735293 707.195707 
L 1114.735293 55.998129 
" style="fill:none;stroke:#000000;stroke-dasharray:1.000000,3.000000;stroke-dashoffset:0.0;stroke-width:0.5;"/>
     </g>
     <g id="line2d_18">
      <g>
       <use style="stroke:#000000;stroke-width:0.5;" x="1114.73529292" xlink:href="#m00e1340f5a" y="707.195706725"/>
      </g>
     </g>
     <g id="line2d_19">
      <g>
       <use style="stroke:#000000;stroke-width:0.5;" x="1114.73529292" xlink:href="#m372d15ef62" y="55.998128843"/>
      </g>
     </g>
     <g id="text_5">
      <!-- 2 -->
      <g transform="translate(1099.77954379 749.52663615)scale(0.54 -0.54)">
       <use transform="scale(0.996264009963)" xlink:href="#Nimbus_Sans_L_Regular-50"/>
      </g>
     </g>
    </g>
    <g id="xtick_6">
     <g id="line2d_20">
      <defs>
       <path d="M 0 0 
L 0 -2 
" id="m8005cc1620" style="stroke:#000000;stroke-width:0.5;"/>
      </defs>
      <g>
       <use style="stroke:#000000;stroke-width:0.5;" x="233.861706625" xlink:href="#m8005cc1620" y="707.195706725"/>
      </g>
     </g>
     <g id="line2d_21">
      <defs>
       <path d="M 0 0 
L 0 2 
" id="m073450e186" style="stroke:#000000;stroke-width:0.5;"/>
      </defs>
      <g>
       <use style="stroke:#000000;stroke-width:0.5;" x="233.861706625" xlink:href="#m073450e186" y="55.998128843"/>
      </g>
     </g>
    </g>
    <g id="xtick_7">
     <g id="line2d_22">
      <g>
       <use style="stroke:#000000;stroke-width:0.5;" x="280.223474325" xlink:href="#m8005cc1620" y="707.195706725"/>
      </g>
     </g>
     <g id="line2d_23">
      <g>
       <use style="stroke:#000000;stroke-width:0.5;" x="280.223474325" xlink:href="#m073450e186" y="55.998128843"/>
      </g>
     </g>
    </g>
    <g id="xtick_8">
     <g id="line2d_24">
      <g>
       <use style="stroke:#000000;stroke-width:0.5;" x="326.585242025" xlink:href="#m8005cc1620" y="707.195706725"/>
      </g>
     </g>
     <g id="line2d_25">
      <g>
       <use style="stroke:#000000;stroke-width:0.5;" x="326.585242025" xlink:href="#m073450e186" y="55.998128843"/>
      </g>
     </g>
    </g>
    <g id="xtick_9">
     <g id="line2d_26">
      <g>
       <use style="stroke:#000000;stroke-width:0.5;" x="372.947009724" xlink:href="#m8005cc1620" y="707.195706725"/>
      </g>
     </g>
     <g id="line2d_27">
      <g>
       <use style="stroke:#000000;stroke-width:0.5;" x="372.947009724" xlink:href="#m073450e186" y="55.998128843"/>
      </g>
     </g>
    </g>
    <g id="xtick_10">
     <g id="line2d_28">
      <g>
       <use style="stroke:#000000;stroke-width:0.5;" x="419.308777424" xlink:href="#m8005cc1620" y="707.195706725"/>
      </g>
     </g>
     <g id="line2d_29">
      <g>
       <use style="stroke:#000000;stroke-width:0.5;" x="419.308777424" xlink:href="#m073450e186" y="55.998128843"/>
      </g>
     </g>
    </g>
    <g id="xtick_11">
     <g id="line2d_30">
      <g>
       <use style="stroke:#000000;stroke-width:0.5;" x="465.670545124" xlink:href="#m8005cc1620" y="707.195706725"/>
      </g>
     </g>
     <g id="line2d_31">
      <g>
       <use style="stroke:#000000;stroke-width:0.5;" x="465.670545124" xlink:href="#m073450e186" y="55.998128843"/>
      </g>
     </g>
    </g>
    <g id="xtick_12">
     <g id="line2d_32">
      <g>
       <use style="stroke:#000000;stroke-width:0.5;" x="512.032312823" xlink:href="#m8005cc1620" y="707.195706725"/>
      </g>
     </g>
     <g id="line2d_33">
      <g>
       <use style="stroke:#000000;stroke-width:0.5;" x="512.032312823" xlink:href="#m073450e186" y="55.998128843"/>
      </g>
     </g>
    </g>
    <g id="xtick_13">
     <g id="line2d_34">
      <g>
       <use style="stroke:#000000;stroke-width:0.5;" x="558.394080523" xlink:href="#m8005cc1620" y="707.195706725"/>
      </g>
     </g>
     <g id="line2d_35">
      <g>
       <use style="stroke:#000000;stroke-width:0.5;" x="558.394080523" xlink:href="#m073450e186" y="55.998128843"/>
      </g>
     </g>
    </g>
    <g id="xtick_14">
     <g id="line2d_36">
      <g>
       <use style="stroke:#000000;stroke-width:0.5;" x="604.755848223" xlink:href="#m8005cc1620" y="707.195706725"/>
      </g>
     </g>
     <g id="line2d_37">
      <g>
       <use style="stroke:#000000;stroke-width:0.5;" x="604.755848223" xlink:href="#m073450e186" y="55.998128843"/>
      </g>
     </g>
    </g>
    <g id="xtick_15">
     <g id="line2d_38">
      <g>
       <use style="stroke:#000000;stroke-width:0.5;" x="651.117615923" xlink:href="#m8005cc1620" y="707.195706725"/>
      </g>
     </g>
     <g id="line2d_39">
      <g>
       <use style="stroke:#000000;stroke-width:0.5;" x="651.117615923" xlink:href="#m073450e186" y="55.998128843"/>
      </g>
     </g>
    </g>
    <g id="xtick_16">
     <g id="line2d_40">
      <g>
       <use style="stroke:#000000;stroke-width:0.5;" x="697.479383622" xlink:href="#m8005cc1620" y="707.195706725"/>
      </g>
     </g>
     <g id="line2d_41">
      <g>
       <use style="stroke:#000000;stroke-width:0.5;" x="697.479383622" xlink:href="#m073450e186" y="55.998128843"/>
      </g>
     </g>
    </g>
    <g id="xtick_17">
     <g id="line2d_42">
      <g>
       <use style="stroke:#000000;stroke-width:0.5;" x="743.841151322" xlink:href="#m8005cc1620" y="707.195706725"/>
      </g>
     </g>
     <g id="line2d_43">
      <g>
       <use style="stroke:#000000;stroke-width:0.5;" x="743.841151322" xlink:href="#m073450e186" y="55.998128843"/>
      </g>
     </g>
    </g>
    <g id="xtick_18">
     <g id="line2d_44">
      <g>
       <use style="stroke:#000000;stroke-width:0.5;" x="790.202919022" xlink:href="#m8005cc1620" y="707.195706725"/>
      </g>
     </g>
     <g id="line2d_45">
      <g>
       <use style="stroke:#000000;stroke-width:0.5;" x="790.202919022" xlink:href="#m073450e186" y="55.998128843"/>
      </g>
     </g>
    </g>
    <g id="xtick_19">
     <g id="line2d_46">
      <g>
       <use style="stroke:#000000;stroke-width:0.5;" x="836.564686722" xlink:href="#m8005cc1620" y="707.195706725"/>
      </g>
     </g>
     <g id="line2d_47">
      <g>
       <use style="stroke:#000000;stroke-width:0.5;" x="836.564686722" xlink:href="#m073450e186" y="55.998128843"/>
      </g>
     </g>
    </g>
    <g id="xtick_20">
     <g id="line2d_48">
      <g>
       <use style="stroke:#000000;stroke-width:0.5;" x="882.926454421" xlink:href="#m8005cc1620" y="707.195706725"/>
      </g>
     </g>
     <g id="line2d_49">
      <g>
       <use style="stroke:#000000;stroke-width:0.5;" x="882.926454421" xlink:href="#m073450e186" y="55.998128843"/>
      </g>
     </g>
    </g>
    <g id="xtick_21">
     <g id="line2d_50">
      <g>
       <use style="stroke:#000000;stroke-width:0.5;" x="929.288222121" xlink:href="#m8005cc1620" y="707.195706725"/>
      </g>
     </g>
     <g id="line2d_51">
      <g>
       <use style="stroke:#000000;stroke-width:0.5;" x="929.288222121" xlink:href="#m073450e186" y="55.998128843"/>
      </g>
     </g>
    </g>
    <g id="xtick_22">
     <g id="line2d_52">
      <g>
       <use style="stroke:#000000;stroke-width:0.5;" x="975.649989821" xlink:href="#m8005cc1620" y="707.195706725"/>
      </g>
     </g>
     <g id="line2d_53">
      <g>
       <use style="stroke:#000000;stroke-width:0.5;" x="975.649989821" xlink:href="#m073450e186" y="55.998128843"/>
      </g>
     </g>
    </g>
    <g id="xtick_23">
     <g id="line2d_54">
      <g>
       <use style="stroke:#000000;stroke-width:0.5;" x="1022.01175752" xlink:href="#m8005cc1620" y="707.195706725"/>
      </g>
     </g>
     <g id="line2d_55">
      <g>
       <use style="stroke:#000000;stroke-width:0.5;" x="1022.01175752" xlink:href="#m073450e186" y="55.998128843"/>
      </g>
     </g>
    </g>
    <g id="xtick_24">
     <g id="line2d_56">
      <g>
       <use style="stroke:#000000;stroke-width:0.5;" x="1068.37352522" xlink:href="#m8005cc1620" y="707.195706725"/>
      </g>
     </g>
     <g id="line2d_57">
      <g>
       <use style="stroke:#000000;stroke-width:0.5;" x="1068.37352522" xlink:href="#m073450e186" y="55.998128843"/>
      </g>
     </g>
    </g>
    <g id="xtick_25">
     <g id="line2d_58">
      <g>
       <use style="stroke:#000000;stroke-width:0.5;" x="1114.73529292" xlink:href="#m8005cc1620" y="707.195706725"/>
      </g>
     </g>
     <g id="line2d_59">
      <g>
       <use style="stroke:#000000;stroke-width:0.5;" x="1114.73529292" xlink:href="#m073450e186" y="55.998128843"/>
      </g>
     </g>
    </g>
    <g id="text_6">
     <!-- $x$ -->
     <defs>
      <path d="M 47.40625 40.71875 
C 44.203125 40.109375 43 37.71875 43 35.828125 
C 43 33.421875 44.90625 32.625 46.296875 32.625 
C 49.296875 32.625 51.40625 35.21875 51.40625 37.921875 
C 51.40625 42.109375 46.59375 44 42.40625 44 
C 36.296875 44 32.90625 38.015625 32 36.125 
C 29.703125 44 23.5 44 21.703125 44 
C 11.5 44 6.09375 30.9375 6.09375 28.734375 
C 6.09375 28.34375 6.5 27.84375 7.203125 27.84375 
C 8 27.84375 8.203125 28.4375 8.40625 28.84375 
C 11.796875 39.921875 18.5 42.015625 21.40625 42.015625 
C 25.90625 42.015625 26.796875 37.8125 26.796875 35.421875 
C 26.796875 33.234375 26.203125 30.9375 25 26.140625 
L 21.59375 12.46875 
C 20.09375 6.484375 17.203125 1 11.90625 1 
C 11.40625 1 8.90625 1 6.796875 2.296875 
C 10.40625 3 11.203125 5.984375 11.203125 7.1875 
C 11.203125 9.1875 9.703125 10.375 7.796875 10.375 
C 5.40625 10.375 2.796875 8.28125 2.796875 5.09375 
C 2.796875 0.890625 7.5 -1 11.796875 -1 
C 16.59375 -1 20 2.796875 22.09375 6.890625 
C 23.703125 1 28.703125 -1 32.40625 -1 
C 42.59375 -1 48 12.078125 48 14.265625 
C 48 14.765625 47.59375 15.171875 47 15.171875 
C 46.09375 15.171875 46 14.671875 45.703125 13.875 
C 43 5.09375 37.203125 1 32.703125 1 
C 29.203125 1 27.296875 3.59375 27.296875 7.6875 
C 27.296875 9.875 27.703125 11.46875 29.296875 18.0625 
L 32.796875 31.625 
C 34.296875 37.625 37.703125 42.015625 42.296875 42.015625 
C 42.5 42.015625 45.296875 42.015625 47.40625 40.71875 
" id="CMMI12-120"/>
     </defs>
     <g transform="translate(627.280970324 827.030913931)scale(0.86 -0.86)">
      <use transform="scale(0.996264009963)" xlink:href="#CMMI12-120"/>
     </g>
    </g>
   </g>
   <g id="matplotlib.axis_2">
    <g id="ytick_1">
     <g id="line2d_60">
      <path clip-path="url(#pa966751d28)" d="M 168.955232 582.286507 
L 1133.28 582.286507 
" style="fill:none;stroke:#000000;stroke-dasharray:1.000000,3.000000;stroke-dashoffset:0.0;stroke-width:0.5;"/>
     </g>
     <g id="line2d_61">
      <defs>
       <path d="M 0 0 
L 4 0 
" id="m192d974327" style="stroke:#000000;stroke-width:0.5;"/>
      </defs>
      <g>
       <use style="stroke:#000000;stroke-width:0.5;" x="168.955231845" xlink:href="#m192d974327" y="582.286506628"/>
      </g>
     </g>
     <g id="line2d_62">
      <defs>
       <path d="M 0 0 
L -4 0 
" id="maae2678f18" style="stroke:#000000;stroke-width:0.5;"/>
      </defs>
      <g>
       <use style="stroke:#000000;stroke-width:0.5;" x="1133.28" xlink:href="#maae2678f18" y="582.286506628"/>
      </g>
     </g>
     <g id="text_7">
      <!-- -5 -->
      <defs>
       <path d="M 47.59375 71 
L 11 71 
L 5.703125 32.59375 
L 13.796875 32.59375 
C 17.90625 37.484375 21.296875 39.1875 26.796875 39.1875 
C 36.296875 39.1875 42.296875 32.6875 42.296875 22.203125 
C 42.296875 12 36.40625 5.8125 26.796875 5.8125 
C 19.09375 5.8125 14.40625 9.703125 12.296875 17.703125 
L 3.5 17.703125 
C 4.703125 11.90625 5.703125 9.09375 7.796875 6.484375 
C 11.796875 1.09375 19 -2 27 -2 
C 41.296875 -2 51.296875 8.390625 51.296875 23.390625 
C 51.296875 37.40625 42 47 28.40625 47 
C 23.40625 47 19.40625 45.703125 15.296875 42.6875 
L 18.09375 62.296875 
L 47.59375 62.296875 
z
" id="Nimbus_Sans_L_Regular-53"/>
      </defs>
      <g transform="translate(117.129117129 595.722609584)scale(0.54 -0.54)">
       <use transform="scale(0.996264009963)" xlink:href="#Nimbus_Sans_L_Regular-45"/>
       <use transform="translate(33.1752297293 0.0)scale(0.996264009963)" xlink:href="#Nimbus_Sans_L_Regular-53"/>
      </g>
     </g>
    </g>
    <g id="ytick_2">
     <g id="line2d_63">
      <path clip-path="url(#pa966751d28)" d="M 168.955232 381.596918 
L 1133.28 381.596918 
" style="fill:none;stroke:#000000;stroke-dasharray:1.000000,3.000000;stroke-dashoffset:0.0;stroke-width:0.5;"/>
     </g>
     <g id="line2d_64">
      <g>
       <use style="stroke:#000000;stroke-width:0.5;" x="168.955231845" xlink:href="#m192d974327" y="381.596917784"/>
      </g>
     </g>
     <g id="line2d_65">
      <g>
       <use style="stroke:#000000;stroke-width:0.5;" x="1133.28" xlink:href="#maae2678f18" y="381.596917784"/>
      </g>
     </g>
     <g id="text_8">
      <!-- 0 -->
      <g transform="translate(135.043733582 395.03302074)scale(0.54 -0.54)">
       <use transform="scale(0.996264009963)" xlink:href="#Nimbus_Sans_L_Regular-48"/>
      </g>
     </g>
    </g>
    <g id="ytick_3">
     <g id="line2d_66">
      <path clip-path="url(#pa966751d28)" d="M 168.955232 180.907329 
L 1133.28 180.907329 
" style="fill:none;stroke:#000000;stroke-dasharray:1.000000,3.000000;stroke-dashoffset:0.0;stroke-width:0.5;"/>
     </g>
     <g id="line2d_67">
      <g>
       <use style="stroke:#000000;stroke-width:0.5;" x="168.955231845" xlink:href="#m192d974327" y="180.90732894"/>
      </g>
     </g>
     <g id="line2d_68">
      <g>
       <use style="stroke:#000000;stroke-width:0.5;" x="1133.28" xlink:href="#maae2678f18" y="180.90732894"/>
      </g>
     </g>
     <g id="text_9">
      <!-- 5 -->
      <g transform="translate(135.043733582 194.343431896)scale(0.54 -0.54)">
       <use transform="scale(0.996264009963)" xlink:href="#Nimbus_Sans_L_Regular-53"/>
      </g>
     </g>
    </g>
    <g id="ytick_4">
     <g id="line2d_69">
      <defs>
       <path d="M 0 0 
L 2 0 
" id="mfb13e4557b" style="stroke:#000000;stroke-width:0.5;"/>
      </defs>
      <g>
       <use style="stroke:#000000;stroke-width:0.5;" x="168.955231845" xlink:href="#mfb13e4557b" y="702.700259935"/>
      </g>
     </g>
     <g id="line2d_70">
      <defs>
       <path d="M 0 0 
L -2 0 
" id="m766f90f478" style="stroke:#000000;stroke-width:0.5;"/>
      </defs>
      <g>
       <use style="stroke:#000000;stroke-width:0.5;" x="1133.28" xlink:href="#m766f90f478" y="702.700259935"/>
      </g>
     </g>
    </g>
    <g id="ytick_5">
     <g id="line2d_71">
      <g>
       <use style="stroke:#000000;stroke-width:0.5;" x="168.955231845" xlink:href="#mfb13e4557b" y="662.562342166"/>
      </g>
     </g>
     <g id="line2d_72">
      <g>
       <use style="stroke:#000000;stroke-width:0.5;" x="1133.28" xlink:href="#m766f90f478" y="662.562342166"/>
      </g>
     </g>
    </g>
    <g id="ytick_6">
     <g id="line2d_73">
      <g>
       <use style="stroke:#000000;stroke-width:0.5;" x="168.955231845" xlink:href="#mfb13e4557b" y="622.424424397"/>
      </g>
     </g>
     <g id="line2d_74">
      <g>
       <use style="stroke:#000000;stroke-width:0.5;" x="1133.28" xlink:href="#m766f90f478" y="622.424424397"/>
      </g>
     </g>
    </g>
    <g id="ytick_7">
     <g id="line2d_75">
      <g>
       <use style="stroke:#000000;stroke-width:0.5;" x="168.955231845" xlink:href="#mfb13e4557b" y="542.148588859"/>
      </g>
     </g>
     <g id="line2d_76">
      <g>
       <use style="stroke:#000000;stroke-width:0.5;" x="1133.28" xlink:href="#m766f90f478" y="542.148588859"/>
      </g>
     </g>
    </g>
    <g id="ytick_8">
     <g id="line2d_77">
      <g>
       <use style="stroke:#000000;stroke-width:0.5;" x="168.955231845" xlink:href="#mfb13e4557b" y="502.01067109"/>
      </g>
     </g>
     <g id="line2d_78">
      <g>
       <use style="stroke:#000000;stroke-width:0.5;" x="1133.28" xlink:href="#m766f90f478" y="502.01067109"/>
      </g>
     </g>
    </g>
    <g id="ytick_9">
     <g id="line2d_79">
      <g>
       <use style="stroke:#000000;stroke-width:0.5;" x="168.955231845" xlink:href="#mfb13e4557b" y="461.872753322"/>
      </g>
     </g>
     <g id="line2d_80">
      <g>
       <use style="stroke:#000000;stroke-width:0.5;" x="1133.28" xlink:href="#m766f90f478" y="461.872753322"/>
      </g>
     </g>
    </g>
    <g id="ytick_10">
     <g id="line2d_81">
      <g>
       <use style="stroke:#000000;stroke-width:0.5;" x="168.955231845" xlink:href="#mfb13e4557b" y="421.734835553"/>
      </g>
     </g>
     <g id="line2d_82">
      <g>
       <use style="stroke:#000000;stroke-width:0.5;" x="1133.28" xlink:href="#m766f90f478" y="421.734835553"/>
      </g>
     </g>
    </g>
    <g id="ytick_11">
     <g id="line2d_83">
      <g>
       <use style="stroke:#000000;stroke-width:0.5;" x="168.955231845" xlink:href="#mfb13e4557b" y="341.459000015"/>
      </g>
     </g>
     <g id="line2d_84">
      <g>
       <use style="stroke:#000000;stroke-width:0.5;" x="1133.28" xlink:href="#m766f90f478" y="341.459000015"/>
      </g>
     </g>
    </g>
    <g id="ytick_12">
     <g id="line2d_85">
      <g>
       <use style="stroke:#000000;stroke-width:0.5;" x="168.955231845" xlink:href="#mfb13e4557b" y="301.321082246"/>
      </g>
     </g>
     <g id="line2d_86">
      <g>
       <use style="stroke:#000000;stroke-width:0.5;" x="1133.28" xlink:href="#m766f90f478" y="301.321082246"/>
      </g>
     </g>
    </g>
    <g id="ytick_13">
     <g id="line2d_87">
      <g>
       <use style="stroke:#000000;stroke-width:0.5;" x="168.955231845" xlink:href="#mfb13e4557b" y="261.183164477"/>
      </g>
     </g>
     <g id="line2d_88">
      <g>
       <use style="stroke:#000000;stroke-width:0.5;" x="1133.28" xlink:href="#m766f90f478" y="261.183164477"/>
      </g>
     </g>
    </g>
    <g id="ytick_14">
     <g id="line2d_89">
      <g>
       <use style="stroke:#000000;stroke-width:0.5;" x="168.955231845" xlink:href="#mfb13e4557b" y="221.045246709"/>
      </g>
     </g>
     <g id="line2d_90">
      <g>
       <use style="stroke:#000000;stroke-width:0.5;" x="1133.28" xlink:href="#m766f90f478" y="221.045246709"/>
      </g>
     </g>
    </g>
    <g id="ytick_15">
     <g id="line2d_91">
      <g>
       <use style="stroke:#000000;stroke-width:0.5;" x="168.955231845" xlink:href="#mfb13e4557b" y="140.769411171"/>
      </g>
     </g>
     <g id="line2d_92">
      <g>
       <use style="stroke:#000000;stroke-width:0.5;" x="1133.28" xlink:href="#m766f90f478" y="140.769411171"/>
      </g>
     </g>
    </g>
    <g id="ytick_16">
     <g id="line2d_93">
      <g>
       <use style="stroke:#000000;stroke-width:0.5;" x="168.955231845" xlink:href="#mfb13e4557b" y="100.631493402"/>
      </g>
     </g>
     <g id="line2d_94">
      <g>
       <use style="stroke:#000000;stroke-width:0.5;" x="1133.28" xlink:href="#m766f90f478" y="100.631493402"/>
      </g>
     </g>
    </g>
    <g id="ytick_17">
     <g id="line2d_95">
      <g>
       <use style="stroke:#000000;stroke-width:0.5;" x="168.955231845" xlink:href="#mfb13e4557b" y="60.4935756331"/>
      </g>
     </g>
     <g id="line2d_96">
      <g>
       <use style="stroke:#000000;stroke-width:0.5;" x="1133.28" xlink:href="#m766f90f478" y="60.4935756331"/>
      </g>
     </g>
    </g>
    <g id="text_10">
     <!-- $\frac{{d}x}{{d}t}$ -->
     <defs>
      <path d="M 20.09375 40.09375 
L 29.296875 40.09375 
C 31.203125 40.09375 32.203125 40.09375 32.203125 41.890625 
C 32.203125 43 31.59375 43 29.59375 43 
L 20.796875 43 
L 24.5 57.6875 
C 24.90625 59.078125 24.90625 59.28125 24.90625 60 
C 24.90625 61.609375 23.59375 62.5 22.296875 62.5 
C 21.5 62.5 19.203125 62.203125 18.40625 58.984375 
L 14.5 43 
L 5.09375 43 
C 3.09375 43 2.203125 43 2.203125 41.09375 
C 2.203125 40.09375 2.90625 40.09375 4.796875 40.09375 
L 13.703125 40.09375 
L 7.09375 13.765625 
C 6.296875 10.28125 6 9.28125 6 7.984375 
C 6 3.296875 9.296875 -1 14.90625 -1 
C 25 -1 30.40625 13.5625 30.40625 14.25 
C 30.40625 14.859375 30 15.15625 29.40625 15.15625 
C 29.203125 15.15625 28.796875 15.15625 28.59375 14.75 
C 28.5 14.65625 28.40625 14.546875 27.703125 12.953125 
C 25.59375 7.984375 21 1 15.203125 1 
C 12.203125 1 12 3.5 12 5.6875 
C 12 5.78125 12 7.6875 12.296875 8.875 
z
" id="CMMI12-116"/>
      <path d="M 50.296875 66.515625 
C 50.40625 66.90625 50.59375 67.5 50.59375 68 
C 50.59375 69 49.59375 69 49.40625 69 
C 49.296875 69 44.40625 68.5625 43.90625 68.4375 
C 42.203125 68.328125 40.703125 68.09375 38.90625 68.09375 
C 36.40625 67.890625 35.703125 67.796875 35.703125 66 
C 35.703125 65 36.5 65 37.90625 65 
C 42.796875 65 42.90625 64.109375 42.90625 63.125 
C 42.90625 62.53125 42.703125 61.75 42.59375 61.453125 
L 36.5 37.421875 
C 35.40625 40.015625 32.703125 44 27.5 44 
C 16.203125 44 4 29.4375 4 14.671875 
C 4 4.796875 9.796875 -1 16.59375 -1 
C 22.09375 -1 26.796875 3.296875 29.59375 6.59375 
C 30.59375 0.703125 35.296875 -1 38.296875 -1 
C 41.296875 -1 43.703125 0.796875 45.5 4.390625 
C 47.09375 7.78125 48.5 13.875 48.5 14.265625 
C 48.5 14.765625 48.09375 15.171875 47.5 15.171875 
C 46.59375 15.171875 46.5 14.671875 46.09375 13.171875 
C 44.59375 7.28125 42.703125 1 38.59375 1 
C 35.703125 1 35.5 3.578125 35.5 5.578125 
C 35.5 5.96875 35.5 8.046875 36.203125 10.84375 
z
M 30.09375 11.875 
C 29.59375 10.171875 29.59375 9.984375 28.203125 8.078125 
C 26 5.28125 21.59375 1 16.90625 1 
C 12.796875 1 10.5 4.6875 10.5 10.578125 
C 10.5 16.0625 13.59375 27.234375 15.5 31.4375 
C 18.90625 38.421875 23.59375 42.015625 27.5 42.015625 
C 34.09375 42.015625 35.40625 33.828125 35.40625 33.03125 
C 35.40625 32.9375 35.09375 31.625 35 31.4375 
z
" id="CMMI12-100"/>
     </defs>
     <g transform="translate(93.8800310603 413.539845428)rotate(-90.0)scale(0.86 -0.86)">
      <use transform="translate(0.0 73.5813544666)scale(0.697381766617)" xlink:href="#CMMI12-100"/>
      <use transform="translate(35.4822066178 73.5813544666)scale(0.697381766617)" xlink:href="#CMMI12-120"/>
      <use transform="translate(7.07267485698 0.0)scale(0.697381766617)" xlink:href="#CMMI12-100"/>
      <use transform="translate(42.5548814747 0.0)scale(0.697381766617)" xlink:href="#CMMI12-116"/>
      <path d="M 0 57.269386 
L 74.285866 57.269386 
L 74.285866 61.254336 
L 0 61.254336 
L 0 57.269386 
z
"/>
     </g>
    </g>
   </g>
   <g id="text_11">
    <g id="patch_7">
     <path d="M 936.565351 663.519251 
L 1091.554409 663.519251 
Q 1107.754409 663.519251 1107.754409 647.319251 
L 1107.754409 597.529598 
Q 1107.754409 581.329598 1091.554409 581.329598 
L 936.565351 581.329598 
Q 920.365351 581.329598 920.365351 597.529598 
L 920.365351 647.319251 
Q 920.365351 663.519251 936.565351 663.519251 
z
" style="fill:#ffffff;stroke:#000000;stroke-linejoin:miter;"/>
    </g>
    <!-- $b = 1.1$ -->
    <defs>
     <path d="M 64.296875 31.515625 
C 65.796875 31.515625 67.296875 31.515625 67.296875 33.203125 
C 67.296875 35 65.59375 35 63.90625 35 
L 8 35 
C 6.296875 35 4.59375 35 4.59375 33.203125 
C 4.59375 31.515625 6.09375 31.515625 7.59375 31.515625 
z
M 63.90625 14 
C 65.59375 14 67.296875 14 67.296875 15.796875 
C 67.296875 17.484375 65.796875 17.484375 64.296875 17.484375 
L 7.59375 17.484375 
C 6.09375 17.484375 4.59375 17.484375 4.59375 15.796875 
C 4.59375 14 6.296875 14 8 14 
z
" id="CMR17-61"/>
     <path d="M 23.09375 66.515625 
C 23.203125 66.921875 23.40625 67.515625 23.40625 68 
C 23.40625 69 22.40625 69 22.203125 69 
C 22.09375 69 18.5 68.640625 16.703125 68.390625 
C 15 68.390625 13.5 68.09375 11.703125 68.09375 
C 9.296875 67.890625 8.59375 67.796875 8.59375 66 
C 8.59375 65 9.59375 65 10.59375 65 
C 15.703125 65 15.703125 64.109375 15.703125 63.125 
C 15.703125 62.4375 14.90625 59.546875 14.5 57.75 
L 12.09375 48.203125 
C 11.09375 44.234375 5.40625 21.671875 5 19.875 
C 4.5 17.40625 4.5 15.703125 4.5 14.40625 
C 4.5 4.28125 10.203125 -1 16.703125 -1 
C 28.296875 -1 40.296875 13.875 40.296875 28.34375 
C 40.296875 37.515625 35.09375 44 27.59375 44 
C 22.40625 44 17.703125 39.71875 15.796875 37.71875 
z
M 16.796875 1 
C 13.59375 1 10.09375 3.390625 10.09375 11.171875 
C 10.09375 14.46875 10.40625 16.359375 12.203125 23.34375 
C 12.5 24.640625 14.09375 31.03125 14.5 32.328125 
C 14.703125 33.125 20.59375 42.015625 27.40625 42.015625 
C 31.796875 42.015625 33.796875 37.625 33.796875 32.4375 
C 33.796875 27.640625 31 16.359375 28.5 11.171875 
C 26 5.78125 21.40625 1 16.796875 1 
" id="CMMI12-98"/>
     <path d="M 26.59375 63.40625 
C 26.59375 65.5 26.5 65.5 25.09375 65.5 
C 21.203125 61.1875 15.296875 59.796875 9.703125 59.796875 
C 9.40625 59.796875 8.90625 59.796875 8.796875 59.5 
C 8.703125 59.296875 8.703125 59.09375 8.703125 57 
C 11.796875 57 17 57.59375 21 59.984375 
L 21 7.203125 
C 21 3.6875 20.796875 2.5 12.203125 2.5 
L 9.203125 2.5 
L 9.203125 0 
C 14 0 19 0 23.796875 0 
C 28.59375 0 33.59375 0 38.40625 0 
L 38.40625 2.5 
L 35.40625 2.5 
C 26.796875 2.5 26.59375 3.59375 26.59375 7.15625 
z
" id="CMR17-49"/>
     <path d="M 18.40625 4.796875 
C 18.40625 7.6875 16 9.671875 13.59375 9.671875 
C 10.703125 9.671875 8.703125 7.28125 8.703125 4.890625 
C 8.703125 2 11.09375 0 13.5 0 
C 16.40625 0 18.40625 2.390625 18.40625 4.796875 
" id="CMMI12-58"/>
    </defs>
    <g transform="translate(936.565351313 635.860527353)scale(0.54 -0.54)">
     <use transform="scale(0.996264009963)" xlink:href="#CMMI12-98"/>
     <use transform="translate(69.1498828855 0.0)scale(0.996264009963)" xlink:href="#CMR17-61"/>
     <use transform="translate(168.538680023 0.0)scale(0.996264009963)" xlink:href="#CMR17-49"/>
     <use transform="translate(214.22915714 0.0)scale(0.996264009963)" xlink:href="#CMMI12-58"/>
     <use transform="translate(241.32633423 0.0)scale(0.996264009963)" xlink:href="#CMR17-49"/>
    </g>
   </g>
   <g id="text_12">
    <!-- $\dot{x} = -(a + bx - x^3)$ -->
    <defs>
     <path d="M 16.5 61.078125 
C 16.5 63.46875 14.59375 65.15625 12.5 65.15625 
C 10.09375 65.15625 8.40625 63.265625 8.40625 61.078125 
C 8.40625 58.6875 10.296875 57 12.40625 57 
C 14.796875 57 16.5 58.890625 16.5 61.078125 
" id="CMR17-95"/>
     <path d="M 30.09375 11.875 
C 29.59375 10.171875 29.59375 9.984375 28.203125 8.078125 
C 26 5.28125 21.59375 1 16.90625 1 
C 12.796875 1 10.5 4.6875 10.5 10.578125 
C 10.5 16.0625 13.59375 27.234375 15.5 31.4375 
C 18.90625 38.421875 23.59375 42.015625 27.5 42.015625 
C 34.09375 42.015625 35.40625 33.828125 35.40625 33.03125 
C 35.40625 32.9375 35.09375 31.625 35 31.4375 
z
M 36.5 37.421875 
C 35.40625 40.015625 32.703125 44 27.5 44 
C 16.203125 44 4 29.4375 4 14.671875 
C 4 4.796875 9.796875 -1 16.59375 -1 
C 22.09375 -1 26.796875 3.296875 29.59375 6.59375 
C 30.59375 0.703125 35.296875 -1 38.296875 -1 
C 41.296875 -1 43.703125 0.796875 45.5 4.390625 
C 47.09375 7.78125 48.5 13.875 48.5 14.265625 
C 48.5 14.765625 48.09375 15.171875 47.5 15.171875 
C 46.59375 15.171875 46.5 14.671875 46.09375 13.171875 
C 44.59375 7.28125 42.703125 1 38.59375 1 
C 35.703125 1 35.5 3.59375 35.5 5.59375 
C 35.5 7.890625 35.796875 8.984375 36.703125 12.875 
C 37.40625 15.375 37.90625 17.5625 38.703125 20.453125 
C 42.40625 35.421875 43.296875 39.015625 43.296875 39.609375 
C 43.296875 41.015625 42.203125 42.109375 40.703125 42.109375 
C 37.5 42.109375 36.703125 38.625 36.5 37.421875 
" id="CMMI12-97"/>
     <path d="M 65.90625 23 
C 67.59375 23 69.40625 23 69.40625 25 
C 69.40625 27 67.59375 27 65.90625 27 
L 11.796875 27 
C 10.09375 27 8.296875 27 8.296875 25 
C 8.296875 23 10.09375 23 11.796875 23 
z
" id="CMSY10-0"/>
     <path d="M 22.09375 33.703125 
C 31 33.703125 34.90625 25.96875 34.90625 17.03125 
C 34.90625 5 28.5 0.390625 22.703125 0.390625 
C 17.40625 0.390625 8.796875 3.03125 6.09375 10.828125 
C 6.59375 10.625 7.09375 10.625 7.59375 10.625 
C 10 10.625 11.796875 12.21875 11.796875 14.8125 
C 11.796875 17.703125 9.59375 19 7.59375 19 
C 5.90625 19 3.296875 18.203125 3.296875 14.46875 
C 3.296875 5.234375 12.296875 -2 22.90625 -2 
C 34 -2 42.5 6.71875 42.5 16.953125 
C 42.5 26.671875 34.5 33.703125 25 34.796875 
C 32.59375 36.375 39.90625 43.0625 39.90625 52.015625 
C 39.90625 59.6875 32 65.296875 23 65.296875 
C 13.90625 65.296875 5.90625 59.828125 5.90625 52.015625 
C 5.90625 48.59375 8.5 48 9.796875 48 
C 11.90625 48 13.703125 49.296875 13.703125 51.890625 
C 13.703125 54.46875 11.90625 55.765625 9.796875 55.765625 
C 9.40625 55.765625 8.90625 55.765625 8.5 55.578125 
C 11.40625 61.859375 19.296875 63 22.796875 63 
C 26.296875 63 32.90625 61.328125 32.90625 51.875 
C 32.90625 49.109375 32.5 44.1875 29.09375 39.84375 
C 26.09375 36 22.703125 36 19.40625 35.6875 
C 18.90625 35.6875 16.59375 35.453125 16.203125 35.453125 
C 15.5 35.359375 15.09375 35.265625 15.09375 34.5 
C 15.09375 33.796875 15.203125 33.703125 17.203125 33.703125 
z
" id="CMR17-51"/>
     <path d="M 26.296875 24.703125 
C 26.296875 31.875 25.59375 44.015625 19.59375 56.859375 
C 14.796875 67.234375 6.59375 74.5 5.40625 74.5 
C 5.09375 74.5 4.703125 74.390625 4.703125 73.890625 
C 4.703125 73.703125 4.796875 73.59375 4.90625 73.390625 
C 9.703125 68.40625 21.90625 55.75 21.90625 24.75 
C 21.90625 -6.359375 9.796875 -19.015625 4.90625 -24.015625 
C 4.796875 -24.203125 4.703125 -24.3125 4.703125 -24.5 
C 4.703125 -25 5.09375 -25 5.40625 -25 
C 6.5 -25 15 -17.625 19.90625 -6.65625 
C 24.90625 4.390625 26.296875 15.140625 26.296875 24.703125 
" id="CMR17-41"/>
     <path d="M 30.59375 -24.390625 
C 30.59375 -24.296875 30.59375 -24.09375 30.296875 -23.796875 
C 25.703125 -19.125 13.40625 -6.359375 13.40625 24.703125 
C 13.40625 55.765625 25.5 68.421875 30.40625 73.390625 
C 30.40625 73.5 30.59375 73.703125 30.59375 74 
C 30.59375 74.296875 30.296875 74.5 29.90625 74.5 
C 28.796875 74.5 20.296875 67.125 15.40625 56.15625 
C 10.40625 45.109375 9 34.359375 9 24.8125 
C 9 17.625 9.703125 5.484375 15.703125 -7.359375 
C 20.5 -17.734375 28.703125 -25 29.90625 -25 
C 30.40625 -25 30.59375 -24.796875 30.59375 -24.390625 
" id="CMR17-40"/>
     <path d="M 37.703125 23 
L 64.203125 23 
C 65.59375 23 67.296875 23 67.296875 24.6875 
C 67.296875 26.484375 65.703125 26.484375 64.203125 26.484375 
L 37.703125 26.484375 
L 37.703125 52.90625 
C 37.703125 54.296875 37.703125 56 36 56 
C 34.203125 56 34.203125 54.40625 34.203125 52.90625 
L 34.203125 26.484375 
L 7.703125 26.484375 
C 6.296875 26.484375 4.59375 26.484375 4.59375 24.796875 
C 4.59375 23 6.203125 23 7.703125 23 
L 34.203125 23 
L 34.203125 -3.40625 
C 34.203125 -4.796875 34.203125 -6.5 35.90625 -6.5 
C 37.703125 -6.5 37.703125 -4.90625 37.703125 -3.40625 
z
" id="CMR17-43"/>
    </defs>
    <g transform="translate(433.831798395 50.998128843)scale(0.54 -0.54)">
     <use transform="translate(17.9912182344 0.00646075751089)scale(0.996264009963)" xlink:href="#CMR17-95"/>
     <use transform="scale(0.996264009963)" xlink:href="#CMMI12-120"/>
     <use transform="translate(83.1080682548 0.0)scale(0.996264009963)" xlink:href="#CMR17-61"/>
     <use transform="translate(182.496865392 0.0)scale(0.996264009963)" xlink:href="#CMSY10-0"/>
     <use transform="translate(259.984333043 0.0)scale(0.996264009963)" xlink:href="#CMR17-40"/>
     <use transform="translate(295.265100843 0.0)scale(0.996264009963)" xlink:href="#CMMI12-97"/>
     <use transform="translate(368.612165439 0.0)scale(0.996264009963)" xlink:href="#CMR17-43"/>
     <use transform="translate(462.466160832 0.0)scale(0.996264009963)" xlink:href="#CMMI12-98"/>
     <use transform="translate(503.942034996 0.0)scale(0.996264009963)" xlink:href="#CMMI12-120"/>
     <use transform="translate(581.515301506 0.0)scale(0.996264009963)" xlink:href="#CMSY10-0"/>
     <use transform="translate(681.141976134 0.0)scale(0.996264009963)" xlink:href="#CMMI12-120"/>
     <use transform="translate(736.576035667 36.1536389419)scale(0.697381766617)" xlink:href="#CMR17-51"/>
     <use transform="translate(769.057349636 0.0)scale(0.996264009963)" xlink:href="#CMR17-41"/>
    </g>
   </g>
   <g id="patch_8">
    <path clip-path="url(#pa966751d28)" d="M 292.532005 393.638293 
C 294.376298 393.638293 296.145301 392.369538 297.449413 390.111456 
C 298.753525 387.853374 299.48627 384.790328 299.48627 381.596918 
C 299.48627 378.403508 298.753525 375.340462 297.449413 373.08238 
C 296.145301 370.824298 294.376298 369.555542 292.532005 369.555542 
C 290.687713 369.555542 288.918709 370.824298 287.614597 373.08238 
C 286.310485 375.340462 285.57774 378.403508 285.57774 381.596918 
C 285.57774 384.790328 286.310485 387.853374 287.614597 390.111456 
C 288.918709 392.369538 290.687713 393.638293 292.532005 393.638293 
L 292.532005 393.638293 
z
" style="fill:none;stroke:#00ff66;stroke-linejoin:miter;stroke-width:5.0;"/>
   </g>
   <g id="patch_9">
    <path clip-path="url(#pa966751d28)" d="M 651.117616 393.638293 
C 652.961909 393.638293 654.730912 392.369538 656.035024 390.111456 
C 657.339136 387.853374 658.071881 384.790328 658.071881 381.596918 
C 658.071881 378.403508 657.339136 375.340462 656.035024 373.08238 
C 654.730912 370.824298 652.961909 369.555542 651.117616 369.555542 
C 649.273323 369.555542 647.50432 370.824298 646.200208 373.08238 
C 644.896096 375.340462 644.163351 378.403508 644.163351 381.596918 
C 644.163351 384.790328 644.896096 387.853374 646.200208 390.111456 
C 647.50432 392.369538 649.273323 393.638293 651.117616 393.638293 
L 651.117616 393.638293 
z
" style="fill:none;stroke:#0066ff;stroke-linejoin:miter;stroke-width:5.0;"/>
   </g>
   <g id="patch_10">
    <path clip-path="url(#pa966751d28)" d="M 407.994455 393.638293 
C 409.838748 393.638293 411.607751 392.369538 412.911863 390.111456 
C 414.215975 387.853374 414.94872 384.790328 414.94872 381.596918 
C 414.94872 378.403508 414.215975 375.340462 412.911863 373.08238 
C 411.607751 370.824298 409.838748 369.555542 407.994455 369.555542 
C 406.150162 369.555542 404.381159 370.824298 403.077047 373.08238 
C 401.772935 375.340462 401.04019 378.403508 401.04019 381.596918 
C 401.04019 384.790328 401.772935 387.853374 403.077047 390.111456 
C 404.381159 392.369538 406.150162 393.638293 407.994455 393.638293 
L 407.994455 393.638293 
z
" style="fill:none;stroke:#0066ff;stroke-linejoin:miter;stroke-width:5.0;"/>
   </g>
   <g id="patch_11">
    <path clip-path="url(#pa966751d28)" d="M 894.240777 393.638293 
C 896.08507 393.638293 897.854073 392.369538 899.158185 390.111456 
C 900.462297 387.853374 901.195042 384.790328 901.195042 381.596918 
C 901.195042 378.403508 900.462297 375.340462 899.158185 373.08238 
C 897.854073 370.824298 896.08507 369.555542 894.240777 369.555542 
C 892.396484 369.555542 890.627481 370.824298 889.323369 373.08238 
C 888.019257 375.340462 887.286512 378.403508 887.286512 381.596918 
C 887.286512 384.790328 888.019257 387.853374 889.323369 390.111456 
C 890.627481 392.369538 892.396484 393.638293 894.240777 393.638293 
L 894.240777 393.638293 
z
" style="fill:none;stroke:#0066ff;stroke-linejoin:miter;stroke-width:5.0;"/>
   </g>
   <g id="patch_12">
    <path clip-path="url(#pa966751d28)" d="M 1009.703227 393.638293 
C 1011.547519 393.638293 1013.316523 392.369538 1014.620635 390.111456 
C 1015.924746 387.853374 1016.657492 384.790328 1016.657492 381.596918 
C 1016.657492 378.403508 1015.924746 375.340462 1014.620635 373.08238 
C 1013.316523 370.824298 1011.547519 369.555542 1009.703227 369.555542 
C 1007.858934 369.555542 1006.08993 370.824298 1004.785819 373.08238 
C 1003.481707 375.340462 1002.748961 378.403508 1002.748961 381.596918 
C 1002.748961 384.790328 1003.481707 387.853374 1004.785819 390.111456 
C 1006.08993 392.369538 1007.858934 393.638293 1009.703227 393.638293 
L 1009.703227 393.638293 
z
" style="fill:none;stroke:#cc00ff;stroke-linejoin:miter;stroke-width:5.0;"/>
   </g>
   <g id="patch_13">
    <path clip-path="url(#pa966751d28)" d="M 510.750394 393.638293 
C 512.594686 393.638293 514.36369 392.369538 515.667802 390.111456 
C 516.971913 387.853374 517.704659 384.790328 517.704659 381.596918 
C 517.704659 378.403508 516.971913 375.340462 515.667802 373.08238 
C 514.36369 370.824298 512.594686 369.555542 510.750394 369.555542 
C 508.906101 369.555542 507.137097 370.824298 505.832985 373.08238 
C 504.528874 375.340462 503.796128 378.403508 503.796128 381.596918 
C 503.796128 384.790328 504.528874 387.853374 505.832985 390.111456 
C 507.137097 392.369538 508.906101 393.638293 510.750394 393.638293 
L 510.750394 393.638293 
z
" style="fill:none;stroke:#000000;stroke-linejoin:miter;stroke-width:5.0;"/>
   </g>
   <g id="patch_14">
    <path clip-path="url(#pa966751d28)" d="M 931.852061 393.638293 
C 933.696353 393.638293 935.465357 392.369538 936.769469 390.111456 
C 938.073581 387.853374 938.806326 384.790328 938.806326 381.596918 
C 938.806326 378.403508 938.073581 375.340462 936.769469 373.08238 
C 935.465357 370.824298 933.696353 369.555542 931.852061 369.555542 
C 930.007768 369.555542 928.238765 370.824298 926.934653 373.08238 
C 925.630541 375.340462 924.897796 378.403508 924.897796 381.596918 
C 924.897796 384.790328 925.630541 387.853374 926.934653 390.111456 
C 928.238765 392.369538 930.007768 393.638293 931.852061 393.638293 
L 931.852061 393.638293 
z
" style="fill:none;stroke:#000000;stroke-linejoin:miter;stroke-width:5.0;"/>
   </g>
   <g id="legend_1">
    <g id="patch_15">
     <path d="M 190.955232 310.773547 
L 413.196978 310.773547 
L 413.196978 77.998129 
L 190.955232 77.998129 
z
" style="fill:#4c4c4c;opacity:0.5;stroke:#4c4c4c;stroke-linejoin:miter;"/>
    </g>
    <g id="patch_16">
     <path d="M 188.955232 308.773547 
L 411.196978 308.773547 
L 411.196978 75.998129 
L 188.955232 75.998129 
z
" style="fill:#ffffff;stroke:#000000;stroke-linejoin:miter;"/>
    </g>
    <g id="line2d_97">
     <path d="M 224.955232 114.39141 
L 202.955232 114.39141 
" style="fill:none;stroke:#00ff66;stroke-linecap:square;stroke-width:5.0;"/>
    </g>
    <g id="line2d_98"/>
    <g id="text_13">
     <!-- $a = -2.0$ -->
     <defs>
      <path d="M 41.703125 15.453125 
L 39.90625 15.453125 
C 38.90625 8.375 38.09375 7.171875 37.703125 6.5625 
C 37.203125 5.765625 30 5.765625 28.59375 5.765625 
L 9.40625 5.765625 
C 13 9.671875 20 16.75 28.5 24.953125 
C 34.59375 30.734375 41.703125 37.53125 41.703125 47.421875 
C 41.703125 59.21875 32.296875 66 21.796875 66 
C 10.796875 66 4.09375 56.3125 4.09375 47.34375 
C 4.09375 43.4375 7 42.9375 8.203125 42.9375 
C 9.203125 42.9375 12.203125 43.546875 12.203125 47.03125 
C 12.203125 50.109375 9.59375 51 8.203125 51 
C 7.59375 51 7 50.90625 6.59375 50.703125 
C 8.5 59.21875 14.296875 63.40625 20.40625 63.40625 
C 29.09375 63.40625 34.796875 56.515625 34.796875 47.421875 
C 34.796875 38.734375 29.703125 31.25 24 24.75 
L 4.09375 2.28125 
L 4.09375 0 
L 39.296875 0 
z
" id="CMR17-50"/>
      <path d="M 42 31.640625 
C 42 37.75 41.90625 48.125 37.703125 56.109375 
C 34 63.109375 28.09375 65.59375 22.90625 65.59375 
C 18.09375 65.59375 12 63.40625 8.203125 56.203125 
C 4.203125 48.71875 3.796875 39.4375 3.796875 31.640625 
C 3.796875 25.953125 3.90625 17.28125 7 9.671875 
C 11.296875 -0.609375 19 -2 22.90625 -2 
C 27.5 -2 34.5 -0.109375 38.59375 9.375 
C 41.59375 16.28125 42 24.359375 42 31.640625 
M 22.90625 -0.40625 
C 16.5 -0.40625 12.703125 5.078125 11.296875 12.6875 
C 10.203125 18.5625 10.203125 27.15625 10.203125 32.75 
C 10.203125 40.4375 10.203125 46.828125 11.5 52.921875 
C 13.40625 61.390625 19 64 22.90625 64 
C 27 64 32.296875 61.296875 34.203125 53.125 
C 35.5 47.4375 35.59375 40.734375 35.59375 32.75 
C 35.59375 26.25 35.59375 18.265625 34.40625 12.375 
C 32.296875 1.484375 26.40625 -0.40625 22.90625 -0.40625 
" id="CMR17-48"/>
     </defs>
     <g transform="translate(234.955231845 128.391409898)scale(0.4 -0.4)">
      <use transform="scale(0.996264009963)" xlink:href="#CMMI12-97"/>
      <use transform="translate(78.8818663411 0.0)scale(0.996264009963)" xlink:href="#CMR17-61"/>
      <use transform="translate(178.270663479 0.0)scale(0.996264009963)" xlink:href="#CMSY10-0"/>
      <use transform="translate(255.758131129 0.0)scale(0.996264009963)" xlink:href="#CMR17-50"/>
      <use transform="translate(301.448608246 0.0)scale(0.996264009963)" xlink:href="#CMMI12-58"/>
      <use transform="translate(328.545785336 0.0)scale(0.996264009963)" xlink:href="#CMR17-48"/>
     </g>
    </g>
    <g id="line2d_99">
     <path d="M 224.955232 152.072637 
L 202.955232 152.072637 
" style="fill:none;stroke:#0066ff;stroke-linecap:square;stroke-width:5.0;"/>
    </g>
    <g id="line2d_100"/>
    <g id="text_14">
     <!-- $a = 0.00$ -->
     <g transform="translate(234.955231845 166.072636548)scale(0.4 -0.4)">
      <use transform="scale(0.996264009963)" xlink:href="#CMMI12-97"/>
      <use transform="translate(78.8818663411 0.0)scale(0.996264009963)" xlink:href="#CMR17-61"/>
      <use transform="translate(178.270663479 0.0)scale(0.996264009963)" xlink:href="#CMR17-48"/>
      <use transform="translate(223.961140596 0.0)scale(0.996264009963)" xlink:href="#CMMI12-58"/>
      <use transform="translate(251.058317686 0.0)scale(0.996264009963)" xlink:href="#CMR17-48"/>
      <use transform="translate(296.748794803 0.0)scale(0.996264009963)" xlink:href="#CMR17-48"/>
     </g>
    </g>
    <g id="line2d_101">
     <path d="M 224.955232 189.753863 
L 202.955232 189.753863 
" style="fill:none;stroke:#cc00ff;stroke-linecap:square;stroke-width:5.0;"/>
    </g>
    <g id="line2d_102"/>
    <g id="text_15">
     <!-- $a = 2.0$ -->
     <g transform="translate(234.955231845 203.753863199)scale(0.4 -0.4)">
      <use transform="scale(0.996264009963)" xlink:href="#CMMI12-97"/>
      <use transform="translate(78.8818663411 0.0)scale(0.996264009963)" xlink:href="#CMR17-61"/>
      <use transform="translate(178.270663479 0.0)scale(0.996264009963)" xlink:href="#CMR17-50"/>
      <use transform="translate(223.961140596 0.0)scale(0.996264009963)" xlink:href="#CMMI12-58"/>
      <use transform="translate(251.058317686 0.0)scale(0.996264009963)" xlink:href="#CMR17-48"/>
     </g>
    </g>
    <g id="line2d_103">
     <path d="M 224.955232 261.86851 
L 202.955232 261.86851 
" style="fill:none;stroke:#000000;stroke-linecap:square;stroke-width:5.0;"/>
    </g>
    <g id="line2d_104"/>
    <g id="text_16">
     <!-- $a = \sqrt{\frac{4\,b^3}{27}}$ -->
     <defs>
      <path d="M 46.40625 -161 
L 24.90625 -86 
L 11 -102.296875 
L 12.59375 -103.796875 
L 19.40625 -95.796875 
L 42.40625 -176 
C 45.703125 -176 45.796875 -176 46.59375 -173.59375 
L 101.5 0 
C 102 1.5 102 1.90625 102 2 
C 102 3.09375 101.203125 4 100 4 
C 98.5 4 98.09375 2.703125 97.703125 1.40625 
z
" id="CMEX10-113"/>
      <path d="M 33.59375 64.40625 
C 33.59375 66.5 33.5 66.5 31.703125 66.5 
L 2 19.59375 
L 2 17 
L 27.796875 17 
L 27.796875 7.140625 
C 27.796875 3.5 27.59375 2.5 20.59375 2.5 
L 18.703125 2.5 
L 18.703125 0 
C 21.90625 0 27.296875 0 30.703125 0 
C 34.09375 0 39.5 0 42.703125 0 
L 42.703125 2.5 
L 40.796875 2.5 
C 33.796875 2.5 33.59375 3.5 33.59375 7.140625 
L 33.59375 17 
L 43.796875 17 
L 43.796875 19.59375 
L 33.59375 19.59375 
z
M 28.09375 57.859375 
L 28.09375 19.59375 
L 4 19.59375 
z
" id="CMR17-52"/>
      <path d="M 45.09375 61.578125 
L 45.09375 63.765625 
L 21.59375 63.765625 
C 9.90625 63.765625 9.703125 65.078125 9.296875 67 
L 7.5 67 
L 4.59375 48.34375 
L 6.40625 48.34375 
C 6.703125 50.234375 7.40625 55.3125 8.59375 57.203125 
C 9.203125 58 16.59375 58 18.296875 58 
L 40.296875 58 
L 29.203125 41.578125 
C 21.796875 30.53125 16.703125 15.609375 16.703125 2.578125 
C 16.703125 1.390625 16.703125 -2 20.296875 -2 
C 23.90625 -2 23.90625 1.390625 23.90625 2.671875 
L 23.90625 7.265625 
C 23.90625 23.5625 26.703125 34.3125 31.296875 41.1875 
z
" id="CMR17-55"/>
     </defs>
     <g transform="translate(234.955231845 275.868510298)scale(0.4 -0.4)">
      <use transform="translate(0.0 34.3552528847)scale(0.996264009963)" xlink:href="#CMMI12-97"/>
      <use transform="translate(78.8818663411 34.3552528847)scale(0.996264009963)" xlink:href="#CMR17-61"/>
      <use transform="translate(178.270663479 153.081811736)scale(0.996264009963)" xlink:href="#CMEX10-113"/>
      <use transform="translate(279.092851879 73.5813544666)scale(0.697381766617)" xlink:href="#CMR17-52"/>
      <use transform="translate(322.699058219 73.5813544666)scale(0.697381766617)" xlink:href="#CMMI12-98"/>
      <use transform="translate(351.732045479 93.727927012)scale(0.498132004981)" xlink:href="#CMR17-51"/>
      <use transform="translate(295.100951996 0.0)scale(0.697381766617)" xlink:href="#CMR17-50"/>
      <use transform="translate(327.084133961 0.0)scale(0.697381766617)" xlink:href="#CMR17-55"/>
      <path d="M 277.897338 153.081812 
L 376.27093 153.081812 
L 376.27093 157.066761 
L 277.897338 157.066761 
L 277.897338 153.081812 
z
"/>
      <path d="M 279.092852 57.269386 
L 375.075416 57.269386 
L 375.075416 61.254336 
L 279.092852 61.254336 
L 279.092852 57.269386 
z
"/>
     </g>
    </g>
   </g>
  </g>
 </g>
 <defs>
  <clipPath id="pa966751d28">
   <rect height="651.197577882" width="964.324768155" x="168.955231845" y="55.998128843"/>
  </clipPath>
 </defs>
</svg>
